<?xml version="1.0" encoding="utf-8"?>
<!-- Generator: Adobe Illustrator 15.0.2, SVG Export Plug-In . SVG Version: 6.00 Build 0)  -->
<!DOCTYPE svg PUBLIC "-//W3C//DTD SVG 1.1//EN" "http://www.w3.org/Graphics/SVG/1.1/DTD/svg11.dtd">
<svg xmlns="http://www.w3.org/2000/svg" xmlns:xlink="http://www.w3.org/1999/xlink" version="1.1" id="Layer_1" x="0px" y="0px" width="998px" height="506.975px" viewBox="0 0 998 506.975" xml:space="preserve">
<path id="Continent" fill="#35A994" d="M525.693,120.752c-0.019-0.01-0.029-0.021-0.047-0.031c0,0.01-0.019,0.01-0.021,0.021  l-0.151-0.025c-0.104,0-0.252-0.025-0.682-0.092c-2.587,0-4.328,2.17-4.328,5.404c0,2.063,5.671,5.813,8.792,5.813  c2.649,0,5.819-4.933,5.819-6.876c0-0.47-0.68-2.012-1.58-2.012c-0.345,0-0.755,0.217-1.188,0.449  c-0.432,0.236-0.873,0.477-1.244,0.477c-0.291,0-0.69-0.132-0.967-1.343c-1.562,0-2.957-0.931-4.182-1.754L525.693,120.752z   M471,466.451v-0.274c0,0-0.146,0-0.153,0.003l-0.068-0.096c-1.43,0.323-2.603,0.465-3.729,0.465c-1.033,0-2.271-0.128-3.623-0.327  c-0.089-0.019-0.425-0.021-0.425-0.045v0.018c0-0.012,0.094-0.012,0.054-0.018c0,0.703,0.766,2.001,1.779,2.313  c-0.229,0.88-0.771,1.354-1.385,1.854c-0.562,0.455-1.119,0.926-1.512,1.838l1.113,1.323l0.072-0.033  c1.667-0.771,2.886-1.793,4.062-2.772c1.111-0.936,2.306-1.812,3.771-2.604L471,466.451z M384.508,397.043  c0-2.188-1.102-3.492-2.756-3.492c-1.311,0-2.752,5.778-2.752,6.456v2.771c0,0.896,1.325,2.621,2.662,2.621h1.998l-0.003-6.208  c0.062-0.188,0.175-0.263,0.288-0.446C384.209,398.316,384.508,397.941,384.508,397.043z M612.405,152.23  c-0.738-0.209-1.466-0.31-2.286-0.31c-0.57,0-1.11,0.047-1.658,0.093c-0.538,0.047-1.081,0.096-1.646,0.096  c-0.81,0-1.523-0.099-2.253-0.307c-3.35-1.042-9.898-6.926-11.863-10.166c-3.577-1.627-6.851-2.742-10.021-3.41l-8.048,1.068  c-2.062,0-3.29-0.805-4.586-1.654c-1.312-0.861-2.672-1.748-4.95-1.748c-1.205,0-2.011,0.586-2.861,1.208  c-0.554,0.4-1.121,0.811-1.812,1.126l-1.388,0.096l0.019-1.135c0.041-1.428,0.067-2.658-0.438-4.189  c-0.277-1.115-1.158-1.361-2.182-1.643c-0.593-0.165-1.265-0.35-1.893-0.74c-3.034-1.873-10.515-5.744-14.256-5.744  c-3.261,0-5.759,4.047-7.771,7.299l-0.507,0.817c-0.584,0.96-1.384,2.276-2.121,2.276c-0.532,0-0.958-1.611-1.058-2.338l-4.99,0.075  c-0.464-2.318-1.663-3.938-3.669-4.945c-0.249-0.1-0.542-0.164-0.847-0.229c-1.019-0.224-2.062-0.454-2.062-2.009  c0-4.277,2.766-6.58,5.689-9.016c1.345-1.123,2.738-2.284,3.854-3.709c0-1.219-0.871-1.771-1.795-2.359  c-0.769-0.49-1.562-0.992-2.024-1.926c-1.195-2.612-3.812-9.16-3.893-11.705c-1.67-0.399-3.572-2.18-5.409-3.9  c-2.078-1.943-4.229-3.955-6.062-3.955l-1.17,0.096l-0.104-0.521c-1.771,0-4.51-1.275-6.146-2.008l-0.851-0.414h-5.488  c-1.258,0-2.657-0.34-4.104-0.496c-4.42-0.479-9.354-0.99-11.356-4.218c-0.032-0.06-0.056-0.117-0.09-0.181  c-0.237-0.419-0.449-0.859-0.589-1.376c-1.039,0-2.69-0.427-3.097-1.234c-1.621-3.382-3.032-4.386-4.812-5.657  c-1.036-0.744-2.222-1.587-3.754-3.079l-5.847,0.066c-0.247-0.802-0.367-1.639-0.479-2.446c-0.284-1.947-0.553-3.787-2.551-4.396  c-0.642-0.215-1.34-0.414-2.052-0.62c-2.742-0.782-5.867-1.669-7.019-3.952L448,57.766v-0.557c0,0.17,0.712,0.215,1.009,0.215  c0.537,0,1.074-0.162,1.541-0.399c0.24-0.096,0.48-0.203,0.662-0.341c0,0-0.057-0.01-0.104-0.018  c0.033-0.033,0.095,0.177,0.127,0.142c-0.04-0.007-3.762-0.409-5.933-0.409h-0.079c-0.259,0-1.277,0.059-2.271,0.164  c-1.823,0.195-2.938,0.23-3.071,0.615c-1.125,2.25-2.901,2.416-5.599,2.747l-0.881-0.038c-0.977,0-4.149-0.488-4.242-2.488h-11.44  c-1.211,0-2.465-1.522-2.541-3.689c-3.64-0.732-7.922-1.922-8.809-5.189l-3.818,0.08c0,1.379,0.899,1.762,1.854,2.152  c0.751,0.309,1.503,0.656,2.015,1.396c0.073,0.131,0.149,0.253,0.209,0.405l-5.09,0.019c-0.595,0.394-1.35,0.626-2.078,0.854  c-1.604,0.496-3.265,1.01-3.265,3.257c0,1.304,0.647,2.341,1.284,3.339c0.614,0.979,1.254,1.992,1.254,3.24  c0,0.801-1.143,3.348-1.913,3.348c-2.271,0-3.408-4.057-3.408-6.33c0-1.15,0.482-2.971,0.992-4.897  c0.328-1.237,0.672-2.534,0.828-3.692c0.926,0,2.207-0.916,2.207-2.635c0-0.207-0.854-2.643-2.002-2.643  c-1.535,0-2.426,0.947-3.355,1.951c-0.777,0.831-1.582,1.692-2.818,2.076c-2.366,0.758-4.358,1.348-6.284,1.918  c-2.392,0.709-4.688,1.391-7.5,2.323c-2.632,0.808-4.703,1.447-5.788,4.948c-0.1,0.384-0.183,0.816-0.271,1.271  c-0.308,1.564-0.649,3.339-1.604,3.969c-0.262,0.173-0.553,0.335-0.854,0.504c-1.02,0.569-2.104,1.233-2.375,2.413  c-0.026,0.098-0.034,0.215-0.054,0.324c-0.01,0.121-0.066,0.215-0.056,0.347c-0.483,0-1.367,0.688-1.367,1.169l0.066,1.171  l-0.604,0.186c-0.279,0.085-0.418,0.132-0.561,0.132c-0.146,0-0.308-0.047-0.632-0.132l-0.804-0.144  c-0.374,0.601-1.178,1.163-2.029,1.754c-1.539,1.08-3.286,2.301-3.286,4.24c0,1.871,0.892,2.684,1.827,3.543  c0.979,0.893,1.989,1.819,1.989,4.097c0,0.993-0.239,1.7-0.491,2.445c-0.277,0.837-0.568,1.704-0.568,3.054  c0,0.869,0.321,1.635,0.643,2.381c0.311,0.721,0.628,1.468,0.628,2.295l0.014,1.016l-0.854,1.734c0,0.682,1.083,1.777,2.122,2.105  c-0.688,3.083-2.604,4.037-4.626,5.041c-1.685,0.834-3.415,1.695-4.487,3.832c-0.264,0.529-0.521,1.113-0.791,1.722  c-1.445,3.275-3.252,7.353-8.126,7.456c0.529,5.508-1.107,7.424-2.554,9.114c-0.979,1.14-1.896,2.218-1.896,4.229  c0,4.852,1.175,7.312,3.487,7.312c0.545,0,0.88-0.142,1.146-0.258c0.198-0.087,0.366-0.158,0.578-0.158  c0.342,0,0.771,0.189,1.361,0.505c-0.466,1.877-1.854,2.964-3.333,4.12c-1.167,0.92-2.378,1.87-3.212,3.263  c-0.805,0.801-2.362,3.792-2.362,6.429c0,3.789,2.869,8.002,5.33,10.457c0.38,0.387,0.927,0.52,1.453,0.652  c0.701,0.171,1.363,0.337,1.704,1.025c0.192,0.447,0.363,1.028,0.556,1.668c0.434,1.443,0.962,3.242,2.015,4.291  c0.271,0.278,0.683,0.367,1.109,0.461c0.622,0.139,1.271,0.28,1.629,0.991c1.936,4.087,3.188,6.833,4.658,11.655  c0.735,2.316,2.125,4.383,3.593,6.574c1.462,2.185,2.979,4.438,3.829,6.995c0.367,1.285,1.167,2.343,1.942,3.364  c1.068,1.416,2.082,2.754,2.082,4.665c0,0.656-0.06,1.297-0.109,1.914c-0.159,1.771-0.306,3.445,1.006,4.752  c3.802,3.791,6.792,6.79,12.746,8.699c2.878,0.82,4.14,1.613,6.744,4.22c1.468,1.472,2.921,1.854,4.603,2.3  c1.023,0.268,2.075,0.547,3.269,1.103c4.312,2.166,7.364,5.575,9.07,10.127c0.609,2.23,1.693,14.706,1.693,16.945  c0,1.737-0.393,4.104-0.883,6.394c-0.469,2.185-0.796,4.246-0.796,5.699v9.297c0,0.67-0.59,1.502-0.795,2.389  c-0.444,1.887-1.205,4.025-1.205,5.061v1.91c0,3.479-0.99,6.484-2.188,9.658c-1.253,3.316-2.479,6.754-2.479,10.913  c0,1.304-0.309,2.521-0.672,3.812c-0.561,1.98-1.121,4.035-0.336,6.365l0.224,15.885c-0.564,2.282-0.883,4.271-1.188,6.196  c-0.384,2.406-0.746,4.679-1.562,7.371c-0.104,0.407-0.422,0.542-0.819,0.714c-0.354,0.153-0.765,0.326-1.075,0.73  c-0.591,0.834-0.986,2.104-1.363,3.35c-0.304,1-0.596,1.948-0.973,2.6c-2.416,3.767-4.892,8.136-4.892,12.688  c0,0.076,0.055,7.403,1.093,7.403h0.007c0.013,0,1.231,1.132,1.231,2.354c0,0.536-0.526,1.209-2.117,1.291  c-0.259,1.541-0.653,2.757-1.037,3.915c-0.562,1.68-1.093,3.273-1.093,5.682c0,2.438,1.331,7.312,3.071,7.312  c0.873,0,1.323-0.547,1.809-1.128c0.382-0.462,0.772-0.938,1.4-1.215c0.181-0.062,0.377-0.087,0.606-0.087  c0.208,0,0.42,0.023,0.629,0.049c0.096,0.011,0.188,0.021,0.273,0.021c0.11,0,0.203-0.018,0.271-0.068l0.003,3.18l-6.906,31.306  c-1.458,0-1.896-0.842-2.359-1.729c-0.512-0.979-1.193-2.092-3.244-2.092c-1.109,0-2.318,1.091-2.318,2.428v2.14  c0,1.143,1.008,2.521,1.69,3.854c0.708,1.396,1.427,2.711,1.427,3.559c0,1.604-1.093,2.768-2.277,3.999  c-1.265,1.317-2.562,2.688-2.562,4.694c0,1.696,0.473,4.229,1.21,6.916c0.854,3.095,1.512,6.305,1.512,8.769v2.978  c0,2.201,1.638,3.162,2.995,4.09c1.456,0.995,3.079,2.024,3.079,4.606c0,1.142-0.633,2.28-1.246,3.285l-0.175,0.347l0.604,0.424  c0.396,0.291,0.745,0.549,1.146,0.604c-0.104,0.882-1.062,1.302-1.99,1.704c-1.001,0.436-2.031,0.879-2.031,1.911  c0,0.336,0.57,0.896,1.375,1.649l0.562,0.542c0.421,0.415,0.812,0.865,1.197,1.281c2.119,2.271,4.117,4.438,8.909,4.438h0.257  c0.168,1,0.562,2.812,2.43,2.812l3.937-0.105c0,3.044,2.87,3.71,5.646,4.354c0.785,0.188,1.562,0.364,2.271,0.603  c1.446,0.453,1.938,1.548,2.452,2.938c0.662,1.781,1.347,3.402,4.15,3.402h5.933c0.344,0,0.73,0.199,1.104-0.017  c0.354-0.201,0.724,0.017,1.019,0.017h2.336c0.854,0,2.324-0.968,4.017-1.847c2.158-1.118,4.606-2.485,6.373-2.485  c0.325,0,0.646-0.015,0.958,0.022c0.312,0.041,0.605,0.056,0.896,0.056c0.461,0,1.04-0.12,1.482-0.854  c0.021-0.02,0.037-0.026,0.059-0.052c-0.01-0.004-0.015-0.007-0.018-0.01c0.021-0.03,0.036-0.05,0.055-0.081  c-1.189-0.577-2.393-1.115-3.572-1.651c-4.539-2.052-8.832-3.989-12.516-7.676c-1.203-1.195-1.834-3.755-2.498-6.461  c-0.847-3.436-1.721-6.982-3.909-8.197c-1.256-0.208-3.109-2.759-3.109-4.775c0-4.066,1.106-6.989,3.588-9.477  c0.798-0.799,1.849-1.021,2.958-1.261c1.465-0.308,2.975-0.629,3.848-2.363c0.558-1.209,0.757-2.438,0.932-3.521  c0.234-1.468,0.439-2.729,1.379-3.675c0.896-0.891,2.032-1.583,3.124-2.252c2.545-1.558,5.175-3.164,5.175-7.344  c0-3.167-2.146-4.158-4.421-5.208c-2.516-1.166-5.116-2.366-5.116-6.678c0-3.788,3.157-6.556,6.271-7.327l0.509-0.064  c1.714-0.213,4.91-0.604,5.31-2.771c0.255-1.072,0.459-2.081,0.652-3.045c0.559-2.768,1.043-5.104,2.373-7.415  c0.521-0.837,1.145-1.665,1.963-2.487c-0.041-0.019-0.08-0.037-0.119-0.055c0.023-0.021,0.039-0.046,0.062-0.072  c-0.953-0.375-1.992-0.854-2.207-2.627c-0.011-0.119-0.048-0.194-0.052-0.328c0.979,0.004,1.683,0.425,2.427,0.87  c0.844,0.507,1.718,1.03,3.073,1.03c0.521,0,2.218-1.547,2.218-2.85c0-0.77-0.505-1.112-1.09-1.521  c-0.273-0.188-0.571-0.396-0.941-0.692c-0.248,0.08-0.563,0.3-0.933,0.55c-0.609,0.417-1.363,0.938-2.016,0.938  c-1.796,0-4.358-5.428-4.358-8.389c0-0.947,0.553-2.451,2.031-2.451c2.062,0,3.296,0.703,4.594,1.442  c1.311,0.748,2.668,1.521,4.949,1.521c1.562,0,4.979-1.502,4.979-2.634l-0.015-2.074c0.644-1.284,0.623-3.149,0.601-5.127  c-0.03-2.647-0.059-5.387,1.504-6.944c0.514-0.513,1.457-0.752,2.965-0.752c1.015,0,2.157,0.104,3.318,0.215  c1.201,0.105,2.419,0.224,3.523,0.224c1.018,0,1.812-0.099,2.446-0.291c1.809-0.604,3.521-0.854,5.181-1.103  c2.914-0.428,5.669-0.83,8.005-3.166l0.707-0.705c1.757-1.74,3.146-3.11,4.836-5.762c1.065-1.701,1.065-3.104,1.065-5.691  c0-1.271-0.944-1.862-1.949-2.487c-0.883-0.552-1.791-1.119-2.087-2.201c-0.253-0.767-0.432-1.515-0.604-2.228  c-0.392-1.641-0.762-3.188-1.969-4.391c-0.188-0.189-0.562-0.4-1.035-0.668c-1.158-0.654-2.754-1.55-2.754-2.863  c0-0.559,0.97-0.976,1.6-0.976c1.601,0,3.109,0.663,4.573,1.304c1.469,0.639,2.854,1.244,4.334,1.244c0.58,0,1.7,0.375,3.002,0.803  c2.03,0.678,4.557,1.519,6.61,1.519c7.275,0,10.059-5.821,12.745-11.446c0.95-2.009,1.855-3.902,2.959-5.55  c1.783-2.731,3.689-4.229,5.706-5.812c1.981-1.561,4.03-3.172,5.958-6.062c0.927-1.499,1.278-2.604,1.657-3.773  c0.314-0.967,0.635-1.971,1.313-3.022c1.942-4.084,4.059-7.938,8.496-10.22l-0.017-11.387c-0.046-3.283-0.078-5.873,2.318-8.271  c0.668-0.675,1.509-1.075,2.397-1.5c1.348-0.643,2.732-1.309,3.763-2.979c2.018-3.135,4.468-3.756,7.058-4.424  c2.333-0.596,4.742-1.216,7.141-3.613c0.229-0.226,0.396-0.496,0.581-0.787c0.325-0.521,0.7-1.116,1.512-1.523  c2.521-1.171,5.116-1.27,7.775-1.27l2.57,0.013c3.678,0,8.16-3.048,9.42-5.569c0.176-0.356,0.247-0.979,0.323-1.705  c0.107-1.037,0.242-2.21,0.729-2.938c2.12-2.828,3.299-4.715,4.791-7.107c0.748-1.194,1.569-2.517,2.645-4.157  c0.438-0.878,1.065-5.151,1.065-7.251c0-1.502,1.541-3.366,2.456-4.475l0.301-0.369c0.064-0.217,0.221-0.466,0.377-0.728  c0.322-0.534,0.688-1.137,0.688-1.852c0-1.251,0.304-2.693,0.632-4.222c0.381-1.788,0.817-3.815,0.817-5.89  c0-1.705-0.358-3.628-0.698-5.486c-0.678-3.68-1.38-7.485,0.705-9.573c0.819-0.821,1.655-1.373,2.534-1.959  c1.351-0.896,2.747-1.826,4.049-3.775c0.632-0.938,1.172-1.543,1.715-2.141c0.56-0.615,1.112-1.23,1.755-2.201  c1.53-2.322,3.291-4.348,4.995-6.303c4.817-5.536,9.362-10.762,9.362-22.283C617.779,156.764,615.973,153.308,612.405,152.23z   M479,467.398c0,0-0.008,0-0.016,0l-0.006-0.182c-0.421,0.073-0.741,0.059-1.065,0.059c-0.271,0-0.536-0.037-0.847-0.058  c-0.474-0.025-1.047-0.069-1.89-0.069c-0.776,0-1.382,0.487-1.972,0.975c-0.583,0.479-1.138,0.931-1.84,0.931  c-0.428,0-0.579,0.492-0.741,1.021c-0.219,0.711-0.588,1.521-1.602,1.616L469,473.225v1.02c0-0.021,0.162-0.021,0.181-0.029  l0.065,0.104c0.109-0.113,0.271-0.162,0.444-0.162c0.165,0,0.359,0.049,0.538,0.095c0.173,0.049,0.342,0.094,0.488,0.094  c1.574,0,2.641-0.906,2.971-2.553c1.536,0,5.399-0.784,5.399-2.635l-0.09-1.716L479,467.398L479,467.398z"/>
<g id="Brasil">
	<path fill="#E2723A" d="M612.405,152.23c-0.738-0.209-1.466-0.31-2.286-0.31c-0.57,0-1.11,0.047-1.658,0.093   c-0.538,0.047-1.081,0.096-1.646,0.096c-0.81,0-1.523-0.099-2.253-0.307c-3.35-1.042-9.898-6.926-11.863-10.166   c-3.577-1.627-6.851-2.742-10.021-3.41l-8.048,1.068c-2.062,0-3.29-0.805-4.586-1.654c-1.312-0.861-2.672-1.748-4.95-1.748   c-1.205,0-2.011,0.586-2.861,1.208c-0.554,0.4-1.121,0.811-1.812,1.126l-1.388,0.096l0.019-1.135   c0.041-1.428,0.067-2.658-0.438-4.189c-0.277-1.115-1.158-1.361-2.182-1.643c-0.593-0.165-1.265-0.35-1.893-0.74   c-3.034-1.873-10.515-5.744-14.256-5.744c-3.261,0-5.759,4.047-7.771,7.299l-0.507,0.817c-0.584,0.96-1.384,2.276-2.121,2.276   c-0.532,0-0.958-1.611-1.058-2.338l-4.99,0.075c-0.464-2.318-1.663-3.938-3.669-4.945c-0.249-0.1-0.542-0.164-0.847-0.229   c-1.019-0.224-2.062-0.454-2.062-2.009c0-4.277,2.766-6.58,5.689-9.016c1.345-1.123,2.738-2.284,3.854-3.709   c0-1.219-0.871-1.771-1.795-2.359c-0.769-0.49-1.562-0.992-2.024-1.926c-1.195-2.612-3.812-9.16-3.893-11.705   c-1.012-0.242-2.105-0.994-3.226-1.928c-0.861,1.28-1.678,2.596-2.495,3.85c-1.011,1.549-2.375,2.875-2.875,4.625   c-0.256,0.896-0.501,1.837-1,2.625c-0.558,0.881-0.958,1.625-2.25,1.812c-1.812,0.264-1.833-0.771-3.5-0.938   c-2.488-0.248-2.395,1.209-3.75,1.209c-2,0-3.468-2.424-4.875-2.646c-1.396-0.22-1.805,0.676-3.166,0.938   c-0.92,0.176-2.334-1.188-3.459,0.312c-0.479,0.831,1.572,2.855,0.875,3c-1.624,0.336-3.334-0.021-4.666-0.021   c-0.88,0-2.562-0.983-3.146-0.604c-0.409,0.084-0.613,0.464-0.858,0.671c-0.217,0.183-0.41,0.388-0.604,0.593   c-0.071,0.037-0.144,0.078-0.224,0.111c-0.398,0.165-0.023,0.322-0.459,0.521c-0.379-0.012-1.567,0.064-1.979,0.078   c-0.394,0.013-0.812,0.344-0.772,0.775c0.002,0.028-0.006,0.043-0.007,0.067c-0.18,0.077-0.358,0.151-0.538,0.225   c-0.258-0.081-0.546-0.231-0.716-0.31c-0.351-0.158-0.921-0.066-0.987,0.401c-0.034,0.238-0.291,1.075-0.373,1.22   c-1.668,0.449-3.062,0.248-4.333-0.791c-0.823-0.674-2.958-1.625-3-5.25c-0.014-1.179-1.167-0.083-1.271-2.312   c-0.117-2.525,0.027-3.716,0.812-5.688c0.655-1.651,1.797-1.24,1.09-3.209c-0.854-2.386-1.09-2.322-3.39-2.371   c0.916-1.195,1.252-1.478,1.175-3.076c-0.039-0.806-0.666-1.32-2.062-1.281c-1.887,0.052-1.646,0.903-1.896,1.854   s-0.997,2.001-2.542,2.334c-2.708,0.584-2.062,1.02-4.562,1.938c-2.438,0.896-4.47,0.201-5.312,0.771   c-1.559,1.053,0.458,2.833-1.583,2.666c-1.037-0.085-1.188-1.616-1.833-1.834c-1.977-0.666-2.667,1.375-4.146,0.271   c-2.481-1.854-2.436-0.834-3.5-1.312c-1.375-1.5-1.944-0.865-1.625-0.062c0.36,0.906,2.422,2.939,3.312,3.25   c1.438,0.5-1.75,1.25,1.25,4.688c0.812,0.932-0.938,2.688,1.327,2.238c0.887-0.177,2.732-0.176,2.732,1.012   c-0.5,2.25-3.44,1.123-4.049,2.254c-0.457,0.85,0.111,1.746-1.139,2.184c-2.795,0.979-4.312,1.474-5.208,2.312   c-1.343,1.257-1.316,2.7-2.292,3c-0.577,0.178-0.388-2.435-1.211-1.995c-5.852,3.12-4.09-0.202-5.941-0.643   c-4.63-1.103-1.786-1.079-2.658-3.175c-1.562-3.75-0.929-4.057-3.875-2.25c-0.482,0.297-1.032,1.068-1.29,0.73   c-1.646-2.168-2.056,0.801-2.056,0.801s-9.562-1.562-9.5,0.406c0.031,0.975-0.212,2.856-0.028,3.719   c0.142,0.672,2.604,0.174,3.75,0.344c0.622,0.092,0.301,0.499,0.345,1c0.125,2.812-1.293,0.301-2.095,0.75   c-1.78,1-2.854,0.535-2.944,1.035c-0.246,1.312,0.103,2.976-0.086,4.434c-0.135,1.004,2.438,1.648,2.53,2.438   c0.278,2.438,1.125,2.844,1.125,2.844s-0.874,6.703-1.625,10.375c-0.188,1.75-0.472,2.568-0.562,3.438   c-0.205,1.911-0.523,3.999-1.156,5.812c-5.344-2.906-4.562,0.25-6.404,0.25c-2.654,0-4.75,0.875-6.875,2.281   c-1.283,0.85-3.75,1.75-4.029,2.812c-0.468,1.766-0.875,2.875-2.104,4.552c-1.105,1.518,1.491,2.532,0.229,3.417   c-0.62,0.433-3.205,1.438-3.471,2.188c-0.327,0.936-0.076,1.664,0.096,2.594c-3.012,0.429-0.387,4.099,0.506,5.445   c1.542,2.332,2.404,3.189,4.119,5.398c-0.281,0.438-0.596,0.656-1.5,1.656c-0.538,0.594,2.377,0.428,3.233,0.611   c1.203,0.257,0.618-0.075,1.581,0.563c0.979,0.647,0.604,1.97,1.401,2.825c0.381,0.399,3.545,0.271,4.188,0.219   c1.412-0.117,1.076,0.129,2.062-0.5c1.562-1,2.484-1.997,3.438-2.938c0.147,2.783-0.516,6.283-0.312,9.062   c0.104,1.5,3.562,1.438,4.188-0.062c2.7-0.083,6.24-0.359,6.812,0.562c0.628,1.016,1.551,1.14,2.5,0.688   c1.312-0.625,1.703-1.313,2.375-2.75c2.188,0.562,2.005-0.512,3.75-1.25c1.625-0.688,3.817-2.706,5.25-3.375   c2.77-1.293,3.762-0.318,6.667-1.187c1.208,0.625-0.625,2.792,0.542,10.458c0.383,2.516,2.532,3.746,4.26,5.076   c1.434,1.1,3.204,1.629,5.365,1.258c1.19-0.205,1.417,1.31,2.715,1.31c1.833,0,1.938,2.153,3.188,2.335   c5.017,0.73,3.351,3.396,7.726,2.938c6.518-0.683,6.292,5.083,7.417,9.5c-4.99-0.294-1.177,0.576-0.208,2.75   c0.291,0.653-0.248,4.812,0.408,4.945c0.882,0.181,3.021-0.061,3.801,0.013c2.556,0.238,4.942-0.355,7.333,0.209   c-1.386,1.984-1.404,4.273,0.292,6.125c0.707,0.771,1.454,1.086,2.417,1.5c1.188,0.511,1.26,2.966,2.083,4.124   c-0.883,2.435-1.541,5.25-2.792,7.792c-1.248,2.538-1.046,2.087,0.792,3.366c-2.46,1.399-1.042,2.736-0.375,5.301   c0.763,2.93,0.188,4.397-0.125,7.333c0,0.002,0.066,1.317,0.063,1.33c3.028,1.887,4.419,0.321,7.478,1.045   c1.125-0.088,1.472-0.883,1.584-1.125c1.166,1.584,2.513,1.146,3.291,1.625c1.951,1.189,1.404,2.983,1.75,5.125   c0.197,1.218,0.527,3.22,0.834,4.416c0.194,0.76,0.542,1.418,1.65,0.97c1.342-0.032,2.395-0.693,3.725-0.595   c1.443,0.104,1.621,2.369,1.292,3.709c-0.513,2.084,0.354,2.776-1.521,5.984c-0.505,0.864,0.31,2.512,1.021,2.557   c1.958,0.125,2.208-1.875,3.625,1.416c1.123,2.605,1.033,4.306,0.458,7.084c-0.269,1.299-5.989,4.065-7.291,4.918   c-4.505,2.938-7.147,6.711-10.417,10.957c-1.574,2.049-2.96,2.597-4.25,4.834c-0.682,1.182-1.521,1.566-0.104,2.416   c0.543,0.318,1.036-0.002,1.475-0.268c0.453-0.271,0.287-0.923,0.713-1.232c1.133-0.834,1.143-0.283,2.062,0.562   c1.132,1.038,3.424,2.575,3.812,4.125c0.139,0.549,0.291,1.812,0.774,2.214c0.604,0.502,1.726-1.244,2.351-1.464   c1.259-0.44,1.154,1.407,2.188,2.438c0.688,0.688,1.028-0.041,1.778,0.58c1.441,1.191,2.975,2.328,4.238,3.715   c1.106,1.213,2.033,2.578,3.15,3.781c0.524,0.566,1.102,1.104,1.757,1.525c-0.4,1.152-0.579,2.377-0.704,3.587   c-0.109,1.062-0.916,4.172-0.29,5.062c0.376,0.533,1.076,0.045,1.765-0.666c0.879-1.489,1.652-3.102,2.415-4.694   c0.952-2.009,1.857-3.903,2.96-5.552c1.784-2.73,3.69-4.229,5.706-5.809c1.982-1.562,4.031-3.174,5.958-6.062   c0.926-1.499,1.279-2.604,1.658-3.775c0.314-0.965,0.634-1.97,1.313-3.022c1.942-4.084,4.059-7.938,8.493-10.217l-0.014-11.389   c-0.046-3.282-0.078-5.873,2.318-8.271c0.668-0.676,1.509-1.075,2.396-1.5c1.349-0.643,2.733-1.309,3.763-2.979   c2.019-3.134,4.469-3.756,7.059-4.423c2.333-0.597,4.742-1.216,7.141-3.614c0.229-0.225,0.396-0.495,0.58-0.786   c0.326-0.521,0.701-1.116,1.512-1.523c2.521-1.171,5.116-1.271,7.776-1.271l2.57,0.015c3.678,0,8.16-3.049,9.42-5.569   c0.176-0.359,0.247-0.981,0.323-1.706c0.106-1.036,0.241-2.21,0.729-2.937c2.12-2.828,3.299-4.715,4.791-7.107   c0.748-1.194,1.569-2.517,2.645-4.157c0.438-0.878,1.065-5.151,1.065-7.251c0-1.502,1.541-3.366,2.456-4.475l0.3-0.369   c0.065-0.217,0.222-0.466,0.377-0.728c0.323-0.534,0.688-1.137,0.688-1.852c0-1.251,0.304-2.693,0.632-4.222   c0.381-1.788,0.817-3.815,0.817-5.89c0-1.705-0.358-3.628-0.698-5.486c-0.678-3.68-1.38-7.485,0.705-9.573   c0.817-0.821,1.655-1.373,2.534-1.959c1.351-0.896,2.747-1.826,4.049-3.775c0.632-0.939,1.172-1.543,1.715-2.141   c0.558-0.615,1.112-1.23,1.755-2.201c1.53-2.322,3.291-4.348,4.995-6.303c4.817-5.536,9.362-10.762,9.362-22.283   C617.779,156.764,615.973,153.308,612.405,152.23z"/>
	<path fill="#E2723A" d="M525.693,120.752c-0.019-0.01-0.029-0.021-0.047-0.031c0,0.01-0.019,0.01-0.021,0.021l-0.151-0.025   c-0.104,0-0.252-0.025-0.682-0.092c-2.587,0-4.328,2.17-4.328,5.404c0,2.063,5.671,5.813,8.792,5.813   c2.649,0,5.819-4.933,5.819-6.876c0-0.47-0.68-2.012-1.58-2.012c-0.345,0-0.755,0.217-1.188,0.449   c-0.432,0.236-0.873,0.477-1.244,0.477c-0.291,0-0.69-0.132-0.967-1.343c-1.562,0-2.957-0.931-4.182-1.754L525.693,120.752z"/>
</g>
<g id="Bubble1">
	<g>
		<g id="Ellipse_1_1_">
			<g>
				<circle fill="#E2723A" cx="687.602" cy="110.716" r="64"/>
			</g>
		</g>
		<g id="Shape_1">
			<g>
				<polygon fill="#E2723A" points="626.755,129.868 616.002,146.397 635.673,147.765     "/>
			</g>
		</g>
	</g>
	<g>
		<path fill="#FFFFFF" d="M647,90.702c3.523,1.179,7.015,2.474,10.584,3.494c2.007,0.574,3.998,0.058,5.809-1.088    c3.688-2.332,7.485-4.444,11.605-5.925c3.659-1.316,7.107-0.945,10.288,1.35c1.016,0.735,0.979,0.746-0.113,1.378    c-3.293,1.905-6.618,3.761-9.852,5.763c-3.604,2.231-5.022,6.179-3.736,9.937c1.324,3.866,5.938,7.418,11.479,4.787    c2.739-1.303,5.52-2.538,8.278-3.8c2.577-1.177,4.626-0.798,6.649,1.221c5.178,5.169,10.353,10.341,15.536,15.507    c1.562,1.56,1.657,3.873,0.192,5.372c-1.482,1.524-3.799,1.444-5.429-0.174c-1.673-1.66-3.336-3.331-5.053-4.943    c-0.331-0.311-0.896-0.376-1.348-0.553c0.173,0.444,0.232,0.987,0.532,1.314c1.628,1.787,2.814,2.987,4.855,5.136    c1.217,1.281,1.521,2.932,0.818,4.391c-0.664,1.38-2.057,2.279-3.617,1.994c-0.905-0.166-1.863-0.673-2.551-1.299    c-2.146-1.956-4.158-4.052-6.254-6.064c-0.263-0.253-0.688-0.334-1.041-0.497c0.115,0.382,0.122,0.863,0.363,1.131    c1.65,1.829,3.345,3.621,5.038,5.411c1.218,1.286,1.562,2.763,0.941,4.209c-1.049,2.447-4.188,2.963-6.069,1.035    c-1.988-2.039-4.017-4.041-6.058-6.028c-0.221-0.212-0.637-0.221-0.958-0.323c0.079,0.363,0.042,0.833,0.26,1.071    c1.494,1.639,3.062,3.211,4.566,4.842c1.199,1.304,1.336,3.142,0.407,4.545c-1.19,1.807-3.738,2.188-5.396,0.756    c-0.724-0.625-1.364-1.346-1.997-2.064c-0.146-0.162-0.146-0.498-0.12-0.745c0.387-3.905-1.698-7.315-5.354-8.807    c-0.296-0.121-0.598-0.465-0.703-0.772c-0.864-2.467-2.465-4.22-4.884-5.241c-0.298-0.126-0.597-0.46-0.716-0.769    c-0.885-2.298-2.433-3.922-4.71-4.874c-0.305-0.127-0.625-0.447-0.74-0.751c-1.577-4.186-5.966-6.384-10.346-5.222    c-3.043,0.808-5.184,2.603-6.45,5.478c-0.081,0.184-0.512,0.381-0.697,0.322c-1.354-0.43-2.688-0.925-4.025-1.398    C647,110.106,647,100.404,647,90.702z"/>
		<path fill="#FFFFFF" d="M731.199,118.987c-2.938,0.531-5.857,1.131-8.81,1.569c-2.063,0.307-3.856-0.403-5.364-1.898    c-5.66-5.616-11.354-11.199-17.021-16.812c-1.723-1.708-3.758-2.138-5.87-1.128c-4.189,2.006-8.297,4.202-12.438,6.313    c-2.948,1.501-6.352-0.159-6.967-3.394c-0.368-1.933,0.554-3.988,2.294-4.971c6.812-3.851,13.653-7.653,20.445-11.543    c2.709-1.552,5.173-1.313,7.518,0.628c2.952,2.448,5.878,4.929,8.799,7.414c1.395,1.186,2.966,1.57,4.737,1.185    c3.979-0.868,7.964-1.743,11.942-2.609c0.237-0.052,0.486-0.054,0.729-0.079C731.199,102.104,731.199,110.545,731.199,118.987z"/>
		<path fill="#FFFFFF" d="M671.386,130.485c3.119-0.042,5.021,2.398,4.356,5.585c-0.064,0.306-0.396,0.764,0.356,0.587    c2.434-0.569,4.323,0.684,5.072,2.231c0.927,1.914,0.537,4.211-1.116,5.802c-1.732,1.671-3.857,2.373-6.254,2.037    c-2.086-0.292-3.312-2.311-2.706-4.34c0.188-0.625,0.489-1.216,0.73-1.827c0.057-0.144,0.076-0.303,0.112-0.454    c-0.152,0.013-0.312,0.015-0.465,0.042c-0.987,0.18-1.978,0.499-2.972,0.522c-2.183,0.052-3.64-1.929-3.062-4.02    c0.195-0.721,0.396-1.442,0.594-2.164c-0.713,0.17-1.425,0.354-2.143,0.509c-1.239,0.27-2.341,0.036-3.194-0.969    c-0.853-0.996-1.106-2.104-0.65-3.362c0.211-0.581,0.371-1.181,0.556-1.772c-0.602,0.128-1.204,0.247-1.804,0.389    c-2.78,0.658-4.941-1.417-4.439-4.27c0.556-3.162,2.729-5.5,5.479-5.897c3.073-0.442,5.521,2.021,4.999,5.074    c-0.104,0.612-0.022,0.767,0.618,0.678c2.905-0.404,5.055,1.628,4.896,4.59C670.3,130.501,670.3,130.501,671.386,130.485z"/>
	</g>
</g>
</svg>
