<?xml version="1.0" encoding="utf-8"?>
<!-- Generator: Adobe Illustrator 15.0.2, SVG Export Plug-In . SVG Version: 6.00 Build 0)  -->
<!DOCTYPE svg PUBLIC "-//W3C//DTD SVG 1.1//EN" "http://www.w3.org/Graphics/SVG/1.1/DTD/svg11.dtd">
<svg xmlns="http://www.w3.org/2000/svg" xmlns:xlink="http://www.w3.org/1999/xlink" version="1.1" id="Layer_1" x="0px" y="0px" width="998px" height="506.975px" viewBox="0 0 998 506.975" xml:space="preserve">
<path id="Continent" fill="#35A994" d="M525.693,120.752c-0.019-0.01-0.029-0.021-0.047-0.031c0,0.01-0.019,0.01-0.021,0.021  l-0.151-0.025c-0.104,0-0.252-0.025-0.682-0.092c-2.587,0-4.328,2.17-4.328,5.404c0,2.063,5.671,5.813,8.792,5.813  c2.649,0,5.819-4.933,5.819-6.876c0-0.47-0.68-2.012-1.58-2.012c-0.345,0-0.755,0.217-1.188,0.449  c-0.432,0.236-0.873,0.477-1.244,0.477c-0.291,0-0.69-0.132-0.967-1.343c-1.562,0-2.957-0.931-4.182-1.754L525.693,120.752z   M471,466.451v-0.274c0,0-0.146,0-0.153,0.003l-0.068-0.096c-1.43,0.323-2.603,0.465-3.729,0.465c-1.033,0-2.271-0.128-3.623-0.327  c-0.089-0.019-0.425-0.021-0.425-0.045v0.018c0-0.012,0.094-0.012,0.054-0.018c0,0.703,0.766,2.001,1.779,2.313  c-0.229,0.88-0.771,1.354-1.385,1.854c-0.562,0.455-1.119,0.926-1.512,1.838l1.113,1.323l0.072-0.033  c1.667-0.771,2.886-1.793,4.062-2.772c1.111-0.936,2.306-1.812,3.771-2.604L471,466.451z M384.508,397.043  c0-2.188-1.102-3.492-2.756-3.492c-1.311,0-2.752,5.778-2.752,6.456v2.771c0,0.896,1.325,2.621,2.662,2.621h1.998l-0.003-6.208  c0.062-0.188,0.175-0.263,0.288-0.446C384.209,398.316,384.508,397.941,384.508,397.043z M612.405,152.23  c-0.738-0.209-1.466-0.31-2.286-0.31c-0.57,0-1.11,0.047-1.658,0.093c-0.538,0.047-1.081,0.096-1.646,0.096  c-0.81,0-1.523-0.099-2.253-0.307c-3.35-1.042-9.898-6.926-11.863-10.166c-3.577-1.627-6.851-2.742-10.021-3.41l-8.048,1.068  c-2.062,0-3.29-0.805-4.586-1.654c-1.312-0.861-2.672-1.748-4.95-1.748c-1.205,0-2.011,0.586-2.861,1.208  c-0.554,0.4-1.121,0.811-1.812,1.126l-1.388,0.096l0.019-1.135c0.041-1.428,0.067-2.658-0.438-4.189  c-0.277-1.115-1.158-1.361-2.182-1.643c-0.593-0.165-1.265-0.35-1.893-0.74c-3.034-1.873-10.515-5.744-14.256-5.744  c-3.261,0-5.759,4.047-7.771,7.299l-0.507,0.817c-0.584,0.96-1.384,2.276-2.121,2.276c-0.532,0-0.958-1.611-1.058-2.338l-4.99,0.075  c-0.464-2.318-1.663-3.938-3.669-4.945c-0.249-0.1-0.542-0.164-0.847-0.229c-1.019-0.224-2.062-0.454-2.062-2.009  c0-4.277,2.766-6.58,5.689-9.016c1.345-1.123,2.738-2.284,3.854-3.709c0-1.219-0.871-1.771-1.795-2.359  c-0.769-0.49-1.562-0.992-2.024-1.926c-1.195-2.612-3.812-9.16-3.893-11.705c-1.67-0.399-3.572-2.18-5.409-3.9  c-2.078-1.943-4.229-3.955-6.062-3.955l-1.17,0.096l-0.104-0.521c-1.771,0-4.51-1.275-6.146-2.008l-0.851-0.414h-5.488  c-1.258,0-2.657-0.34-4.104-0.496c-4.42-0.479-9.354-0.99-11.356-4.218c-0.032-0.06-0.056-0.117-0.09-0.181  c-0.237-0.419-0.449-0.859-0.589-1.376c-1.039,0-2.69-0.427-3.097-1.234c-1.621-3.382-3.032-4.386-4.812-5.657  c-1.036-0.744-2.222-1.587-3.754-3.079l-5.847,0.066c-0.247-0.802-0.367-1.639-0.479-2.446c-0.284-1.947-0.553-3.787-2.551-4.396  c-0.642-0.215-1.34-0.414-2.052-0.62c-2.742-0.782-5.867-1.669-7.019-3.952L448,57.766v-0.557c0,0.17,0.712,0.215,1.009,0.215  c0.537,0,1.074-0.162,1.541-0.399c0.24-0.096,0.48-0.203,0.662-0.341c0,0-0.057-0.01-0.104-0.018  c0.033-0.033,0.095,0.177,0.127,0.142c-0.04-0.007-3.762-0.409-5.933-0.409h-0.079c-0.259,0-1.277,0.059-2.271,0.164  c-1.823,0.195-2.938,0.23-3.071,0.615c-1.125,2.25-2.901,2.416-5.599,2.747l-0.881-0.038c-0.977,0-4.149-0.488-4.242-2.488h-11.44  c-1.211,0-2.465-1.522-2.541-3.689c-3.64-0.732-7.922-1.922-8.809-5.189l-3.818,0.08c0,1.379,0.899,1.762,1.854,2.152  c0.751,0.309,1.503,0.656,2.015,1.396c0.073,0.131,0.149,0.253,0.209,0.405l-5.09,0.019c-0.595,0.394-1.35,0.626-2.078,0.854  c-1.604,0.496-3.265,1.01-3.265,3.257c0,1.304,0.647,2.341,1.284,3.339c0.614,0.979,1.254,1.992,1.254,3.24  c0,0.801-1.143,3.348-1.913,3.348c-2.271,0-3.408-4.057-3.408-6.33c0-1.15,0.482-2.971,0.992-4.897  c0.328-1.237,0.672-2.534,0.828-3.692c0.926,0,2.207-0.916,2.207-2.635c0-0.207-0.854-2.643-2.002-2.643  c-1.535,0-2.426,0.947-3.355,1.951c-0.777,0.831-1.582,1.692-2.818,2.076c-2.366,0.758-4.358,1.348-6.284,1.918  c-2.392,0.709-4.688,1.391-7.5,2.323c-2.632,0.808-4.703,1.447-5.788,4.948c-0.1,0.384-0.183,0.816-0.271,1.271  c-0.308,1.564-0.649,3.339-1.604,3.969c-0.262,0.173-0.553,0.335-0.854,0.504c-1.02,0.569-2.104,1.233-2.375,2.413  c-0.026,0.098-0.034,0.215-0.054,0.324c-0.01,0.121-0.066,0.215-0.056,0.347c-0.483,0-1.367,0.688-1.367,1.169l0.066,1.171  l-0.604,0.186c-0.279,0.085-0.418,0.132-0.561,0.132c-0.146,0-0.308-0.047-0.632-0.132l-0.804-0.144  c-0.374,0.601-1.178,1.163-2.029,1.754c-1.539,1.08-3.286,2.301-3.286,4.24c0,1.871,0.892,2.684,1.827,3.543  c0.979,0.893,1.989,1.819,1.989,4.097c0,0.993-0.239,1.7-0.491,2.445c-0.277,0.837-0.568,1.704-0.568,3.054  c0,0.869,0.321,1.635,0.643,2.381c0.311,0.721,0.628,1.468,0.628,2.295l0.014,1.016l-0.854,1.734c0,0.682,1.083,1.777,2.122,2.105  c-0.688,3.083-2.604,4.037-4.626,5.041c-1.685,0.834-3.415,1.695-4.487,3.832c-0.264,0.529-0.521,1.113-0.791,1.722  c-1.445,3.275-3.252,7.353-8.126,7.456c0.529,5.508-1.107,7.424-2.554,9.114c-0.979,1.14-1.896,2.218-1.896,4.229  c0,4.852,1.175,7.312,3.487,7.312c0.545,0,0.88-0.142,1.146-0.258c0.198-0.087,0.366-0.158,0.578-0.158  c0.342,0,0.771,0.189,1.361,0.505c-0.466,1.877-1.854,2.964-3.333,4.12c-1.167,0.92-2.378,1.87-3.212,3.263  c-0.805,0.801-2.362,3.792-2.362,6.429c0,3.789,2.869,8.002,5.33,10.457c0.38,0.387,0.927,0.52,1.453,0.652  c0.701,0.171,1.363,0.337,1.704,1.025c0.192,0.447,0.363,1.028,0.556,1.668c0.434,1.443,0.962,3.242,2.015,4.291  c0.271,0.278,0.683,0.367,1.109,0.461c0.622,0.139,1.271,0.28,1.629,0.991c1.936,4.087,3.188,6.833,4.658,11.655  c0.735,2.316,2.125,4.383,3.593,6.574c1.462,2.185,2.979,4.438,3.829,6.995c0.367,1.285,1.167,2.343,1.942,3.364  c1.068,1.416,2.082,2.754,2.082,4.665c0,0.656-0.06,1.297-0.109,1.914c-0.159,1.771-0.306,3.445,1.006,4.752  c3.802,3.791,6.792,6.79,12.746,8.699c2.878,0.82,4.14,1.613,6.744,4.22c1.468,1.472,2.921,1.854,4.603,2.3  c1.023,0.268,2.075,0.547,3.269,1.103c4.312,2.166,7.364,5.575,9.07,10.127c0.609,2.23,1.693,14.706,1.693,16.945  c0,1.737-0.393,4.104-0.883,6.394c-0.469,2.185-0.796,4.246-0.796,5.699v9.297c0,0.67-0.59,1.502-0.795,2.389  c-0.444,1.887-1.205,4.025-1.205,5.061v1.91c0,3.479-0.99,6.484-2.188,9.658c-1.253,3.316-2.479,6.754-2.479,10.913  c0,1.304-0.309,2.521-0.672,3.812c-0.561,1.98-1.121,4.035-0.336,6.365l0.224,15.885c-0.564,2.282-0.883,4.271-1.188,6.196  c-0.384,2.406-0.746,4.679-1.562,7.371c-0.104,0.407-0.422,0.542-0.819,0.714c-0.354,0.153-0.765,0.326-1.075,0.73  c-0.591,0.834-0.986,2.104-1.363,3.35c-0.304,1-0.596,1.948-0.973,2.6c-2.416,3.767-4.892,8.136-4.892,12.688  c0,0.076,0.055,7.403,1.093,7.403h0.007c0.013,0,1.231,1.132,1.231,2.354c0,0.536-0.526,1.209-2.117,1.291  c-0.259,1.541-0.653,2.757-1.037,3.915c-0.562,1.68-1.093,3.273-1.093,5.682c0,2.438,1.331,7.312,3.071,7.312  c0.873,0,1.323-0.547,1.809-1.128c0.382-0.462,0.772-0.938,1.4-1.215c0.181-0.062,0.377-0.087,0.606-0.087  c0.208,0,0.42,0.023,0.629,0.049c0.096,0.011,0.188,0.021,0.273,0.021c0.11,0,0.203-0.018,0.271-0.068l0.003,3.18l-6.906,31.306  c-1.458,0-1.896-0.842-2.359-1.729c-0.512-0.979-1.193-2.092-3.244-2.092c-1.109,0-2.318,1.091-2.318,2.428v2.14  c0,1.143,1.008,2.521,1.69,3.854c0.708,1.396,1.427,2.711,1.427,3.559c0,1.604-1.093,2.768-2.277,3.999  c-1.265,1.317-2.562,2.688-2.562,4.694c0,1.696,0.473,4.229,1.21,6.916c0.854,3.095,1.512,6.305,1.512,8.769v2.978  c0,2.201,1.638,3.162,2.995,4.09c1.456,0.995,3.079,2.024,3.079,4.606c0,1.142-0.633,2.28-1.246,3.285l-0.175,0.347l0.604,0.424  c0.396,0.291,0.745,0.549,1.146,0.604c-0.104,0.882-1.062,1.302-1.99,1.704c-1.001,0.436-2.031,0.879-2.031,1.911  c0,0.336,0.57,0.896,1.375,1.649l0.562,0.542c0.421,0.415,0.812,0.865,1.197,1.281c2.119,2.271,4.117,4.438,8.909,4.438h0.257  c0.168,1,0.562,2.812,2.43,2.812l3.937-0.105c0,3.044,2.87,3.71,5.646,4.354c0.785,0.188,1.562,0.364,2.271,0.603  c1.446,0.453,1.938,1.548,2.452,2.938c0.662,1.781,1.347,3.402,4.15,3.402h5.933c0.344,0,0.73,0.199,1.104-0.017  c0.354-0.201,0.724,0.017,1.019,0.017h2.336c0.854,0,2.324-0.968,4.017-1.847c2.158-1.118,4.606-2.485,6.373-2.485  c0.325,0,0.646-0.015,0.958,0.022c0.312,0.041,0.605,0.056,0.896,0.056c0.461,0,1.04-0.12,1.482-0.854  c0.021-0.02,0.037-0.026,0.059-0.052c-0.01-0.004-0.015-0.007-0.018-0.01c0.021-0.03,0.036-0.05,0.055-0.081  c-1.189-0.577-2.393-1.115-3.572-1.651c-4.539-2.052-8.832-3.989-12.516-7.676c-1.203-1.195-1.834-3.755-2.498-6.461  c-0.847-3.436-1.721-6.982-3.909-8.197c-1.256-0.208-3.109-2.759-3.109-4.775c0-4.066,1.106-6.989,3.588-9.477  c0.798-0.799,1.849-1.021,2.958-1.261c1.465-0.308,2.975-0.629,3.848-2.363c0.558-1.209,0.757-2.438,0.932-3.521  c0.234-1.468,0.439-2.729,1.379-3.675c0.896-0.891,2.032-1.583,3.124-2.252c2.545-1.558,5.175-3.164,5.175-7.344  c0-3.167-2.146-4.158-4.421-5.208c-2.516-1.166-5.116-2.366-5.116-6.678c0-3.788,3.157-6.556,6.271-7.327l0.509-0.064  c1.714-0.213,4.91-0.604,5.31-2.771c0.255-1.072,0.459-2.081,0.652-3.045c0.559-2.768,1.043-5.104,2.373-7.415  c0.521-0.837,1.145-1.665,1.963-2.487c-0.041-0.019-0.08-0.037-0.119-0.055c0.023-0.021,0.039-0.046,0.062-0.072  c-0.953-0.375-1.992-0.854-2.207-2.627c-0.011-0.119-0.048-0.194-0.052-0.328c0.979,0.004,1.683,0.425,2.427,0.87  c0.844,0.507,1.718,1.03,3.073,1.03c0.521,0,2.218-1.547,2.218-2.85c0-0.77-0.505-1.112-1.09-1.521  c-0.273-0.188-0.571-0.396-0.941-0.692c-0.248,0.08-0.563,0.3-0.933,0.55c-0.609,0.417-1.363,0.938-2.016,0.938  c-1.796,0-4.358-5.428-4.358-8.389c0-0.947,0.553-2.451,2.031-2.451c2.062,0,3.296,0.703,4.594,1.442  c1.311,0.748,2.668,1.521,4.949,1.521c1.562,0,4.979-1.502,4.979-2.634l-0.015-2.074c0.644-1.284,0.623-3.149,0.601-5.127  c-0.03-2.647-0.059-5.387,1.504-6.944c0.514-0.513,1.457-0.752,2.965-0.752c1.015,0,2.157,0.104,3.318,0.215  c1.201,0.105,2.419,0.224,3.523,0.224c1.018,0,1.812-0.099,2.446-0.291c1.809-0.604,3.521-0.854,5.181-1.103  c2.914-0.428,5.669-0.83,8.005-3.166l0.707-0.705c1.757-1.74,3.146-3.11,4.836-5.762c1.065-1.701,1.065-3.104,1.065-5.691  c0-1.271-0.944-1.862-1.949-2.487c-0.883-0.552-1.791-1.119-2.087-2.201c-0.253-0.767-0.432-1.515-0.604-2.228  c-0.392-1.641-0.762-3.188-1.969-4.391c-0.188-0.189-0.562-0.4-1.035-0.668c-1.158-0.654-2.754-1.55-2.754-2.863  c0-0.559,0.97-0.976,1.6-0.976c1.601,0,3.109,0.663,4.573,1.304c1.469,0.639,2.854,1.244,4.334,1.244c0.58,0,1.7,0.375,3.002,0.803  c2.03,0.678,4.557,1.519,6.61,1.519c7.275,0,10.059-5.821,12.745-11.446c0.95-2.009,1.855-3.902,2.959-5.55  c1.783-2.731,3.689-4.229,5.706-5.812c1.981-1.561,4.03-3.172,5.958-6.062c0.927-1.499,1.278-2.604,1.657-3.773  c0.314-0.967,0.635-1.971,1.313-3.022c1.942-4.084,4.059-7.938,8.496-10.22l-0.017-11.387c-0.046-3.283-0.078-5.873,2.318-8.271  c0.668-0.675,1.509-1.075,2.397-1.5c1.348-0.643,2.732-1.309,3.763-2.979c2.018-3.135,4.468-3.756,7.058-4.424  c2.333-0.596,4.742-1.216,7.141-3.613c0.229-0.226,0.396-0.496,0.581-0.787c0.325-0.521,0.7-1.116,1.512-1.523  c2.521-1.171,5.116-1.27,7.775-1.27l2.57,0.013c3.678,0,8.16-3.048,9.42-5.569c0.176-0.356,0.247-0.979,0.323-1.705  c0.107-1.037,0.242-2.21,0.729-2.938c2.12-2.828,3.299-4.715,4.791-7.107c0.748-1.194,1.569-2.517,2.645-4.157  c0.438-0.878,1.065-5.151,1.065-7.251c0-1.502,1.541-3.366,2.456-4.475l0.301-0.369c0.064-0.217,0.221-0.466,0.377-0.728  c0.322-0.534,0.688-1.137,0.688-1.852c0-1.251,0.304-2.693,0.632-4.222c0.381-1.788,0.817-3.815,0.817-5.89  c0-1.705-0.358-3.628-0.698-5.486c-0.678-3.68-1.38-7.485,0.705-9.573c0.819-0.821,1.655-1.373,2.534-1.959  c1.351-0.896,2.747-1.826,4.049-3.775c0.632-0.938,1.172-1.543,1.715-2.141c0.56-0.615,1.112-1.23,1.755-2.201  c1.53-2.322,3.291-4.348,4.995-6.303c4.817-5.536,9.362-10.762,9.362-22.283C617.779,156.764,615.973,153.308,612.405,152.23z   M479,467.398c0,0-0.008,0-0.016,0l-0.006-0.182c-0.421,0.073-0.741,0.059-1.065,0.059c-0.271,0-0.536-0.037-0.847-0.058  c-0.474-0.025-1.047-0.069-1.89-0.069c-0.776,0-1.382,0.487-1.972,0.975c-0.583,0.479-1.138,0.931-1.84,0.931  c-0.428,0-0.579,0.492-0.741,1.021c-0.219,0.711-0.588,1.521-1.602,1.616L469,473.225v1.02c0-0.021,0.162-0.021,0.181-0.029  l0.065,0.104c0.109-0.113,0.271-0.162,0.444-0.162c0.165,0,0.359,0.049,0.538,0.095c0.173,0.049,0.342,0.094,0.488,0.094  c1.574,0,2.641-0.906,2.971-2.553c1.536,0,5.399-0.784,5.399-2.635l-0.09-1.716L479,467.398L479,467.398z"/>
<g id="Brasil">
	<path fill="#E2723A" d="M612.405,152.23c-0.738-0.209-1.466-0.31-2.286-0.31c-0.57,0-1.11,0.047-1.658,0.093   c-0.538,0.047-1.081,0.096-1.646,0.096c-0.81,0-1.523-0.099-2.253-0.307c-3.35-1.042-9.898-6.926-11.863-10.166   c-3.577-1.627-6.851-2.742-10.021-3.41l-8.048,1.068c-2.062,0-3.29-0.805-4.586-1.654c-1.312-0.861-2.672-1.748-4.95-1.748   c-1.205,0-2.011,0.586-2.861,1.208c-0.554,0.4-1.121,0.811-1.812,1.126l-1.388,0.096l0.019-1.135   c0.041-1.428,0.067-2.658-0.438-4.189c-0.277-1.115-1.158-1.361-2.182-1.643c-0.593-0.165-1.265-0.35-1.893-0.74   c-3.034-1.873-10.515-5.744-14.256-5.744c-3.261,0-5.759,4.047-7.771,7.299l-0.507,0.817c-0.584,0.96-1.384,2.276-2.121,2.276   c-0.532,0-0.958-1.611-1.058-2.338l-4.99,0.075c-0.464-2.318-1.663-3.938-3.669-4.945c-0.249-0.1-0.542-0.164-0.847-0.229   c-1.019-0.224-2.062-0.454-2.062-2.009c0-4.277,2.766-6.58,5.689-9.016c1.345-1.123,2.738-2.284,3.854-3.709   c0-1.219-0.871-1.771-1.795-2.359c-0.769-0.49-1.562-0.992-2.024-1.926c-1.195-2.612-3.812-9.16-3.893-11.705   c-1.012-0.242-2.105-0.994-3.226-1.928c-0.861,1.28-1.678,2.596-2.495,3.85c-1.011,1.549-2.375,2.875-2.875,4.625   c-0.256,0.896-0.501,1.837-1,2.625c-0.558,0.881-0.958,1.625-2.25,1.812c-1.812,0.264-1.833-0.771-3.5-0.938   c-2.488-0.248-2.395,1.209-3.75,1.209c-2,0-3.468-2.424-4.875-2.646c-1.396-0.22-1.805,0.676-3.166,0.938   c-0.92,0.176-2.334-1.188-3.459,0.312c-0.479,0.831,1.572,2.855,0.875,3c-1.624,0.336-3.334-0.021-4.666-0.021   c-0.88,0-2.562-0.983-3.146-0.604c-0.409,0.084-0.613,0.464-0.858,0.671c-0.217,0.183-0.41,0.388-0.604,0.593   c-0.071,0.037-0.144,0.078-0.224,0.111c-0.398,0.165-0.023,0.322-0.459,0.521c-0.379-0.012-1.567,0.064-1.979,0.078   c-0.394,0.013-0.812,0.344-0.772,0.775c0.002,0.028-0.006,0.043-0.007,0.067c-0.18,0.077-0.358,0.151-0.538,0.225   c-0.258-0.081-0.546-0.231-0.716-0.31c-0.351-0.158-0.921-0.066-0.987,0.401c-0.034,0.238-0.291,1.075-0.373,1.22   c-1.668,0.449-3.062,0.248-4.333-0.791c-0.823-0.674-2.958-1.625-3-5.25c-0.014-1.179-1.167-0.083-1.271-2.312   c-0.117-2.525,0.027-3.716,0.812-5.688c0.655-1.651,1.797-1.24,1.09-3.209c-0.854-2.386-1.09-2.322-3.39-2.371   c0.916-1.195,1.252-1.478,1.175-3.076c-0.039-0.806-0.666-1.32-2.062-1.281c-1.887,0.052-1.646,0.903-1.896,1.854   s-0.997,2.001-2.542,2.334c-2.708,0.584-2.062,1.02-4.562,1.938c-2.438,0.896-4.47,0.201-5.312,0.771   c-1.559,1.053,0.458,2.833-1.583,2.666c-1.037-0.085-1.188-1.616-1.833-1.834c-1.977-0.666-2.667,1.375-4.146,0.271   c-2.481-1.854-2.436-0.834-3.5-1.312c-1.375-1.5-1.944-0.865-1.625-0.062c0.36,0.906,2.422,2.939,3.312,3.25   c1.438,0.5-1.75,1.25,1.25,4.688c0.812,0.932-0.938,2.688,1.327,2.238c0.887-0.177,2.732-0.176,2.732,1.012   c-0.5,2.25-3.44,1.123-4.049,2.254c-0.457,0.85,0.111,1.746-1.139,2.184c-2.795,0.979-4.312,1.474-5.208,2.312   c-1.343,1.257-1.316,2.7-2.292,3c-0.577,0.178-0.388-2.435-1.211-1.995c-5.852,3.12-4.09-0.202-5.941-0.643   c-4.63-1.103-1.786-1.079-2.658-3.175c-1.562-3.75-0.929-4.057-3.875-2.25c-0.482,0.297-1.032,1.068-1.29,0.73   c-1.646-2.168-2.056,0.801-2.056,0.801s-9.562-1.562-9.5,0.406c0.031,0.975-0.212,2.856-0.028,3.719   c0.142,0.672,2.604,0.174,3.75,0.344c0.622,0.092,0.301,0.499,0.345,1c0.125,2.812-1.293,0.301-2.095,0.75   c-1.78,1-2.854,0.535-2.944,1.035c-0.246,1.312,0.103,2.976-0.086,4.434c-0.135,1.004,2.438,1.648,2.53,2.438   c0.278,2.438,1.125,2.844,1.125,2.844s-0.874,6.703-1.625,10.375c-0.188,1.75-0.472,2.568-0.562,3.438   c-0.205,1.911-0.523,3.999-1.156,5.812c-5.344-2.906-4.562,0.25-6.404,0.25c-2.654,0-4.75,0.875-6.875,2.281   c-1.283,0.85-3.75,1.75-4.029,2.812c-0.468,1.766-0.875,2.875-2.104,4.552c-1.105,1.518,1.491,2.532,0.229,3.417   c-0.62,0.433-3.205,1.438-3.471,2.188c-0.327,0.936-0.076,1.664,0.096,2.594c-3.012,0.429-0.387,4.099,0.506,5.445   c1.542,2.332,2.404,3.189,4.119,5.398c-0.281,0.438-0.596,0.656-1.5,1.656c-0.538,0.594,2.377,0.428,3.233,0.611   c1.203,0.257,0.618-0.075,1.581,0.563c0.979,0.647,0.604,1.97,1.401,2.825c0.381,0.399,3.545,0.271,4.188,0.219   c1.412-0.117,1.076,0.129,2.062-0.5c1.562-1,2.484-1.997,3.438-2.938c0.147,2.783-0.516,6.283-0.312,9.062   c0.104,1.5,3.562,1.438,4.188-0.062c2.7-0.083,6.24-0.359,6.812,0.562c0.628,1.016,1.551,1.14,2.5,0.688   c1.312-0.625,1.703-1.313,2.375-2.75c2.188,0.562,2.005-0.512,3.75-1.25c1.625-0.688,3.817-2.706,5.25-3.375   c2.77-1.293,3.762-0.318,6.667-1.187c1.208,0.625-0.625,2.792,0.542,10.458c0.383,2.516,2.532,3.746,4.26,5.076   c1.434,1.1,3.204,1.629,5.365,1.258c1.19-0.205,1.417,1.31,2.715,1.31c1.833,0,1.938,2.153,3.188,2.335   c5.017,0.73,3.351,3.396,7.726,2.938c6.518-0.683,6.292,5.083,7.417,9.5c-4.99-0.294-1.177,0.576-0.208,2.75   c0.291,0.653-0.248,4.812,0.408,4.945c0.882,0.181,3.021-0.061,3.801,0.013c2.556,0.238,4.942-0.355,7.333,0.209   c-1.386,1.984-1.404,4.273,0.292,6.125c0.707,0.771,1.454,1.086,2.417,1.5c1.188,0.511,1.26,2.966,2.083,4.124   c-0.883,2.435-1.541,5.25-2.792,7.792c-1.248,2.538-1.046,2.087,0.792,3.366c-2.46,1.399-1.042,2.736-0.375,5.301   c0.763,2.93,0.188,4.397-0.125,7.333c0,0.002,0.066,1.317,0.063,1.33c3.028,1.887,4.419,0.321,7.478,1.045   c1.125-0.088,1.472-0.883,1.584-1.125c1.166,1.584,2.513,1.146,3.291,1.625c1.951,1.189,1.404,2.983,1.75,5.125   c0.197,1.218,0.527,3.22,0.834,4.416c0.194,0.76,0.542,1.418,1.65,0.97c1.342-0.032,2.395-0.693,3.725-0.595   c1.443,0.104,1.621,2.369,1.292,3.709c-0.513,2.084,0.354,2.776-1.521,5.984c-0.505,0.864,0.31,2.512,1.021,2.557   c1.958,0.125,2.208-1.875,3.625,1.416c1.123,2.605,1.033,4.306,0.458,7.084c-0.269,1.299-5.989,4.065-7.291,4.918   c-4.505,2.938-7.147,6.711-10.417,10.957c-1.574,2.049-2.96,2.597-4.25,4.834c-0.682,1.182-1.521,1.566-0.104,2.416   c0.543,0.318,1.036-0.002,1.475-0.268c0.453-0.271,0.287-0.923,0.713-1.232c1.133-0.834,1.143-0.283,2.062,0.562   c1.132,1.038,3.424,2.575,3.812,4.125c0.139,0.549,0.291,1.812,0.774,2.214c0.604,0.502,1.726-1.244,2.351-1.464   c1.259-0.44,1.154,1.407,2.188,2.438c0.688,0.688,1.028-0.041,1.778,0.58c1.441,1.191,2.975,2.328,4.238,3.715   c1.106,1.213,2.033,2.578,3.15,3.781c0.524,0.566,1.102,1.104,1.757,1.525c-0.4,1.152-0.579,2.377-0.704,3.587   c-0.109,1.062-0.916,4.172-0.29,5.062c0.376,0.533,1.076,0.045,1.765-0.666c0.879-1.489,1.652-3.102,2.415-4.694   c0.952-2.009,1.857-3.903,2.96-5.552c1.784-2.73,3.69-4.229,5.706-5.809c1.982-1.562,4.031-3.174,5.958-6.062   c0.926-1.499,1.279-2.604,1.658-3.775c0.314-0.965,0.634-1.97,1.313-3.022c1.942-4.084,4.059-7.938,8.493-10.217l-0.014-11.389   c-0.046-3.282-0.078-5.873,2.318-8.271c0.668-0.676,1.509-1.075,2.396-1.5c1.349-0.643,2.733-1.309,3.763-2.979   c2.019-3.134,4.469-3.756,7.059-4.423c2.333-0.597,4.742-1.216,7.141-3.614c0.229-0.225,0.396-0.495,0.58-0.786   c0.326-0.521,0.701-1.116,1.512-1.523c2.521-1.171,5.116-1.271,7.776-1.271l2.57,0.015c3.678,0,8.16-3.049,9.42-5.569   c0.176-0.359,0.247-0.981,0.323-1.706c0.106-1.036,0.241-2.21,0.729-2.937c2.12-2.828,3.299-4.715,4.791-7.107   c0.748-1.194,1.569-2.517,2.645-4.157c0.438-0.878,1.065-5.151,1.065-7.251c0-1.502,1.541-3.366,2.456-4.475l0.3-0.369   c0.065-0.217,0.222-0.466,0.377-0.728c0.323-0.534,0.688-1.137,0.688-1.852c0-1.251,0.304-2.693,0.632-4.222   c0.381-1.788,0.817-3.815,0.817-5.89c0-1.705-0.358-3.628-0.698-5.486c-0.678-3.68-1.38-7.485,0.705-9.573   c0.817-0.821,1.655-1.373,2.534-1.959c1.351-0.896,2.747-1.826,4.049-3.775c0.632-0.939,1.172-1.543,1.715-2.141   c0.558-0.615,1.112-1.23,1.755-2.201c1.53-2.322,3.291-4.348,4.995-6.303c4.817-5.536,9.362-10.762,9.362-22.283   C617.779,156.764,615.973,153.308,612.405,152.23z"/>
	<path fill="#E2723A" d="M525.693,120.752c-0.019-0.01-0.029-0.021-0.047-0.031c0,0.01-0.019,0.01-0.021,0.021l-0.151-0.025   c-0.104,0-0.252-0.025-0.682-0.092c-2.587,0-4.328,2.17-4.328,5.404c0,2.063,5.671,5.813,8.792,5.813   c2.649,0,5.819-4.933,5.819-6.876c0-0.47-0.68-2.012-1.58-2.012c-0.345,0-0.755,0.217-1.188,0.449   c-0.432,0.236-0.873,0.477-1.244,0.477c-0.291,0-0.69-0.132-0.967-1.343c-1.562,0-2.957-0.931-4.182-1.754L525.693,120.752z"/>
</g>
<g id="Bolivia">
	<path fill="#35A994" d="M417.631,265.06c-1.562,0-1.606-1.188-1.606-1.328c-0.037-0.639-1.482-7.383-2.468-10.167   c-0.23-0.663-0.521-1.487-1.01-1.678c-0.267-0.105-0.476-0.319-0.574-0.589c-0.098-0.27-0.071-0.568,0.062-0.82   c0.154-0.282,0.218-0.461,0.244-0.565c-0.082-0.057-0.185-0.119-0.252-0.165c-0.458-0.289-1.026-0.648-1.026-1.35v-2.666   c0-0.405,0.245-0.771,0.62-0.925c0.008-0.004,0.016-0.007,0.021-0.01c-0.007-0.029-0.014-0.059-0.02-0.085   c-0.135-0.573-0.252-1.068-0.25-1.446c0.002-0.271,0.115-0.531,0.312-0.718c0.83-0.788,0.809-1.082,0.809-1.082   c-0.039-0.32-1.288-1.034-2.114-1.507l-0.632-0.362c-0.229-0.134-0.396-0.353-0.464-0.608l-1.25-4.708   c-0.022-0.084-0.034-0.17-0.034-0.257v-1.038c-0.342-0.279-0.97-1.143-1.989-4.798c-0.078-0.278-0.031-0.576,0.127-0.817   l2.543-3.872c-0.044-0.173-0.06-0.354-0.047-0.538c0.032-0.456,0.245-0.895,0.521-1.276c-1.928-1.006-2.485-3.002-2.484-4.117   c0-0.146,0.032-0.292,0.095-0.425l0.976-2.072c-0.44-0.578-0.983-1.548-0.896-2.739c0.021-0.265,0.076-1.045,2.862-4.452   l-0.965-2.622c-0.114-0.31-0.068-0.654,0.122-0.923l1.02-1.442c0.048-0.49,0.146-1.575,0.146-2.283   c0-0.886,0.525-1.725,0.967-2.269l-5.604-10.189c-0.167-0.304-0.165-0.672,0.009-0.974c0.172-0.302,0.483-0.494,0.829-0.507   c0.811-0.031,1.64-0.062,2.406-0.062c2.034,0,3.508,0.287,4.094,1.233c0.285,0.461,0.542,0.558,0.652,0.558h0.001   c0.161,0,0.356-0.146,0.565-0.246c0.971-0.463,1.243-0.916,1.896-2.318c0.167-0.358,0.525-0.6,0.906-0.6   c0.083,0,0.166-0.002,0.249,0.02c0.324,0.084,0.59,0.12,0.791,0.12c0.295,0,0.396-0.076,0.791-0.387   c0.338-0.271,0.8-0.638,1.53-0.946c0.765-0.322,1.746-1.036,2.693-1.726c0.909-0.66,1.771-1.284,2.521-1.636   c1.722-0.803,2.875-0.829,3.99-0.854c0.846-0.019,1.645-0.035,2.812-0.385c0.094-0.028,0.19-0.042,0.287-0.042   c0.159,0,0.313,0.038,0.459,0.111c1.146,0.593,1.021,1.749,0.874,3.088c-0.162,1.487-0.432,3.976,0.197,8.108   c0.268,1.763,1.66,2.79,3.139,3.878c0.252,0.187,0.501,0.37,0.742,0.556c1.008,0.775,2.158,1.169,3.418,1.169   c0.376,0,0.77-0.035,1.168-0.104c0.135-0.023,0.263-0.034,0.385-0.034c0.883,0,1.422,0.519,1.816,0.897   c0.354,0.34,0.479,0.432,0.684,0.432c1.544,0,2.284,1.038,2.773,1.726c0.182,0.254,0.43,0.602,0.555,0.62   c2.729,0.397,3.787,1.38,4.562,2.097c0.612,0.57,0.95,0.884,2.102,0.884c0.243,0,0.515-0.016,0.817-0.047   c0.395-0.042,0.766-0.062,1.111-0.062c5.337,0,6.202,4.472,6.897,8.065c0.148,0.787,0.296,1.53,0.478,2.243   c0.079,0.31,0.006,0.638-0.196,0.884c-0.188,0.23-0.476,0.363-0.771,0.363c-0.021,0-0.181-0.009-0.24-0.012   c0.363,0.381,0.712,0.831,0.945,1.354c0.2,0.449,0.195,1.112,0.166,2.448c-0.012,0.54-0.031,1.438,0.012,1.968   c0.091,0.004,0.195,0.005,0.316,0.005c0.408,0,0.858-0.019,1.29-0.037c0.411-0.017,0.8-0.033,1.112-0.033   c0.188,0,0.354,0.007,0.488,0.019c0.438,0.041,0.869,0.056,1.297,0.056c0.576,0,1.146-0.026,1.709-0.051   c0.585-0.026,1.162-0.052,1.736-0.052c1.055,0,1.92,0.088,2.729,0.278c0.32,0.076,0.588,0.308,0.703,0.617   c0.117,0.309,0.075,0.657-0.111,0.929c-1.172,1.677-1.099,3.454,0.209,4.877c0.552,0.603,1.142,0.855,2.031,1.239   c1.179,0.505,1.577,1.805,1.937,2.95c0.183,0.588,0.371,1.195,0.608,1.53c0.188,0.268,0.235,0.612,0.125,0.921   c-0.291,0.808-0.562,1.657-0.831,2.524c-0.562,1.776-1.143,3.614-2.005,5.368c-0.28,0.577-0.534,1.093-0.642,1.373   c0.104,0.07,0.238,0.158,0.365,0.24c0.21,0.135,0.457,0.293,0.741,0.491c0.279,0.195,0.439,0.522,0.428,0.865   c-0.016,0.344-0.206,0.654-0.505,0.824c-1.037,0.591-0.949,0.92-0.807,1.467c0.136,0.5-0.139,1.02-0.622,1.196   c-0.112,0.041-0.229,0.061-0.346,0.061c-0.378,0-0.733-0.216-0.902-0.576l-1.19-2.544l-3.774-2.567   c-1.205-0.248-2.429-0.424-3.552-0.512c-0.176-0.014-0.346-0.021-0.51-0.021c-1.071,0-1.961,0.279-2.99,0.604   c-0.532,0.167-1.088,0.34-1.696,0.488c-0.924,0.225-1.854,0.358-2.756,0.488c-0.453,0.065-0.906,0.131-1.356,0.207   c-0.302,0.052-0.611,0.081-0.929,0.108c-0.664,0.06-1.236,0.11-1.606,0.407c-0.381,0.306-0.633,0.883-0.9,1.493   c-0.207,0.472-0.42,0.959-0.725,1.402c-0.208,0.304-0.435,0.589-0.654,0.87c-0.51,0.646-0.948,1.203-1.062,1.885   c-0.109,0.66-0.102,1.245-0.086,1.864c0.021,1.026,0.041,2.088-0.504,3.384l-2.354,5.863c-0.154,0.369-0.52,0.861-0.922,0.861   c-0.002,0-0.006,0-0.008,0c-0.406-1-0.771-0.502-0.921-0.879l-0.437-1.207c-1.301-0.086-4.262-0.339-5.359-0.352   c-0.461,0.359-1.309,2.062-1.812,3.898c-0.118,0.431-0.505,0.537-0.949,0.537c-0.005,0-0.01,0-0.015,0   c-0.438,0-0.826-0.119-0.955-0.539c-0.79-2.565-2.002-2.983-3.828-2.983c-0.48,0-0.977,0.077-1.468,0.11l-0.521,0.058   c-0.128,0.008-0.255,0.021-0.38,0.021c-1.541,0-2.854-0.578-3.755-1.139c-0.587,1.008-1.665,1.264-2.218,1.395   c-0.045,0.011-0.097,0.021-0.146,0.035c-0.023,0.738-0.479,1.146-1.233,1.575c-0.229,0.132-0.409,0.405-0.642,0.757   c-0.489,0.739-1.23,1.861-3.097,2.037c-0.351,0.032-0.729,0.098-1.097,0.154C418.604,264.974,418.077,265.06,417.631,265.06z"/>
	<path fill="#E2723A" d="M477.75,244.099c-1.837-1.279-2.04-0.828-0.792-3.366c1.25-2.542,1.909-5.357,2.792-7.792   c-0.824-1.158-0.895-3.613-2.083-4.124c-0.963-0.414-1.71-0.729-2.417-1.5c-1.696-1.852-1.677-4.141-0.292-6.125   c-2.391-0.564-4.778,0.029-7.333-0.209c-0.781-0.073-2.918,0.168-3.801-0.013c-0.655-0.134-0.117-4.292-0.408-4.945   c-0.968-2.174-4.781-3.044,0.208-2.75c-1.125-4.417-0.9-10.183-7.417-9.5c-4.375,0.458-2.708-2.208-7.726-2.938   c-1.249-0.182-1.354-2.335-3.188-2.335c-1.297,0-1.521-1.515-2.715-1.31c-2.161,0.371-3.938-0.158-5.365-1.258   c-1.729-1.33-3.877-2.561-4.26-5.076c-1.167-7.666,0.667-9.833-0.542-10.458c-2.904,0.868-3.898-0.106-6.667,1.187   c-1.434,0.669-3.625,2.688-5.25,3.375c-1.745,0.738-1.562,1.812-3.75,1.25c-0.672,1.437-1.062,2.125-2.375,2.75   c-0.949,0.452-1.872,0.328-2.5-0.688c-0.489-0.79-3.157-0.7-5.611-0.605l5.944,10.814c0,0-1.188,1.125-1.188,2.125   s-0.177,2.646-0.177,2.646l-1.171,1.657l1.164,3.161c0,0-2.943,3.539-3.001,4.331c-0.104,1.419,1.083,2.498,1.083,2.498   l-1.25,2.666c0,0-0.001,3.166,3.333,3.666c0,0-2,1.5-1.167,2.333l-2.859,4.354c0,0,1.11,3.979,1.693,4.312s0.333,0.334,0.333,0.334   v1.458l1.25,4.708c2.763,1.604,4.5,2.292,2.125,4.542c-0.005,0.614,0.62,2.378,0.47,2.957c-0.288-0.089-0.608-0.264-0.845-0.499   c0,0,0,2.616,0,2.666c0,0.308,1.134,0.702,1.258,1.119c0.143,0.468-0.129,1.044-0.344,1.439c0.906,0.356,1.284,1.417,1.586,2.275   c1,2.834,2.521,9.833,2.521,10.5c0,0.666,1.777,0.129,3.146,0c2.208-0.209,2.167-2,3.333-2.666s0.5-0.668,0.833-1.334   s2.667,0,2.667-2.5c0,0,2,2,4.667,1.834c2.667-0.168,5.5-0.668,6.833,3.666c0,0,1.334-4.834,2.667-4.834s6.167,0.334,6.167,0.334   l0.667,1.666c0.784-1.871,1.564-3.744,2.351-5.614c0.771-1.827,0.214-3.135,0.524-5.023c0.212-1.281,1.154-2.102,1.878-3.157   c0.652-0.95,0.896-2.362,1.823-3.109c0.833-0.669,1.982-0.549,2.994-0.722c1.347-0.229,2.716-0.358,4.046-0.682   c2.012-0.488,3.382-1.263,5.512-1.095c1.289,0.101,2.633,0.308,3.871,0.57l4.167,2.833l1.307,2.793l0,0   C476.206,245.686,476.338,244.902,477.75,244.099z"/>
</g>
<g id="Venezuela">
	<path fill="#35A994" d="M466.105,70.201c-0.02-0.016-0.029-0.028-0.049-0.044l-5.848,0.066c-0.246-0.802-0.367-1.639-0.479-2.446   c-0.283-1.947-0.553-3.787-2.551-4.396c-0.642-0.215-1.34-0.414-2.052-0.62c-2.742-0.782-5.866-1.669-7.019-3.952L448,57.766   v-0.557c0,0.17,0.713,0.215,1.009,0.215c0.536,0,1.074-0.162,1.541-0.399c0.174-0.069,0.34-0.149,0.491-0.238   c-0.791-0.083-3.846-0.388-5.734-0.388h-0.078c-0.26,0-1.277,0.059-2.271,0.164c-1.822,0.195-2.938,0.23-3.07,0.615   c-1.125,2.25-2.9,2.416-5.599,2.747l-0.881-0.038c-0.977,0-4.149-0.488-4.242-2.488h-11.442c-1.211,0-2.465-1.522-2.541-3.689   c-3.64-0.732-7.922-1.922-8.809-5.189l-3.818,0.08c0,1.379,0.899,1.762,1.854,2.152c0.751,0.309,1.503,0.656,2.015,1.396   c0.073,0.131,0.149,0.253,0.209,0.405l-5.09,0.019c-0.595,0.394-1.35,0.626-2.078,0.854c-1.604,0.496-3.265,1.01-3.265,3.257   c0,1.304,0.647,2.341,1.284,3.339c0.614,0.979,1.254,1.992,1.254,3.24c0,0.801-1.143,3.348-1.913,3.348   c-2.271,0-3.408-4.057-3.408-6.33c0-1.15,0.482-2.971,0.992-4.897c0.328-1.237,0.672-2.534,0.828-3.692   c0.926,0,2.207-0.916,2.207-2.635c0-0.09-0.162-0.604-0.44-1.153l-5.224,1.537c-0.276,0.081-0.503,0.277-0.625,0.538l-1.125,2.422   H389c-0.3,0-0.584,0.135-0.774,0.367c-0.13,0.158-3.114,3.871-2.983,8.877l-1.936,3.244c-0.184,0.31-0.188,0.693-0.01,1.006   s0.509,0.506,0.869,0.506H386c0.071,0,0.171-0.015,0.241-0.029c0,0,0.052-0.012,0.126-0.012c0.149,0,0.562,0,0.636,1.108   c0.121,1.814,0.884,2.958,1.581,3.565c-0.721,4.804-0.443,5.267-0.275,5.548c0.444,0.741,1.249,1.162,2.275,1.193l0.673,1.477   c0.164,0.359,0.522,0.585,0.91,0.585c0.039,0,0.078-0.002,0.117-0.007c0.021-0.002,2.107-0.244,3.662-0.244   c0.773,0,1.083,0.062,1.171,0.086c0.166,0.109,0.354,0.165,0.551,0.165c0.153,0,0.307-0.035,0.449-0.106   c0.621-0.312,1.511-0.66,1.831-0.684c1.469,0.438,2.369,0.636,2.919,0.724c0.797,1.426,3.171,5.213,5.901,5.213   c0.242,0,0.482-0.029,0.72-0.087l7.225-0.329c0.284-0.013,0.549-0.146,0.729-0.365c0.097-0.119,0.376-0.338,0.519-0.338   c0.046,0,0.229,0.1,0.464,0.538c-0.01,0.088-0.083,0.411-0.631,0.959c-0.719,0.719-0.982,1.429-0.783,2.111   c0.002,0.008,0.004,0.016,0.007,0.023l-0.658,0.361c-0.395,0.214-0.598,0.66-0.497,1.095l0.45,2.043   c-0.188,1.009-0.771,5.019,1.19,7.961c0.158,0.237,0.409,0.394,0.688,0.435l0.259,1.219c0.039,0.185,0.127,0.348,0.25,0.478   l-0.023,0.065l-2.169,1.917c-0.243,0.214-0.367,0.532-0.333,0.854c0.034,0.322,0.222,0.607,0.504,0.767   c1.554,0.872,4.237,2.58,4.833,3.445c0.322,0.468,0.729,2.592,0.857,6.148c0.016,0.427,0.301,0.797,0.709,0.921   c0.395,0.12,0.892,0.252,1.54,0.406c0.116,0.027,0.164,0.075,0.375,0.481c0.271,0.528,0.782,1.511,2.192,1.511   c0.822,0,1.875-0.333,3.354-1.069c0.002,0.011,0.004,0.021,0.006,0.029c0.14,0.645,0.37,1.722,1.398,1.722   c0.1,0,0.253-0.023,0.349-0.053c0.912-0.28,1.298-1.04,1.639-1.709c0.262-0.508,0.526-1.033,1.043-1.517   c0.688-0.644,2.065-1.125,4.354-1.923l0.504-0.176c1.402-0.491,1.516-1.551,1.576-2.12c0.021-0.227,0.044-0.404,0.062-0.473   c0.12-0.082,0.586-0.144,0.896-0.185c1.064-0.141,2.854-0.376,3.303-2.388c0.016-0.071,0.023-0.144,0.023-0.217   c0-1.014-0.744-2.097-2.834-2.097c-0.354,0-0.721,0.033-1.038,0.093c0.074-0.531,0.107-1.275-0.438-1.903   c-1.438-1.647-1.106-2.309-0.871-2.791c0.158-0.318,0.396-0.8,0.168-1.356c-0.229-0.569-0.789-0.764-0.973-0.827   c-0.287-0.101-0.854-0.563-1.4-1.097c0.018,0,0.438-0.013,0.438-0.013c0.146,0,0.538,0,1.852,0.979   c0.478,0.354,0.977,0.532,1.484,0.532c0.59,0,1.062-0.229,1.484-0.43c0.352-0.168,0.65-0.312,0.98-0.312   c0.117,0,0.238,0.018,0.367,0.053c0.061,0.083,0.146,0.236,0.209,0.345c0.312,0.553,0.838,1.478,1.966,1.57   c0.12,0.01,0.229,0.014,0.329,0.014c0.223,0,0.898,0,1.363-0.514c0.455-0.504,0.392-1.137,0.35-1.557   c-0.059-0.566-0.022-0.637,0.182-0.775c0.15-0.087,0.766-0.09,1.212-0.093c1-0.005,2.368-0.013,3.891-0.571   c1.175-0.432,1.734-0.779,2.185-1.06c0.512-0.315,0.875-0.544,2.244-0.839c1.57-0.339,2.744-1.366,3.223-2.816   c0.058-0.169,0.063-0.35,0.025-0.523l-0.438-2.038c-0.044-0.194-0.146-0.372-0.285-0.51l-3.886-3.732   c0.531-0.432,1.022-1.048,1.022-1.856c0-0.531-0.188-1.078-0.354-1.561c-0.032-0.098-0.108-0.327-0.108-0.327   c0.59-0.043,1.029-0.109,2.58-0.885c0.627-0.313,1.188-0.523,1.641-0.692c0.819-0.306,1.527-0.57,1.65-1.342   c0.076-0.481-0.129-0.922-0.613-1.309c-0.463-0.369-0.963-0.501-1.328-0.597c-0.143-0.038-0.354-0.095-0.4-0.129   c0,0-0.043-0.064-0.064-0.27l-0.061-0.494c-0.033-0.277-0.072-0.591-0.092-0.609c0.018-0.019,0.084-0.094,0.375-0.288l2.963-1.975   c0.591-0.354,1.023-1.119,1.412-2.48C466.118,70.363,466.104,70.282,466.105,70.201z"/>
	<path fill="#E2723A" d="M386,65.398c0,0,1.833-0.499,2,2.001s1.667,3.166,1.667,3.166s-0.783,5.027-0.5,5.5   c0.575,0.959,2.042,0.667,2.042,0.667l0.958,2.102c0,0,4.833-0.565,5.5,0c0,0,1.891-0.951,2.5-0.769   c2.657,0.797,3.333,0.769,3.333,0.769s3,5.899,5.833,5.065l7.333-0.334c0,0,1.5-1.833,2.667,0.415c0,0,0.5,0.751-0.833,2.085   s0.167,1.667,0.167,1.667l-1.833,1l0.5,2.25c0,0-1,4.416,1,7.416H419l0.425,2H420l-0.47,1.329l-2.363,2.088   c0,0,4.217,2.371,5.167,3.751c0.77,1.119,0.984,5.346,1.033,6.679c0.38,0.115,0.854,0.242,1.479,0.391   c1.854,0.44,0.092,3.763,5.941,0.643c0.825-0.439,0.634,2.173,1.211,1.995c0.975-0.3,0.949-1.743,2.292-3   c0.896-0.839,2.413-1.334,5.208-2.312c1.25-0.438,0.682-1.334,1.139-2.184c0.605-1.131,3.551-0.004,4.051-2.254   c0-1.188-1.852-1.188-2.734-1.012c-2.266,0.449-0.516-1.307-1.327-2.238c-3-3.438,0.188-4.188-1.25-4.688   c-0.892-0.311-2.951-2.344-3.312-3.25c-0.318-0.803,0.25-1.438,1.625,0.062c1.065,0.479,1.02-0.541,3.5,1.312   c1.479,1.104,2.173-0.938,4.146-0.271c0.646,0.218,0.796,1.749,1.833,1.834c2.042,0.167,0.025-1.613,1.583-2.666   c0.844-0.57,2.875,0.125,5.312-0.771c2.498-0.918,1.854-1.354,4.562-1.938c1.447-0.312,2.188-1.252,2.482-2.151l-0.44-2.038   l-4.833-4.644c0,0,1.667-0.666,1.667-1.666s-1.167-2.611-0.167-2.806c1-0.195,0.833,0.139,2.833-0.861s3.333-1.001,2.5-1.667   s-2-0.166-2.167-1.666s-0.333-1.668,0.667-2.334s3-2,3-2c0.41-0.246,0.739-1.097,0.967-1.897l-4.921,0.056   c-0.247-0.802-0.367-1.639-0.479-2.446c-0.284-1.947-0.552-3.787-2.549-4.396c-0.644-0.215-1.342-0.414-2.054-0.62   c-2.742-0.782-5.867-1.669-7.019-3.952L448,57.766v-0.557c0,0.17,0.712,0.215,1.009,0.215c0.537,0,1.074-0.162,1.541-0.399   c0.174-0.069,0.34-0.149,0.492-0.238c-0.792-0.083-3.847-0.388-5.735-0.388h-0.078c-0.26,0-1.278,0.059-2.271,0.164   c-1.823,0.195-2.938,0.23-3.071,0.615c-1.125,2.25-2.902,2.416-5.599,2.747l-0.881-0.038c-0.977,0-4.149-0.488-4.242-2.488h-11.442   c-1.211,0-2.465-1.522-2.541-3.689c-3.64-0.732-7.922-1.922-8.809-5.189l-3.818,0.08c0,1.379,0.899,1.762,1.854,2.152   c0.751,0.309,1.503,0.656,2.015,1.396c0.073,0.131,0.149,0.253,0.209,0.405l-5.09,0.019c-0.595,0.394-1.35,0.626-2.078,0.854   c-1.604,0.496-3.265,1.01-3.265,3.257c0,1.304,0.647,2.341,1.284,3.339c0.614,0.979,1.254,1.992,1.254,3.24   c0,0.801-1.143,3.348-1.913,3.348c-2.271,0-3.408-4.057-3.408-6.33c0-1.15,0.482-2.971,0.992-4.897   c0.328-1.237,0.672-2.534,0.828-3.692c0.926,0,2.207-0.916,2.207-2.635c0-0.03-0.021-0.113-0.06-0.225l-5.322,1.567l-1.396,3.001   H389c0,0-3,3.667-2.75,8.501l-2.083,3.499H386V65.398z"/>
</g>
<g id="Markers">
	
		<image enable-background="new    " width="34" height="53" id="Vector_Smart_Object_copy_2_xA0_Image_1_" xlink:href="marker.png" transform="matrix(0.9706 0 0 0.9811 518.5781 177.7324)">
	</image>
	
		<image enable-background="new    " width="34" height="53" id="Vector_Smart_Object_copy_2_xA0_Image_2_" xlink:href="marker.png" transform="matrix(0.9706 0 0 0.9811 400.5215 168.9785)">
	</image>
	
		<image enable-background="new    " width="34" height="53" id="Vector_Smart_Object_copy_2_xA0_Image_3_" xlink:href="marker.png" transform="matrix(0.9706 0 0 0.9811 409.5 8.0215)">
	</image>
</g>
</svg>
