<?xml version="1.0" encoding="utf-8"?>
<!-- Generator: Adobe Illustrator 15.0.2, SVG Export Plug-In . SVG Version: 6.00 Build 0)  -->
<!DOCTYPE svg PUBLIC "-//W3C//DTD SVG 1.1//EN" "http://www.w3.org/Graphics/SVG/1.1/DTD/svg11.dtd">
<svg xmlns="http://www.w3.org/2000/svg" xmlns:xlink="http://www.w3.org/1999/xlink" version="1.1" id="Objetos" x="0px" y="0px" width="751.461px" height="593.971px" viewBox="0 0 751.461 593.971" xml:space="preserve">
<g id="India">
	<g>
		<path fill="#34A893" d="M688.895,313.396c-16,2-18-10.5-18-10.5c3-14-5-14.5-5-14.5c-3.5-1.5-5.5-8.402-5.5-8.402    c-1.5-8.902-11.5-5.598-11.5-5.598c-9.5,0.5-5.5-3-6.5-9s13.5-27.5,13.5-27.5c8-25-10.5-34.5-22.5-38s-15.5-11.5-15.5-11.5    c0-5.5-6-10.5-6-10.5c-3-2-6.5,6.5-6.5,6.5l-15.384-1c-4.884,0-30.116,21.5-39.616,25.5s-27-7-27-7c-12.5-3-26,17-26,17    c1-19-21-11.5-21-11.5c-21.5,5-37-6-37-6c-3.5-10.5-12.5-10.5-12.5-10.5c-6,3-8.439,0-8.439,0c1.558-11-9.561-12.5-9.561-12.5    c-5.5,1.5-13.5-2.5-13.5-2.5c-6-10-16.5-7.5-16.5-7.5c-11.5,1.5-21.375-6.076-21.375-6.076c-6.375-7.076-8.125-6.424-17.125-7.924    s-6.5-10-8-20s6.5-7,6.5-7c12-2.5,4.5-8.5-2-18.5s11.5-15,19-23.5s-13-28-20-20.5s-16.5,9-16.5,9c-28.5-1.5-30-18-32.5-22.5    s-13.834-3.666-13.834-3.666c-4-1.333-3.333-8-3.333-8c-6.667-3.333-18-3.333-36,5.333s-18-2.667-18-2.667    c1.333-26-2.667-24-9.333-22.667s-10,11.333-14,11.333s-6,2.667-15.333,10s-13.333,4-20,0s-7.333-0.667-11.333,0    s-6-1.333-17.333-6.667s-19.333,12.667-24,21.333s-1.333,3.333-8.667,6s-10,8.667-16.333,11.898s-17.667,3.435-24.654,0    c-0.232,0.515-0.471,0.962-0.756,1.241c-0.048-0.082-0.087-0.168-0.132-0.251c-15.333,21.029-21.979,47.86-7.458,71.777    c1,2,7,0,11,2c2,2,2,5,1,7c-4,10-18,15-10,27c2,2,6,4,7,6c6,12,19,17,25,28c8,14-11,14-19,22    c-6.137,6.137-5.471,13.844-3.491,22.05c0.246,0.008,0.51,0.027,0.748,0.03c0.486,0.102,1.268,0.174,1.673,0.174l1.07-0.254    v-0.015l13.746-1.062l5.552-0.324c0.027-0.029,0.025-0.069,0.053-0.103l0.388-0.025c1.114-1.096,2.62-2.618,4.492-3.597    l14.77,3.985c2.781,0,4.588-1.046,6.526-2.158c2.059-1.159,4.186-2.353,7.657-2.353c1.888,0,3.607-0.095,5.277-0.212    c1.548-0.087,3.022-0.167,4.517-0.167c2.64,0,4.843,0.284,7.172,0.899c4.578,1.527,7.619,8.171,10.545,14.583    c1.336,2.879,2.615,5.719,4.033,8.001c5.992,8.998,22.69,19.953,33.672,19.953c3.544,0,6.776,0.146,10.1,0.439    c0.889,0.18,1.753,0.217,2.672,0.416c-0.771,0.781-1.355,1.851-1.958,3.004c-1.162,2.229-2.362,4.545-5.208,5.307    c-1.24,0.366-2.47,0.598-4.038,0.598c-0.651,0-3.83-0.11-3.83-0.11c-1.643,0-3.586,0.229-5.766,1.782    c-0.137,0.08-0.304,0.135-0.444,0.228c0.006,0.008,0.019,0.022,0.03,0.032c-0.068,0.051-0.163,0.072-0.224,0.139    c2.204,2.193,4.27,5.014,6.487,8.03c6.29,8.51,13.449,18.149,26.568,18.149c9.788,0,13.373-8.221,16.819-16.139    c1.816-4.125,3.526-8.041,5.867-10.467l4.269-0.298c0,1.138-0.976,2.838-1.837,4.364c-0.845,1.414-1.567,2.715-1.567,3.526    c0,3.554,1.287,6.933,2.629,10.562c1.512,3.934,3.036,8.002,3.036,12.695c0,3.562-0.636,5.596-1.339,7.784    c-0.669,2.193-1.387,4.447-1.822,7.966c0,0.871,0.236,2.467,0.445,4.062c0.22,1.548,0.456,3.168,0.456,4.053    c0,7.271,2.765,14.352,5.678,21.917c1.413,3.609,2.833,7.31,3.953,11.016c2.231,7.019,6.434,15.985,10.132,23.911    c2.925,6.204,5.651,12.046,6.895,15.812c0.601,1.902,1.024,3.57,1.456,5.116c1.134,4.223,2.033,7.592,5.396,13.092    c2.273,3.396,2.672,7.044,3.101,10.828c0.442,3.875,0.874,7.861,3.113,12.354c0.875,1.756,2.544,3.671,4.461,5.792    c3.103,3.539,6.598,7.497,8.012,12.309c1.919,5.82,4.351,11.335,6.91,17.262c2.696,6.202,5.491,12.591,7.833,19.656    c0.427,1.312,2.089,5.635,4.854,5.635c0.077,0,0.145,0,0.22-0.005c0.547,3.6,3.455,5.936,7.439,5.936    c0.448,0,0.9-0.026,1.313-0.066c3.479,0,4.77-3.726,6.015-7.394c0.479-1.374,0.981-2.841,1.587-4.075    c1.816-3.606,2.834-3.904,5.261-4.617c1.354-0.41,3.033-0.912,5.4-2.088c2-1.023,2.841-4.229,3.75-7.879    c1.232-4.72,2.569-10.114,7-11.376c0.5-0.146,1.153-0.312,1.842-0.416c1.861-0.347,4.005-0.681,3.818-1.846l3.002-0.892    l-2.815-14.699c0-4.984,1.494-9.617,3.065-14.562c1.828-5.808,3.709-11.851,3.709-19.439c0-4.438-0.885-7.981-1.881-11.784    c-1.026-3.901-2.078-7.937-2.078-13.144c0-10.06,8.524-12.683,17.564-15.438c1.483-0.462,2.981-0.857,4.369-1.343    c3.558-1.039,8.896-6.51,13.192-10.893l1.654-1.709c5.348-5.312,10.54-10.814,15.854-16.373    c5.325-5.642,10.777-11.343,16.482-17.041c4.39-4.381,10.369-7.246,16.78-10.272c6.728-3.231,13.656-6.552,18.918-11.829    c3.664-3.68,4.448-7.861,5.41-12.766c0.41-2.032,0.795-4.229,1.513-6.627c0.711-2.135,3.464-3.515,6.598-5.021    c4.062-2.041,8.722-4.312,10.572-8.986c1.182,0.73,2.093,1.461,2.876,2.137c2.302,2,4.099,3.562,10.851,3.562    c20.203,0,30.562-6.778,30.543-19.909c0.021-0.175,0.073-0.311,0.073-0.476c11.833,2.345,18.388,6.524,20.155,12.817    c0.887,2.604,1.271,5.502,1.623,8.603c0.62,4.86,1.301,9.925,4.11,14.168c4.149,6.745,9.7,11.045,16.685,16.554l2.03,1.566    c1.142,1.788,2.3,3.585,3.476,5.398c4.826,7.457,9.758,15.07,12.926,24.572c0.26,1.314,1.029,2.403,1.749,3.453    c0.874,1.219,1.652,2.367,1.652,3.861c0,2.938-0.633,5.234-1.294,7.719c-0.795,2.632-1.538,5.408-1.538,9.286    c0,7.638,0.688,14.453,9.279,14.453c11.149,0,16.646-8.192,21.931-16.076c2.342-3.425,4.727-6.926,7.189-9.821    c0.069-0.07,0.124-0.162,0.225-0.291c1.682,1.658,2.06,3.049,2.496,4.435c0.442,1.449,0.844,2.886,2.622,4.629    c0.451,0.501,1.445,0.654,2.568,0.767c1.671,0.167,3.775,0.37,4.8,2.093c2.727,4.098,1.819,10.169,1.011,15.482    c-0.604,4.066-1.135,7.584,0.271,9.193c0.413,0.461,0.947,0.771,1.512,0.771c0.152,0,0.319-0.021,0.521-0.139    c0,8.407,3.151,16.152,6.506,24.361c3.868,9.38,8.258,20.062,8.258,33.51c0,1.994-0.46,4.588-0.953,7.387    c-0.688,4.188-1.376,8.549-0.677,11.424c0.018,0.007,0.043,0.017,0.057,0.021c4.629,2.434,2.704-2.103,4.037-4.437    s10.667-21.333,10.667-21.333c5.667-11.667,0.667-13.666-1-25.333s-17-25.666-17-25.666c-3-6.333,5-15.334,5-15.334    c9.333-19.667-8.333-31.672-8.333-31.672c-12-10.339-6.001-23.796-6.001-23.796c1.5-6.969,12-14.53,12-14.53h10    c8-2,30.5-26,30.5-26C700.395,308.896,688.895,313.396,688.895,313.396z"/>
		<path fill="#34A893" d="M355.988,520.307c-0.506-0.722-1.072-1.397-1.533-2.22c0,0.156-0.013,0.239-0.013,0.335    c-0.069-0.096-0.157-0.179-0.278-0.335c0,8.603-2.006,16.082-3.998,23.354c-1.9,7.062-3.923,14.405-3.923,22.626    c0,7.59,5.947,16.148,14.445,16.148c11.383,0,18.402-13.726,18.402-23.515c0-11.797-6.744-18.678-13.9-25.982    C362.016,527.465,358.88,524.057,355.988,520.307z"/>
	</g>
	<path fill="#E2723B" d="M608.729,227.729c0,0,20.666-11.667,23-12.333c0,0,5.334,5.333,6.666,4.333c0,0,1.334-2.333-0.33-4.333   c0,0-4.334-2.333-2.67-3.333c1.034-0.62,5.018-4.957,7.894-8.163c-3.355-1.828-6.833-3.112-9.894-4.004   c-12-3.5-15.5-11.5-15.5-11.5c0-5.5-6-10.5-6-10.5c-3-2-6.5,6.5-6.5,6.5l-15.384-1c-4.884,0-30.116,21.5-39.616,25.5   c-0.286,0.122-0.586,0.229-0.889,0.323c2.029,2.375,3.914,4.701,5.225,6.511c0,0,4.334,5.333,0.666,6.333c-3.666,1-3.666,2-7,1.333   c-3.332-0.667-3-1.333-8-0.667s-9.332,4.667-15.332,4s-21.668-5.333-23.334-7l-1.387-4.705c-1.853,2.249-2.947,3.872-2.947,3.872   c0.42-7.965-3.207-11.265-7.559-12.42c0.736,0.771,1.966,2.512,0.227,4.253c-2.334,2.333-5.668,3-3.668,7.333   s5.668,11.333,3,12.333c0,0-6.998,3-8.666,2c-1.666-1-15.334,1.667-17.334,0s-4.332-3.333-4.332-3.333s-18.334-0.334-21-5.667   c0,0-5.334,0.334-6.668-3.333c-1.332-3.667-1.334-6.334-5-6.667s-16.331,2.667-19.666,0.667c-3.334-2-7.666-2.333-9.666-3.333   s1.665-0.667-6.668-5.333c-8.332-4.666-9.666-4.333-16.332-7.667c-6.668-3.334-15.666-4.667-15.334-10   c0.334-5.333,3.666-8,5.334-13c1.653-4.967-2.275-2.373,4.205-7.238c-6.348-1.799-10.748-5.172-10.748-5.172   c-6.375-7.076-8.125-6.424-17.125-7.924s-6.5-10-8-20s6.5-7,6.5-7c12-2.5,4.5-8.5-2-18.5s11.5-15,19-23.5s-13-28-20-20.5   s-16.5,9-16.5,9c-28.5-1.5-30-18-32.5-22.5s-13.834-3.666-13.834-3.666c-4-1.333-3.333-8-3.333-8c-6.667-3.333-18-3.333-36,5.333   c-1.059,0.51-2.05,0.945-2.988,1.322c0.293,3.866,1.966,7.993,7.655,8.51c0,0,7,7,13,6c0,0,0,6.5,6.5,8l-11,7.5l4.5,32   c0,0,9,6.5,15,5c0,0-1.5,7,1.5,6.5s7.5,0,10,4c0,0-13,2.5-13,5s-1,15-1,15l2,1.5l-11,12c0,0-2,1.5,0,5c0,0-6.5,4.5-9,11.5   c0,0-0.5,6-7.5,10.5s-10,2.5-12.5,12l-4,3.5l-1.5,5.5c0,0-8.5,0.5-12,1.5s-2.5,1.5-5-1s-3.5-9-7.5-4.5s-5.5,7.5-5.5,10l-6,6.5   c0,0-7.5,7,1.5,10c0,0,5-1.5,6,1.5s-4,15.5,2,17c0,0,7.5-3,8.5,2c0,0-0.5,6.5,1.5,11.5s3.5,11.5,1,12s-12,0-17.5,1.5   c0,0-13.107,0.523-20.554-0.738c0,0-12.719,9.702,12.463,25.132c0.164,0.005,0.33,0.016,0.491,0.016   c3.544,0,6.776,0.146,10.1,0.438c0.889,0.18,1.753,0.217,2.672,0.417c-0.771,0.779-1.355,1.85-1.958,3.003   c-1.162,2.229-2.362,4.545-5.208,5.308c-1.24,0.365-2.47,0.598-4.038,0.598c-0.651,0-3.83-0.111-3.83-0.111   c-1.643,0-3.586,0.229-5.766,1.785c-0.137,0.076-0.304,0.132-0.444,0.225c0.006,0.01,0.019,0.021,0.03,0.032   c-0.068,0.051-0.163,0.075-0.224,0.142c2.204,2.19,4.271,5.01,6.487,8.027c6.29,8.51,13.449,18.15,26.568,18.15   c9.788,0,13.373-8.221,16.819-16.139c1.816-4.125,3.526-8.041,5.867-10.468l4.269-0.298c0,1.138-0.976,2.838-1.837,4.363   c-0.845,1.416-1.567,2.716-1.567,3.529c0,3.551,1.287,6.93,2.629,10.562c1.512,3.933,3.036,8.002,3.036,12.696   c0,3.562-0.636,5.595-1.339,7.785c-0.669,2.19-1.387,4.444-1.822,7.963c0,0.873,0.236,2.469,0.445,4.062   c0.22,1.548,0.456,3.168,0.456,4.054c0,7.271,2.765,14.35,5.678,21.918c1.413,3.607,2.833,7.307,3.953,11.015   c2.231,7.018,6.434,15.984,10.132,23.913c2.925,6.201,5.651,12.045,6.895,15.812c0.601,1.902,1.024,3.57,1.456,5.116   c1.134,4.223,2.033,7.592,5.396,13.092c2.273,3.397,2.672,7.044,3.101,10.828c0.442,3.875,0.874,7.863,3.113,12.354   c0.875,1.759,2.544,3.674,4.461,5.792c3.103,3.539,6.598,7.497,8.012,12.309c1.919,5.823,4.351,11.335,6.91,17.262   c2.696,6.202,5.491,12.591,7.833,19.656c0.427,1.312,2.089,5.635,4.854,5.635c0.077,0,0.145,0,0.22-0.005   c0.547,3.6,3.453,5.936,7.438,5.936c0.448,0,0.9-0.026,1.313-0.066c3.479,0,4.77-3.726,6.015-7.394   c0.479-1.374,0.981-2.841,1.587-4.072c1.816-3.609,2.834-3.907,5.263-4.62c1.354-0.41,3.031-0.912,5.398-2.086   c2-1.025,2.841-4.229,3.75-7.878c1.232-4.723,2.569-10.117,7-11.376c0.5-0.149,1.153-0.312,1.842-0.416   c1.861-0.35,4.007-0.684,3.818-1.849l3.002-0.892l-2.813-14.699c0-4.983,1.492-9.617,3.063-14.562   c1.828-5.811,3.709-11.854,3.709-19.442c0-4.438-0.885-7.981-1.881-11.784c-1.026-3.898-2.078-7.937-2.078-13.144   c0-10.06,8.524-12.683,17.563-15.438c1.484-0.462,2.982-0.856,4.371-1.343c3.557-1.039,8.896-6.51,13.191-10.891l1.654-1.709   c5.348-5.312,10.54-10.816,15.854-16.374c5.325-5.641,10.777-11.342,16.482-17.043c4.39-4.381,10.369-7.244,16.782-10.271   c6.726-3.23,13.654-6.551,18.917-11.829c3.666-3.679,4.447-7.86,5.41-12.765c0.409-2.033,0.797-4.229,1.512-6.626   c0.711-2.136,3.464-3.515,6.598-5.021c4.062-2.041,8.722-4.312,10.572-8.988c1.182,0.731,2.093,1.463,2.876,2.139   c2.302,2,4.099,3.562,10.851,3.562c5.303,0,9.916-0.474,13.854-1.396l-2.011-17.223c0,0,3.336-9.667-6.332-14.333   c0,0,1.998-4.333,0.666-6.999c0,0,3.334-4.667,2.666-6c-0.666-1.334-8.334-5-8.666-6c-0.334-1-1.334-4-1.334-4s4,0.667,5-2.333   c0,0-0.666-4.333,2.668-3.333c3.332,1,6.666,0.667,7.332-3.333c0,0-0.666-4.667-6.332-4.333c0,0-6-2.333-7.668-4.333   c0,0,2.334-9.333,5-11.667c0,0,3,4.667,7,3c0,0,1.334-1,3.334,2.333c0,0,5.331,5.666,8,3.333c0,0,0-4.667,2-3.667s1.666,4,2,6.333   s-3,10.666,7.666,10.333c0,0,4.668,0,7,0.667c0,0,11.666-1,15.334,0c3.666,1,5.331,1,8,1.333c0,0,4,2,0.334,3   c0,0-2.003,0.667,0.666,2.667c0,0,1,3.333-2.334,3.667c0,0-3.332,0.333-3,3.334c0,0-1.334,2.333-4.666,4   c0,0-9.332,3.332-6.666,8.999c0,0,2.33,3.333,2.666,6c0,0,1.334,3.668,3.666,4.334c0,0,1,3.334,2.334,3c0,0,3.666-2.333,2-7   c0,0-0.666-4.333,2.666-5c0,0,3.474-3.762,4.758,1.384c0.094,0.378,0.176,0.804,0.242,1.282c1,7,4,14,4.334,18.333   c0,0-1.666,10.332,5.334,6.666c0,0,7-2,6.331-6.332c-0.666-4.334-5-10.333-1-13c0,0,4-0.667,4-5s-1.331-9-1.331-9   s5.666,2,9.666,1.333c0,0,2.668,1.667,4.334,0.667c0,0,1-3,2.331-8c1.334-5,1.669-5,3.669-9s0.997-5.333,0.666-7.667   c0,0,0.666-7.333,5.666-13S608.061,231.396,608.729,227.729z"/>
</g>
<image enable-background="new    " width="33" height="52" id="IndiaMarker" xlink:href="marker.png" transform="matrix(1 0 0 1 223.3945 343.3945)">
</image>
<text id="IndiaLabel" transform="matrix(0.9558 0 0 1 256.8828 396.4316)" fill="#FEFED1" font-family="'SourceSansPro-Semibold'" font-size="18">Mumbai (India)</text>
</svg>
