<?xml version="1.0" encoding="utf-8"?>
<!-- Generator: Adobe Illustrator 15.0.2, SVG Export Plug-In . SVG Version: 6.00 Build 0)  -->
<!DOCTYPE svg PUBLIC "-//W3C//DTD SVG 1.1//EN" "http://www.w3.org/Graphics/SVG/1.1/DTD/svg11.dtd">
<svg xmlns="http://www.w3.org/2000/svg" xmlns:xlink="http://www.w3.org/1999/xlink" version="1.1" id="Layer_3" x="0px" y="0px" width="596px" height="428px" viewBox="0 0 596 428" xml:space="preserve">
<g id="Doc1">
	<polygon fill="#FEFED1" points="227.847,21 432,21 432,411 159,411 159,88.397  "/>
	<polygon fill-opacity="0.2" points="159.313,88.397 228.02,88.397 227.847,20.918  "/>
	
		<line fill="none" stroke="#000000" stroke-width="3" stroke-linecap="round" stroke-miterlimit="10" stroke-opacity="0.2" x1="202.869" y1="366.292" x2="390.586" y2="366.292"/>
	
		<line fill="none" stroke="#000000" stroke-width="3" stroke-linecap="round" stroke-miterlimit="10" stroke-opacity="0.2" x1="202.869" y1="349.115" x2="390.586" y2="349.115"/>
	
		<line fill="none" stroke="#000000" stroke-width="3" stroke-linecap="round" stroke-miterlimit="10" stroke-opacity="0.2" x1="202.869" y1="333.165" x2="390.586" y2="333.165"/>
	
		<line fill="none" stroke="#000000" stroke-width="3" stroke-linecap="round" stroke-miterlimit="10" stroke-opacity="0.2" x1="202.869" y1="315.988" x2="390.586" y2="315.988"/>
	
		<line fill="none" stroke="#000000" stroke-width="3" stroke-linecap="round" stroke-miterlimit="10" stroke-opacity="0.2" x1="202.869" y1="130.727" x2="390.586" y2="130.727"/>
	
		<line fill="none" stroke="#000000" stroke-width="3" stroke-linecap="round" stroke-miterlimit="10" stroke-opacity="0.2" x1="202.869" y1="113.549" x2="390.586" y2="113.549"/>
	<path id="light-bulb-18-icon_2_" opacity="0.7" fill="#00797D" d="M308.139,265.089h-24.083   c-1.688,0-3.057,1.368-3.057,3.058c0,1.688,1.369,3.062,3.057,3.062h24.083c1.688,0,3.062-1.368,3.062-3.062   C311.195,266.457,309.825,265.089,308.139,265.089z M307.588,275.266h-22.984c-1.688,0-3.057,1.37-3.057,3.062   c0,1.688,1.368,3.058,3.057,3.058h22.984c1.688,0,3.057-1.364,3.057-3.058C310.645,276.636,309.276,275.266,307.588,275.266z    M284.76,285.299c5.951,5.503,6.564,6.607,8.938,6.607h4.576c2.317,0,2.895-1.024,9.15-6.607H284.76z M330.89,212.065   c0,20.695-17.798,32.292-17.798,48.625h-8.104c0.007-20.129,17.646-30.729,17.646-48.625c0-33.495-53.088-33.548-53.088,0   c0,17.876,17.343,28.022,17.74,48.625h-8.193c0-16.332-17.797-27.93-17.797-48.625C261.301,167.587,330.89,167.544,330.89,212.065z    M300.499,170.042h-8.324v-14.983h8.324V170.042z M329.084,163.019l-7.335-3.935l-7.325,13.651l7.335,3.938L329.084,163.019z    M350.374,183.637l-4.851-6.767l-13.319,9.546l4.851,6.768L350.374,183.637z M351.844,236.148l-14.979-6.069l-3.124,7.716   l14.979,6.073L351.844,236.148z M356.828,206.727h-16.981v8.323h16.981V206.727z M277.803,172.735l-7.325-13.651l-7.336,3.935   l7.326,13.654L277.803,172.735z M260.022,186.416l-13.32-9.546l-4.849,6.767l13.32,9.545L260.022,186.416z M258.639,237.066   l-3.415-7.592l-14.985,6.731l3.414,7.591L258.639,237.066z M252.381,206.727h-16.983v8.323h16.983V206.727z"/>
	<g>
		<polygon fill="#00797D" points="382.534,67.17 371.781,61.317 359.93,83.527 367.891,81.131 370.399,89.463   "/>
		<polygon fill="#00797D" points="372.629,67.17 383.381,61.317 395.232,83.527 387.272,81.131 384.764,89.463   "/>
	</g>
	<g>
		<path fill="#41A38D" d="M397.721,57.275c0,0.966-4.051,1.604-4.189,2.527c-0.149,0.95,3.506,2.803,3.216,3.697    c-0.296,0.91-4.353,0.263-4.774,1.104c-0.434,0.85,2.469,3.747,1.908,4.512c-0.56,0.77-4.21-1.099-4.881-0.428    s1.197,4.32,0.428,4.881c-0.765,0.557-3.664-2.342-4.514-1.908c-0.84,0.43-0.191,4.479-1.104,4.773    c-0.895,0.291-2.747-3.364-3.689-3.215c-0.929,0.146-1.562,4.196-2.528,4.196s-1.604-4.051-2.527-4.196    c-0.945-0.149-2.803,3.506-3.69,3.215c-0.91-0.295-0.27-4.345-1.104-4.774c-0.85-0.434-3.745,2.466-4.512,1.909    c-0.771-0.56,1.1-4.21,0.428-4.881c-0.671-0.671-4.317,1.196-4.881,0.427c-0.559-0.766,2.342-3.662,1.908-4.512    c-0.433-0.84-4.479-0.192-4.773-1.103c-0.29-0.895,3.364-2.747,3.218-3.696c-0.146-0.925-4.192-1.562-4.192-2.528    c0-0.966,4.051-1.604,4.192-2.527c0.146-0.95-3.508-2.803-3.218-3.697c0.296-0.91,4.35-0.262,4.773-1.103    c0.436-0.849-2.468-3.748-1.908-4.513c0.562-0.77,4.21,1.099,4.881,0.428c0.672-0.671-1.193-4.321-0.427-4.881    c0.767-0.558,3.662,2.342,4.512,1.908c0.844-0.429,0.192-4.479,1.104-4.773c0.896-0.291,2.747,3.364,3.691,3.215    c0.929-0.146,1.562-4.196,2.527-4.196s1.604,4.051,2.528,4.196c0.946,0.149,2.802-3.506,3.69-3.215    c0.909,0.295,0.269,4.344,1.104,4.773c0.85,0.434,3.747-2.465,4.513-1.908c0.771,0.561-1.1,4.21-0.429,4.881    c0.671,0.671,4.321-1.197,4.882-0.429c0.56,0.766-2.343,3.663-1.909,4.513c0.436,0.842,4.479,0.193,4.774,1.104    c0.29,0.895-3.365,2.747-3.216,3.696C393.67,55.672,397.721,56.31,397.721,57.275z"/>
	</g>
</g>
</svg>
