<?xml version="1.0" encoding="utf-8"?>
<!-- Generator: Adobe Illustrator 15.0.2, SVG Export Plug-In . SVG Version: 6.00 Build 0)  -->
<!DOCTYPE svg PUBLIC "-//W3C//DTD SVG 1.1//EN" "http://www.w3.org/Graphics/SVG/1.1/DTD/svg11.dtd">
<svg xmlns="http://www.w3.org/2000/svg" xmlns:xlink="http://www.w3.org/1999/xlink" version="1.1" id="Layer_3" x="0px" y="0px" width="596px" height="428px" viewBox="0 0 596 428" xml:space="preserve">
<g id="Chemistry">
	<g>
		<path fill="#65C8C3" d="M393.553,313.764c0,4.676-3.827,8.504-8.504,8.504H206.776c-4.677,0-8.504-3.828-8.504-8.504V73.126    c0-4.677,3.827-8.504,8.504-8.504h178.273c4.677,0,8.504,3.827,8.504,8.504V313.764z"/>
		<line fill="none" stroke="#FFFFFF" stroke-miterlimit="10" x1="367.493" y1="294.713" x2="393.553" y2="294.713"/>
		<line fill="none" stroke="#FFFFFF" stroke-miterlimit="10" x1="367.493" y1="271.21" x2="393.553" y2="271.21"/>
		<line fill="none" stroke="#FFFFFF" stroke-miterlimit="10" x1="367.493" y1="247.707" x2="393.553" y2="247.707"/>
		<line fill="none" stroke="#FFFFFF" stroke-miterlimit="10" x1="356.322" y1="224.208" x2="393.553" y2="224.208"/>
		<line fill="none" stroke="#FFFFFF" stroke-miterlimit="10" x1="367.493" y1="200.705" x2="393.553" y2="200.705"/>
		<line fill="none" stroke="#FFFFFF" stroke-miterlimit="10" x1="367.493" y1="177.203" x2="393.553" y2="177.203"/>
		<line fill="none" stroke="#FFFFFF" stroke-miterlimit="10" x1="367.493" y1="153.702" x2="393.553" y2="153.702"/>
		<line fill="none" stroke="#FFFFFF" stroke-miterlimit="10" x1="367.493" y1="130.201" x2="393.553" y2="130.201"/>
		<line fill="none" stroke="#FFFFFF" stroke-miterlimit="10" x1="356.322" y1="106.698" x2="393.553" y2="106.698"/>
		<path fill="#65C8C3" d="M403.235,73.93c0,6.786-5.503,12.285-12.287,12.285H203.39c-6.785,0-12.286-5.499-12.286-12.285l0,0    c0-6.786,5.501-12.287,12.286-12.287h187.558C397.732,61.643,403.235,67.144,403.235,73.93L403.235,73.93z"/>
		<rect x="194.455" y="85.1" fill="#0D4C57" width="202.916" height="2.232"/>
	</g>
	<g>
		<path fill="#41A38D" d="M162.714,153.702l9.309,16.658v149.861c0,14.493,11.75,26.247,26.249,26.247    c14.495,0,26.25-11.754,26.25-26.247V153.702H162.714z"/>
		<path fill="#00797D" d="M178.355,247.707v72.514c0,10.979,8.936,19.916,19.917,19.916c10.982,0,19.916-8.937,19.916-19.916    v-72.514H178.355z"/>
		<path fill="#653015" d="M235.988,345.523c0.22,1.543-0.875,2.807-2.434,2.807h-70.568c-1.559,0-2.654-1.264-2.434-2.807    l2.92-20.451c0.22-1.543,1.676-2.807,3.235-2.807h63.129c1.559,0,3.015,1.264,3.235,2.807L235.988,345.523z"/>
		<line fill="none" stroke="#FFFFFF" stroke-miterlimit="10" x1="172.207" y1="306.463" x2="188.778" y2="306.463"/>
		<line fill="none" stroke="#FFFFFF" stroke-miterlimit="10" x1="172.207" y1="282.96" x2="188.778" y2="282.96"/>
		<line fill="none" stroke="#FFFFFF" stroke-miterlimit="10" x1="172.207" y1="259.457" x2="188.778" y2="259.457"/>
		<line fill="none" stroke="#FFFFFF" stroke-miterlimit="10" x1="172.207" y1="235.959" x2="188.778" y2="235.959"/>
		<circle fill="#FFFFFF" cx="203.019" cy="119.59" r="4.747"/>
		<circle fill="#FFFFFF" cx="193.525" cy="140.811" r="4.747"/>
		<circle fill="#FFFFFF" cx="191.662" cy="126.707" r="2.354"/>
	</g>
	<g>
		<rect x="266.458" y="164.403" fill="#FFFFFF" width="59.025" height="5.214"/>
		<path fill="#FFFFFF" d="M374.658,337.842l-29.116-67.482c-11.036-25.584-20.065-69.312-20.065-97.17l0.001-0.877H266.46v0.877    c0,27.864-8.783,71.698-19.518,97.409l-27.98,67.021c-10.736,25.704,2.449,46.745,29.3,46.745c26.853,0,70.791,0,97.643,0    C372.759,384.357,385.695,363.425,374.658,337.842z"/>
		<path fill="#FFFFFF" d="M331.814,160.681c0,5.242-4.248,9.495-9.492,9.495h-52.496c-5.242,0-9.494-4.253-9.494-9.495l0,0    c0-5.244,4.251-9.495,9.494-9.495h52.496C327.566,151.186,331.814,155.437,331.814,160.681L331.814,160.681z"/>
		<path fill="#BBD646" d="M362.03,342.859l-26.171-60.655c-1.077,0.147-2.189,0.247-3.365,0.247c-6.23,0-11.09-2.125-14.579-5.434    c-0.146,0.146-0.268,0.313-0.415,0.467c-4.102,4.104-9.735,6.438-15.538,6.438c-7.557,0-14.669-4.012-18.647-10.406    c-3.25,5.76-9.184,9.952-17.835,9.952c-3.968,0-7.35-0.899-10.182-2.407l-25.646,61.434c-3.59,8.602-3.66,16.521-0.193,21.729    c3.21,4.816,9.535,7.476,17.808,7.476h97.643c8.243,0,14.5-2.606,17.615-7.347C365.888,359.223,365.709,351.391,362.03,342.859z"/>
		<circle fill="#FFFFFF" cx="335.302" cy="334.17" r="4.746"/>
		<path fill="#FFFFFF" d="M319.235,348.824c-1.505,2.148-4.464,2.67-6.61,1.164c-2.15-1.506-2.668-4.467-1.165-6.613    c1.506-2.146,4.464-2.667,6.614-1.162C320.222,343.721,320.742,346.676,319.235,348.824z"/>
		<circle fill="#FFFFFF" cx="321.917" cy="333.481" r="2.354"/>
		<path fill="#8CA135" d="M250.909,336.035c1.706-1.989,4.701-2.219,6.692-0.512c1.988,1.707,2.218,4.705,0.51,6.688    c-1.706,1.99-4.706,2.227-6.694,0.521C249.429,341.021,249.201,338.023,250.909,336.035z"/>
		<path fill="#8CA135" d="M271.932,326.111c1.708-1.991,4.703-2.221,6.692-0.512c1.993,1.709,2.219,4.705,0.514,6.688    c-1.709,1.987-4.704,2.218-6.697,0.517C270.451,331.096,270.223,328.104,271.932,326.111z"/>
		<circle fill="#8CA135" cx="267.763" cy="341.119" r="2.354"/>
	</g>
	<g>
		<path fill="#0D4C57" d="M425.073,286.954c-1.657,0-3.019-1.354-3.019-3.013V261.01c0-1.652,1.354-3.01,3.019-3.01h9.105    c1.657,0,3.02,1.354,3.02,3.01v22.932c0,1.658-1.355,3.017-3.02,3.017L425.073,286.954L425.073,286.954z"/>
		<path fill="#FFFFFF" d="M446.322,316.753c0,2.923-2.396,5.313-5.316,5.313h-22.754c-2.924,0-5.314-2.396-5.314-5.313v-36.22    c0-2.922,2.396-5.314,5.314-5.314h22.754c2.925,0,5.316,2.393,5.316,5.314V316.753z"/>
		<path fill="#00797D" d="M442.777,267.697c0,1.654-1.356,3.014-3.02,3.014h-20.27c-1.658,0-3.019-1.357-3.019-3.014v-6.688    c0-1.651,1.354-3.01,3.019-3.01h20.271c1.656,0,3.02,1.354,3.02,3.01L442.777,267.697L442.777,267.697z"/>
		<rect x="412.938" y="288.229" fill="#41A38D" width="36.401" height="20.826"/>
		<path fill="#0D4C57" d="M464.77,286.954c-1.653,0-3.014-1.354-3.014-3.013V261.01c0-1.652,1.354-3.01,3.014-3.01h9.111    c1.655,0,3.014,1.354,3.014,3.01v22.932c0,1.658-1.354,3.017-3.014,3.017L464.77,286.954L464.77,286.954z"/>
		<path fill="#FFFFFF" d="M486.016,316.753c0,2.923-2.391,5.313-5.312,5.313H457.95c-2.922,0-5.316-2.396-5.316-5.313v-36.22    c0-2.922,2.396-5.314,5.316-5.314h22.75c2.925,0,5.312,2.393,5.312,5.314L486.016,316.753L486.016,316.753z"/>
		<path fill="#00797D" d="M482.472,267.697c0,1.654-1.354,3.014-3.014,3.014h-20.271c-1.656,0-3.02-1.357-3.02-3.014v-6.688    c0-1.651,1.355-3.01,3.02-3.01h20.271c1.657,0,3.014,1.354,3.014,3.01V267.697z"/>
		<rect x="460.199" y="288.229" fill="#41A38D" width="25.812" height="20.826"/>
		<path fill="#0D4C57" d="M448.078,307.812c-1.658,0-3.016-1.355-3.016-3.02V281.87c0-1.656,1.354-3.013,3.016-3.013h9.109    c1.65,0,3.015,1.354,3.015,3.013v22.929c0,1.657-1.357,3.014-3.015,3.014H448.078L448.078,307.812z"/>
		<path fill="#FFFFFF" d="M469.325,337.607c0,2.924-2.396,5.312-5.317,5.312h-22.752c-2.923,0-5.312-2.396-5.312-5.312v-36.217    c0-2.931,2.394-5.315,5.312-5.315h22.752c2.926,0,5.317,2.392,5.317,5.315V337.607z"/>
		<path fill="#00797D" d="M465.782,288.557c0,1.657-1.357,3.01-3.021,3.01H442.49c-1.657,0-3.021-1.353-3.021-3.01v-6.687    c0-1.656,1.356-3.013,3.021-3.013h20.271c1.658,0,3.021,1.354,3.021,3.013V288.557z"/>
		<rect x="435.939" y="309.088" fill="#41A38D" width="33.386" height="20.826"/>
	</g>
	<g>
		<path fill="#0D4C57" d="M143.447,373.223c0,2.932-2.375,5.305-5.305,5.305l0,0c-2.931,0-5.306-2.373-5.306-5.305v-82.097    c0-2.927,2.375-5.308,5.306-5.308l0,0c2.93,0,5.305,2.381,5.305,5.308V373.223z"/>
		<rect x="130.788" y="275.143" fill="#FEFED1" width="14.708" height="23.317"/>
		<path fill="#00797D" d="M124.833,373.223c0,2.932-2.378,5.305-5.306,5.305l0,0c-2.932,0-5.307-2.373-5.307-5.305v-82.097    c0-2.927,2.375-5.308,5.307-5.308l0,0c2.928,0,5.306,2.381,5.306,5.308V373.223z"/>
		<rect x="112.17" y="275.143" fill="#41A38D" width="14.708" height="23.317"/>
		<rect x="132.836" y="312.958" fill="#FFFFFF" width="10.611" height="40.211"/>
		<rect x="114.22" y="312.958" fill="#FFFFFF" width="10.612" height="40.211"/>
	</g>
</g>
</svg>
