<?xml version="1.0" encoding="utf-8"?>
<!-- Generator: Adobe Illustrator 15.0.2, SVG Export Plug-In . SVG Version: 6.00 Build 0)  -->
<!DOCTYPE svg PUBLIC "-//W3C//DTD SVG 1.1//EN" "http://www.w3.org/Graphics/SVG/1.1/DTD/svg11.dtd">
<svg xmlns="http://www.w3.org/2000/svg" xmlns:xlink="http://www.w3.org/1999/xlink" version="1.1" id="Layer_3" x="0px" y="0px" width="596px" height="428px" viewBox="0 0 596 428" xml:space="preserve">
<g id="Time">
	<g>
		<path id="time-8-icon_2_" opacity="0.2" fill="#FFFFFF" d="M368.443,248.768H267.228V137.535h32.192    v79.04h69.023V248.768L368.443,248.768z M412.282,326.291c26.272-28.74,42.312-67.007,42.312-109.021    c0-89.247-72.345-161.594-161.598-161.594c-89.246,0-161.597,72.347-161.597,161.594c0,42.021,16.036,80.275,42.314,109.021    c-8.089,20.123-18.698,46.523-25.875,64.381c-1.08,2.694-0.283,5.775,1.971,7.605c2.252,1.836,5.442,1.979,7.856,0.371    c16.441-10.996,40.902-27.367,58.535-39.158c22.839,12.361,48.999,19.378,76.795,19.378c27.798,0,53.955-7.017,76.797-19.378    l58.532,39.158c2.417,1.608,5.604,1.471,7.854-0.362c2.257-1.829,3.062-4.915,1.971-7.614L412.282,326.291z M293,338.636    c-67.072,0-121.363-54.28-121.363-121.364C171.637,150.2,225.92,95.909,293,95.909c67.068,0,121.361,54.277,121.361,121.362    C414.361,284.34,360.082,338.636,293,338.636z M220.461,43.378C209.509,36.855,196.719,33.1,183.045,33.1    c-40.491,0-73.32,32.832-73.32,73.327c0,13.462,3.641,26.068,9.971,36.909C138.969,98.336,175.275,62.293,220.461,43.378z     M466.304,143.336c6.334-10.841,9.979-23.447,9.979-36.909c0-40.495-32.832-73.327-73.321-73.327    c-13.673,0-26.462,3.756-37.417,10.278C410.725,62.293,447.029,98.336,466.304,143.336z"/>
	</g>
	<g>
		<path fill="#CCCCCC" d="M457.671,305.688c0,5.502-4.5,10.002-10.001,10.002h-96.985c-5.501,0-10.001-4.5-10.001-10.002V142.023    c0-5.501,4.5-10.001,10.001-10.001h96.985c5.501,0,10.001,4.5,10.001,10.001V305.688z"/>
		<circle fill="#00797D" cx="375.645" cy="167.824" r="10.534"/>
		<circle fill="#00797D" cx="422.711" cy="167.824" r="10.534"/>
		<circle fill="#00797D" cx="375.645" cy="205.178" r="10.534"/>
		<circle fill="#00797D" cx="422.711" cy="205.178" r="10.534"/>
		<circle fill="#00797D" cx="375.645" cy="242.533" r="10.534"/>
		<circle fill="#00797D" cx="422.711" cy="242.533" r="10.534"/>
		<circle fill="#00797D" cx="375.645" cy="279.887" r="10.534"/>
		<circle fill="#00797D" cx="422.711" cy="279.887" r="10.534"/>
	</g>
	<g>
		<path fill="#653015" d="M216.5,305.688c0,5.502-4.5,10.002-10,10.002h-70.247c-5.5,0-10-4.5-10-10.002v-72.637    c0-5.501,4.5-10.001,10-10.001H206.5c5.5,0,10,4.5,10,10.001V305.688z"/>
		<circle fill="#653015" cx="171.376" cy="225.448" r="45.124"/>
		<path fill="#FFFFFF" d="M204.456,175.164c0,5.5-4.5,10-10,10h-46.159c-5.5,0-10-4.5-10-10v-26.326c0-5.5,4.5-10,10-10h46.159    c5.5,0,10,4.5,10,10V175.164z"/>
		<rect x="126.252" y="225.893" fill="#FEFED1" width="90.248" height="58.422"/>
	</g>
	<g>
		<path fill="#999999" d="M287.697,156.808c-3.119,0-5.67-2.552-5.67-5.669v-37.502c0-3.117,2.551-5.669,5.67-5.669h14.188    c3.118,0,5.669,2.552,5.669,5.669v37.502c0,3.117-2.551,5.669-5.669,5.669H287.697z"/>
		<path fill="#E6E6E6" d="M322.949,206.033c0,5.5-4.5,10-10.001,10h-36.31c-5.5,0-10-4.5-10-10V147.01c0-5.5,4.5-10,10-10h36.31    c5.501,0,10.001,4.5,10.001,10V206.033z"/>
		<path fill="#B3B3B3" d="M316.972,123.738c0,3.119-2.551,5.67-5.669,5.67h-33.02c-3.118,0-5.669-2.551-5.669-5.67v-10.104    c0-3.117,2.551-5.669,5.669-5.669h33.02c3.118,0,5.669,2.552,5.669,5.669V123.738z"/>
		<rect x="287.836" y="159.418" fill="#FFFFFF" width="35.113" height="34.209"/>
	</g>
	<g>
		<ellipse fill="#FFB9B8" cx="272.68" cy="255.104" rx="11.356" ry="19.943"/>
		<circle fill="#FEFED1" cx="238.016" cy="261.219" r="8.152"/>
		<path fill="#FEFED1" d="M319.298,283.139v-20.955c0-6.766-5.479-12.252-12.252-12.252c-6.767,0-12.252,5.486-12.252,12.252v20.955    H319.298z"/>
		<path fill="#BBD646" d="M294.794,282.482v20.953c0,6.768,5.485,12.252,12.252,12.252c6.771,0,12.252-5.484,12.252-12.252v-20.953    H294.794z"/>
		<path fill="#0071BC" d="M275.833,300.146c2.681,1.562,2.681,4.121,0,5.686l-14.896,8.684c-2.682,1.564-7.069,1.564-9.75,0    l-14.897-8.684c-2.681-1.562-2.681-4.121,0-5.684l14.897-8.688c2.681-1.562,7.068-1.562,9.75,0L275.833,300.146z"/>
	</g>
</g>
</svg>
