<?xml version="1.0" encoding="utf-8"?>
<!-- Generator: Adobe Illustrator 15.0.2, SVG Export Plug-In . SVG Version: 6.00 Build 0)  -->
<!DOCTYPE svg PUBLIC "-//W3C//DTD SVG 1.1//EN" "http://www.w3.org/Graphics/SVG/1.1/DTD/svg11.dtd">
<svg xmlns="http://www.w3.org/2000/svg" xmlns:xlink="http://www.w3.org/1999/xlink" version="1.1" id="Layer_3" x="0px" y="0px" width="596px" height="428px" viewBox="0 0 596 428" xml:space="preserve">
<g id="Sign">
	<g>
		<rect x="469" y="276" fill="#435463" width="62" height="79"/>
		<path fill="#435463" d="M563.517,247.016c0.372,27.482-25.128,49.562-56.142,49.98L507.138,297    c-31.013,0.417-56.231-20.979-56.604-48.46l-1.034-76.732c-0.37-27.482,24.257-50.374,55.271-50.792l0.235-0.003    c31.012-0.418,57.11,21.789,57.481,49.271L563.517,247.016z"/>
		<polygon fill="#FFFFFF" points="507,120.035 497.52,117.85 481.934,124.184 497.317,192.031 507,149.479   "/>
		<polygon fill="#C2313D" points="487.25,131.75 503.5,129.75 499.036,141.409 505.7,162.271 497.842,197.06 490.416,165.764     494.467,141.5   "/>
		<circle fill="#323F4A" cx="498" cy="272.667" r="2.334"/>
		<circle fill="#323F4A" cx="496" cy="247.667" r="2.334"/>
		<circle fill="#E8B89A" cx="488.616" cy="98.736" r="35.808"/>
		<path fill="#653015" d="M488.616,62.927c-13.002,0-24.386,6.931-30.657,17.298c1.526,0.199,3.077,0.319,4.657,0.319    c7.968,0,15.321-2.606,21.27-7.006c3.132,13.018,14.845,22.693,28.823,22.693c4.036,0,7.882-0.81,11.389-2.27    C521.762,76.444,506.773,62.927,488.616,62.927z"/>
	</g>
	<g>
		<path fill="#B6CABC" d="M177,254.012C177,285.484,151.486,311,120.012,311h-0.024C88.514,311,63,285.484,63,254.012V161.99    C63,130.515,88.514,105,119.988,105h0.024C151.486,105,177,130.515,177,161.988V254.012z"/>
		<rect x="89" y="291" fill="#B6CABC" width="75" height="51"/>
		<path fill="#FFFFFF" d="M123.161,105.064l40.757,104.223c0,0,2.911-47.017-13.683-92.433l-6.833,3.057L123.161,105.064z"/>
		<circle fill="#FFB9B8" cx="146.529" cy="83.012" r="36.901"/>
		<path fill="#FFFFFF" d="M109.72,80.544c6.283,4.958,14.21,7.925,22.835,7.925c19.551,0,35.539-15.205,36.809-34.433    c-6.282-4.958-14.209-7.925-22.835-7.925C126.979,46.111,110.991,61.317,109.72,80.544z"/>
		<path fill="#FFB9B8" d="M125.042,283.585c-6.088,3.815-12.174,7.674-18.302,11.466c0.203,3.404,1.146,7.088,2.902,10.686    c4.932,10.104,14.306,15.666,20.938,12.437c6.631-3.231,8.007-14.051,3.074-24.147    C131.456,289.507,128.372,285.906,125.042,283.585z"/>
		<polygon fill="#723D5C" points="143.326,119.955 137.675,126.047 144.5,131 147.772,168.142 163.918,209.287 162.391,172.188     148.057,130.392 150.288,123.114   "/>
		
			<rect x="100.872" y="285.878" transform="matrix(-0.8594 0.5113 -0.5113 -0.8594 361.2755 478.5272)" fill="#FFFFFF" width="27.947" height="6.115"/>
		<circle fill="#89988D" cx="158.846" cy="224.332" r="2.582"/>
		<circle fill="#89988D" cx="157.846" cy="253.332" r="2.582"/>
	</g>
	<g>
		<path fill="#C0B9A1" d="M455,253.277C455,287.186,423.587,314,385.321,314h-0.292C346.763,314,316,287.186,316,253.277v-94.676    C316,124.692,346.763,97,385.029,97h0.292C423.587,97,455,124.692,455,158.601V253.277z"/>
		<rect x="375" y="300" fill="#C0B9A1" width="53" height="39"/>
		<polygon fill="#FFFFFF" points="364.65,101.133 394.782,172.314 406.572,97.204   "/>
		<ellipse fill="#FFFFFF" cx="388.019" cy="235.634" rx="22.981" ry="14.935"/>
		<ellipse fill="#FFCEAE" cx="388.019" cy="235.634" rx="18.392" ry="15.284"/>
		<polygon fill="#0D4C57" points="379.489,114 385.174,121.444 378.885,134.506 394.782,172.188 399.58,141.682 388.215,121.804     391.776,114   "/>
		<circle fill="#FFCEAE" cx="385.616" cy="79.736" r="35.808"/>
		<path fill="#FEFED1" d="M385.616,43.927c-15.771,0-29.146,10.196-33.924,24.35c5.135,2.846,11.042,4.472,17.331,4.472    c15.106,0,28.023-9.367,33.278-22.61c-0.059,0.833-0.098,1.674-0.098,2.523c0,13.669,7.66,25.546,18.923,31.58    c0.188-1.477,0.29-2.978,0.29-4.505C421.424,59.959,405.395,43.927,385.616,43.927z"/>
		<circle fill="#908B79" cx="376" cy="179.667" r="2.334"/>
		<circle fill="#908B79" cx="381" cy="205.667" r="2.334"/>
		<circle fill="#908B79" cx="421" cy="175.667" r="2.334"/>
	</g>
	<g>
		<path fill="#445C5A" d="M267,258.011c0,28.16-22.829,50.989-50.989,50.989h-1.021c-28.161,0-50.99-22.829-50.99-50.989V181.99    c0-28.161,22.829-50.99,50.989-50.99h1.021c28.16,0,50.989,22.829,50.989,50.989L267,258.011L267,258.011z"/>
		<rect x="178" y="286" fill="#445C5A" width="59" height="53"/>
		<path fill="#FFFFFF" d="M199.112,133.799l29.728,66.463c0,0,10.153-37.386,2.238-68.039L199.112,133.799z"/>
		<polygon fill="#BBD646" points="216.322,138.543 209.207,143.471 216.604,152.809 212.006,162.626 229.422,202.737     233.481,172.314 221.345,151.645 224.91,142.182   "/>
		<circle fill="#E9B2A8" cx="214.434" cy="109.431" r="30.568"/>
		<path d="M190.167,90.85c3.924,1.832,8.297,2.861,12.913,2.861c9.892,0,18.68-4.702,24.267-11.987    c-3.923-1.832-8.296-2.861-12.913-2.861C204.543,78.863,195.754,83.564,190.167,90.85z"/>
		<polygon fill="#41A38D" points="241,186.679 241,198.147 253,197.051 253,186.897   "/>
		<circle fill="#978F79" cx="204.667" cy="227.147" r="2.354"/>
	</g>
	<g>
		<rect x="192" y="253" fill="#E2723B" width="70" height="69"/>
		<rect x="234" y="262" fill="#445C5A" width="8" height="60"/>
		<path fill="#71828D" d="M375,339v-57.342C375,243.939,343.68,214,305.963,214h-0.529C267.714,214,237,243.939,237,281.658V339H375    z"/>
		<polygon fill="#653033" points="531,355 31,355 51,322 507,322   "/>
		<path fill="#FFFFFF" d="M292.844,242.312c0,0,3.692,34.369,10.676,46.162l19.646-52.188L292.844,242.312z"/>
		<circle fill="#FFBDA0" cx="300.898" cy="208.123" r="35.808"/>
		<path fill="#473840" d="M315.261,175.32c-2.477,4.868-3.881,10.373-3.881,16.208c0,14.668,8.822,27.269,21.445,32.803    c2.478-4.867,3.882-10.372,3.882-16.209C336.707,193.455,327.884,180.855,315.261,175.32z"/>
		<rect x="217" y="262" fill="#445C5A" width="9" height="60"/>
		<polygon fill="#FEFED1" points="214.866,322.535 280.805,335.346 315.741,322.826 324.477,333.453 384.155,323.99     325.785,312.928   "/>
		<polygon fill="#FEFED1" points="51,322 62.988,316.423 130,330.832 130,340 40.091,340   "/>
		
			<ellipse transform="matrix(-0.1386 0.9903 -0.9903 -0.1386 596.9958 94.985)" fill="#FFFFFF" cx="257.19" cy="307.121" rx="8.995" ry="13.516"/>
		
			<rect x="247.862" y="297.847" transform="matrix(-0.66 -0.7513 0.7513 -0.66 212.6696 694.7529)" fill="#0D4C57" width="31.374" height="2.81"/>
		
			<ellipse transform="matrix(-0.2591 0.9658 -0.9658 -0.2591 627.5813 140.2565)" fill="#FFBDA0" cx="259.996" cy="310.833" rx="10.189" ry="18.192"/>
		<path fill="#A14C57" d="M306.133,243.35l6.406,6.405l-5.24,4.073l4.075,13.975L303.66,289c0,0-6.261-11.008-8.88-29.639    l8.438-5.533l-4.653-7.276L306.133,243.35z"/>
		
			<ellipse transform="matrix(-0.1386 0.9903 -0.9903 -0.1386 657.9945 38.6189)" fill="#FFFFFF" cx="312.202" cy="305.467" rx="8.997" ry="13.515"/>
		<rect x="199" y="262" fill="#445C5A" width="10" height="60"/>
		<polygon fill="#BBD646" points="322.905,290.614 337.869,286.316 326.94,283.477   "/>
		
			<ellipse transform="matrix(0.175 0.9846 -0.9846 0.175 551.7958 -33.3967)" fill="#FFBDA0" cx="295.826" cy="312.562" rx="8.726" ry="19.633"/>
	</g>
</g>
</svg>
