<svg width="114" height="334" viewBox="0 0 114 334" xmlns="http://www.w3.org/2000/svg">
  <g fill="none" fill-rule="evenodd" transform="translate(0,2)">
    <path d="M111.7 147.64c-.34-2.25-.6-4.5-1.08-6.72-1.2-5.46-2.38-10.92-3.8-16.33-.83-3.16-1.76-6.29-2.78-9.4-.39.3-.77.58-1.18.87-3.2 2.34-7.18 5.25-8.97 8.3-.16.25-.4.44-.68.51l1.44 5.21c1.35 4.87 2.74 9.73 4.04 14.62.42 1.55.77 3.15.86 4.73.1 1.7-.13 3.42-.26 5.12-.25 3.32-.58 6.64-.78 9.96-.18 2.89-.25 5.78-.36 8.67-.03.75-.01 1.5-.1 2.24-.23 1.83-.5 3.65-.78 5.46-.1.62-.3 1.21-.46 1.81l-.18-.05-.06.22c-.19.17-.34.4-.42.7-.9 3.26-2.65 6.17-3.64 9.41-.9 3-1.08 6.27-1.42 9.36-.08.76.34 1.2.89 1.37.25 2.04.91 3.92 2.08 5.33.24.3.56.5.85.7.3-2.34 1.47-2.24 1.1.48 0 .3 2.14.15 3.42-.03l-.4.05c1.53-4.14 1.58-1.27 1.28-.24a10.65 10.65 0 0 0 3.62-1.92c.02-.24.03-.5.12-.7 1.22-2.78 1.51-1.8 1.17-.56a10.55 10.55 0 0 0 3.89-7.87c.06-1.9.32-3.81.22-5.72-.1-2.09-.47-4.18-.82-6.26a17.4 17.4 0 0 1 0-5.47c.42-2.86.78-5.74 1.32-8.57.66-3.46 1.49-6.88 2.24-10.31l.25-2.76v-.32l.23-2.92c.17-2.04 0-4.07-.43-6.1-.2-.94-.27-1.92-.41-2.87z" fill="#D18C65"/>
    <path d="M94.45 43.2c-2.67-5.17-3.58-10.78-5.36-16.24-1.2-3.69-2.5-7.18-4.74-10.35C79.5 9.7 71.23 6.15 62.98 5.53c.57-.52 1.22-1 1.97-1.41 2.12-1.18 7.13-2.26 8.88-.15.18.2.58-.02.47-.28-1.35-3.22-6.8-2.32-9.4-1.48A9.97 9.97 0 0 0 60.6 5.1a6.96 6.96 0 0 1 4-4.59c.3-.13.09-.6-.22-.52-2.43.63-4.37 2.88-5.27 5.46-.54.02-1.07.04-1.6.08-3.8-1.67-9.22-1.09-12.04 1.3-.15.14.04.35.2.27a13.4 13.4 0 0 1 8.8-1.24C47.11 7 39.95 10.36 35.55 16.6c-2.23 3.17-3.54 6.66-4.74 10.35-1.4 4.31-2.12 8.86-3.96 13.03-1.88 4.27-4.46 8.2-6.27 12.5a25.37 25.37 0 0 0-2 11.16c2.79 2.6 6.43 4.36 9.88 5.9a65.34 65.34 0 0 0 22.8 5.4c.02-.36 17.06-.4 17.08-.05 7.47-.4 14.91-1.9 21.82-4.78 3.52-1.47 7.2-3.2 10.18-5.6 2.75-2.2.22-9.2-.96-12-1.39-3.28-3.32-6.21-4.93-9.33z" fill="#000"/>
    <path d="M83.84 34.2c-2.55 0-4.1 4.12-4.46 5.19v.02l-.08.23h-.02c-.1.19-.25.4-.46.42-.37.04-.57-.51-.57-.51-.2-.34-.31-1.54-.4-2.52-.24-2.45-1.94-4.85-3.7-6.47-2.04-1.87-4.7-1.68-7.17-2.47a9.12 9.12 0 0 1-5.12-3.8c-1.46-2.36-1.46-5.93-1.9-8.61-.24 1.38-.43 2.78-.69 4.16-.49 2.58-1.28 5.07-3.47 6.7a11.13 11.13 0 0 1-3.46 1.69c-2.57.75-4.99.73-7 2.76a11.38 11.38 0 0 0-3.17 6.27c-.03.17-.1 1.05-.28 1.62h.03s0 .25-.06.5l-.02.06a.7.7 0 0 1-.13.29c-.1.16-.23.3-.41.33-.38.04-.58-.51-.58-.51h.03c-.23-.72-1.8-5.34-4.51-5.34-2.88 0-4.88 1.25-4.63 9.16.08 2.58.73 8.52 6 7.65l1.06 3.24-.04.12c.36.59.56 1.35.78 1.92.81 2.14 1.6 4.23 2.78 6.2a32.76 32.76 0 0 0 4.2 5.79c.44.46.88.89 1.35 1.27l.15.11c.17.13.34.26.52.37l.25.16c.24.14.5.27.76.38 1.28.53 1.83.61 1.86 2.2l.01 1.06v.04c0 .72-.03 1.45-.14 2.17-.32 1.97-1.59 3.78-2.73 5.38a15.92 15.92 0 0 1-4.16 4.17c-.76.5-1.55.96-2.35 1.4 0 .03.03.04.04.06 1.43 2.98 3.05 6.37 5.46 8.7 3.36 3.22 7.44 3.67 11.35 3.67.41 0 .82 0 1.24-.02 4.6-.1 11.18-.68 15.14-4.38 1.76-1.65 3.25-3.75 4.84-6.81a46.41 46.41 0 0 1-4.63-2.62 15.89 15.89 0 0 1-4.17-4.17c-1.14-1.6-2.4-3.41-2.72-5.38a18.87 18.87 0 0 1-.15-2.21v-1.07c.04-1.58.6-1.66 1.87-2.19 1.78-.72 3.15-2.38 4.38-3.78l.72-.88a31.22 31.22 0 0 0 2.92-4.32l.12-.21.07-.13c.45-.81.86-1.64 1.24-2.48l.03-.07c.38-.83.73-1.68 1.06-2.53v-.02l.05-.1.64-1.8 1.06-3.24c5.27.87 5.92-5.07 6-7.65.25-7.91-1.75-9.16-4.63-9.16" fill="#D18C65"/>
    <path d="M59.27 52.2c1.05.12 1.84-.42 2.46-1.19.26-.32.63-.67.25-1.1-.55-.28-.64-.07-1 .1-1.68.77-2.05.58-2.24-1.26-.02-.24 0-.48.02-.73.21-3.12.44-6.24.63-9.37.03-.42-.11-.85-.18-1.27l-.42-.05c-.17.36-.42.72-.5 1.1-.14.71-.17 1.44-.26 2.16-.37 3-.95 6-.63 9 .18 1.65.68 2.47 1.87 2.6" fill="#B05B4F"/>
    <path d="M50.35 38.4c-.04-.18-.1-.37-.18-.55-.44-1-1.61-1.25-2.23-.27-.57.9-.3 2.3-.22 3.32.07.94.02 2.45 1.34 2.47 1.81.03 1.57-2.31 1.44-3.48-.06-.49-.05-1-.15-1.48M69.44 43.37c1.32-.02 1.27-1.53 1.35-2.47.08-1.01.34-2.41-.23-3.32-.62-.98-1.78-.72-2.23.27-.08.18-.14.37-.17.56-.1.48-.1 1-.15 1.48-.14 1.17-.38 3.51 1.43 3.48" fill="#000"/>
    <path d="M44.9 51.85c-.93-.02-1.81.33-2.38 1.19-1.21 1.84-.53 4.5.36 6.34.7 1.43 2.56 2.83 4.22 2.49 1.5-.31 2-1.87 2.13-3.2a9.02 9.02 0 0 0-.95-4.76 4 4 0 0 0-3.39-2.06M70.07 58.67c.13 1.33.64 2.89 2.13 3.2 1.67.34 3.53-1.06 4.22-2.49.9-1.83 1.58-4.5.36-6.34a2.65 2.65 0 0 0-2.37-1.2 4 4 0 0 0-3.38 2.07 9.02 9.02 0 0 0-.96 4.76" fill="#D17C65"/>
    <path d="M52.87 59.26h.02s.89.2 2.23.37c.67.09 1.45.17 2.29.25l1.29.1.66.04.34.02.16.01H60.1c1.8-.09 3.58-.24 4.92-.42 1.34-.17 2.23-.36 2.23-.36h.01a.5.5 0 0 0-.05-1s-.9-.1-2.24-.14a63.41 63.41 0 0 0-4.93.05h-.27l-.34-.02-.66-.02-1.3-.03c-.84 0-1.62 0-2.3.02-1.34.04-2.24.14-2.24.14a.5.5 0 0 0-.05 1M97.86 197.62c.08-.43.22-.86.36-1.4-.54-.04-.73.35-.83.73-.5 1.99-1.06 3.96-1.45 5.97-.43 2.22-.73 4.47-1.02 6.71v.1c.17.12.35.25.5.41h-.04c.27-.02.57-.02.63.07.37-2.72.72-5.45 1.1-8.18.22-1.47.49-2.94.75-4.4M95.13 210.17h.01zM101.16 206.88c.44-2.44.78-4.9 1.13-7.35.1-.69.09-1.4-.05-2.13-1.03 4.3-1.68 8.7-3.21 12.83a14.82 14.82 0 0 0 1.08-.17l.04-.01a.9.9 0 0 0 .16-.06c.3-1.03.66-2.05.85-3.1M106.47 198.4c0-.1-.07-.23-.29-.38-.06.2-.17.39-.18.59-.1 3.06-.73 5.98-1.95 8.76-.1.2-.1.46-.12.7a11.6 11.6 0 0 0 1.29-1.25c.35-1.26.77-2.5.96-3.78.23-1.52.21-3.09.29-4.63" fill="#B05B4F"/>
    <path d="M96.28 180.12c-.06-.43-1.42-7.74-1.8-10.5a23.56 23.56 0 0 0-1.3-5.49l-.62-1.6c-.4-.18-.83-.33-1.3-.44-3.51-.82-8.16.98-11.52 1.82-5.3 1.31-10.5 2.94-15.84 4.05-12.14 2.54-24.85.93-34.98-6.49-.4-.3-.94-.3-1.41-.14-.4.15-.75.41-.94.76l-3.37 14.53c-.08.42-.64 3.76-.74 4.5-.06 1.45-.51 11.45-.88 11.6.74 2.58 4.42 24.18 5.2 26.74l.13.45c.28.93.58 1.85.9 2.77 1.13 3.18 2.63 6.22 4.03 9.3.97 2.12 2.24 4.12 3.06 6.3 1.17 3.08.9 6.4.8 9.68v.64c.02 1.02.02 2.04.06 3.06.07 2.13.11 4.28.26 6.4.21 3.01.47 6.02.8 9.01a80 80 0 0 0 .92 6.08 240.23 240.23 0 0 0 5.88 23.74c1.25 4.25 2.86 8.38 4.32 12.56 1.5-.05 2.95 1.12 4.3 1.29 2.21.28 4.52.33 6.55-.73.4-.21 2.05-.07 2.2 0 2.02 1.06 4.33 1 6.54.73 1.36-.17 2.8-1.34 4.1-1.34 1.5-4.15 3.1-8.28 4.36-12.51 2.3-7.81 4.37-15.7 5.88-23.74.37-2.01.7-4.04.92-6.08.32-2.99.58-6 .8-9 .14-2.13.18-4.28.26-6.41.03-1.02.04-2.04.05-3.06v-.64c-.1-3.27-.36-6.6.8-9.67.82-2.19 2.09-4.19 3.06-6.32 1.4-3.07 2.9-6.1 4.03-9.3 1.43-4.03 3-8.15 3.18-12.47l.41-.06c-.11-.16-.29-.29-.47-.41-.3-.2-.6-.4-.85-.7a10.33 10.33 0 0 1-2.08-5.33c-.55-.16-.97-.61-.89-1.37.34-3.1.52-6.36 1.42-9.36.99-3.24 2.73-6.15 3.64-9.41.08-.3.23-.53.42-.7.02-.6-.08-1.26-.18-1.98l-.1-.76z" fill="#404040"/>
    <path d="M60.58 309.84c.36-9.79.65-20.22.54-30.07-.1-10.54-.4-21.08-.39-31.62.04-18.66-.2-37.3.38-55.94a.55.55 0 0 0-.04-.2c3.6-2.86 7.04-5.89 10.71-8.66.47-.34.05-1.12-.46-.8a58.55 58.55 0 0 0-5.18 3.85c-.86.7-5.28 5.28-6.29 4.64a80.77 80.77 0 0 1-12.87-10.27c-.24-.23-.58.12-.36.37 3.82 4.4 8.51 8.06 13.37 11.25-.56 18.25-.08 36.52-.17 54.77-.06 10.54.25 21.08.4 31.62.14 10.32-.23 20.6-.35 30.91.23 0 .46.06.7.15M95.93 177.86c-1.7.14-3.41.04-5.24-.44a15.76 15.76 0 0 1-7.57-4.76l-.2.29c3.3 3.72 8.28 6.28 13.18 5.95a73.7 73.7 0 0 0-.12-.72l-.05-.32M35.71 172.95l-.2-.29a15.76 15.76 0 0 1-7.57 4.76c-1.73.45-3.35.56-4.96.46l-.19 1.03c4.82.23 9.69-2.3 12.92-5.96" fill="#606060"/>
    <path d="M45.56 250.29a.44.44 0 0 0-.4.23.4.4 0 0 0 .04.42c1.33 1.97 3.16 3.1 5 3.1h.01c1.15 0 2.83-.45 4.27-2.57.1-.15.11-.33.03-.48a.53.53 0 0 0-.87-.07c-1.2 1.58-2.35 2.28-3.78 2.28h-.14c-1.31-.04-2.6-.96-3.81-2.73a.42.42 0 0 0-.35-.18M69.98 254.04c1.85 0 3.68-1.13 5.01-3.1a.4.4 0 0 0 .03-.42.44.44 0 0 0-.4-.23.42.42 0 0 0-.34.18c-1.22 1.77-2.5 2.69-3.81 2.73h-.15c-1.42 0-2.58-.7-3.77-2.27a.52.52 0 0 0-.87.06.47.47 0 0 0 .03.49c1.44 2.11 3.12 2.56 4.27 2.56" fill="#606060"/>
    <path d="M67.53 310.74c-2.21.28-4.52.33-6.55-.73l-.4-.17c-.25-.1-.48-.15-.7-.15-.35 0-.68.1-1.1.32-2.02 1.06-4.33 1-6.54.73-1.36-.17-2.8-1.34-4.1-1.34-.07 0-.13.03-.2.05-.84.25-1.26 1.94-1.58 2.58a40.46 40.46 0 0 1-4.53 7.04c.49-.6 1.3-1.63 0 .02-4.12 5.15 3.88 9.35 7.92 10.09 2.14.39 4.35.28 6.4-.45 1.12-.4 2.04-.94 2.97-1.66.6-.47.91-.48 1.53 0 .93.72 1.85 1.26 2.97 1.66 2.06.73 4.26.84 6.4.45 4.04-.74 12.05-4.94 7.93-10.09-1.32-1.65-.5-.62-.01-.02a40.46 40.46 0 0 1-4.53-7.04c-.34-.67-.78-2.55-1.74-2.61l-.04-.02c-1.3 0-2.74 1.17-4.1 1.34" fill="#E06426"/>
    <path d="M51.1 313.92l6.39.04c.42 0 .42-.66 0-.66l-6.39.04c-.37 0-.37.58 0 .58M56.7 315.5l-6.38.04c-.37 0-.37.58 0 .58l6.39.04c.42 0 .42-.66 0-.66M55.87 317.64l-6.39.04c-.37 0-.37.57 0 .58l6.39.04c.42 0 .42-.66 0-.66M70.56 317.64l-6.38.04c-.37 0-.37.57 0 .58l6.38.04c.43 0 .43-.66 0-.66M63.4 316.06l6.39.03c.42 0 .42-.65 0-.65l-6.39.04c-.37 0-.37.57 0 .58M68.95 313.3l-6.39.04c-.37 0-.37.58 0 .58l6.39.04c.42 0 .42-.66 0-.66" fill="#FF9008"/>
    <path d="M98.4 97.29a4.94 4.94 0 0 0-2.43-2.69c-2.06-.99-4.13-1.96-6.2-2.93a1105.2 1105.2 0 0 1-8.34-3.97 1.14 1.14 0 0 0-1.5.5c-1.6 3.07-3.08 5.17-4.84 6.81-3.97 3.71-10.54 4.28-15.15 4.39l-1.24.01c-3.9 0-7.99-.44-11.34-3.67-2.41-2.32-4.04-5.71-5.47-8.7-.1-.17-.2-.28-.3-.37a1.14 1.14 0 0 0-.72-.27c-.19 0-.37.05-.53.13-1.34.71-2.72 1.38-4.02 2-2.2 1.06-4.4 2.1-6.6 3.14-2.07.97-4.14 1.94-6.2 2.93a4.54 4.54 0 0 0-1.54 1.23c-.13.05-5.2 6.61-7.41 10.67a1.88 1.88 0 0 0 .43 2.44l.61.57 4.8 4.43 3.7 4 1.05 1.5.7.93.66.97c.2.33.57.53.95.53.62-.08.98-.4 1.1-.84l1.39-5.03c.98 2.94 1.36 6.04 1.72 9.06l.48 3.92.75 6.21.03.32c.3 2.5.6 5.09.81 7.64.01.17-.18.61-.31.9l-.1.25-1.52 3.44c-.8 1.83-1.64 3.71-2.42 5.6-1.2 2.9-2.34 5.84-3.44 8.68-.14.36-.08.77.15 1.08.04.06.4-1.03.4-1.03.2-.34.54-.6.94-.75a1.53 1.53 0 0 1 1.41.14 39.87 39.87 0 0 0 20.26 7.41s2.33.16 2.84.17l1.32.01c3.52 0 7.06-.37 10.56-1.1 5.35-1.12 10.55-2.74 15.84-4.06 3.36-.83 8.01-2.63 11.53-1.81.47.1.9.26 1.3.43l.35.92c.5-.8.42-2.13.02-3.05-.84-2.19-1.8-4.64-2.8-7.05-.77-1.88-1.6-3.76-2.4-5.59-.52-1.14-1.02-2.29-1.52-3.44l-.1-.25c-.14-.29-.33-.73-.32-.9.21-2.55.51-5.14.8-7.64l.04-.32.75-6.2.49-3.93c.36-3.01.73-6.12 1.71-9.06l2.23 8.07c.12.44.5.76.94.82.26.01.36 0 .45-.03.28-.08.53-.26.68-.52 1.8-3.05 5.78-5.95 8.97-8.29l1.18-.87.3-.22c.4-.3.56-.8.4-1.27a219.79 219.79 0 0 0-6.28-16.4z" fill="#E34B4B"/>
    <path fill="#007BC4" d="M73.15 197.87l-.03.02 1.55 2.25-42.36 29.08-1.55-2.26-.04.03 2.3 3.35 26.75-18.37 1.04-.71 14.66-10.07-9.19-13.4-.63-.91-10.37-15.11-.03.02z"/>
    <path fill="#FFF9C5" d="M74.67 200.14l-1.55-2.25-42.36 29.07 1.55 2.26z"/>
    <path d="M30.7 227.01l42.42-29.12-17.87-26.1-1.87-2.72-.43-.62-.88.6-1.02.7.67.98c.37-.04.75.1.98.43a1.07 1.07 0 0 1-1.76 1.21 1.05 1.05 0 0 1-.06-1.07l-.67-.97-2.32 1.6.67.97c.37-.03.75.11.98.44a1.07 1.07 0 0 1-1.75 1.2 1.05 1.05 0 0 1-.06-1.06l-.68-.98-2.32 1.6.68.98c.37-.04.75.1.97.43a1.06 1.06 0 0 1-1.75 1.21 1.05 1.05 0 0 1-.06-1.07l-.68-.98-2.32 1.6.68.98c.37-.04.75.1.98.44a1.06 1.06 0 0 1-1.76 1.2 1.05 1.05 0 0 1-.06-1.07l-.68-.98-2.32 1.6.3.43.2.23c.2.06.38.18.52.34.25.06.48.2.64.42.12.18.17.39.17.6.8 1.02 1.6 2.04 2.45 3.03.7.82 1.28 1.6 1.51 2.5l1.17-.82-1.24-1.8 7.2-4.96 1.56 2.27 4.07-1.04-2.44 3.4 9.75 14.16-7.2 4.96-9.4-13.65-2.4 1.67c.57 1.7.53 3.44-.74 4.89a16.4 16.4 0 0 1-3.87 2.1 10.87 10.87 0 0 1-5.82.26l-7.02 4.89-2.12 1.5a2.03 2.03 0 0 1-2.3-3.33l2.7-1.91 4.22-3c-2.22-1.51-3.7-3.74-5.19-6.04-.3-.46-.56-.95-.82-1.43l-1.7 1.17.7 1.02a1.05 1.05 0 0 1 .7 1.91 1.05 1.05 0 1 1-1.54-1.34l-.7-1.02-2.32 1.6.7 1.02a1.05 1.05 0 0 1 .7 1.92c-.48.33-1.14.2-1.47-.27a1.05 1.05 0 0 1-.06-1.08l-.7-1.02-1.27.87-1.06.73.7 1.02a1.05 1.05 0 0 1 .71 1.92c-.48.33-1.15.22-1.48-.27a1.05 1.05 0 0 1-.06-1.07l-.7-1.03-1.2.82-1.13.78.7 1.03c.38-.04.76.1.99.44a1.07 1.07 0 0 1-1.76 1.2 1.05 1.05 0 0 1-.06-1.07l-.7-1.03-1.8 1.23 17.54 25.55 2.65 3.87z" fill="#007BC4"/>
    <path d="M52.07 172.12a.5.5 0 0 1-.71-.13l-.48-.69a1.05 1.05 0 0 0 1.54 1.34c.49-.33.6-1 .28-1.48-.23-.32-.61-.47-.98-.43l.47.69a.5.5 0 0 1-.12.7" fill="#006099"/>
    <path d="M49.84 168a.5.5 0 1 0-.84.57l.22.32 1 1.44.66.97.48.7a.5.5 0 0 0 .83-.58l-.47-.7-.67-.97-.53-.76-.68-1z" fill="#CCC"/>
    <path d="M48.9 174.3a.51.51 0 0 1-.7-.13l-.47-.7a1.05 1.05 0 0 0 1.54 1.35c.48-.34.6-1 .27-1.48-.23-.33-.6-.48-.98-.44l.48.7a.5.5 0 0 1-.13.7" fill="#006099"/>
    <path d="M45.98 170.04a.5.5 0 0 0-.13.7l1.2 1.76.68.98.47.69a.5.5 0 1 0 .84-.58l-.48-.69-.67-.98-1.2-1.75a.5.5 0 0 0-.71-.13" fill="#CCC"/>
    <path d="M45.75 176.47a.5.5 0 0 1-.7-.13l-.48-.69c-.17.34-.17.74.06 1.07a1.06 1.06 0 1 0 1.75-1.2c-.22-.33-.6-.48-.97-.44l.47.69a.5.5 0 0 1-.13.7" fill="#006099"/>
    <path d="M42.82 172.22a.5.5 0 0 0-.13.7l1.2 1.75.68.98.48.7a.5.5 0 0 0 .83-.58l-.47-.7-.68-.98-1.2-1.74a.5.5 0 0 0-.71-.13" fill="#CCC"/>
    <path d="M42.6 178.65a.5.5 0 0 1-.71-.13l-.48-.7c-.16.34-.16.75.06 1.08a1.07 1.07 0 0 0 1.76-1.21c-.23-.33-.61-.48-.98-.44l.48.7a.5.5 0 0 1-.13.7" fill="#006099"/>
    <path d="M39.66 174.39a.5.5 0 0 0-.13.7l1.2 1.75.68.98.48.7a.5.5 0 0 0 .83-.58l-.47-.7-.68-.98-1.2-1.74a.5.5 0 0 0-.7-.13" fill="#CCC"/>
    <path d="M40.24 180.45c0-.2-.04-.4-.17-.59a1.06 1.06 0 0 0-.64-.42l.04.03.77.98" fill="#006099"/>
    <path d="M36.5 176.56a.5.5 0 0 0-.13.14c.5.32.98.69 1.44 1.16.31.33.61.67.9 1.01l-.3-.44-1.2-1.74a.5.5 0 0 0-.7-.13" fill="#CCC"/>
    <path d="M23.66 191.7a.5.5 0 0 1-.7-.14l-.49-.69c-.16.33-.16.74.07 1.07a1.06 1.06 0 1 0 1.75-1.2c-.23-.33-.61-.48-.98-.44l.47.69a.5.5 0 0 1-.13.7" fill="#006099"/>
    <path d="M22.47 190.87l.48.7a.5.5 0 0 0 .83-.57l-.47-.7-.7-1.02-.38-.55-.8-1.17a.5.5 0 0 0-.84.58l1.18 1.71.7 1.02z" fill="#CCC"/>
    <path d="M20.5 193.87a.5.5 0 0 1-.7-.13l-.48-.7a1.05 1.05 0 0 0 1.54 1.35c.48-.33.6-1 .27-1.48-.23-.33-.6-.48-.98-.44l.48.7a.5.5 0 0 1-.13.7" fill="#006099"/>
    <path d="M19.32 193.04l.47.7a.5.5 0 0 0 .84-.58l-.48-.7-.7-1.01-1.18-1.71a.5.5 0 1 0-.83.58l1.17 1.7.7 1.02z" fill="#CCC"/>
    <path d="M17.34 196.04a.5.5 0 0 1-.7-.13l-.48-.7c-.17.34-.17.75.06 1.08a1.07 1.07 0 0 0 1.75-1.2c-.22-.34-.6-.48-.98-.45l.48.7a.5.5 0 0 1-.13.7" fill="#006099"/>
    <path d="M16.16 195.22l.48.7a.5.5 0 0 0 .84-.57l-.49-.7-.7-1.03-1.18-1.7a.5.5 0 0 0-.83.57l1.17 1.7.7 1.03z" fill="#CCC"/>
    <path d="M14.19 198.22a.5.5 0 0 1-.71-.13l-.48-.7a1.05 1.05 0 0 0 1.54 1.35c.49-.34.6-1 .28-1.48-.23-.33-.61-.48-.98-.44l.48.69a.5.5 0 0 1-.13.7" fill="#006099"/>
    <path d="M13 197.4l.48.68a.5.5 0 0 0 .84-.58l-.48-.68-.71-1.03-1.17-1.7a.5.5 0 1 0-.84.57l1.17 1.7.71 1.03z" fill="#CCC"/>
    <path fill="#008DE0" d="M47.67 188.51l9.4 13.65 7.2-4.96-9.75-14.16-1.01 1.4zM51.21 181.11l1.68-.43-1.56-2.27-7.2 4.97 1.24 1.79z"/>
    <path d="M25.1 202.89l-1.07-1.55-.6-.87-.03.02a2.02 2.02 0 0 0 2.3 3.33l2.12-1.5-2.1 1.46-.62-.89zM30.36 195.61l-.04-.03-4.23 3 4.27-2.97z" fill="#ED1C24"/>
    <path d="M44.3 187.16c0 .03-.03.06-.03.1l7.55-5.26-.61-.9-5.84 4.07-1.17.81c.1.37.14.77.1 1.18M53.5 184.44l-.6-.89-8.04 5.6c.16.33.3.68.41 1.03l2.4-1.67 5.84-4.07zM31.39 196.22c-.36-.19-.7-.39-1.03-.6l-4.27 2.96-2.68 1.87.02.02.6.87 7.36-5.12zM33.46 197.07l-8.36 5.82.61.9 2.11-1.48 7.02-4.88c-.46-.1-.92-.22-1.38-.36" fill="#FCEE21"/>
    <path d="M52.9 183.55L51.82 182l-7.56 5.26c-.03.18-.08.36-.15.52.27.44.52.9.74 1.36l8.03-5.59zM24.03 201.34l1.07 1.55 8.36-5.82c-.53-.17-1.06-.36-1.58-.59l-.5-.26-7.35 5.12z" fill="#686125"/>
    <path fill="#D9B07C" d="M51.83 182l1.06 1.55.62.89 1.01-1.4 2.44-3.4-1.36 1.89-.9-1.31 2.26-.58-4.07 1.04-1.68.43z"/>
    <path fill="#000" d="M55.6 181.53l1.36-1.89-2.26.58z"/>
    <path d="M44.34 194.4a110.27 110.27 0 0 0-4.19-5.33c-1.33-1.56-2.78-3.01-4.19-4.5-.27-.28-.63-.52-1.08-.22.38.4.71.7 1 1.04.95 1.15 1.9 2.3 2.81 3.48 1.69 2.2 3.34 4.41 5 6.63.15-.1.28-.13.39-.14l.45-.3.1-.14a2.78 2.78 0 0 0-.3-.51M31.95 187.35c.24.7.58 1.33 1 1.88 1.52 1.97 3.02 3.93 4.6 5.85.68.84 1.51 1.55 2.29 2.31.27-.06.55-.13.82-.22.15-.05.3-.12.44-.18-3.39-2.86-6.12-6.39-9.15-9.64M35.27 196.92a23.66 23.66 0 0 1-6-6.67c-.1-.17-.3-.29-.45-.42-.12.23-.12.37-.06.47.83 1.31 1.58 2.68 2.53 3.9.84 1.09 1.9 2 2.87 2.99l1.54.38h.03l.05.01h.02c-.17-.22-.31-.5-.53-.66" fill="#B05B4F"/>
    <path d="M44.86 189.14a13.4 13.4 0 0 0-.74-1.36 2 2 0 0 0 .15-.52c0-.04.02-.07.03-.1.05-.41 0-.8-.1-1.18a6.13 6.13 0 0 0-1.44-2.39l-.07-.1a87.81 87.81 0 0 1-2.45-3.04l-.77-.98-.04-.03a1.13 1.13 0 0 0-.52-.34l-.2-.23c-.3-.34-.59-.68-.9-1a7.68 7.68 0 0 0-1.43-1.17c-.96-.6-1.97-1.01-3-1.5l-.41-.2c-.28-.14-.57-.29-.86-.46-.18-.1-.35-.16-.53-.2l-.45-.46c-.75-.84-2.05-1.94-2.59-3-.11-.12-.24-.24-.34-.37-.92-1.17-1.82-2.35-2.72-3.54-.2-.29-.43-.56-.64-.84-.44-.6-.8-1.27-1.19-1.9-1.52-2.46-3-4.96-4.57-7.38-1.81-2.8-3.72-5.52-5.57-8.3l-.35-.51a1.21 1.21 0 0 1 0-.26v-.03c0-.1.03-.23.06-.37.34-1.39.86-2.76 1.43-4.08 2.02-4.63 4.11-9.23 6.17-13.85l4.44-9.98v-.01l-1.06-1.5-3.68-4-4.8-4.44c-1.11 2.07-2.18 4.16-3.2 6.28l-.36.77a166.5 166.5 0 0 0-2.57 5.64c-2.2 5.14-4.18 10.37-6.17 15.6-.8 2.11-1.4 4.31-2.07 6.47-.2.63-.37 1.26-.55 1.89 0 0-1.02 1.4-.78 4.28.12.3.24.59.33.9a20.43 20.43 0 0 0 2.62 5.51l1.64 2.43.15.28 1.57 2.28c2.34 2.62 4.74 5.2 7.01 7.88 1.87 2.2 3.59 4.54 5.36 6.82 1.13 1.45 2.05 3.01 2.69 4.77.32.9.66 1.78 1 2.66.56 1.42 1.19 2.8 1.92 4.13.26.48.52.97.82 1.43 1.49 2.3 2.97 4.53 5.19 6.04l.04.03c.33.22.67.42 1.03.6.16.1.32.2.5.27a14.64 14.64 0 0 0 3.8 1.1l-1.53-.4c-.97-.98-2.03-1.9-2.87-2.98-.95-1.22-1.7-2.59-2.53-3.9-.06-.1-.06-.24.06-.47.15.13.34.25.45.42a23.66 23.66 0 0 0 6 6.67c.22.16.36.44.53.66 1.35.18 2.71.12 4.03-.19-.77-.76-1.6-1.48-2.28-2.31-1.58-1.92-3.08-3.88-4.6-5.85a6.37 6.37 0 0 1-1-1.88c3.03 3.25 5.76 6.78 9.15 9.64-.15.06-.29.13-.44.18a16.36 16.36 0 0 0 3.42-1.8.77.77 0 0 0-.38.13c-1.67-2.22-3.32-4.44-5.01-6.63-.9-1.19-1.86-2.33-2.81-3.48-.28-.34-.62-.64-1-1.04.45-.3.8-.06 1.08.22 1.41 1.49 2.86 2.94 4.2 4.5a109.9 109.9 0 0 1 4.18 5.34c.11.15.2.33.29.5l-.1.16c1.27-1.45 1.3-3.18.74-4.9-.12-.34-.25-.69-.41-1.03" fill="#D18C65"/>
    <path d="M37.6 128.87c14.68-4.82 30.2-3.43 45.14-.67.3.05.44-.4.13-.49a101.13 101.13 0 0 0-22.37-2.7c-7.75-.12-15.73.68-23 3.53-.2.08-.12.4.1.33" fill="#B53D3D"/>
  </g>
</svg>
