<svg width="113" height="333" viewBox="0 0 113 333" xmlns="http://www.w3.org/2000/svg">
  <g fill="none" fill-rule="evenodd">
    <path d="M109.48 166.33c-1.1 6-2.85 11.86-4.07 17.84l-.02.02.22.03-.29 2.96-.43-.04.05.47c.35 2.08.71 4.18.82 6.27.1 1.9-.16 3.8-.22 5.72-.1 3.03-1.58 6.1-3.9 8.06 0-.07.01-.15.03-.22l-.02.03c-.2.23-.4.44-.61.65l-.05.04c-.2.2-.42.38-.63.56-1.07.87-2.26 1.5-3.61 2.09a.37.37 0 0 1 0-.17.91.91 0 0 1-.21.07 5.69 5.69 0 0 1-.27.06c-1.16.2-3.84.42-3.8.15 0-.02-.01-.04-.03-.05-.06-.1-.36-.1-.63-.07l-.24.02h-.01a6 6 0 0 0-.16.03c-.18 4.33-1.75 8.44-3.18 12.48-1.78 5.05-3.9 10.93-5.07 16.15-1.19 5.27-1.3 9.91-1.99 15.26-1.35 10.4-3.14 20.89-4.43 31.29-.59 4.78-1.5 8.75-2.08 13.33-.24 1.89-.5 4.5-1.13 6.5-.43 1.4-1.39 3.07-3.2 3.5-.5.12-.96.28-1.4.44.37 1.38.75 2.53.92 2.89a40.52 40.52 0 0 0 4.53 7.04c-.48-.6-1.3-1.64.01.01.72.9 1.07 1.78 1.13 2.6v.1c.02.23 0 .46-.02.68l-.02.1a3.9 3.9 0 0 1-.16.66l-.03.08c-.16.44-.4.87-.7 1.27l-.06.08c-.14.2-.3.38-.47.57l-.09.09c-.17.18-.36.36-.55.53l-.08.06c-.41.36-.87.7-1.34 1l-.09.06a15.82 15.82 0 0 1-1.54.86l-.1.05c-.5.24-1 .46-1.5.64l-.1.04c-.24.09-.47.16-.7.23l-.12.04-.66.19-.1.02-.63.14c-2.14.4-4.34.29-6.4-.45-1.12-.4-2.04-.94-2.97-1.66-.62-.48-.92-.47-1.53 0-.93.72-1.85 1.27-2.97 1.66a12.39 12.39 0 0 1-7.03.3l-.1-.01a12.9 12.9 0 0 1-.66-.19l-.11-.03-.7-.24-.1-.04a17.6 17.6 0 0 1-2.33-1.07l-.11-.06c-.24-.13-.48-.28-.7-.42l-.1-.06c-.47-.3-.93-.64-1.34-1l-.07-.06c-.2-.17-.38-.35-.56-.53l-.08-.1a7.36 7.36 0 0 1-.48-.56l-.06-.07c-.3-.41-.53-.84-.7-1.28 0-.03-.02-.06-.03-.08a4.08 4.08 0 0 1-.2-1.44v-.1c.02-.23.06-.47.13-.72.16-.6.49-1.23 1-1.88a40.46 40.46 0 0 0 4.54-7.06c.17-.34.54-1.68.9-3.12-.33-.06-.64-.1-.97-.19-.74-.4-1.5-.85-2.27-1.4-1.56-1.08-1.65-2.95-1.68-4.79-.05-.25-.1-.53-.12-.82a148.2 148.2 0 0 0-.84-7.09c-.59-4.17-1.06-8.36-2-12.46-.92-3.93-1.56-7.77-2.08-11.56a74.48 74.48 0 0 1-.48-3.52l-.16-1.58c-.98-8.58-1.6-16.99-3.44-25.67-1.14-5.35-3.17-10.83-5.08-16.3-.11-.28-.23-.56-.33-.85-.25-.71-.48-1.43-.7-2.15a86.88 86.88 0 0 1-2.61-9.09c-.05-.22-.2-.59-.33-1.01.12-.03.21-.09.33-.13l-.53.04c-1.3.1-2.6.14-3.87-.1a10.87 10.87 0 0 1-4.44-2.03l-.05-.04a14 14 0 0 1-2.82-2.85c-2.05-2.77-2.27-6.03-2.47-9.35-.18-3.03.27-6.03.77-9v-.07l-.87.1-.14-1.2c-2.56-13.12-5.71-26.13-4.08-39.6a92.5 92.5 0 0 1 1.35-7.98c.99-4.69 2.32-9.3 3.8-13.86 1.55-4.83 3.32-9.58 5.07-14.35 0-.12.02-.24.06-.36 1.44-3.98 3.08-8.13 4.87-12.35a4.94 4.94 0 0 1 2.43-2.68c2.06-.99 4.12-1.96 6.2-2.94 2.2-1.03 4.4-2.07 6.6-3.13 1.3-.62 2.68-1.3 4.01-2 .1-.05.2-.08.3-.1l.04-.03c-.6.13-1.23.24-1.86.28-5.65.43-10.5-1.5-14.49-5.42-4.22-4.17-7.21-9.1-8.24-15.04a24.92 24.92 0 0 1 1.8-14.43 89.55 89.55 0 0 1 4.46-8.89c2.69-4.67 5.25-9.39 6.68-14.61.8-2.94 1.31-5.96 2.11-8.9 2.4-8.85 8.34-14.24 16.95-16.82 6.2-1.86 12.39-1.73 18.37.92a11.03 11.03 0 0 1 6.04 5.96c.39-.1.8-.16 1.2-.32a3.92 3.92 0 0 1 3.87.36c1.25.87 2.45 1.88 3.48 3 3.82 4.19 6.54 9.12 9.03 14.17a82.87 82.87 0 0 1 6.32 18.25c.86 3.79 1.71 7.6 2.23 11.43.54 4.04.8 8.14.05 12.18-.68 3.65-1.65 7.25-3.96 10.26a19.17 19.17 0 0 1-3.03 3.12c-3.4 2.78-8.57 4.76-13.1 4.47.86.43 1.41.62 2.67 1.26l.18.06 1.73.84c2.2 1.06 4.4 2.1 6.61 3.13l6.2 2.94a4.93 4.93 0 0 1 2.42 2.68c2.47 5.8 4.53 11.17 6.29 16.4.03.1.04.2.05.29 1.7 5.87 3.05 10.9 4.25 16.49 1.32 6.17 3 12.27 4.03 18.5a47.78 47.78 0 0 1-.02 16.7m1.97-17.02c-.67-4.09-1.63-8.15-2.55-12.09-.5-2.13-1.03-4.34-1.5-6.5-1.07-5.03-2.3-9.81-4.23-16.46a2.77 2.77 0 0 0-.12-.53 221.34 221.34 0 0 0-6.34-16.55 6.93 6.93 0 0 0-3.4-3.7c-2.06-.99-4.13-1.96-6.2-2.94l-5.18-2.45a22.64 22.64 0 0 0 7.5-3.98 21.05 21.05 0 0 0 3.34-3.45c2.65-3.44 3.68-7.55 4.34-11.1.87-4.67.44-9.3-.03-12.81-.52-3.82-1.33-7.52-2.27-11.61a84.35 84.35 0 0 0-6.47-18.69c-2.45-4.96-5.28-10.17-9.35-14.63a22.84 22.84 0 0 0-3.8-3.29A5.81 5.81 0 0 0 70 7.75a13.23 13.23 0 0 0-6.26-5.4 27.06 27.06 0 0 0-11-2.35C49.9 0 46.95.45 44 1.34c-9.64 2.89-15.8 9.01-18.3 18.2-.4 1.5-.74 3.03-1.06 4.5a88.37 88.37 0 0 1-1.04 4.4c-1.38 5.04-3.96 9.75-6.49 14.14a91.55 91.55 0 0 0-4.57 9.09 26.86 26.86 0 0 0-1.93 15.56c1.03 5.94 4 11.36 8.8 16.1a20.38 20.38 0 0 0 9.56 5.5l-3.61 1.7-6.2 2.95a6.93 6.93 0 0 0-3.4 3.7 236.5 236.5 0 0 0-4.91 12.44c-.07.2-.12.4-.15.6l-.43 1.17c-1.56 4.24-3.17 8.62-4.59 13.01a138.27 138.27 0 0 0-3.85 14.06 93.5 93.5 0 0 0-1.37 8.16c-1.49 12.27.9 24.25 3.23 35.82l.85 4.32.14 1.13c.05.46.26.88.6 1.2a36.12 36.12 0 0 0-.51 7.64c.2 3.34.42 7.13 2.86 10.42.9 1.23 1.98 2.32 3.21 3.25l.07.05a13.2 13.2 0 0 0 5.24 2.38 13.05 13.05 0 0 0 2.96.21 89.85 89.85 0 0 0 2.53 8.74c.24.74.47 1.48.73 2.2l.22.6.1.26.69 1.95c1.65 4.68 3.35 9.51 4.33 14.1 1.4 6.64 2.08 13 2.79 19.73.2 1.92.4 3.83.62 5.73l.06.6a63.13 63.13 0 0 0 .58 4.57c.6 4.41 1.28 8.14 2.1 11.73.76 3.24 1.22 6.64 1.66 9.93l.32 2.37c.38 2.74.65 4.96.83 6.99.03.3.07.58.12.85.03 1.76.14 4.55 2.53 6.21.64.46 1.3.87 1.98 1.26-.2.74-.28.94-.28.94a38.54 38.54 0 0 1-4.36 6.75 7.22 7.22 0 0 0-1.32 2.54 5.64 5.64 0 0 0-.16 2.3l.02.16c.06.33.14.66.25 1l.04.09c.22.6.55 1.2.97 1.77a9.16 9.16 0 0 0 .68.81l.1.12c.21.22.44.44.67.65l.1.08a14.42 14.42 0 0 0 2.44 1.7l.14.07a18.99 18.99 0 0 0 2.6 1.2l.1.03c.27.1.53.19.77.26l.15.05a14.16 14.16 0 0 0 1.62.4c.93.17 1.86.26 2.78.26 1.62 0 3.18-.27 4.64-.79a12.1 12.1 0 0 0 3.07-1.62c1 .72 1.98 1.24 3.06 1.62 1.47.52 3.03.79 4.64.79a15.46 15.46 0 0 0 3.53-.42l.12-.03a15 15 0 0 0 .74-.2l.14-.05.8-.27.1-.04a19.4 19.4 0 0 0 1.64-.7l.15-.07.85-.44.08-.05c.27-.15.54-.31.8-.48l.1-.06a14.02 14.02 0 0 0 2.32-1.88l.1-.12a8.85 8.85 0 0 0 .69-.82 7.14 7.14 0 0 0 1.25-2.87l.02-.15c.05-.36.07-.71.05-1.01l-.01-.18a5.79 5.79 0 0 0-.27-1.33 7.27 7.27 0 0 0-1.3-2.38 38.54 38.54 0 0 1-4.3-6.68 8.78 8.78 0 0 1-.25-.7c1.89-.66 3.3-2.3 4.05-4.66.6-1.9.87-4.2 1.1-6.05l.1-.8c.27-2.17.62-4.17.99-6.3.38-2.22.78-4.52 1.1-7.03.67-5.52 1.52-11.18 2.33-16.65.72-4.8 1.46-9.76 2.09-14.62.24-1.83.4-3.59.57-5.28.32-3.3.63-6.43 1.38-9.8 1.1-4.84 3.02-10.3 4.73-15.13l.61-1.73c1.15-3.22 2.32-6.53 2.78-10.03.76 0 1.79-.1 2.49-.18 0 0 .64-.08.7-.1a2 2 0 0 0 1.14-.12 16.64 16.64 0 0 0 4.09-2.38 14.3 14.3 0 0 0 .9-.82 2 2 0 0 0 .4-.26c2.77-2.34 4.5-5.9 4.6-9.51.02-.67.07-1.33.11-2 .1-1.25.18-2.55.11-3.88-.1-1.91-.4-3.8-.7-5.62a2 2 0 0 0 .26-.78l.29-2.97c.02-.24 0-.48-.06-.7.5-2.38 1.1-4.77 1.67-7.1.8-3.23 1.62-6.57 2.24-9.93a49.94 49.94 0 0 0 .01-17.37" fill="#FFF"/>
    <path d="M20.73 154.42c-.3-4.55.08-8.35 1.2-12.32.71-2.55 1.34-5.32 1.94-7.99.4-1.75.79-3.49 1.2-5.15.25-1 .51-1.9.77-2.82l.26-.91.61 5 .71 5.86.04.32c.25 2.14.53 4.54.74 6.9l-.69 1.08c-2.42 3.77-4.91 7.66-6.69 11.8-.02-.59-.05-1.18-.1-1.77m.43 7.11c.02-1.37.71-2.63 1.22-3.88 1.95-4.83 5.07-9.44 7.87-13.84l-.02-.17c-.21-2.49-.5-5.02-.79-7.46l-.04-.32c-.24-2.07-.5-4.14-.75-6.2l-.48-3.93c-.36-3.02-.73-6.12-1.72-9.06l-1.39 5.03c-.03.12-.09.24-.16.34-.58 2.44-1.18 4.19-1.74 6.44-1.05 4.2-1.97 8.93-3.14 13.09a37.41 37.41 0 0 0-1.26 12.98c.48 7.56.01 15.21.88 22.73l2.92-12.6c-1.04-.33-1.41-2.24-1.4-3.15M88.82 135.12c.48 1.74.98 3.54 1.51 5.3a76 76 0 0 1 1.08 3.88c1.26 5.09 1.06 10.2.6 15.53a338.47 338.47 0 0 0-7.17-14.8l-.6-1.38c.2-2.41.49-4.87.76-7.24l.04-.32.75-6.2.56-4.57a1093.24 1093.24 0 0 1 .9 3.73c.32 1.34.65 2.72 1.03 4.09l.54 1.98zm-2.8-18.45c-.98 2.94-1.36 6.04-1.72 9.06l-.48 3.92-.75 6.21-.04.32c-.29 2.5-.6 5.09-.8 7.63 0 .05 0 .11.02.18l.06.17a8.23 8.23 0 0 0 .23.56l.1.25.4.9c2.18 4.31 7.63 15.2 8.03 16.99.5 2.25-1.17 2.67-1.17 2.67h-.03c.52 1.55.83 3.13 1.05 4.75.38 2.86 1 5.7 1.5 8.56a72.73 72.73 0 0 1 .2 1.34c.21-2.22.46-4.43.53-6.65.11-3.14.17-6.25.46-9.38.63-6.8 1.4-13.6-.27-20.32a80.3 80.3 0 0 0-1.1-3.98c-.73-2.4-1.38-4.83-2.05-7.24-.58-2.07-1.02-4.16-1.54-6.25l-.4-1.6v-.02l-2.23-8.07z" fill="#FFF"/>
    <path d="M104.94 187.61l-.05-.47-12.86-1.26c-.95 2.61-2.27 5.07-3.08 7.74-.92 3-1.08 6.27-1.43 9.36-.08.76.34 1.21.89 1.37.25 2.05.91 3.92 2.08 5.34.24.3.56.49.85.69v-.1c.3-2.24 1.47-2.14 1.1.59 0 .29 2.14.14 3.42-.04l-.4.05c1.53-4.14 1.58-1.27 1.28-.23v.16a14.87 14.87 0 0 0 3.62-2.1c.02-.23.03-.48.12-.69 1.22-2.78 1.51-1.8 1.17-.55l-.01.19a11.26 11.26 0 0 0 3.9-8.06c.06-1.91.32-3.82.22-5.72-.1-2.1-.47-4.19-.82-6.27z" fill="#D18C65"/>
    <path d="M92.88 45.58a82.88 82.88 0 0 0-6.32-18.25c-2.5-5.05-5.2-9.98-9.03-14.17a20.92 20.92 0 0 0-3.48-3 3.92 3.92 0 0 0-3.88-.36c-.38.16-.8.22-1.2.32a11.03 11.03 0 0 0-6.03-5.96c-5.98-2.65-12.17-2.78-18.37-.92-8.6 2.58-14.54 7.97-16.95 16.82-.8 2.94-1.3 5.96-2.1 8.9-1.44 5.22-4 9.94-6.7 14.61a89.57 89.57 0 0 0-4.46 8.89c-2 4.6-2.66 9.46-1.8 14.43 1.04 5.93 4.03 10.87 8.25 15.04 3.98 3.93 8.84 5.85 14.49 5.42.63-.04 39.53-.43 39.77-.31 4.53.3 9.7-1.69 13.1-4.47a19.17 19.17 0 0 0 3.03-3.12c2.31-3.01 3.28-6.6 3.96-10.26.75-4.04.5-8.14-.05-12.18-.52-3.84-1.37-7.64-2.23-11.43z" fill="#000"/>
    <path d="M80.27 34.86c-2.93 0-4.54 5.44-4.54 5.44s-.33.77-.75.68c-.41-.08-.7-1.04-.7-1.04-1.08-1.63-4.25-9.95-4.45-10.58-1.1-3.47-2.27-6.74-2.93-10.32-.08 0-.16-.02-.19 0-3.2 2.81-7.22 3.75-11.16 4.9-2.55.76-5.18 1.47-7.52 2.7-6.76 3.51-10.84 9.12-11.92 16.73a56 56 0 0 0-.62 7.79c-.01 5.9 1.84 11.38 5.66 15.9.1.13.2.26.32.39 1.17 1.34 2.48 2.9 4.14 3.67l.24.12c1.28.52 1.83.6 1.86 2.19.01.4.02.82.01 1.23v.02c0 .68-.04 1.35-.14 2.03-.04.24-.1.48-.16.72l-.08.22-.16.49-.12.27-.18.42-.15.3-.2.38-.18.31-.2.35-.21.33-.09.12 8.96 6.4-.16 4.73c1.07.04 2.09.05 3.16-.04l-.16-4.68 8.96-6.4c-.8-1.22-1.5-2.53-1.72-3.92a18.36 18.36 0 0 1-.1-3.78c0-.05 0-.09.02-.13l.05-.26.05-.13a1.17 1.17 0 0 1 .35-.5c.04-.05.1-.09.15-.13l.1-.06.21-.11.1-.04.35-.15.44-.18.53-.26c.5-.26.96-.6 1.4-.96l.64-.6.06-.05.56-.58.06-.07a38.29 38.29 0 0 0 .57-.63l.56-.64c.38-.44.75-.88 1.1-1.33l.43-.59.57-.78.5-.77.4-.64c.19-.3.36-.58.52-.88l.31-.55.01-.02a40.68 40.68 0 0 0 2.32-5.06l.05-.13.64-1.79 1.06-3.24c5.27.87 5.92-5.06 6-7.64.25-7.92-1.75-9.17-4.63-9.17M24.18 194.88a1.1 1.1 0 0 0-.3-.6c-.1-.54-.22-1.08-.35-1.61-.61-2.37-2.18-3.68-3.34-5.7a1.5 1.5 0 0 0-.37-.43l-.1-.43-12.2 1.44c-.5 3.04-.95 6.04-.77 9.07.2 3.32.42 6.58 2.47 9.35a14.07 14.07 0 0 0 2.8 2.84l-1.16-1.1c-.36-1.34-.12-2.47 1.1.31.1.25.1.56.13.84a11.2 11.2 0 0 0 3.6 1.81c-.3-1.04-.24-3.88 1.31.28l-.47-.07c1.28.25 2.58.2 3.87.1a.75.75 0 0 0-.4-.06c-.37-2.75.8-2.88 1.09-.64.02.2.02.4 0 .6 2.55-.99 3.17-3.73 3.06-6.48a2 2 0 0 0 .46-.45c.83-1.14.7-2.54.41-3.86v-.13c-.34-1.69-.59-3.39-.84-5.08z" fill="#D18C65"/>
    <path d="M55.7 52.85c1.05.12 1.84-.42 2.46-1.18.26-.32.63-.68.25-1.1-.55-.29-.64-.08-1 .09-1.68.77-2.05.58-2.24-1.25-.02-.24 0-.5.02-.73.21-3.13.44-6.25.63-9.38.03-.42-.11-.85-.18-1.27l-.42-.05c-.17.37-.42.72-.5 1.1-.14.71-.17 1.45-.26 2.17-.37 3-.95 5.98-.63 9 .18 1.64.68 2.46 1.87 2.6" fill="#B05B4F"/>
    <path d="M46.78 39.06c-.04-.2-.1-.38-.18-.56-.44-.99-1.61-1.25-2.23-.26-.57.9-.3 2.3-.22 3.3.07.95.02 2.47 1.34 2.49 1.81.02 1.57-2.32 1.44-3.48-.06-.5-.05-1-.15-1.49M65.87 44.03c1.32-.02 1.27-1.54 1.35-2.48.08-1.01.34-2.41-.23-3.31-.62-.99-1.78-.73-2.23.26-.08.18-.14.37-.17.56-.1.49-.1 1-.15 1.49-.14 1.16-.38 3.5 1.43 3.48" fill="#000"/>
    <path d="M41.32 52.5c-.92-.02-1.8.33-2.37 1.19-1.21 1.85-.53 4.51.36 6.35.7 1.42 2.56 2.82 4.22 2.48 1.5-.31 2-1.87 2.13-3.2a9.02 9.02 0 0 0-.95-4.76 4 4 0 0 0-3.39-2.06M66.5 59.32c.13 1.34.64 2.89 2.13 3.2 1.67.34 3.53-1.06 4.22-2.48.9-1.84 1.58-4.5.36-6.35a2.65 2.65 0 0 0-2.37-1.19 4 4 0 0 0-3.38 2.06 9.02 9.02 0 0 0-.96 4.76" fill="#D17C65"/>
    <path d="M63.66 59.92h.02a.5.5 0 0 0-.05-1s-.9-.1-2.24-.14a63.99 63.99 0 0 0-4.93.05h-.27l-.34-.01-.66-.03c-.44 0-.88-.02-1.3-.03-.84 0-1.62 0-2.3.02-1.34.04-2.24.14-2.24.14a.5.5 0 0 0-.05 1h.02s.89.2 2.23.36c.67.1 1.45.18 2.29.25l1.29.1.66.04.34.03H56.34l.1.01h.08c1.8-.1 3.58-.25 4.92-.43 1.34-.17 2.23-.36 2.23-.36M21.1 210.89c.01-.2.01-.4-.01-.6-.3-2.25-.6-4.5-1.03-6.71-.39-2.01-.94-4-1.44-5.98-.1-.38-.29-.77-.84-.72.14.53.29.96.36 1.4.27 1.46.54 2.93.75 4.4.39 2.75.74 5.5 1.1 8.24.18-.01.3.02.4.07l.54-.04.16-.06M13.77 198.05a6.41 6.41 0 0 0-.06 2.13c.35 2.46.7 4.92 1.13 7.35.2 1.07.56 2.1.86 3.15.28.07.55.15.83.2l.47.07c-1.55-4.16-2.2-8.57-3.23-12.9M10 199.26c0-.2-.12-.39-.18-.58-.22.14-.29.26-.28.38.07 1.55.06 3.11.28 4.63.2 1.37.68 2.68 1.04 4.02l1.16 1.1h.02l.05.05c-.04-.28-.03-.59-.13-.84a23.65 23.65 0 0 1-1.96-8.76M94.3 198.28c.07-.44.21-.87.35-1.4-.55-.04-.73.34-.83.72-.5 1.99-1.06 3.97-1.45 5.98-.43 2.21-.73 4.46-1.02 6.7v.1c.17.12.35.25.5.41h-.04c.27-.02.57-.02.63.08.37-2.73.72-5.46 1.1-8.18.22-1.48.49-2.95.75-4.41M97.6 207.53c.43-2.43.77-4.9 1.12-7.35.1-.69.09-1.4-.05-2.13-1.03 4.3-1.68 8.7-3.21 12.83a14.82 14.82 0 0 0 1.08-.17l.04-.01a.9.9 0 0 0 .16-.05c.3-1.04.66-2.06.85-3.12M102.9 199.06c0-.12-.07-.24-.29-.38-.06.19-.17.38-.18.58-.1 3.06-.73 5.98-1.95 8.76-.1.21-.1.46-.12.7a11.6 11.6 0 0 0 1.29-1.25c.35-1.26.77-2.5.96-3.77.23-1.53.21-3.1.29-4.64" fill="#B05B4F"/>
    <path d="M57.28 307.07v.1c-.01.18-.41 0-.6-.2-4.13 2.44-8.28 3.47-13 2.59a26.7 26.7 0 0 1-.89 3.13 40.4 40.4 0 0 1-4.53 7.04c.49-.6 1.3-1.64 0 .01a5.26 5.26 0 0 0-1.01 1.88c.89 3.27 5.97 5.67 8.93 6.2 2.14.4 4.35.3 6.4-.44 1.12-.4 2.04-.94 2.97-1.66.6-.47.91-.48 1.53 0 .93.72 1.85 1.27 2.97 1.66 2.06.74 4.26.84 6.4.45 2.96-.54 8.05-2.94 8.94-6.21a4.74 4.74 0 0 0-1-1.87c-1.33-1.66-.5-.63-.02-.02a40.51 40.51 0 0 1-4.53-7.04c-.18-.36-.55-1.51-.92-2.9-.24.1-.47.18-.7.26-3.73.3-7.72-1.11-10.94-2.98" fill="#7A6149"/>
    <path d="M92.53 179.56c-4.9.33-1.88-.9-.17-1.05-.48-2.74-1.08-5.48-1.44-8.23-.22-1.62-.53-3.2-1.05-4.75-.6.2-16.95 5.6-33.3 6.41-16.67.84-34-7.25-34-7.25h-.02l-2.92 12.59.15 1.26c1.5.07 4.74.99.16 1.03.18 1.15.4 2.3.65 3.43h.04l.04.34.2.89c.04.12.02.27-.05.39l.16 1.34-1.26.15.1.43c.14.12.27.25.37.44 1.16 2.01 2.73 3.32 3.34 5.69.13.53.25 1.07.35 1.62.15.16.26.36.3.59.25 1.7.5 3.4.83 5.08l.01.13c.29 1.32.42 2.72-.4 3.86-.14.18-.3.33-.47.45.11 2.75-.5 5.5-3.06 6.49l-.16.06c-.12.04-.21.1-.33.13.12.42.28.79.33 1.01.65 3 1.58 6.04 2.6 9.1l1.04 3c1.9 5.46 3.94 10.94 5.08 16.3 1.84 8.67 2.46 17.08 3.44 25.66.2 1.7.4 3.39.64 5.1.52 3.79 1.16 7.62 2.07 11.56.95 4.1 1.42 8.3 2 12.46.33 2.36.63 4.72.85 7.09.02.3.07.56.12.82.02 1.84.12 3.7 1.68 4.8.78.54 1.53 1 2.27 1.4l.97.18c4.71.88 8.86-.15 13-2.58-.07-.06-.1-.13-.1-.18.1-10.49 1.06-9.67.69.27 3.22 1.87 7.2 3.28 10.94 2.97l.7-.24c.44-.16.9-.32 1.4-.44 1.81-.43 2.76-2.1 3.2-3.5.63-2 .89-4.61 1.13-6.5.58-4.58 1.5-8.55 2.08-13.33 1.29-10.4 3.08-20.9 4.43-31.29.7-5.35.8-9.99 1.99-15.26 1.17-5.22 3.29-11.1 5.07-16.15 1.43-4.04 3-8.15 3.18-12.48l.16-.03.25-.02h.03a2.6 2.6 0 0 0-.5-.42c-.3-.2-.6-.4-.85-.7a10.33 10.33 0 0 1-2.08-5.33c-.55-.16-.97-.6-.89-1.37.34-3.09.51-6.36 1.42-9.36.82-2.67 2.14-5.13 3.1-7.74l-.23-.02.3-2.97.3.03c.05-.92.13-1.83.21-2.75-.03-.21-.06-.43-.1-.61" fill="#C6A163"/>
    <path d="M92.36 178.51c-1.7.14-3.41.04-5.24-.43a15.76 15.76 0 0 1-7.57-4.76l-.2.28c3.3 3.72 8.28 6.29 13.18 5.96a73.7 73.7 0 0 0-.12-.72l-.05-.33M19.94 179.57c4.58-.04 9.13-2.5 12.2-5.97l-.2-.28a15.76 15.76 0 0 1-7.57 4.76c-1.6.41-3.1.53-4.59.46l.16 1.03M41.99 250.94a.44.44 0 0 0-.4.23.4.4 0 0 0 .04.42c1.33 1.97 3.16 3.1 5 3.1h.01c1.15 0 2.83-.44 4.27-2.56.1-.15.11-.34.03-.5a.53.53 0 0 0-.87-.05c-1.2 1.57-2.35 2.28-3.78 2.28h-.14c-1.31-.05-2.6-.97-3.81-2.73a.42.42 0 0 0-.35-.19M66.4 254.7c1.86 0 3.69-1.14 5.02-3.11a.4.4 0 0 0 .03-.42.44.44 0 0 0-.4-.23.42.42 0 0 0-.34.19c-1.22 1.76-2.5 2.68-3.81 2.73h-.15c-1.42 0-2.58-.7-3.77-2.28a.52.52 0 0 0-.87.06.47.47 0 0 0 .03.49c1.44 2.12 3.12 2.56 4.27 2.56" fill="#8C7145"/>
    <path fill="#FFF" d="M45.85 80.62l-1.54-1.1-3.31 5.1-.1.15 13.62 10.84.13-3.86.16-4.73zM68.15 79.53l-1.54 1.1-8.96 6.4.16 4.68.13 3.9 9.06-7.2 2.81-2.24 1.71-1.36.04-.03zM20.98 185.96l-.16-1.34-.15-1.28-.04-.34h-.04L6.3 184.7l.21 1.76.14 1.2.88-.11 12.19-1.44zM92.41 182.92l-.31-.03-.29 2.97.22.02 12.86 1.26.43.04.29-2.97-.22-.02z"/>
    <path d="M105.47 131.13c-1.2-5.6-2.55-10.62-4.25-16.5a202.44 202.44 0 0 0-6.34-16.68 4.95 4.95 0 0 0-2.42-2.68l-6.2-2.94a1076.62 1076.62 0 0 1-8.34-3.97c-1.44-.7-2-.89-2.85-1.33-.24-.11-.5-.25-.8-.42-.44-.2-.75-.25-1.35-.67l-1.34-1.1c-.02-.01-13.64 10.77-13.64 10.77l-.13-3.9c-1.07.09-2.08.08-3.16.04l-.13 3.86L40.9 84.78c-1.18.65-2.5 1.4-3.74 2.28l-.34.14c-1.33.7-2.71 1.38-4.01 2-2.2 1.06-4.4 2.1-6.6 3.13-2.07.98-4.14 1.95-6.2 2.94a4.94 4.94 0 0 0-2.43 2.68c-1.8 4.21-3.43 8.37-4.87 12.35a1.1 1.1 0 0 0-.06.36c-1.75 4.77-3.52 9.52-5.08 14.35-1.47 4.56-2.8 9.17-3.8 13.86a92.52 92.52 0 0 0-1.34 7.99c-1.63 13.46 1.52 26.47 4.08 39.6l-.21-1.76 14.29-1.7a49.7 49.7 0 0 1-.65-3.43l-.16-1.03-.15-1.26c-.86-7.52-.4-15.17-.88-22.73-.29-4.52.03-8.6 1.26-12.98 1.17-4.16 2.09-8.89 3.14-13.09.56-2.25 1.16-4 1.74-6.44.07-.1.13-.22.16-.34l1.4-5.03c.98 2.94 1.35 6.04 1.71 9.06l.48 3.92.75 6.21.04.32c.29 2.44.58 4.97.79 7.46.27.07-.03.42-.03.42-2.75 4.15-5.87 8.76-7.82 13.6-.5 1.24-1.2 3.5-1.22 4.87 0 .91.36 1.82 1.4 2.15.02.01 17.35 8.1 34.02 7.26 16.35-.82 32.7-6.2 33.3-6.4.03-.01 1.7-.43 1.2-2.68-.4-1.8-8.3-17.59-8.42-17.9-.18-.39-.87-1.22-.4-1.42.19-2.27.49-4.86.78-7.36l.04-.32c.24-2.07.5-4.14.75-6.2l.48-3.94c.36-3 .74-6.11 1.72-9.05l2.23 8.07.4 1.62c.52 2.09.96 4.18 1.54 6.25.67 2.41 1.32 4.85 2.04 7.24.4 1.32.78 2.64 1.1 3.98 1.67 6.73.91 13.51.28 20.32-.29 3.13-.35 6.24-.46 9.38-.07 2.22-.32 4.43-.53 6.64-.08.92-.16 1.83-.21 2.75l12.98 1.27c1.24-6 2.99-11.86 4.1-17.86 1.03-5.64.93-11.06 0-16.7-1.01-6.23-2.7-12.33-4.02-18.5z" fill="#BC6357"/>
    <path d="M66.45 327.83c-2.14.4-4.34.29-6.4-.45-1.12-.4-2.04-.94-2.97-1.66-.62-.48-.92-.47-1.53 0-.93.72-1.85 1.27-2.97 1.66-2.05.74-4.26.84-6.4.45-2.96-.54-8.04-2.94-8.93-6.21-.07.24-.1.49-.13.73v.1a3.57 3.57 0 0 0 .2 1.43l.04.08c.16.44.4.87.7 1.28l.05.07c.14.2.3.38.48.57l.08.09c.18.18.36.36.56.53l.07.06c.42.36.87.7 1.35 1l.08.06.7.42.12.06a16.12 16.12 0 0 0 2.33 1.07l.1.04a15.98 15.98 0 0 0 1.47.46l.1.02.63.14c2.14.4 4.35.29 6.4-.45 1.12-.4 2.04-.94 2.97-1.66.6-.47.91-.48 1.53 0 .93.72 1.85 1.27 2.97 1.66a12.39 12.39 0 0 0 7.04.31l.09-.02.66-.19.12-.04c.23-.07.46-.14.7-.23l.1-.04a17.9 17.9 0 0 0 2.32-1.07l.12-.06.7-.42.09-.06c.48-.3.93-.64 1.34-1l.08-.06a9.66 9.66 0 0 0 1.11-1.19l.06-.08c.3-.4.54-.83.7-1.27 0-.03.02-.06.03-.08a3.9 3.9 0 0 0 .2-1.44v-.1a3.82 3.82 0 0 0-.12-.72c-.9 3.27-5.98 5.67-8.94 6.2" fill="#C48C43"/>
    <path d="M57.27 307.17v-.1c.38-9.94.4-16.59.28-26.65-.11-10.54-.4-21.08-.39-31.62.04-18.65-.21-37.3.38-55.94a.54.54 0 0 0-.04-.2c3.6-2.85 7.04-5.89 10.71-8.65.47-.35.05-1.13-.46-.8a58.77 58.77 0 0 0-5.18 3.84c-.86.7-5.28 5.28-6.29 4.64a80.62 80.62 0 0 1-12.87-10.26c-.24-.24-.58.11-.36.36 3.83 4.4 8.5 8.07 13.37 11.25-.56 18.25-.07 36.52-.17 54.78-.06 10.54.25 21.07.4 31.61.14 10.5.05 16.88-.06 27.37 0 .05.03.12.09.18.19.2.59.37.6.2" fill="#8C7145"/>
    <path d="M50.4 149.63c10.72.04 21.87-1.17 31.83-5.36l.1-.04-.02-.07-.06-.17a.58.58 0 0 1-.02-.18l.02-.27c-.47.2-.94.38-1.4.56-9.67 3.74-19.94 5.2-30.45 5.32-.14 0-.14.21 0 .21M30.24 143.81a.8.8 0 0 1-.05.25c11.34 3 23.71 2.19 35.38-.05 3.6-.69 7.14-1.5 10.56-2.4.33-.08.2-.58-.13-.5-4.65 1.09-9.46 2.1-14.32 2.88-10.22 1.62-20.7 2.12-30.64-.17-.28-.07-.55-.11-.82-.18l.02.17" fill="#AD4444"/>
  </g>
</svg>
