<svg width="114" height="334" viewBox="0 0 114 334" xmlns="http://www.w3.org/2000/svg">
  <g fill="none" fill-rule="evenodd" transform="translate(3,13)">
    <path d="M20.35 141.87l.6-2.28c1.23 1.83 3.18 2.76 4.84 3.25-.61 1.44-1.23 2.9-1.81 4.37-1.15 2.87-2.25 5.8-3.32 8.64l-.26.7a711.88 711.88 0 0 0-.5-6.3c-.02-.4-.06-.8-.1-1.2-.1-1.18-.2-2.29-.14-3.3.07-1.35.4-2.78.7-3.88m-.43 26.45l.47-2.65.03-.18v-.06c.12-.7.23-1.39.32-2.08.23-1.83.57-3.61 1.22-5.34 1.27-3.36 2.52-6.73 3.85-10.06.88-2.2 1.81-4.37 2.74-6.55-2.59-.4-5.4-1.22-6.43-3.81-.81-2.03.37-4.53 1.06-6.42.86-2.37 1.85-4.67 2.4-7.15.35-1.6.48-3.3.37-4.95l-.02-.37a40.91 40.91 0 0 0-.58-3.21l-3.12 11.69-1.27 4.68c-.86 3.17-1.72 6.33-2.54 9.51a22.3 22.3 0 0 0-.75 4.27 25.9 25.9 0 0 0 .15 3.58l.1 1.18.29 3.71c.16 2 .32 4 .44 6 .24 4 .22 8 .62 11.98l.06-.42c.18-1.12.39-2.23.6-3.35" fill="#FFF"/>
    <path d="M104.71 152.67l-.21 2.76v.31l-.25 2.87-.02.1a513.3 513.3 0 0 1-.66 3.04c-.92 4.2-1.94 8.4-2.38 12.7-.38 3.73-.05 7.36.42 11.08.23 1.83.3 4.2-1.75 4.83-.04.5-.07 1-.08 1.5a11.09 11.09 0 0 1-3.67 7.84l.03-.21-.02.02-.01.02a9.97 9.97 0 0 1-.6.65 12.77 12.77 0 0 1-4 2.58.36.36 0 0 1 0-.16.81.81 0 0 1-.22.07l-.16.03-.1.02c-.2.04-.45.08-.72.1l-.02.01c-1.2.15-2.84.25-2.81.04l-.02-.05c-.06-.1-.35-.1-.6-.07l-.22.02h-.03l-.14.03v.1c-.22 4.17-3.65 8.14-4.98 12.03-1.06 3.1-2.47 6.06-3.8 9.05-.91 2.06-2.1 4-2.88 6.13-1.1 3-.84 6.22-.74 9.4v.63l-.06 2.97c-.07 2.08-.1 4.16-.25 6.23-.2 2.93-.44 5.85-.75 8.76a80.59 80.59 0 0 1-.86 5.9c-.35 1.89-.72 3.76-1.12 5.62-.25 1.16-.52 2.32-.79 3.47l-.45 2-.06.25.57-.08a.9.9 0 0 1 .15-.01h.03c.3 0 .59.16.78.42.18.25.28.59.22.91l-2.16 13.27c-.08.5-.44.87-.9.92-.98.13-2.01.24-3.06.35-.91 2.74-1.89 5.45-2.82 8.18.08-.01.16-.04.24-.04.79 0 1.14 1.89 1.42 2.56 1 2.43 2.2 4.72 3.59 6.84-.38-.59-1.04-1.59 0 .02 1.97 3 .46 5.67-1.75 7.48a11.32 11.32 0 0 1-.6.46l-.14.1a13.92 13.92 0 0 1-1.19.73l-.27.15-.4.2-.35.15-.33.14-.41.15-.24.08c-.21.07-.41.12-.6.17-1.7.38-3.45.27-5.08-.44a7.94 7.94 0 0 1-2.36-1.61c-.49-.47-.73-.46-1.21 0a7.94 7.94 0 0 1-2.36 1.61 8.12 8.12 0 0 1-5.68.27l-.24-.08-.41-.15-.33-.14-.35-.15-.4-.2a8.48 8.48 0 0 1-.95-.54 12.77 12.77 0 0 1-1.2-.86l-.05-.04c-2.21-1.81-3.72-4.47-1.76-7.48 1.04-1.6.4-.6 0-.02a41.18 41.18 0 0 0 3.6-6.84c.28-.67.63-2.56 1.42-2.56.08 0 .17.01.25.03-.53-2.91-1.73-5.58-2.83-8.28-.84-.08-1.66-.16-2.46-.26a1.1 1.1 0 0 1-.95-.92l-2.32-13.27c-.06-.33.04-.66.24-.92.2-.25.52-.4.84-.42H37l-.1-.47-.02-.04c-.4-1.73-.8-3.47-1.18-5.21v-.01c-.39-1.82-.75-3.65-1.09-5.48a80.05 80.05 0 0 1-.86-5.9c-.31-2.92-.55-5.84-.75-8.77-.14-2.07-.18-4.15-.25-6.23l-.06-2.97v-.63c.1-3.18.35-6.4-.74-9.4-.78-2.12-1.97-4.07-2.89-6.13-1.32-3-2.73-5.95-3.79-9.05-1.22-3.57-2.1-7.27-3.11-10.92.03-.36-1.67-.72-1.86-1.07l-.07.48c.03-.18.04-.36.03-.53h-.1l-.5.05c-1.22.09-2.44.13-3.64-.1a10.1 10.1 0 0 1-4.22-2.01l-.02-.01c-1-.79-1.9-1.73-2.64-2.76-1.78-2.5-2.1-5.38-2.28-8.35a2.61 2.61 0 0 1-1.45-.78c-.71-.85-.24-2.02-.1-2.98.2-1.4.33-2.8.55-4.18.25-1.53.25-3.1 0-4.8l-.32-2.32c-.27-1.97-.55-4-.92-5.96-.42-2.3-.94-4.65-1.43-6.92l-.66-3.06-.02-.1-.25-2.87v-.31l-.21-2.76a22 22 0 0 1 .43-6.42c.1-.49.17-1.01.23-1.56l.14-1.14c.1-.62.18-1.24.27-1.87.21-1.56.44-3.17.77-4.76l.3-1.4c1.01-4.77 2.06-9.71 3.29-14.54 2.08-8.2 5-16.81 8.94-26.33A5.4 5.4 0 0 1 19 91.72l5.86-2.87c2.06-1 4.12-2 6.18-3.02l2.28-1.16 1.39-.71.03.05c1.37-.72 2.72-1.49 4-2.36a15.2 15.2 0 0 0 3.92-4.05c1.08-1.56 2.27-3.32 2.57-5.23.16-1.06.15-2.13.13-3.19-.03-1.54-.55-1.62-1.75-2.13-1.68-.7-2.97-2.32-4.12-3.68a31 31 0 0 1-4.35-6.85c-1.4.32-2.42-2.27-2.96-3.28-.53-1.01-.95-2.07-1.3-3.16a6.35 6.35 0 0 1-3.03-2.57c-1.24-2-1.82-4.25-2.02-6.63l-.05-.48-.04-1.25.06-2.05.17-1.42.04-.31c.19-1.71.75-3.3 1.65-4.75.23-.37.49-.62.76-.79.2-2.57.62-5.12 1.36-7.62 1.92-6.46 6.1-10.5 11.98-13.78a34 34 0 0 1 8.92-3.38c1.6-.37 3.24-.63 4.89-.78 1.24-.11 2.5-.01 3.74-.09 1.05-.07 1.97.42 2.86-.18 4.28-2.9 10.15-2.16 14.87-.94 4.63 1.2 8.92 3.14 12.2 6.69 6.62 7.14 5.8 17.1 4.23 25.92a33.82 33.82 0 0 1-2.36 8.23c-2.77 5.94-5.75 12.17-5.74 18.87 0 1.54.16 3.1.53 4.6.36 1.49 1.25 2.68 1.7 4.08.08.23.2.4.13.66-.03.12-.2.17-.3.2-1.36-.72-2.56-2.18-3.5-3.23a34.77 34.77 0 0 1-7.93-16.58c.05.26-.93 1.36-1.11 1.6-.34.46-.71.9-1.11 1.31-.76.8-1.59 1.52-2.37 2.3-.15 0-.24 0-.33-.12a30.3 30.3 0 0 1-3.82 5.78c-1.15 1.36-2.45 2.97-4.12 3.68-1.2.51-1.72.6-1.75 2.13-.02 1.06-.04 2.13.13 3.19.3 1.9 1.49 3.67 2.56 5.23a15.18 15.18 0 0 0 3.92 4.05c1 .68 2.04 1.3 3.1 1.88l.04-.07 1.4.75c1.05.56 2.11 1.1 3.17 1.62 2.06 1.02 4.13 2.02 6.2 3.03l5.84 2.86a5.4 5.4 0 0 1 2.58 2.93 194.35 194.35 0 0 1 8.94 26.33c1.23 4.86 2.29 9.84 3.3 14.65l.28 1.29c.34 1.6.56 3.2.78 4.76.09.62.17 1.25.27 1.87l.14 1.13c.06.56.12 1.08.23 1.57a22 22 0 0 1 .43 6.42m1.5-6.82c-.08-.4-.13-.88-.2-1.4a30 30 0 0 0-.14-1.2l-.23-1.6-.03-.24a69.6 69.6 0 0 0-.8-4.9l-.28-1.3a376.82 376.82 0 0 0-3.33-14.72 196.27 196.27 0 0 0-9.02-26.6 7.33 7.33 0 0 0-3.54-3.95l-5.66-2.77-.2-.1c-2.06-1-4.12-2-6.18-3.02-1.04-.52-2.08-1.04-3.11-1.6l-1.4-.74a1.96 1.96 0 0 0-.5-.18A34.52 34.52 0 0 1 69.14 80a13.16 13.16 0 0 1-3.4-3.53c-.94-1.37-2-2.92-2.24-4.42-.14-.9-.13-1.89-.1-2.84v-.11l.54-.23c2-.85 3.47-2.59 4.65-3.98l.2-.25a31.41 31.41 0 0 0 3.57-5.2 2 2 0 0 0 .46-.33l.9-.86c.45-.43.9-.85 1.33-1.3.87 2.9 2.1 5.67 3.68 8.3a33.93 33.93 0 0 0 3.75 5.14l.3.34c.98 1.12 2.2 2.5 3.73 3.32a1.98 1.98 0 0 0 1.46.16 2.26 2.26 0 0 0 1.7-1.6c.22-.84-.04-1.49-.16-1.78a14.6 14.6 0 0 0-.89-2.06c-.32-.65-.63-1.26-.77-1.88-.31-1.25-.47-2.65-.47-4.13-.02-6.1 2.71-11.96 5.36-17.63l.18-.4a35.07 35.07 0 0 0 2.53-8.72c1.66-9.33 2.4-19.91-4.73-27.62-3.16-3.42-7.47-5.8-13.16-7.26A31.8 31.8 0 0 0 69.63 0c-3.37 0-6.25.8-8.52 2.32-.16 0-.33-.03-.5-.05a8.7 8.7 0 0 0-1.42-.07c-.4.03-.79.03-1.19.03h-.8c-.57 0-1.17 0-1.8.06-1.73.16-3.47.44-5.16.83-3.4.78-6.57 1.98-9.44 3.58-7.02 3.9-11 8.51-12.91 14.95a37.8 37.8 0 0 0-1.37 7.2c-.2.22-.37.46-.54.72a13.21 13.21 0 0 0-1.93 5.56l-.2 1.74-.02.17-.07 2.04v.13l.04 1.25.01.16.05.43c.25 2.94 1 5.39 2.31 7.5a8.29 8.29 0 0 0 3.1 2.96 20.4 20.4 0 0 0 1.4 3.1c.6 1.22 1.53 3.12 3.17 3.73a32.03 32.03 0 0 0 4.14 6.31l.2.24c1.19 1.4 2.65 3.14 4.66 3.99l.54.22v.12c.02.95.04 1.94-.1 2.84-.23 1.5-1.3 3.05-2.24 4.42a13.17 13.17 0 0 1-3.4 3.53c-.95.65-2.03 1.3-3.37 2.01-.16.04-.31.1-.46.17l-1.39.72-2.25 1.14L24 87.07l-.26.12-5.61 2.75a7.33 7.33 0 0 0-3.54 3.95 196.2 196.2 0 0 0-9.02 26.6c-1.24 4.87-2.3 9.83-3.31 14.63l-.3 1.39a68.9 68.9 0 0 0-.8 4.9l-.26 1.85-.15 1.2c-.06.5-.11.98-.2 1.39-.5 2.41-.66 4.7-.47 6.97l.2 2.68v.22l.01.2.25 2.86.03.24.03.1.66 3.09c.5 2.24 1 4.57 1.42 6.84.36 1.94.63 3.94.9 5.87l.32 2.32c.22 1.51.22 2.89.01 4.21-.13.82-.23 1.64-.33 2.47l-.22 1.75-.1.5c-.2.98-.54 2.63.64 4.04.3.35.66.65 1.08.89.23 2.76.75 5.58 2.56 8.11a15.4 15.4 0 0 0 3.05 3.19 12.01 12.01 0 0 0 6.32 2.55l.44.02.27.01.5.01.57-.01.3-.02a1.97 1.97 0 0 0 1.5.43l.66 2.45c.68 2.55 1.38 5.18 2.25 7.73.88 2.58 2 5.05 3.07 7.45l.79 1.76c.39.88.82 1.72 1.23 2.54.6 1.19 1.18 2.31 1.6 3.47.86 2.34.76 4.95.66 7.72l-.03 1.01.01 1.58c.01.69.02 1.39.05 2.08l.04 1.54c.05 1.56.1 3.16.2 4.76.23 3.24.48 6.13.76 8.83.2 1.92.5 3.9.89 6.05a191.9 191.9 0 0 0 2.06 9.82 3.15 3.15 0 0 0-.85 2.72l2.33 13.27a3.08 3.08 0 0 0 2.67 2.55l1.3.15a42.21 42.21 0 0 1 1.96 5.4c-.6.72-.9 1.7-1.1 2.36l-.14.44a39.32 39.32 0 0 1-3.42 6.5l-.05.09a8.56 8.56 0 0 0-.56 1.06 7.03 7.03 0 0 0-.57 3.54l.05.39a6.7 6.7 0 0 0 .93 2.38 8.45 8.45 0 0 0 1.72 2.11 11.39 11.39 0 0 0 1.29 1.06l.47.33.8.5.25.13 1-1.71-.89 1.78.52.26.37.18.75.31a19.33 19.33 0 0 0 1.43.44 9.82 9.82 0 0 0 8.47-1.88 9.82 9.82 0 0 0 6.11 2.14 10.8 10.8 0 0 0 3.13-.47l.25-.08a13.63 13.63 0 0 0 .53-.2l.63-.26.45-.21.35-.18.46-.26a8.68 8.68 0 0 0 .8-.49 4.4 4.4 0 0 0 .44-.3l.33-.24.37-.3.38-.32a8.98 8.98 0 0 0 .7-.7 9.62 9.62 0 0 0 1.78-2.67 7.18 7.18 0 0 0 .4-1.35 6.88 6.88 0 0 0 .05-2.02 7.03 7.03 0 0 0-.67-2.14 8.6 8.6 0 0 0-.45-.84l-.05-.07a39.32 39.32 0 0 1-3.42-6.51l-.14-.44c-.19-.6-.46-1.47-.96-2.18l.64-1.84c.43-1.21.85-2.43 1.26-3.65l1.85-.22a3.03 3.03 0 0 0 2.6-2.57l2.16-13.26a3.24 3.24 0 0 0-.58-2.42 3 3 0 0 0-.74-.7l.23-.98.62-2.77c.43-2 .8-3.85 1.13-5.68.4-2.17.68-4.15.88-6.05.3-2.7.54-5.6.76-8.83.11-1.6.16-3.22.2-4.78l.05-1.52c.03-.71.04-1.43.05-2.15v-.87l.01-.71-.03-.93c-.1-2.77-.2-5.39.65-7.73.43-1.16 1-2.28 1.6-3.46.42-.82.85-1.67 1.24-2.55l.78-1.75c1.08-2.4 2.2-4.88 3.07-7.46.46-1.33 1.22-2.72 2.02-4.2 1.12-2.05 2.27-4.16 2.79-6.4a21.86 21.86 0 0 0 3-.26 1.95 1.95 0 0 0 1.15-.14 14.94 14.94 0 0 0 4.72-3.12c.13-.07.26-.16.37-.26a13.02 13.02 0 0 0 4.35-9.27l.01-.3c1.6-1.13 2.2-3.25 1.8-6.34-.5-3.92-.75-7.23-.4-10.64.36-3.54 1.16-7.14 1.93-10.62l.41-1.84.66-3.06.02-.1.04-.24.25-2.87V155.5l.2-2.65c.2-2.3.04-4.58-.46-7" fill="#FFF"/>
    <path d="M85.83 139.66c.2.73.4 1.47.58 2.21.29 1.1.62 2.52.7 3.88.05 1-.04 2.11-.15 3.28l-.1 1.23-.29 3.71-.2 2.58-.26-.68a416.13 416.13 0 0 0-3.32-8.66c-.6-1.49-1.23-3-1.83-4.4a8.15 8.15 0 0 0 4.87-3.15m-7.43 2.2l.2.45c0 .03.02.06.03.08.79 1.85 1.57 3.7 2.32 5.56 1.33 3.33 2.58 6.7 3.84 10.06.15.38.27.77.39 1.15v.01c.4 1.36.66 2.76.84 4.18.35 2.67.9 5.31 1.35 7.97v.04l.06.31.1.7.04.22c.19-1.02.33-2.06.38-3.18.15-3.1-.03-6.2.16-9.3.12-2 .28-3.98.44-5.97a457.54 457.54 0 0 0 .39-4.94c.1-1.24.2-2.41.15-3.56a22.25 22.25 0 0 0-.76-4.27c-.83-3.23-1.7-6.44-2.58-9.66l-1.22-4.53-3.12-11.69c-.18.78-.32 1.56-.44 2.34l-.1 1.24c-.1 1.64.03 3.34.38 4.95.55 2.48 1.54 4.78 2.4 7.15.69 1.9 1.87 4.4 1.06 6.42-.77 1.93-2.56 2.92-4.48 3.35-.68.15-1.37.27-2.06.37l.23.55" fill="#FFF"/>
    <path d="M85.62 201.67a10.23 10.23 0 0 1-1.96-5.19c-.52-.15-.91-.6-.83-1.33.15-1.47.28-2.98.45-4.48-.3-.05-.6-.14-.83-.35-.96-.85-.08-2.43.23-3.38.94-2.9 2.24-5.67 3.23-8.55.7-2 1.28-3.85 1.66-5.8l-.04-.22-.1-.7-.05-.31v-.02l-.01-.02v-.04c-.46-2.64-1-5.27-1.35-7.93a29.8 29.8 0 0 0-.84-4.18c-.12-.4-.24-.78-.39-1.16-1.26-3.36-2.5-6.73-3.84-10.06-.75-1.87-1.53-3.71-2.32-5.56l-.04-.07-.2-.46-.22-.55c-1.42.22-2.84.36-4.27.47-7.3.54-14.65 1.54-21.98 1.54-3.05 0-6.1-.1-9.15-.33-4.13-.33-8.28-.84-12.4-1.34-.57-.07-1.18-.15-1.8-.25-.94 2.18-1.87 4.35-2.75 6.55-1.33 3.33-2.58 6.7-3.85 10.06-.65 1.73-.99 3.5-1.22 5.34l-.31 2.08-.01.06a9 9 0 0 1-.02.09l-.01.09c-.15.89-.3 1.77-.47 2.65-.18 1.03-.37 2.05-.54 3.08l-.05.27-.06.42.02.3c.02.12.02.25.03.38.26 2.32.63 4.64 1.45 6.83.8 2.13 2 4.15 2.99 6.2.57 1.2 1.76 2.25 1.86 3.63.09 1.2-.9 1.4-1.86 1.35.07.48.15.96.24 1.43v.13c.27 1.28.4 2.64-.38 3.75a1.9 1.9 0 0 1-.43.44c.1 2.67-.49 5.32-2.88 6.3-.05.01-.1.05-.15.07l.1-.01c0 .02.03.04.04.05.2.35 1.89.71 1.86 1.07 1.02 3.65 1.9 7.35 3.11 10.92 1.06 3.1 2.47 6.06 3.8 9.05.9 2.06 2.1 4 2.88 6.13 1.09 3 .84 6.22.74 9.4v.63l.06 2.97c.07 2.08.1 4.16.25 6.23.2 2.93.44 5.85.75 8.76.2 1.98.5 3.96.86 5.9.34 1.84.7 3.67 1.09 5.49.22 1.02.46 2.04.69 3.05l.38 1.65.11.52.01.04.12.48h.08c5.34.8 10.75 1.2 16.1 1.2.22 0 .41.09.59.2.12.09.23.2.3.32l.05.06a1.23 1.23 0 0 1 .15.5c.01-.3.14-.57.34-.76v-.01c.19-.17.41-.29.67-.29 4.79 0 9.64-.38 14.42-1.11l.07-.25c.16-.66.3-1.33.45-2 .27-1.15.54-2.3.79-3.47.4-1.86.77-3.73 1.12-5.61.35-1.95.65-3.93.86-5.9.3-2.92.55-5.84.75-8.77.14-2.07.18-4.15.25-6.23.03-.99.04-1.98.05-2.97v-.63c-.1-3.18-.34-6.4.75-9.4.78-2.12 1.97-4.07 2.88-6.13 1.33-3 2.74-5.95 3.8-9.05 1.33-3.9 4.76-7.86 4.98-12.04v-.1l.14-.01h.03l.21-.03h.04c-.13-.16-.3-.29-.47-.4-.27-.2-.57-.4-.8-.68" fill="#3B3E63"/>
    <path d="M85.42 190.64c-.62-.04-1.44.13-2.14.03-.17 1.5-.3 3.01-.45 4.48-.08.74.31 1.18.83 1.33.24 2 .86 3.81 1.96 5.19.23.29.53.48.8.67v-.09c.28-2.18.57-4.37.97-6.52.3-1.64.72-3.25 1.13-4.87-1.14-.07-2.2-.15-3.1-.22M68.06 20.66c-.24-.58-32.27-.58-32.51 0-1.71 4.1-1.61 12.47-2.4 17.9-.3 2.02-.34 4.05-.32 6.07.02 2.2.24 4.38.73 6.52.12.53 1.54 5.4 1.67 5.35a27.8 27.8 0 0 0 4.26 6.87c1.16 1.36 2.45 2.97 4.13 3.68 1.2.51 1.72.6 1.75 2.13.02 1.06.03 2.13-.13 3.19-.3 1.9-1.5 3.67-2.57 5.23a15.23 15.23 0 0 1-3.91 4.05 41.6 41.6 0 0 1-4 2.36l.79 1.26c1.44 2.27 2.86 4.68 4.14 7.01 1.37 2.5 2.76 4.63 4.06 7.06 2.14 4 4.67 9.7 10.44 9.63 5.31-.07 8.54-7.69 10.67-12.38 1.93-4.28 3.32-7.73 5.45-11.78l.8-1.28c-1.06-.59-2.1-1.2-3.1-1.88a15.21 15.21 0 0 1-3.92-4.05c-1.07-1.56-2.26-3.32-2.56-5.23a18.46 18.46 0 0 1-.13-3.19c.03-1.54.55-1.62 1.75-2.13 1.67-.7 2.97-2.32 4.12-3.68a30.19 30.19 0 0 0 3.82-5.78c.21-.56.73-1.49.8-1.67a32.1 32.1 0 0 0 1.93-6.63c.46-2.73.62-5.62.44-8.38-.3-4.75-5.75-19.17-6.2-20.25z" fill="#D18C65"/>
    <path d="M32.83 44.63a40.3 40.3 0 0 1 .32-6.06c.79-5.44 4.65-7.55 6.37-11.66.24-.58.68-1.43 1.12-2.3-.15 1.88-1.12 4.3-1.76 6.03a45.55 45.55 0 0 1-1.92 4.55c-.59 1.19 2.23-.44 2.46-.6a17.83 17.83 0 0 0 4.95-5.85 18.18 18.18 0 0 0 1.6-3.67c.26-.9.36-1.83.67-2.72.28 2.05-.02 4.36-.78 6.28a35.9 35.9 0 0 1-1.12 2.47c-.34.7-.64 1.44-1.12 2.05-.3.36-.5.69-.82 1-.69.8.99.23 1.2.08a8.8 8.8 0 0 0 1.52-1.29c.95-1 1.73-2.16 2.4-3.36a24.76 24.76 0 0 0 2.77-7.68c.18 2.91.06 5.98 1.14 8.74a7.9 7.9 0 0 0 1.05 1.85c.57-.6.93-1.32 1.14-1.85 1.09-2.76.97-5.83 1.14-8.74.51 2.71 1.42 5.28 2.77 7.68.68 1.2 1.46 2.36 2.41 3.36.46.48.96.93 1.51 1.3.22.14 1.9.7 1.2-.09-.31-.31-.52-.64-.8-1-.49-.61-.8-1.36-1.13-2.05A35.9 35.9 0 0 1 60 28.63a12.89 12.89 0 0 1-.78-6.28c.3.89.41 1.82.67 2.72.37 1.28.95 2.5 1.6 3.67a17.83 17.83 0 0 0 4.95 5.84c.23.17 3.05 1.8 2.46.61-.74-1.48-1.36-3-1.93-4.55-.63-1.72-1.6-4.15-1.75-6.04.44.88.88 1.73 1.12 2.31.45 1.08.95 1.88 1.73 3 2.5 3.64 5.88 6.25 6.2 11 .17 2.76.01 5.65-.45 8.38a30.51 30.51 0 0 1-1.93 6.63c-.07.18-.58 1.11-.81 1.65.1.15.2.14.34.13.78-.77 1.6-1.5 2.37-2.29.4-.41.77-.85 1.1-1.31.19-.24 1.17-1.34 1.12-1.6-.03-.02.22-.52.57-1.43.17-.46.39-1.02.58-1.67.22-.64.4-1.4.63-2.2.18-.8.41-1.68.56-2.63.18-.94.3-1.94.45-2.97.15-1.03.2-2.11.3-3.2.01-1.1.08-2.2.06-3.32-.04-1.1 0-2.23-.09-3.32-.09-1.09-.12-2.17-.26-3.2-.15-1.04-.25-2.05-.36-3L78 22.89c-.14-.83-.26-1.6-.42-2.26l-.37-1.73c-.2-.96-.3-1.52-.3-1.52l.48 1.47.54 1.7c.23.65.43 1.4.6 2.22l.63 2.66c.16.96.35 1.97.5 3.02.16 1.05.22 2.14.34 3.25.12 1.11.1 2.25.16 3.38 0 1.13-.08 2.27-.12 3.38-.13 1.11-.19 2.2-.36 3.26a27.77 27.77 0 0 1-.59 3c-.2.96-.49 1.84-.72 2.66-.27.8-.52 1.54-.8 2.17-.26.64-.53 1.18-.75 1.62-.45.88-.77 1.35-.77 1.35a34.06 34.06 0 0 0 7.9 16.56c.93 1.05 2.13 2.51 3.48 3.23.11-.03.28-.08.3-.2.08-.27-.04-.43-.12-.66-.45-1.4-1.34-2.6-1.7-4.08-.37-1.5-.52-3.06-.53-4.6-.01-6.7 2.97-12.93 5.74-18.87a33.83 33.83 0 0 0 2.36-8.23c1.58-8.82 2.39-18.78-4.22-25.92-3.3-3.55-7.58-5.5-12.2-6.69-4.73-1.22-10.6-1.96-14.88.94-.9.6-1.8.11-2.86.18-1.24.08-2.5-.02-3.74.09-1.65.15-3.28.41-4.9.78-3.1.71-6.13 1.83-8.91 3.38-5.88 3.27-10.06 7.32-11.98 13.78a36.19 36.19 0 0 0-1.36 7.62c-.44 6 .43 12.13 1.8 17.95.19.78.4 1.54.65 2.3.36 1.09.78 2.15 1.31 3.16.54 1 1.56 3.6 2.96 3.28-.05.02-1.47-4.84-1.6-5.37a30.39 30.39 0 0 1-.72-6.52z" fill="#000"/>
    <path d="M28.43 29.83a2.3 2.3 0 0 0-.76.79 11.24 11.24 0 0 0-1.69 5.06l-.17 1.42-.06 2.05.04 1.25.05.48c.2 2.38.78 4.63 2.02 6.63a6.34 6.34 0 0 0 3.02 2.57c-.24-.76-.46-1.52-.65-2.3-1.37-5.82-2.24-11.94-1.8-17.95M88.5 194.86c-.37 2.65-.7 5.3-1.04 7.96l.02.05c-.03.2 1.6.11 2.81-.04 1.37-3.81 2-7.84 2.88-11.81-1.38 0-2.75-.06-4.03-.13-.23 1.32-.46 2.64-.64 3.97zM93.38 191.02c.04.47.05.95-.02 1.4-.32 2.4-.65 4.79-1.06 7.16-.17 1.03-.51 2.02-.8 3.02v.16c1.28-.57 2.4-1.2 3.4-2.05.03-.23 1.23-1.22 1.24-1.22l-.03.2a11.1 11.1 0 0 0 3.67-7.83c.01-.5.04-1 .08-1.5l-.39.1c-2.01.36-4.04.55-6.09.56zM54.64 291.35a970.2 970.2 0 0 1-.3 8.5c.53.35 1.1.56 1.67.7v-.03c-.24-1.05.24-1.88 1.2-2.28l.3-.09c.24-.12.49-.22.76-.26.64-.1 1.45-.03 2.08.27.54.2.97.6 1.18 1.22l.05.08c.03.05.03.1.05.15.3-.16.62-.26.91-.3.93-2.74 1.91-5.45 2.82-8.2-3.38.33-6.96.52-10.06.52a.97.97 0 0 1-.66-.28M24 192.21l-.24-1.43a7.54 7.54 0 0 1-.77-.08 40.36 40.36 0 0 0-4.9-.41c.44 1.8.92 3.6 1.26 5.44.4 2.15.7 4.34.96 6.52.03.19.03.38.01.57 2.4-.97 2.98-3.62 2.88-6.3.16-.11.3-.26.43-.43.78-1.1.65-2.47.39-3.75l-.01-.13M18.25 194.86c-.2-1.43-.46-2.86-.7-4.29l-.07-.3-1.41-.03c-1.93-.01-3.86-.02-5.78-.25-.92-.1-2.3-.01-3.42-.28.18 2.97.5 5.86 2.28 8.35a13.39 13.39 0 0 0 2.63 2.75l-1.1-1.07c-.33-1.3 1.13.85 1.17 1.12 1.02.8 2.17 1.4 3.4 1.76-.29-1 .92.24.78.21 1.2.24 2.42.2 3.64.1a.69.69 0 0 0-.38-.06c-.35-2.67-.68-5.34-1.04-8M41.57 291.01c1.1 2.7 2.3 5.37 2.83 8.28.35.06.71.22 1.08.4.08-.43.26-.86.55-1.23.96-1.2 2.91-1.33 4.22-.65.53.27.93.7 1.17 1.18.25.37.4.82.42 1.25.26-.1.5-.23.75-.39.38-.24.68-.32.99-.3.03-2.7.08-5.4.14-8.1-.16.09-.33.15-.52.15-3.59 0-7.78-.22-11.63-.59" fill="#D18C65"/>
    <path d="M52.88 49.92c1 .12 1.73-.4 2.32-1.14.24-.32.6-.66.24-1.08-.53-.27-.61-.07-.95.1-1.58.75-1.92.56-2.1-1.23-.02-.23 0-.47.01-.7.2-3.04.42-6.08.6-9.12.02-.4-.11-.82-.17-1.24l-.4-.04c-.16.35-.4.7-.46 1.07-.14.69-.17 1.4-.25 2.1-.35 2.92-.9 5.82-.6 8.76.17 1.6.64 2.39 1.76 2.52" fill="#B05B4F"/>
    <path d="M44.49 37.77a2.54 2.54 0 0 0-.17-.55c-.42-.96-1.51-1.2-2.1-.26-.54.89-.29 2.24-.2 3.23.06.91.02 2.39 1.26 2.4 1.7.03 1.47-2.25 1.35-3.38-.05-.47-.05-.97-.14-1.44M62.45 42.6c1.25-.02 1.2-1.5 1.27-2.41.08-.98.33-2.34-.21-3.22-.58-.96-1.68-.71-2.1.25-.08.18-.13.36-.17.55-.09.47-.08.97-.14 1.44-.12 1.14-.35 3.41 1.35 3.39" fill="#000"/>
    <path d="M39.35 48.84c-.86-.02-1.7.31-2.22 1.15-1.15 1.8-.51 4.39.33 6.17.65 1.38 2.4 2.75 3.97 2.41 1.41-.3 1.88-1.8 2.01-3.1a9.02 9.02 0 0 0-.9-4.63 3.75 3.75 0 0 0-3.19-2M63.04 55.46c.13 1.3.6 2.82 2.01 3.11 1.57.34 3.32-1.03 3.98-2.4.83-1.8 1.47-4.38.33-6.18a2.47 2.47 0 0 0-2.23-1.15 3.75 3.75 0 0 0-3.18 2 9 9 0 0 0-.9 4.62" fill="#D17C65"/>
    <path d="M46.86 56.06h.02s.83.2 2.1.36a45 45 0 0 0 3.36.35l.63.04.31.02h.16l.04.01h.18c1.68-.09 3.36-.24 4.62-.42 1.26-.17 2.1-.36 2.1-.36h.02a.5.5 0 0 0-.05-1s-.85-.1-2.12-.14a56.82 56.82 0 0 0-4.63.05h-.26l-.31-.02-.63-.02-1.21-.03c-.8 0-1.53 0-2.17.02-1.26.04-2.1.14-2.1.14a.5.5 0 0 0-.05 1M20.32 202.82c.02-.19.02-.38 0-.57-.28-2.18-.57-4.37-.97-6.52-.34-1.83-.82-3.64-1.27-5.44l-.6-.02.07.3c.24 1.43.5 2.86.7 4.3.36 2.66.7 5.33 1.04 8 .16-.01.28.02.38.06l.5-.03.15-.08M13.43 190.36c-.13.71-.15 1.4-.05 2.07.33 2.39.65 4.78 1.06 7.15.18 1.03.52 2.04.8 3.05.26.08.52.15.79.2.14.03.3.04.44.06-1.46-4.04-2.07-8.33-3.04-12.53M11.72 200.05a23.64 23.64 0 0 1-1.84-8.52c0-.2-.1-.38-.17-.57-.2.14-.27.26-.26.38.07 1.5.05 3.02.27 4.5.19 1.33.63 2.6.97 3.9l1.1 1.08.02.01.04.04c-.04-.28-.03-.58-.13-.82M89.14 190.9l-.62-.04c-.4 1.61-.82 3.23-1.13 4.87-.4 2.15-.69 4.34-.96 6.52v.1c.16.11.33.24.46.4h-.04c.26-.02.55-.03.6.07.35-2.66.68-5.31 1.05-7.96.18-1.33.41-2.65.64-3.97M92.3 199.58c.41-2.37.74-4.76 1.07-7.15.06-.46.05-.94.01-1.42h-.22c-.88 3.98-1.5 8.01-2.87 11.82h.02l.72-.1.1-.03c.06 0 .12-.02.16-.03l.07-.02a.78.78 0 0 0 .14-.05c.29-1 .63-2 .8-3.02M97.3 191.34c0-.12-.06-.24-.27-.38-.06.2-.16.38-.17.57-.1 2.98-.7 5.82-1.84 8.52-.09.2-.1.44-.12.68.21-.18.41-.36.6-.55l.04-.03c.2-.2.38-.4.57-.63v-.01c.33-1.22.74-2.42.92-3.67.21-1.48.2-3 .27-4.5" fill="#B05B4F"/>
    <path d="M76.82 51.17c.22-.44.48-.98.74-1.62.3-.63.54-1.37.81-2.17.23-.82.52-1.7.72-2.65.25-.95.44-1.96.59-3.01.17-1.05.23-2.15.36-3.26.03-1.11.13-2.25.11-3.38-.05-1.13-.03-2.27-.15-3.38-.12-1.1-.18-2.2-.34-3.25-.15-1.05-.34-2.06-.5-3.02l-.62-2.66a19.6 19.6 0 0 0-.61-2.22l-.54-1.7-.49-1.47.3 1.52.38 1.73c.16.67.28 1.43.42 2.26l.45 2.67c.11.95.21 1.96.36 3 .14 1.03.17 2.1.26 3.2.1 1.1.05 2.21.09 3.32.02 1.11-.05 2.22-.06 3.32-.1 1.09-.15 2.17-.3 3.2-.15 1.03-.27 2.03-.45 2.97-.15.95-.38 1.82-.56 2.64-.24.8-.41 1.55-.63 2.2-.2.64-.4 1.2-.58 1.66-.35.9-.6 1.41-.6 1.41l.03.02.04.02s.32-.47.77-1.35" fill="gray"/>
    <path d="M70.18 8.2c3.53 2.16 4.89 5.37 6.6 8.84.23.12.07-1.39.06-1.43-.14-.81-.32-1.62-.54-2.41a13.43 13.43 0 0 0-2.16-4.55 8.75 8.75 0 0 0-1.08-1.18 11.8 11.8 0 0 0-5.58-2.71 19.36 19.36 0 0 0-4-.34l-.88.01c-.15 0-.94-.08-1.02.01 1.14.33 2.3.74 3.45 1.23 1.78.54 3.54 1.42 5.15 2.53" fill="#ED1C24"/>
    <path d="M54.57 291.3c-.09-.1-.16-.22-.2-.35a1.22 1.22 0 0 1-.09-.4 1.15 1.15 0 0 1-.3.72c-.08.08-.17.13-.26.18-.06 2.7-.1 5.4-.14 8.1.23.03.47.12.75.3.11-2.8.22-5.63.31-8.5l-.01-.01-.06-.04" fill="#B05B4F"/>
    <path d="M87.43 171.67l-.06-.31c-1.6.13-3.2.03-4.92-.43a14.76 14.76 0 0 1-7.13-4.62l-.18.27c1.74 2.04 3.99 3.72 6.44 4.74l.23.09c.2.08.4.16.6.22l.59.2.24.07c1.4.4 2.85.57 4.3.47l-.11-.7M39.98 241.78c-.15 0-.3.09-.36.22a.4.4 0 0 0 .02.41c1.26 1.92 2.97 3.02 4.72 3.02 1.08 0 2.66-.43 4.01-2.5.1-.14.11-.32.04-.47a.5.5 0 0 0-.44-.26c-.15 0-.3.07-.39.2-1.12 1.53-2.21 2.22-3.55 2.22h-.13c-1.24-.05-2.45-.94-3.6-2.66a.39.39 0 0 0-.32-.18M62.96 245.43c1.74 0 3.46-1.1 4.72-3.02a.4.4 0 0 0 .02-.4.41.41 0 0 0-.36-.23.4.4 0 0 0-.33.18c-1.15 1.72-2.36 2.61-3.59 2.66h-.14c-1.33 0-2.43-.69-3.55-2.22a.47.47 0 0 0-.38-.2.5.5 0 0 0-.44.26.47.47 0 0 0 .03.48c1.36 2.06 2.93 2.49 4.02 2.49M30.72 166.58l-.19-.27a14.77 14.77 0 0 1-7.13 4.62c-1.39.38-2.7.5-4.01.47l-.05.27-.06.42.02.3c4.29-.07 8.54-2.45 11.42-5.8M54.1 276.95l.04.06a1.12 1.12 0 0 1 .15.5c.01-.3.14-.57.34-.76v-.01c.02-2.12.02-4.22 0-6.3-.1-10.24-.39-20.49-.37-30.74.04-18.14-.2-36.27.35-54.4a.55.55 0 0 0-.03-.18c3.38-2.78 6.62-5.73 10.08-8.42.43-.34.04-1.1-.44-.77-1.7 1.14-3.3 2.4-4.88 3.73-.8.68-4.96 5.13-5.9 4.52a76.46 76.46 0 0 1-12.12-9.99c-.22-.22-.54.11-.34.36 3.6 4.28 8 7.84 12.58 10.94-.53 17.74-.07 35.5-.16 53.25-.05 10.25.24 20.5.38 30.74.03 2.39.02 4.77 0 7.15.13.09.23.2.32.32" fill="#292E49"/>
    <path d="M104.27 146.25c-.1-.49-.16-1.01-.22-1.57l-.14-1.13c-.1-.62-.18-1.25-.27-1.87a67.96 67.96 0 0 0-.78-4.76l-.27-1.3a375.8 375.8 0 0 0-3.31-14.64c-2.08-8.2-5-16.81-8.94-26.33a5.4 5.4 0 0 0-2.58-2.93c-1.94-.96-3.9-1.91-5.85-2.86l-6.2-3.03a116.5 116.5 0 0 1-3.16-1.62l-1.4-.75-.04.07-.8 1.28c-2.13 4.05-3.52 7.5-5.45 11.78-2.13 4.69-5.36 12.31-10.67 12.38-5.77.06-8.3-5.63-10.44-9.63-1.3-2.43-2.69-4.56-4.06-7.06-1.28-2.33-2.7-4.74-4.14-7l-.8-1.27-.04-.05-1.38.71c-.76.4-1.52.78-2.28 1.16l-6.18 3.02c-1.96.96-3.92 1.9-5.86 2.87a5.4 5.4 0 0 0-2.58 2.93 194.22 194.22 0 0 0-8.94 26.33 374.69 374.69 0 0 0-3.29 14.55l-.3 1.39c-.33 1.6-.56 3.2-.77 4.76l-.27 1.87c-.06.38-.1.76-.14 1.14-.07.55-.13 1.07-.23 1.56a22 22 0 0 0-.43 6.42l.21 2.76v.31l.25 2.87.02.1.66 3.06c.5 2.27 1 4.62 1.43 6.92.37 1.96.64 4 .91 5.96l.33 2.31c.24 1.71.24 3.28 0 4.8-.22 1.4-.35 2.8-.55 4.2-.14.95-.61 2.12.1 2.97.35.41.87.64 1.45.78 1.12.27 2.5.18 3.42.28 1.92.23 3.85.24 5.78.25.47 0 .94.02 1.4.03a40.36 40.36 0 0 1 5.52.43c.24.04.5.07.77.08.96.05 1.95-.15 1.87-1.35-.1-1.38-1.29-2.42-1.86-3.62-.98-2.06-2.2-4.08-3-6.21a28.37 28.37 0 0 1-1.44-6.83l-.03-.39-.02-.3c-.4-3.97-.38-7.98-.62-11.97-.12-2-.28-4-.44-6l-.3-3.7c-.02-.4-.06-.8-.1-1.2-.1-1.24-.2-2.42-.14-3.57.08-1.52.44-3.08.75-4.27.82-3.18 1.68-6.34 2.54-9.51l1.27-4.68 3.12-11.7a41 41 0 0 1 .58 3.22l.02.37c.1 1.64-.02 3.34-.38 4.95-.54 2.48-1.53 4.78-2.4 7.15-.68 1.9-1.86 4.4-1.05 6.42 1.03 2.59 3.84 3.4 6.43 3.81a294.93 294.93 0 0 0 14.21 1.58c3.04.25 6.1.34 9.15.34 7.33 0 14.67-1 21.98-1.54 1.43-.1 2.85-.25 4.27-.47.69-.1 1.37-.22 2.06-.37 1.92-.43 3.7-1.42 4.48-3.35.8-2.03-.38-4.53-1.06-6.42-.86-2.37-1.85-4.67-2.4-7.15-.36-1.6-.48-3.3-.38-4.95l.1-1.24c.12-.78.26-1.56.44-2.34 1.04 3.9 2.07 7.8 3.12 11.69l1.22 4.53c.88 3.22 1.75 6.44 2.58 9.66.31 1.19.67 2.74.76 4.27.06 1.15-.04 2.32-.15 3.56l-.1 1.2c-.09 1.25-.19 2.5-.3 3.74-.15 1.99-.31 3.98-.43 5.97-.2 3.1-.01 6.2-.16 9.3-.05 1.12-.2 2.16-.38 3.18-.38 1.95-.97 3.8-1.66 5.8-.99 2.88-2.3 5.65-3.24 8.55-.3.95-1.18 2.53-.22 3.38.23.2.52.3.83.35.7.1 1.52-.07 2.14-.03.9.07 1.96.15 3.1.22l.62.04c1.28.06 2.65.12 4.03.12h.21a34.77 34.77 0 0 0 6.48-.66c2.04-.63 1.98-3 1.75-4.83-.47-3.72-.8-7.35-.42-11.09.44-4.28 1.46-8.49 2.38-12.69l.66-3.04.02-.1.25-2.87v-.31l.21-2.76c.17-2.09.03-4.2-.44-6.42" fill="#F1D049"/>
    <path d="M61.58 299.46c0-.03-.03-.05-.05-.08a1.88 1.88 0 0 0-1.18-1.22 3.72 3.72 0 0 0-2.08-.28c-.27.05-.52.15-.76.27l-.3.09c-.96.4-1.44 1.23-1.2 2.27v.04a5.27 5.27 0 0 1-1.68-.7 1.72 1.72 0 0 0-.75-.3c-.31-.03-.61.06-.99.3-.24.16-.5.28-.75.4a2.54 2.54 0 0 0-.42-1.26c-.24-.49-.64-.9-1.17-1.19-1.3-.67-3.26-.54-4.22.66-.3.37-.47.8-.55 1.24a3.62 3.62 0 0 0-1.33-.44c-.79 0-1.14 1.89-1.42 2.56-1 2.43-2.2 4.72-3.6 6.84.4-.59 1.04-1.59 0 .02-1.96 3-.45 5.67 1.76 7.48-1.87-1.54-3.22-3.7-2.4-6.15 1.03 2.9 4.73 4.98 6.93 5.48 1.7.38 3.45.27 5.08-.44a7.92 7.92 0 0 0 2.36-1.62c.48-.45.72-.46 1.2 0 .75.7 1.48 1.24 2.37 1.62 1.63.71 3.38.82 5.07.44 2.21-.5 5.91-2.59 6.93-5.48.83 2.46-.53 4.61-2.4 6.15 2.22-1.81 3.73-4.47 1.77-7.48-1.05-1.6-.4-.6-.01-.02a41.23 41.23 0 0 1-3.6-6.84c-.27-.67-.63-2.56-1.41-2.56-.08 0-.16.03-.24.04-.3.05-.6.15-.91.3-.02-.04-.02-.1-.05-.14" fill="#333"/>
    <path d="M53.77 146.13a1.54 1.54 0 1 0 0 3.09 1.54 1.54 0 0 0 0-3.09M68.43 310.01c-1.02 2.9-4.72 4.98-6.93 5.48-1.7.38-3.44.27-5.07-.44a7.96 7.96 0 0 1-2.36-1.61c-.49-.47-.73-.46-1.21 0a7.94 7.94 0 0 1-2.36 1.61 8.12 8.12 0 0 1-5.08.44c-2.2-.5-5.9-2.59-6.93-5.47-.82 2.45.53 4.6 2.4 6.14l.05.04c.18.15.36.29.55.42l.14.1a12.4 12.4 0 0 0 1.46.88l.4.2.35.15.33.14.41.15.24.08c.2.07.41.12.6.17 1.7.38 3.45.27 5.08-.44a7.94 7.94 0 0 0 2.36-1.61c.48-.46.72-.47 1.2 0 .75.7 1.48 1.23 2.37 1.61a8.12 8.12 0 0 0 5.68.27l.24-.08.4-.15.34-.14.34-.15.4-.2.28-.15a14.08 14.08 0 0 0 1.93-1.29c1.86-1.54 3.22-3.7 2.4-6.15" fill="#C6A553"/>
    <path d="M51.2 303.05l-6 .04c-.36 0-.36.56 0 .56l6 .04c.4 0 .4-.64 0-.64M50.47 305.2l-6 .03c-.36 0-.36.56 0 .56l6 .04c.4 0 .4-.64 0-.64M49.68 307.27l-6 .04c-.36 0-.36.56 0 .56l6 .04c.4 0 .4-.64 0-.64M63.51 307.27l-6 .04c-.36 0-.36.56 0 .56l6 .04c.4 0 .4-.64 0-.64M62.78 305.13l-6 .04c-.36 0-.36.56 0 .56l6 .04c.4 0 .4-.64 0-.64M55.98 303.65l6 .04c.4 0 .4-.64 0-.64l-6 .04c-.35 0-.35.56 0 .56" fill="#FFF"/>
    <path d="M71.26 275.67a1.02 1.02 0 0 0-.78-.42h-.03a.9.9 0 0 0-.15 0l-.57.09a95.68 95.68 0 0 1-14.43 1.11.96.96 0 0 0-.66.29h-.01v14.6h.01c.19.18.41.29.66.29a109.55 109.55 0 0 0 13.13-.86c.45-.05.8-.43.89-.92l2.16-13.27c.06-.32-.04-.66-.22-.91M37.1 275.23H36.92c-.32 0-.64.16-.84.41-.2.26-.3.6-.24.92l2.32 13.27c.09.49.47.86.95.92a126.4 126.4 0 0 0 14.09.85c.19 0 .36-.06.52-.15l.03-.03v-14.8c-.16-.11-.34-.19-.55-.19-5.35 0-10.76-.4-16.1-1.2" fill="#ACB2CF"/>
    <path d="M54.63 276.75c-.2.19-.33.46-.34.77a1.13 1.13 0 0 0-.15-.5l-.04-.07c-.1-.14-.2-.25-.35-.34v14.82c.08-.05.16-.1.22-.16.1-.1.17-.21.22-.34.05-.12.08-.25.1-.39a1.1 1.1 0 0 0 .29.75c0 .02.03.03.05.05v-14.6z" fill="#787EA1"/>
  </g>
</svg>
