<?xml version="1.0" encoding="UTF-8"?>
<svg width="106px" height="330px" viewBox="0 0 106 330" version="1.1" xmlns="http://www.w3.org/2000/svg" xmlns:xlink="http://www.w3.org/1999/xlink">
    <!-- Generator: Sketch 43.1 (39012) - http://www.bohemiancoding.com/sketch -->
    <title>Page 1</title>
    <desc>Created with Sketch.</desc>
    <defs>
        <polygon id="path-1" points="0.566646225 0.584 83.5876893 0.584 83.5876893 75.5465 0.566646225 75.5465 0.566646225 0.584"></polygon>
        <polygon id="path-3" points="39.1101747 20 0.691547043 20 0.691547043 0.0047 39.1101747 0.0047"></polygon>
    </defs>
    <g id="Page-1" stroke="none" stroke-width="1" fill="none" fill-rule="evenodd">
        <g id="Artboard" transform="translate(0.000000, -1.000000)">
            <g id="Page-1">
                <g id="Group-3" transform="translate(0.000000, 8.416000)" fill="#D18C65">
                    <path d="M92.3011,147.1517 C92.0511,150.4727 91.7281,153.7867 91.5201,157.1127 C91.3401,159.9967 91.2771,162.8907 91.1621,165.7817 C91.1311,166.5297 91.1501,167.2857 91.0581,168.0237 C90.8311,169.8487 90.5701,171.6697 90.2861,173.4837 C90.1901,174.0977 89.9801,174.6897 89.8221,175.2927 C89.7641,175.2737 89.7061,175.2557 89.6491,175.2377 C89.4341,173.7527 89.2521,172.2627 88.9981,170.7837 C88.5101,167.9277 87.8851,165.0887 87.5021,162.2227 C87.2511,160.3407 86.8871,158.5077 86.1971,156.7337 C84.8561,153.2757 83.5271,149.8097 82.1101,146.3807 C80.8601,143.3527 79.4861,140.3737 78.1901,137.3637 C77.9551,136.8187 77.6371,136.2097 77.6821,135.6677 C77.9021,132.9967 78.2171,130.3367 78.5281,127.6757 C78.9241,124.2947 79.3521,120.9167 79.7581,117.5367 C80.1751,114.0717 80.6051,110.6127 81.8541,107.3447 C82.0301,106.8817 82.2351,106.6607 82.7661,106.6747 C83.3181,106.6887 83.3481,107.0457 83.4491,107.4147 C84.8511,112.5057 86.2511,117.5957 87.6611,122.6837 C89.0121,127.5537 90.4041,132.4147 91.7091,137.2957 C92.1241,138.8467 92.4771,140.4487 92.5651,142.0337 C92.6581,143.7357 92.4301,145.4477 92.3011,147.1517 M27.4421,137.3637 C26.1451,140.3737 24.7721,143.3527 23.5221,146.3807 C22.1041,149.8097 20.7761,153.2757 19.4341,156.7337 C18.7451,158.5077 18.3801,160.3407 18.1291,162.2227 C17.7471,165.0887 17.1221,167.9277 16.6321,170.7837 C16.3801,172.2627 16.1971,173.7527 15.9831,175.2377 C15.9251,175.2557 15.8671,175.2737 15.8091,175.2927 C15.6511,174.6897 15.4411,174.0977 15.3451,173.4837 C15.0601,171.6697 14.8001,169.8487 14.5731,168.0237 C14.4821,167.2857 14.5001,166.5297 14.4691,165.7817 C14.3541,162.8907 14.2921,159.9967 14.1111,157.1127 C13.9031,153.7867 13.5801,150.4727 13.3301,147.1517 C13.2011,145.4477 12.9731,143.7357 13.0671,142.0337 C13.1541,140.4487 13.5071,138.8467 13.9221,137.2957 C15.2261,132.4147 16.6201,127.5537 17.9701,122.6837 C19.3801,117.5957 20.7801,112.5057 22.1811,107.4147 C22.2831,107.0457 22.3131,106.6887 22.8651,106.6747 C23.3971,106.6607 23.6021,106.8817 23.7781,107.3447 C25.0261,110.6127 25.4561,114.0717 25.8731,117.5367 C26.2801,120.9167 26.7071,124.2947 27.1031,127.6757 C27.4141,130.3367 27.7291,132.9967 27.9501,135.6677 C27.9941,136.2097 27.6761,136.8187 27.4421,137.3637 M105.1321,143.1157 C104.9261,142.1687 104.8691,141.1947 104.7211,140.2357 C104.3721,137.9947 104.1161,135.7347 103.6311,133.5177 C102.4341,128.0617 101.2581,122.5947 99.8381,117.1867 C97.4301,108.0147 94.1571,99.1027 90.4221,90.3457 C90.0321,89.4327 89.4611,88.6707 88.5511,88.2367 C84.2911,86.1987 80.0071,84.2137 75.7481,82.1727 C73.2361,80.9687 70.6951,79.7357 68.3601,78.1967 C66.6971,77.1037 65.3441,75.6487 64.1971,74.0337 C63.0561,72.4257 61.7871,70.6157 61.4711,68.6517 C61.2951,67.5637 61.3131,66.4647 61.3331,65.3727 C61.3631,63.7907 61.9201,63.7057 63.1951,63.1837 C64.9741,62.4547 66.3481,60.7977 67.5761,59.3967 C70.7731,55.7477 72.8831,51.4607 74.4201,46.8607 C74.5881,46.3567 74.8371,46.2407 75.3591,46.1357 C77.2891,45.7457 78.8781,44.7407 79.9421,43.0807 C81.2541,41.0277 81.8741,38.7127 82.0861,36.2667 C82.1061,36.1007 82.1261,35.9337 82.1461,35.7677 C82.1591,35.3387 82.1721,34.9097 82.1871,34.4817 C82.1621,33.7817 82.1391,33.0817 82.1151,32.3817 C82.0571,31.8947 81.9981,31.4077 81.9391,30.9217 C81.9241,30.8127 81.9101,30.7037 81.8971,30.5947 C81.6981,28.8397 81.1021,27.2027 80.1431,25.7097 C79.0921,24.0717 77.5181,23.5687 75.7601,24.1967 C75.6371,24.2407 75.5061,24.2637 75.2811,24.3227 C75.1211,23.6697 74.9781,23.0497 74.8181,22.4337 C73.9941,19.2517 73.4381,15.9947 72.0311,12.9697 C70.4121,9.4847 68.4201,6.2437 65.2361,3.9117 C62.6471,2.0137 59.6781,1.0397 56.5861,0.6277 C55.3171,0.4587 54.0601,0.3687 52.8161,0.3607 C51.5711,0.3687 50.3141,0.4587 49.0451,0.6277 C45.9531,1.0397 42.9851,2.0137 40.3951,3.9117 C37.2111,6.2437 35.2191,9.4847 33.6001,12.9697 C32.1941,15.9947 31.6371,19.2517 30.8141,22.4337 C30.6531,23.0497 30.5101,23.6697 30.3501,24.3227 C30.1251,24.2637 29.9941,24.2407 29.8711,24.1967 C28.1131,23.5687 26.5401,24.0717 25.4881,25.7097 C24.5301,27.2027 23.9331,28.8397 23.7351,30.5947 C23.7211,30.7037 23.7071,30.8127 23.6931,30.9217 C23.6331,31.4077 23.5741,31.8947 23.5161,32.3817 L23.4441,34.4817 C23.4591,34.9097 23.4721,35.3387 23.4851,35.7677 C23.5051,35.9337 23.5251,36.1007 23.5451,36.2667 C23.7571,38.7127 24.3771,41.0277 25.6901,43.0807 C26.7531,44.7407 28.3411,45.7457 30.2731,46.1357 C30.7941,46.2407 31.0431,46.3567 31.2121,46.8607 C32.7491,51.4607 34.8591,55.7477 38.0551,59.3967 C39.2831,60.7977 40.6571,62.4547 42.4361,63.1837 C43.7111,63.7057 44.2681,63.7907 44.2981,65.3727 C44.3181,66.4647 44.3361,67.5637 44.1611,68.6517 C43.8431,70.6157 42.5751,72.4257 41.4331,74.0337 C40.2871,75.6487 38.9331,77.1037 37.2721,78.1967 C34.9361,79.7357 32.3941,80.9687 29.8821,82.1727 C25.6241,84.2137 21.3401,86.1987 17.0801,88.2367 C16.1711,88.6707 15.5991,89.4327 15.2091,90.3457 C11.4741,99.1027 8.2021,108.0147 5.7941,117.1867 C4.3731,122.5947 3.1971,128.0617 2.0001,133.5177 C1.5151,135.7347 1.2591,137.9947 0.9111,140.2357 C0.7611,141.1947 0.7051,142.1687 0.4991,143.1157 C0.0601,145.1427 -0.1059,147.1697 0.0681,149.2137 C0.1471,150.1857 0.2261,151.1587 0.3041,152.1317 C0.3031,152.2387 0.3021,152.3447 0.3011,152.4527 C0.3831,153.3697 0.4651,154.2877 0.5471,155.2057 C1.3001,158.6407 2.1231,162.0597 2.7831,165.5157 C3.3251,168.3507 3.6811,171.2277 4.1081,174.0887 C4.3781,175.9007 4.4111,177.7157 4.1041,179.5597 C3.6081,182.5387 3.1511,185.5337 3.3321,188.5627 C3.5311,191.8887 3.7571,195.1437 5.8081,197.9197 C7.5791,200.3177 10.1361,202.2617 13.1131,202.8317 C14.6021,203.1167 16.1231,203.0097 17.6231,202.8887 C17.6571,203.2597 17.5511,203.6537 17.5131,204.0397 C18.6011,207.7917 19.5301,211.6037 20.8251,215.2767 C21.9491,218.4607 23.4501,221.5037 24.8541,224.5747 C25.8271,226.7027 27.0931,228.7027 27.9171,230.8857 C29.0801,233.9647 28.8171,237.2857 28.7091,240.5547 C28.7101,240.7707 28.7121,240.9867 28.7131,241.2037 C28.7311,242.2207 28.7351,243.2407 28.7711,244.2577 C28.8461,246.3947 28.8841,248.5367 29.0351,250.6667 C29.2481,253.6737 29.5041,256.6787 29.8311,259.6727 C30.0541,261.7107 30.3731,263.7397 30.7511,265.7497 C32.2621,273.7867 34.3201,281.6777 36.6301,289.4877 C37.9921,294.0937 39.7681,298.5647 41.3301,303.1077 C41.4381,303.4207 41.4161,303.8657 41.2761,304.1727 C39.9251,307.1227 38.2021,309.8697 36.1781,312.4087 C35.3091,313.4967 35.1651,314.4987 35.7321,315.6197 C36.5461,317.2267 37.6981,318.4747 39.4311,319.1827 C42.8391,320.5747 46.2751,321.2057 49.8541,319.4747 C50.8821,318.9787 52.9001,317.3057 52.9001,317.3057 C52.9001,317.3057 54.7491,318.9787 55.7771,319.4747 C59.3571,321.2057 62.7921,320.5747 66.1991,319.1827 C67.9341,318.4747 69.0861,317.2267 69.8991,315.6197 C70.4661,314.4987 70.3221,313.4967 69.4531,312.4087 C67.4291,309.8697 65.7061,307.1227 64.3561,304.1727 C64.2151,303.8657 64.1931,303.4207 64.3011,303.1077 C65.8641,298.5647 67.6391,294.0937 69.0021,289.4877 C71.3111,281.6777 73.3691,273.7867 74.8801,265.7497 C75.2581,263.7397 75.5761,261.7107 75.8001,259.6727 C76.1271,256.6787 76.3831,253.6737 76.5961,250.6667 C76.7471,248.5367 76.7851,246.3947 76.8601,244.2577 C76.8971,243.2407 76.9011,242.2207 76.9181,241.2037 C76.9201,240.9867 76.9211,240.7707 76.9221,240.5547 C76.8151,237.2857 76.5511,233.9647 77.7141,230.8857 C78.5381,228.7027 79.8041,226.7027 80.7771,224.5747 C82.1821,221.5037 83.6821,218.4607 84.8061,215.2767 C86.2311,211.2377 87.8051,207.1247 87.9811,202.7967 C88.1231,202.7697 89.0821,202.6227 89.0501,202.8647 C89.0061,203.1907 92.9471,202.8067 93.3381,202.5907 C93.3241,202.6437 93.3221,202.6987 93.3321,202.7537 C95.2681,201.9197 96.8941,200.9827 98.2541,199.3887 C98.2381,199.4607 98.2291,199.5327 98.2211,199.6047 C100.5471,197.6387 102.0291,194.5797 102.1231,191.5427 C102.1821,189.6337 102.4431,187.7267 102.3461,185.8237 C102.2381,183.7327 101.8721,181.6397 101.5271,179.5597 C101.2201,177.7157 101.2541,175.9007 101.5241,174.0887 C101.9491,171.2277 102.3061,168.3507 102.8481,165.5157 C103.5081,162.0597 104.3311,158.6407 105.0841,155.2057 C105.1661,154.2877 105.2481,153.3697 105.3301,152.4527 C105.3281,152.3447 105.3281,152.2387 105.3261,152.1317 C105.4051,151.1587 105.4851,150.1857 105.5631,149.2137 C105.7371,147.1697 105.5711,145.1427 105.1321,143.1157" id="Fill-1"></path>
                </g>
                <path d="M52.2259,38.3914 C52.2899,38.8164 52.4319,39.2444 52.4049,39.6674 C52.2119,42.7914 51.9839,45.9144 51.7699,49.0384 C51.7539,49.2814 51.7339,49.5284 51.7579,49.7674 C51.9469,51.6064 52.3139,51.7954 53.9889,51.0214 C54.3499,50.8544 54.4409,50.6444 54.9969,50.9294 C55.3749,51.3524 55.0029,51.7084 54.7409,52.0304 C54.1209,52.7934 53.3359,53.3324 52.2839,53.2104 C51.0949,53.0724 50.5919,52.2564 50.4169,50.6154 C50.0979,47.5964 50.6749,44.6064 51.0439,41.6104 C51.1339,40.8874 51.1669,40.1564 51.3089,39.4434 C51.3849,39.0614 51.6369,38.7094 51.8089,38.3434 C51.9479,38.3594 52.0859,38.3754 52.2259,38.3914" id="Fill-4" fill="#B05B4F"></path>
                <path d="M43.3616,39.4222 C43.3226,39.2312 43.2676,39.0432 43.1866,38.8622 C42.7396,37.8742 41.5736,37.6162 40.9536,38.5982 C40.3816,39.5032 40.6476,40.9022 40.7306,41.9112 C40.8066,42.8552 40.7546,44.3692 42.0766,44.3892 C43.8846,44.4162 43.6436,42.0742 43.5106,40.9082 C43.4546,40.4192 43.4606,39.9082 43.3616,39.4222" id="Fill-6" fill="#000000"></path>
                <path d="M61.1692,39.4222 C61.2082,39.2312 61.2632,39.0432 61.3442,38.8622 C61.7912,37.8742 62.9572,37.6162 63.5762,38.5982 C64.1492,39.5032 63.8832,40.9022 63.8012,41.9112 C63.7242,42.8552 63.7762,44.3692 62.4532,44.3892 C60.6462,44.4162 60.8872,42.0742 61.0202,40.9082 C61.0762,40.4192 61.0702,39.9082 61.1692,39.4222" id="Fill-8" fill="#000000"></path>
                <path d="M37.9056,52.865 C36.9886,52.845 36.1046,53.192 35.5386,54.051 C34.3206,55.898 34.9996,58.565 35.8936,60.398 C36.5876,61.821 38.4516,63.223 40.1146,62.881 C41.6106,62.573 42.1136,61.017 42.2486,59.682 C42.4126,58.057 41.9966,56.384 41.2906,54.927 C40.7156,53.741 39.2736,52.895 37.9056,52.865" id="Fill-10" fill="#D17C65"></path>
                <path d="M67.4251,52.865 C68.3421,52.845 69.2271,53.192 69.7921,54.051 C71.0101,55.898 70.3301,58.565 69.4381,60.398 C68.7431,61.821 66.8791,63.223 65.2151,62.881 C63.7201,62.573 63.2171,61.017 63.0821,59.682 C62.9181,58.057 63.3341,56.384 64.0401,54.927 C64.6151,53.741 66.0571,52.895 67.4251,52.865" id="Fill-12" fill="#D17C65"></path>
                <path d="M45.9368,59.284 C45.9368,59.284 46.8358,59.183 48.1818,59.146 C48.8538,59.124 49.6388,59.117 50.4778,59.127 C50.8978,59.136 51.3318,59.145 51.7718,59.154 L52.4368,59.18 L52.7718,59.193 L52.9398,59.199 L52.9818,59.201 L53.0028,59.202 L53.0128,59.202 L52.9568,59.202 L52.9618,59.202 L53.0458,59.197 C54.8348,59.111 56.6258,59.096 57.9718,59.141 C59.3168,59.18 60.2158,59.284 60.2158,59.284 C60.4938,59.316 60.6928,59.567 60.6608,59.844 C60.6348,60.064 60.4708,60.235 60.2658,60.28 L60.2498,60.283 C60.2498,60.283 59.3598,60.474 58.0208,60.644 C56.6828,60.821 54.8958,60.98 53.1068,61.07 L53.0228,61.073 L52.9188,61.071 L52.8768,61.068 L52.7098,61.058 L52.3748,61.037 L51.7108,60.996 C51.2708,60.962 50.8378,60.927 50.4188,60.894 C49.5818,60.82 48.8008,60.735 48.1318,60.645 C46.7928,60.474 45.9038,60.283 45.9038,60.283 L45.8878,60.28 C45.6148,60.221 45.4408,59.953 45.4998,59.68 C45.5458,59.462 45.7268,59.307 45.9368,59.284" id="Fill-14" fill="#B05B4F"></path>
                <path d="M37.3245,251.7142 C37.6605,252.4762 37.9535,253.2612 38.3415,253.9932 C39.0585,255.3482 40.1935,256.2122 41.7065,256.5572 C42.9785,256.8462 44.2785,256.2812 44.9135,254.9932 C45.5245,253.7532 45.9475,252.4262 46.4885,251.1502 C46.6195,250.8392 46.7075,250.4382 47.1495,250.4722 C47.7905,250.6882 47.4565,250.9712 47.4075,251.2782 C47.1125,253.0982 46.4435,254.8042 45.2385,256.2352 C43.9165,257.8062 41.8535,258.0432 40.1955,256.9362 C38.5065,255.8062 37.2675,253.6562 37.3245,251.7142" id="Fill-16" fill="#B05B4F"></path>
                <path d="M69.4114,251.7142 C69.0754,252.4762 68.7824,253.2612 68.3944,253.9932 C67.6774,255.3482 66.5434,256.2122 65.0294,256.5572 C63.7574,256.8462 62.4574,256.2812 61.8224,254.9932 C61.2114,253.7532 60.7894,252.4262 60.2484,251.1502 C60.1154,250.8392 60.0274,250.4382 59.5864,250.4722 C58.9454,250.6882 59.2794,250.9712 59.3284,251.2782 C59.6234,253.0982 60.2934,254.8042 61.4984,256.2352 C62.8184,257.8062 64.8834,258.0432 66.5404,256.9362 C68.2294,255.8062 69.4684,253.6562 69.4114,251.7142" id="Fill-18" fill="#B05B4F"></path>
                <path d="M17.6717,210.6478 C17.3797,208.4038 17.0757,206.1568 16.6457,203.9398 C16.2557,201.9278 15.7067,199.9518 15.2017,197.9658 C15.1047,197.5828 14.9137,197.1978 14.3667,197.2428 C14.5067,197.7758 14.6507,198.2008 14.7287,198.6378 C14.9917,200.1048 15.2617,201.5718 15.4727,203.0478 C15.8637,205.7888 16.2137,208.5358 16.5817,211.2808 C16.7577,211.2698 16.8817,211.3008 16.9827,211.3518 C17.1967,211.3358 17.4097,211.3228 17.6227,211.3048 C17.6397,211.4828 17.6217,211.6658 17.5967,211.8498 C17.6607,211.4428 17.7227,211.0368 17.6717,210.6478" id="Fill-20" fill="#B05B4F"></path>
                <path d="M10.2986,200.5462 C10.6486,203.0012 10.9936,205.4582 11.4266,207.8972 C11.6166,208.9642 11.9846,209.9952 12.2856,211.0382 C12.5586,211.1162 12.8326,211.1942 13.1126,211.2472 C13.2696,211.2772 13.4276,211.2872 13.5856,211.3092 C12.0346,207.1522 11.3856,202.7382 10.3526,198.4152 C10.2116,199.1482 10.2006,199.8572 10.2986,200.5462" id="Fill-22" fill="#B05B4F"></path>
                <path d="M6.5857,199.6214 C6.5787,199.4244 6.4687,199.2324 6.4067,199.0394 C6.1867,199.1844 6.1147,199.3064 6.1207,199.4214 C6.1987,200.9694 6.1797,202.5354 6.4057,204.0574 C6.6087,205.4214 7.0847,206.7344 7.4397,208.0694 C7.8297,208.4364 8.2187,208.8054 8.6077,209.1714 C8.6307,209.1884 8.6537,209.2064 8.6767,209.2234 C8.6357,208.9424 8.6487,208.6354 8.5397,208.3854 C7.3227,205.6064 6.6907,202.6824 6.5857,199.6214" id="Fill-24" fill="#B05B4F"></path>
                <path d="M90.8753,198.638 C90.9533,198.201 91.0973,197.776 91.2373,197.243 C90.6893,197.198 90.4993,197.582 90.4023,197.966 C89.8973,199.952 89.3483,201.928 88.9583,203.94 C88.5283,206.157 88.2243,208.404 87.9323,210.648 C87.9043,210.863 87.9163,211.084 87.9373,211.308 C87.9493,211.306 87.9613,211.308 87.9733,211.306 C87.9753,211.275 87.9803,211.243 87.9803,211.212 C88.1103,211.188 88.9153,211.067 89.0283,211.23 C89.3953,208.501 89.7423,205.772 90.1313,203.048 C90.3423,201.572 90.6123,200.105 90.8753,198.638" id="Fill-26" fill="#B05B4F"></path>
                <path d="M95.305,200.5462 C95.404,199.8572 95.393,199.1482 95.252,198.4152 C94.224,202.7172 93.575,207.1072 92.041,211.2452 C92.669,211.1702 93.186,211.0822 93.327,211.0102 C93.627,209.9772 93.989,208.9542 94.178,207.8972 C94.611,205.4582 94.955,203.0012 95.305,200.5462" id="Fill-28" fill="#B05B4F"></path>
                <path d="M99.4837,199.4212 C99.4897,199.3062 99.4177,199.1842 99.1977,199.0392 C99.1347,199.2332 99.0257,199.4242 99.0177,199.6212 C98.9127,202.6832 98.2817,205.6072 97.0647,208.3852 C96.9727,208.5942 96.9647,208.8412 96.9417,209.0812 C97.3957,208.7102 97.8277,208.3002 98.2327,207.8282 C98.5797,206.5762 99.0077,205.3392 99.1977,204.0582 C99.4237,202.5352 99.4047,200.9692 99.4837,199.4212" id="Fill-30" fill="#B05B4F"></path>
                <g id="Group-34" transform="translate(11.000000, 0.416000)">
                    <mask id="mask-2" fill="white">
                        <use xlink:href="#path-1"></use>
                    </mask>
                    <g id="Clip-33"></g>
                    <path d="M81.3899,53.1165 C81.3849,53.1055 81.3799,53.0945 81.3749,53.0825 C80.0089,49.8415 78.0709,46.9085 76.4629,43.7915 C73.7979,38.6275 72.8819,33.0225 71.1079,27.5555 C69.9109,23.8695 68.6019,20.3795 66.3689,17.2065 C61.5179,10.3155 53.2469,6.7515 44.9929,6.1265 C45.5659,5.6055 46.2189,5.1325 46.9679,4.7175 C49.0809,3.5445 54.0979,2.4565 55.8459,4.5665 C56.0199,4.7765 56.4249,4.5515 56.3169,4.2925 C54.9619,1.0675 49.5189,1.9735 46.9089,2.8075 C45.3149,3.3165 43.8289,4.3595 42.6289,5.6965 C43.1919,3.7795 44.3769,2.1345 46.6259,1.1135 C46.9289,0.9765 46.7099,0.5135 46.4069,0.5925 C43.9709,1.2245 42.0329,3.4705 41.1299,6.0485 C40.5989,6.0665 40.0669,6.0935 39.5329,6.1335 C35.7389,4.4615 30.3129,5.0445 27.4919,7.4385 C27.3429,7.5655 27.5329,7.7775 27.6909,7.6965 C30.4429,6.2925 33.4589,5.8565 36.4959,6.4575 C36.5079,6.4595 36.5169,6.4645 36.5289,6.4665 C29.1209,7.6005 21.9639,10.9605 17.5669,17.2065 C15.3329,20.3795 14.0239,23.8695 12.8269,27.5555 C11.4259,31.8735 10.7069,36.4155 8.8649,40.5885 C6.9809,44.8555 4.4059,48.7835 2.5899,53.0915 C1.1069,56.6115 0.3999,60.4305 0.5999,64.2485 C3.3819,66.8455 7.0229,68.6125 10.4709,70.1485 C17.6569,73.3485 25.4319,75.0935 33.2739,75.5465 C33.3189,74.8225 33.3119,74.0965 33.2979,73.3725 C33.2679,71.7905 32.7109,71.7055 31.4359,71.1835 C30.2339,70.6905 29.3219,69.8455 28.3999,68.8885 C26.7479,67.1755 25.3469,64.9995 24.2059,63.1035 C23.0159,61.1275 22.2359,59.0425 21.4219,56.8965 C21.2059,56.3285 21.0019,55.5685 20.6449,54.9825 L20.6889,54.8605 L19.6259,51.6175 C14.3559,52.4855 13.7069,46.5545 13.6259,43.9735 C13.3759,36.0555 15.3769,34.8055 18.2509,34.8055 C20.9629,34.8055 22.5359,39.4285 22.7619,40.1415 L22.7369,40.1455 C22.7369,40.1455 22.9389,40.7005 23.3139,40.6595 C23.4919,40.6395 23.6259,40.4845 23.7199,40.3275 C23.7809,40.2595 23.8239,40.1575 23.8549,40.0435 C23.8699,40.0025 23.8799,39.9725 23.8799,39.9725 L23.8739,39.9735 C23.9299,39.7305 23.9359,39.4765 23.9359,39.4765 L23.9039,39.4775 C24.0769,38.9075 24.1569,38.0295 24.1799,37.8625 C24.5059,35.5385 25.6979,33.2385 27.3479,31.5865 C29.3679,29.5635 31.7849,29.5775 34.3579,28.8295 C35.5689,28.4775 36.7939,27.8885 37.8099,27.1365 C40.0079,25.5105 40.7979,23.0185 41.2839,20.4365 C41.5439,19.0555 41.7349,17.6615 41.9679,16.2755 C42.4179,18.9625 42.4179,22.5315 43.8739,24.8925 C45.0409,26.7865 46.9009,28.0145 48.9909,28.6865 C51.4589,29.4795 54.1229,29.2895 56.1549,31.1565 C57.9249,32.7845 59.6259,35.1755 59.8599,37.6345 C59.9519,38.6065 60.0609,39.8065 60.2689,40.1435 L60.2599,40.1455 C60.2599,40.1455 60.4619,40.7005 60.8369,40.6595 C61.0469,40.6365 61.1969,40.4255 61.2899,40.2425 L61.3159,40.2425 C61.3159,40.2425 61.3399,40.1585 61.3889,40.0135 C61.3939,40.0005 61.3959,39.9945 61.3979,39.9875 C61.7569,38.9175 63.3019,34.8055 65.8579,34.8055 C68.7319,34.8055 70.7329,36.0555 70.4829,43.9735 C70.4019,46.5545 69.7529,52.4855 64.4829,51.6175 L63.4199,54.8605 C63.2189,55.4635 63.0069,56.0595 62.7839,56.6505 C62.7689,56.6915 62.7509,56.7315 62.7359,56.7725 C62.0699,58.5225 61.3069,60.2175 60.4089,61.8595 C60.3459,61.9735 60.2809,62.0855 60.2169,62.1985 C59.3649,63.7115 58.3979,65.1585 57.2929,66.5245 C57.0569,66.8165 56.8259,67.1115 56.5769,67.3965 C55.3479,68.7985 53.9739,70.4545 52.1959,71.1835 C50.9199,71.7055 50.3639,71.7905 50.3329,73.3725 C50.3199,74.0825 50.3139,74.7945 50.3549,75.5045 C57.8259,75.1075 65.2679,73.6015 72.1789,70.7175 C75.6969,69.2495 79.3669,67.5235 82.3549,65.1265 C85.1009,62.9235 82.5699,55.9225 81.3899,53.1165" id="Fill-32" fill="#000000" mask="url(#mask-2)"></path>
                </g>
                <path d="M97.7542,114.7205 C95.9962,109.4825 93.9392,104.1165 91.4652,98.3175 C90.9142,97.0245 90.1202,96.1455 89.0402,95.6295 C86.9792,94.6435 84.9122,93.6705 82.8462,92.6965 C80.6412,91.6585 78.4372,90.6195 76.2382,89.5665 C75.6612,89.2895 75.0822,89.0105 74.5042,88.7265 C74.3442,88.6475 74.1732,88.6105 74.0062,88.6105 C73.5942,88.6105 73.1982,88.8345 72.9972,89.2235 C71.4122,92.2935 69.9192,94.3965 68.1572,96.0435 C64.1932,99.7495 57.6152,100.3215 53.0122,100.4285 C52.5972,100.4385 52.1842,100.4445 51.7742,100.4445 C47.8622,100.4445 43.7802,99.9985 40.4252,96.7665 C38.0172,94.4455 36.3932,91.0605 34.9612,88.0745 C34.8272,87.7955 34.5862,87.5835 34.2922,87.4875 C34.1772,87.4495 34.0572,87.4305 33.9382,87.4305 C33.7552,87.4305 33.5712,87.4745 33.4062,87.5625 C32.0742,88.2705 30.6902,88.9445 29.3922,89.5665 C27.1942,90.6195 24.9902,91.6585 22.7862,92.6965 C20.7192,93.6705 18.6522,94.6435 16.5922,95.6295 C15.5112,96.1455 14.7172,97.0245 14.1662,98.3175 C12.3702,102.5275 10.7312,106.6805 9.2952,110.6615 C9.1442,111.0815 9.2522,111.5505 9.5722,111.8605 C10.5052,112.7645 11.4522,113.6535 12.4002,114.5425 C13.4572,115.5345 14.5132,116.5255 15.5482,117.5385 C17.2772,119.2295 18.5992,120.8105 19.5882,122.3695 C19.7972,122.7005 20.1602,122.8965 20.5452,122.8965 C20.6002,122.8965 20.6562,122.8925 20.7132,122.8845 C21.1562,122.8175 21.5192,122.4965 21.6382,122.0635 L23.0272,117.0285 C24.0112,119.9685 24.3852,123.0745 24.7472,126.0885 L25.2262,130.0145 C25.4802,132.0845 25.7352,134.1525 25.9772,136.2235 L26.0132,136.5395 C26.3062,139.0425 26.6092,141.6305 26.8202,144.1765 C26.8342,144.3515 26.6392,144.7915 26.5092,145.0825 L26.4002,145.3315 C25.9042,146.4815 25.3982,147.6275 24.8912,148.7735 C24.0842,150.5985 23.2502,152.4835 22.4742,154.3635 C21.2742,157.2655 20.1342,160.2075 19.0332,163.0525 C18.8932,163.4125 18.9472,163.8205 19.1762,164.1325 C19.2162,164.1875 19.2662,164.2355 19.3082,164.2895 L19.5832,163.1035 C19.7712,162.7565 20.1252,162.4925 20.5212,162.3505 C20.9952,162.1825 21.5312,162.1935 21.9332,162.4875 C32.0622,169.9015 44.7762,171.5125 56.9142,168.9785 C62.2592,167.8625 67.4592,166.2395 72.7542,164.9235 C76.1112,164.0885 80.7632,162.2905 84.2772,163.1055 C84.7452,163.2145 85.1702,163.3675 85.5722,163.5425 C85.7042,163.8815 85.8362,164.2195 85.9682,164.5585 C86.4302,163.6525 86.3522,162.3315 85.9452,161.4095 C85.9372,161.3835 85.9402,161.3545 85.9292,161.3285 C85.1112,159.2235 84.1542,156.7745 83.1572,154.3635 C82.3812,152.4835 81.5472,150.5985 80.7402,148.7735 C80.2342,147.6285 79.7272,146.4815 79.2312,145.3315 L79.1212,145.0825 C78.9922,144.7915 78.7972,144.3515 78.8112,144.1775 C79.0222,141.6305 79.3242,139.0425 79.6172,136.5395 L79.6542,136.2235 C79.8972,134.1525 80.1512,132.0845 80.4042,130.0145 L80.8852,126.0875 C81.2462,123.0755 81.6192,119.9685 82.6042,117.0285 L84.8302,125.0985 C84.9512,125.5375 85.3222,125.8615 85.7752,125.9205 C85.8242,125.9275 85.8742,125.9305 85.9242,125.9305 C86.3202,125.9305 86.6942,125.7215 86.9012,125.3715 C88.6942,122.3245 92.6752,119.4165 95.8732,117.0805 C96.3852,116.7065 96.8832,116.3435 97.3562,115.9915 C97.7502,115.6985 97.9102,115.1855 97.7542,114.7205" id="Fill-35" fill="#E34B4B"></path>
                <path d="M75.8831,128.7298 C68.5931,126.9418 61.0091,126.1518 53.5131,126.0298 C45.7601,125.9028 37.7801,126.7068 30.5201,129.5558 C30.3191,129.6348 30.3981,129.9568 30.6121,129.8868 C45.2971,125.0618 60.8191,126.4538 75.7501,129.2118 C76.0631,129.2698 76.1991,128.8078 75.8831,128.7298" id="Fill-37" fill="#B53D3D"></path>
                <path d="M89.1136,179.9183 C84.2146,180.2483 79.2306,177.6843 75.9356,173.9653 C76.0016,173.8703 76.0666,173.7743 76.1326,173.6803 C78.1726,175.9153 80.7536,177.6683 83.7086,178.4383 C85.5306,178.9123 87.2386,179.0133 88.9396,178.8753 C88.4606,176.1293 87.8696,173.3963 87.5026,170.6393 C87.2516,168.7563 86.8866,166.9243 86.1976,165.1493 C85.9896,164.6133 85.7806,164.0783 85.5726,163.5423 C85.1706,163.3673 84.7456,163.2143 84.2776,163.1063 C80.7626,162.2903 76.1116,164.0883 72.7546,164.9233 C67.4596,166.2393 62.2586,167.8623 56.9136,168.9793 C44.7766,171.5133 32.0616,169.9013 21.9336,162.4873 C21.5306,162.1933 20.9946,162.1833 20.5216,162.3513 C20.1246,162.4923 19.7706,162.7563 19.5826,163.1043 L16.2136,177.6403 C16.1306,178.0573 16.0626,178.4763 15.9886,178.8943 C17.6026,179.0003 19.2266,178.8883 20.9546,178.4383 C23.9096,177.6683 26.4896,175.9153 28.5296,173.6803 C28.5966,173.7743 28.6616,173.8703 28.7276,173.9653 C25.4896,177.6193 20.6206,180.1513 15.8056,179.9263 C15.6876,180.6593 15.5776,181.3953 15.4756,182.1313 C15.3086,183.3293 15.9866,185.1013 16.2516,186.2773 C16.2996,186.4883 16.3596,186.6963 16.4096,186.9073 C16.5466,187.0193 16.6726,187.1563 16.7776,187.3393 C17.9376,189.3543 19.5036,190.6663 20.1106,193.0293 C20.2486,193.5653 20.3616,194.1063 20.4646,194.6483 C20.6166,194.8133 20.7276,195.0083 20.7626,195.2393 C21.0166,196.9383 21.2656,198.6373 21.5956,200.3223 C21.6046,200.3673 21.6036,200.4093 21.6086,200.4523 C21.8896,201.7733 22.0276,203.1733 21.1946,204.3113 C21.0646,204.4893 20.9076,204.6413 20.7356,204.7623 C20.8356,207.3013 20.3356,209.8453 18.2556,211.0053 C18.3176,211.2913 18.2296,211.5943 18.0246,211.8003 C18.1036,212.1663 17.9646,212.5823 17.5916,212.7363 C18.6456,216.3973 19.5626,220.1113 20.8256,223.6923 C21.9486,226.8763 23.4496,229.9193 24.8536,232.9903 C25.8276,235.1183 27.0926,237.1183 27.9176,239.3023 C29.0796,242.3803 28.8176,245.7013 28.7086,248.9713 C28.7106,249.1863 28.7116,249.4023 28.7136,249.6193 C28.7316,250.6373 28.7346,251.6563 28.7716,252.6743 C28.8456,254.8113 28.8836,256.9523 29.0346,259.0823 C29.2486,262.0903 29.5036,265.0953 29.8316,268.0883 C30.0546,270.1263 30.3726,272.1553 30.7516,274.1653 C32.2616,282.2023 34.3196,290.0943 36.6296,297.9033 C37.9916,302.5103 39.7686,306.9813 41.3306,311.5233 C41.4126,311.7643 41.3966,312.0693 41.3316,312.3433 C41.6746,312.4113 42.0256,312.4163 42.3356,312.3003 C45.0126,313.2673 49.7106,312.6383 51.1636,311.9193 C52.1916,311.4123 53.2646,312.3873 54.3646,312.7983 C56.2576,313.5053 58.4686,313.4253 60.4256,313.1803 C61.8056,313.0073 63.1056,312.5643 64.2556,311.8883 C64.2636,311.7623 64.2636,311.6303 64.3016,311.5233 C65.8636,306.9813 67.6386,302.5103 69.0026,297.9033 C71.3106,290.0943 73.3696,282.2023 74.8806,274.1653 C75.2576,272.1553 75.5766,270.1263 75.7996,268.0883 C76.1276,265.0953 76.3826,262.0903 76.5956,259.0823 C76.7476,256.9523 76.7856,254.8113 76.8596,252.6743 C76.8966,251.6563 76.9006,250.6373 76.9186,249.6193 C76.9206,249.4023 76.9216,249.1863 76.9226,248.9713 C76.8146,245.7013 76.5506,242.3803 77.7136,239.3023 C78.5386,237.1183 79.8036,235.1183 80.7776,232.9903 C82.1816,229.9193 83.6816,226.8763 84.8056,223.6923 C86.2306,219.6533 87.8046,215.5403 87.9806,211.2123 C88.0376,211.2013 88.2226,211.1733 88.4246,211.1563 C88.0516,210.7303 87.4676,210.5283 87.0736,210.0493 C85.9076,208.6313 85.2436,206.7603 84.9906,204.7123 C84.4426,204.5553 84.0236,204.1043 84.1076,203.3463 C84.4496,200.2523 84.6196,196.9823 85.5296,193.9863 C86.5136,190.7483 88.2556,187.8363 89.1616,184.5723 C89.2456,184.2683 89.3976,184.0413 89.5836,183.8723 C89.6056,183.7923 89.6286,183.7193 89.6496,183.6383 C89.5526,182.9403 89.2916,181.0813 89.1136,179.9183" id="Fill-39" fill="#404040"></path>
                <path d="M64.3343,183.5726 C62.5183,184.7516 60.8243,186.0466 59.1493,187.4146 C58.2903,188.1156 53.8793,192.6906 52.8683,192.0576 C48.1973,189.1346 43.9713,185.5916 39.9983,181.7886 C39.7563,181.5566 39.4173,181.9046 39.6343,182.1536 C43.4593,186.5546 48.1443,190.2186 53.0073,193.4076 C52.4413,211.6566 52.9293,229.9226 52.8333,248.1776 C52.7763,258.7186 53.0893,269.2576 53.2333,279.7966 C53.3763,290.2856 52.9893,300.7386 52.8783,311.2206 C52.8763,311.4686 53.5573,311.8306 53.5663,311.5956 C53.9413,301.5956 54.2473,290.8816 54.1383,280.7836 C54.0243,270.2436 53.7273,259.7056 53.7493,249.1636 C53.7873,230.5096 53.5353,211.8606 54.1213,193.2206 C54.1233,193.1486 54.1063,193.0896 54.0883,193.0316 C57.6813,190.1706 61.1273,187.1356 64.7993,184.3696 C65.2603,184.0206 64.8443,183.2416 64.3343,183.5726" id="Fill-41" fill="#606060"></path>
                <path d="M88.9397,178.8753 C87.2387,179.0133 85.5307,178.9123 83.7087,178.4383 C80.7527,177.6683 78.1717,175.9153 76.1327,173.6803 C76.0667,173.7743 76.0017,173.8703 75.9357,173.9653 C79.2307,177.6843 84.2147,180.2483 89.1137,179.9183 C89.0687,179.6303 89.0277,179.3723 88.9987,179.1993 C88.9807,179.0913 88.9597,178.9833 88.9397,178.8753" id="Fill-43" fill="#606060"></path>
                <path d="M28.7273,173.9651 C28.6613,173.8701 28.5963,173.7751 28.5293,173.6801 C26.4903,175.9151 23.9093,177.6681 20.9543,178.4381 C19.2263,178.8881 17.6023,179.0001 15.9893,178.8941 C15.9283,179.2381 15.8613,179.5811 15.8053,179.9261 C20.6213,180.1521 25.4903,177.6191 28.7273,173.9651" id="Fill-45" fill="#606060"></path>
                <path d="M47.0633,251.7327 C46.9003,251.7327 46.7493,251.8087 46.6503,251.9397 C45.4623,253.5167 44.2993,254.2197 42.8773,254.2197 L42.7323,254.2177 C41.4203,254.1727 40.1383,253.2557 38.9203,251.4887 C38.8393,251.3707 38.7113,251.3027 38.5703,251.3027 C38.4093,251.3027 38.2573,251.3927 38.1833,251.5327 C38.1123,251.6657 38.1223,251.8217 38.2093,251.9517 C39.5433,253.9227 41.3713,255.0537 43.2243,255.0537 L43.2243,255.0537 C44.3763,255.0537 46.0513,254.6097 47.4893,252.4907 C47.5933,252.3377 47.6063,252.1557 47.5253,252.0027 C47.4383,251.8397 47.2573,251.7327 47.0633,251.7327" id="Fill-47" fill="#606060"></path>
                <path d="M68.0306,251.5315 C67.9566,251.3925 67.8046,251.3025 67.6436,251.3025 C67.5036,251.3025 67.3756,251.3705 67.2936,251.4885 C66.0756,253.2555 64.7946,254.1735 63.4826,254.2185 L63.3386,254.2195 C61.9166,254.2195 60.7526,253.5165 59.5636,251.9405 C59.4646,251.8085 59.3146,251.7325 59.1516,251.7325 C58.9576,251.7325 58.7756,251.8395 58.6896,252.0025 C58.6076,252.1555 58.6216,252.3385 58.7246,252.4905 C60.1636,254.6095 61.8396,255.0535 62.9906,255.0535 C64.8426,255.0535 66.6716,253.9235 68.0056,251.9505 C68.0926,251.8205 68.1016,251.6645 68.0306,251.5315" id="Fill-49" fill="#606060"></path>
                <g id="Group-53" transform="translate(33.000000, 310.416000)">
                    <mask id="mask-4" fill="white">
                        <use xlink:href="#path-3"></use>
                    </mask>
                    <g id="Clip-52"></g>
                    <path d="M37.9671,9.6907 C36.6491,8.0377 37.4711,9.0677 37.9531,9.6727 C36.2131,7.4887 34.6821,5.1317 33.4271,2.6337 C33.0801,1.9437 32.6311,0.0047 31.6421,0.0047 C30.3501,0.0047 28.9021,1.1697 27.5491,1.3387 C25.3321,1.6167 23.0271,1.6727 20.9991,0.6117 C20.1691,0.1777 19.6301,0.1787 18.8021,0.6117 C16.7741,1.6727 14.4681,1.6167 12.2511,1.3387 C10.8991,1.1697 9.4501,0.0047 8.1601,0.0047 C7.1701,0.0047 6.7211,1.9437 6.3741,2.6337 C5.1191,5.1317 3.5891,7.4887 1.8471,9.6727 C2.3301,9.0677 3.1521,8.0377 1.8351,9.6907 C-2.2789,14.8417 5.7251,19.0357 9.7681,19.7757 C11.9061,20.1677 14.1101,20.0627 16.1681,19.3307 C17.2861,18.9327 18.2081,18.3907 19.1381,17.6677 C19.7421,17.1967 20.0481,17.1897 20.6621,17.6677 C21.5931,18.3907 22.5151,18.9327 23.6331,19.3307 C25.6921,20.0627 27.8951,20.1677 30.0331,19.7757 C34.0761,19.0357 42.0801,14.8417 37.9671,9.6907" id="Fill-51" fill="#E06426" mask="url(#mask-4)"></path>
                </g>
                <path d="M50.4998,314.3177 C48.3718,314.3317 46.2428,314.3427 44.1138,314.3567 C43.7408,314.3587 43.7408,314.9327 44.1138,314.9347 C46.2428,314.9487 48.3718,314.9607 50.4998,314.9737 C50.9228,314.9757 50.9228,314.3157 50.4998,314.3177" id="Fill-54" fill="#FF9008"></path>
                <path d="M49.7229,316.5189 C47.5949,316.5329 45.4659,316.5439 43.3369,316.5579 C42.9639,316.5599 42.9639,317.1339 43.3369,317.1359 C45.4659,317.1499 47.5949,317.1619 49.7229,317.1749 C50.1459,317.1769 50.1459,316.5169 49.7229,316.5189" id="Fill-56" fill="#FF9008"></path>
                <path d="M48.8811,318.6556 C46.7531,318.6696 44.6241,318.6806 42.4951,318.6946 C42.1221,318.6966 42.1221,319.2706 42.4951,319.2726 C44.6241,319.2866 46.7531,319.2986 48.8811,319.3116 C49.3041,319.3136 49.3041,318.6536 48.8811,318.6556" id="Fill-58" fill="#FF9008"></path>
                <path d="M63.5784,319.3118 C61.4494,319.2978 59.3204,319.2868 57.1924,319.2728 C56.8194,319.2708 56.8194,318.6968 57.1924,318.6948 C59.3204,318.6808 61.4494,318.6688 63.5784,318.6558 C64.0024,318.6538 64.0024,319.3138 63.5784,319.3118" id="Fill-60" fill="#FF9008"></path>
                <path d="M62.8011,317.1097 C60.6731,317.0967 58.5441,317.0857 56.4161,317.0717 C56.0421,317.0697 56.0421,316.4957 56.4161,316.4937 C58.5441,316.4797 60.6731,316.4677 62.8011,316.4547 C63.2251,316.4527 63.2251,317.1127 62.8011,317.1097" id="Fill-62" fill="#FF9008"></path>
                <path d="M61.9602,314.9739 C59.8312,314.9599 57.7022,314.9489 55.5742,314.9349 C55.2002,314.9329 55.2002,314.3589 55.5742,314.3569 C57.7022,314.3429 59.8312,314.3309 61.9602,314.3179 C62.3832,314.3159 62.3832,314.9759 61.9602,314.9739" id="Fill-64" fill="#FF9008"></path>
            </g>
        </g>
    </g>
</svg>