<svg width="135" height="353" viewBox="0 0 135 353" xmlns="http://www.w3.org/2000/svg">
  <g fill="none" fill-rule="evenodd">
    <path d="M133.7 170.64c-.34-2.25-.6-4.5-1.08-6.72-1.2-5.46-2.38-10.92-3.8-16.33-.83-3.16-1.76-6.29-2.78-9.4-.39.3-.77.58-1.18.87-3.2 2.34-7.18 5.25-8.97 8.3-.16.25-.4.44-.68.51l1.44 5.21c1.35 4.87 2.74 9.73 4.04 14.62.42 1.55.77 3.15.86 4.73.1 1.7-.13 3.42-.26 5.12-.25 3.32-.58 6.64-.78 9.96-.18 2.89-.25 5.78-.36 8.67-.03.75-.01 1.5-.1 2.24-.23 1.83-.5 3.65-.78 5.46-.1.62-.3 1.21-.46 1.81l-.18-.05-.06.22c-.19.17-.34.4-.42.7-.9 3.26-2.65 6.17-3.64 9.41-.9 3-1.08 6.27-1.42 9.36-.08.76.34 1.2.89 1.37.25 2.04.91 3.92 2.08 5.33.24.3.56.5.85.7.3-2.34 1.47-2.24 1.1.48 0 .3 2.14.15 3.42-.03l-.4.05c1.53-4.14 1.58-1.27 1.28-.24a10.65 10.65 0 0 0 3.62-1.92c.02-.24.03-.5.12-.7 1.22-2.78 1.51-1.8 1.17-.56a10.55 10.55 0 0 0 3.89-7.87c.06-1.9.32-3.81.22-5.72-.1-2.09-.47-4.18-.82-6.26a17.4 17.4 0 0 1 0-5.47c.42-2.86.78-5.74 1.32-8.57.66-3.46 1.49-6.88 2.24-10.31l.25-2.76v-.32l.23-2.92c.17-2.04 0-4.07-.43-6.1-.2-.94-.27-1.92-.41-2.87z" fill="#D18C65"/>
    <path d="M116.45 66.2c-2.67-5.17-3.58-10.78-5.36-16.24-1.2-3.69-2.5-7.18-4.74-10.35-4.85-6.9-13.12-10.46-21.37-11.08.57-.52 1.22-1 1.97-1.41 2.12-1.18 7.13-2.26 8.88-.15.18.2.58-.02.47-.28-1.35-3.22-6.8-2.32-9.4-1.48a9.97 9.97 0 0 0-4.29 2.89 6.96 6.96 0 0 1 4-4.59c.3-.13.09-.6-.22-.52-2.43.63-4.37 2.88-5.27 5.46-.54.02-1.07.04-1.6.08-3.8-1.67-9.22-1.09-12.04 1.3-.15.14.04.35.2.27a13.4 13.4 0 0 1 8.8-1.24C69.11 30 61.95 33.36 57.55 39.6c-2.23 3.17-3.54 6.66-4.74 10.35-1.4 4.31-2.12 8.86-3.96 13.03-1.88 4.27-4.46 8.2-6.27 12.5a25.37 25.37 0 0 0-2 11.16c2.79 2.6 6.43 4.36 9.88 5.9a65.34 65.34 0 0 0 22.8 5.4c.02-.36 17.06-.4 17.08-.05 7.47-.4 14.91-1.9 21.82-4.78 3.52-1.47 7.2-3.2 10.18-5.6 2.75-2.2.22-9.2-.96-12-1.39-3.28-3.32-6.21-4.93-9.33z" fill="#000"/>
    <path d="M43.87 41.5c-.13.02-.26.05-.38.1-.39.17-.68.54-.79.94-.1.36-.07.86 0 1.23.06.36.21.7.48.95.11.12.25.2.39.27-.32.84-.63 1.73-.88 2.45-.47 1.3-.7 2.74-.59 4.12.03.35.27.54.62.5l3.34-.4c.29-.03.43-.36.37-.6-.53-2.02-1.09-3.98-1.35-6.05h.04c.83-.4 1.34-1.17 1.08-2.1a1.7 1.7 0 0 0-1.1-1.17c.25-4.66.4-9.36.33-14.01l-.9-1.32a206.4 206.4 0 0 0-.66 15.1" fill="#FBB03B"/>
    <path d="M73.21 13.5c12.42-2.61 20.35-.3 20.35-.3l2.7 12.86 6.78-1.12L110.3-.02 34.76 12.14l9.77 14.27.9 1.32 4.14 6.05 6.26-1.03-2-12.84s7.83-3.97 19.38-6.4" fill="#626"/>
    <path d="M97.38 31.88l.1-.02-1.22-5.8-2.7-12.86s-7.93-2.31-20.35.3c-11.55 2.44-19.38 6.4-19.38 6.4l2 12.85 1.1 7.09.02.1 40.43-8.06z" stroke="#93278F" fill="#93278F"/>
    <path d="M105.84 57.2c-2.55 0-4.1 4.12-4.46 5.19v.02l-.08.23h-.02c-.1.19-.25.4-.46.42-.37.04-.57-.51-.57-.51-.2-.34-.31-1.54-.4-2.52-.24-2.45-1.94-4.85-3.7-6.47-2.04-1.87-4.7-1.68-7.17-2.47a9.12 9.12 0 0 1-5.12-3.8c-1.46-2.36-1.46-5.93-1.9-8.61-.24 1.38-.43 2.78-.69 4.16-.49 2.58-1.28 5.07-3.47 6.7a11.13 11.13 0 0 1-3.46 1.69c-2.57.75-4.99.73-7 2.76a11.38 11.38 0 0 0-3.17 6.27c-.03.17-.1 1.05-.28 1.62h.03s0 .25-.06.5l-.02.06a.7.7 0 0 1-.13.29c-.1.16-.23.31-.41.33-.38.04-.58-.51-.58-.51h.03c-.23-.72-1.8-5.34-4.51-5.34-2.88 0-4.88 1.25-4.63 9.16.08 2.58.73 8.52 6 7.65l1.06 3.24-.04.12c.36.59.56 1.35.78 1.92.81 2.14 1.6 4.23 2.78 6.2a32.76 32.76 0 0 0 4.2 5.79c.44.46.88.89 1.35 1.27l.15.11c.17.13.34.26.52.37l.25.16c.24.14.5.27.76.38 1.28.53 1.83.61 1.86 2.2l.01 1.06v.04c0 .72-.03 1.45-.14 2.17-.32 1.97-1.59 3.78-2.73 5.38a15.92 15.92 0 0 1-4.16 4.17c-.76.5-1.55.96-2.35 1.4 0 .03.03.04.04.06 1.43 2.98 3.05 6.37 5.46 8.7 3.36 3.22 7.44 3.67 11.35 3.67.41 0 .82 0 1.24-.02 4.6-.1 11.18-.68 15.14-4.38 1.76-1.65 3.25-3.75 4.84-6.81a46.41 46.41 0 0 1-4.63-2.62 15.89 15.89 0 0 1-4.17-4.17c-1.14-1.6-2.4-3.41-2.72-5.38a18.87 18.87 0 0 1-.15-2.21v-1.07c.04-1.58.6-1.66 1.87-2.19 1.78-.72 3.15-2.38 4.38-3.78l.72-.88a31.22 31.22 0 0 0 2.92-4.32l.12-.21.07-.13c.45-.81.86-1.64 1.24-2.48l.03-.07c.38-.83.73-1.68 1.06-2.53v-.02l.05-.1.64-1.8 1.06-3.24c5.27.87 5.92-5.07 6-7.65.25-7.91-1.75-9.16-4.63-9.16" fill="#D18C65"/>
    <path d="M81.27 75.2c1.05.12 1.84-.42 2.46-1.19.26-.32.63-.67.25-1.1-.55-.28-.64-.07-1 .1-1.68.77-2.05.58-2.24-1.26-.02-.24 0-.48.02-.73.21-3.12.44-6.24.63-9.37.03-.42-.11-.85-.18-1.27l-.42-.05c-.17.36-.42.72-.5 1.1-.14.71-.17 1.44-.26 2.16-.37 3-.95 6-.63 9 .18 1.65.68 2.47 1.87 2.6" fill="#B05B4F"/>
    <path d="M72.35 61.4c-.04-.18-.1-.37-.18-.55-.44-1-1.61-1.25-2.23-.27-.57.9-.3 2.3-.22 3.32.07.94.02 2.45 1.34 2.47 1.81.03 1.57-2.31 1.44-3.48-.06-.49-.05-1-.15-1.48M91.44 66.37c1.32-.02 1.27-1.53 1.35-2.47.08-1.01.34-2.41-.23-3.32-.62-.98-1.78-.72-2.23.27-.08.18-.14.37-.17.56-.1.48-.1 1-.15 1.48-.14 1.17-.38 3.51 1.43 3.48" fill="#000"/>
    <path d="M66.9 74.85c-.93-.02-1.81.33-2.38 1.19-1.21 1.84-.53 4.5.36 6.34.7 1.43 2.56 2.83 4.22 2.49 1.5-.31 2-1.87 2.13-3.2a9.02 9.02 0 0 0-.95-4.76 4 4 0 0 0-3.39-2.06M92.07 81.67c.13 1.33.64 2.89 2.13 3.2 1.67.34 3.53-1.06 4.22-2.49.9-1.83 1.58-4.5.36-6.34a2.65 2.65 0 0 0-2.37-1.2 4 4 0 0 0-3.38 2.07 9.02 9.02 0 0 0-.96 4.76" fill="#D17C65"/>
    <path d="M74.87 82.26h.02s.89.2 2.23.37c.67.09 1.45.17 2.29.25l1.29.1.66.04.34.02.16.01H82.1c1.8-.09 3.58-.24 4.92-.42 1.34-.17 2.23-.36 2.23-.36h.01a.5.5 0 0 0-.05-1s-.9-.1-2.24-.14a63.41 63.41 0 0 0-4.93.05h-.27l-.34-.02-.66-.02-1.3-.03c-.84 0-1.62 0-2.3.02-1.34.04-2.24.14-2.24.14a.5.5 0 0 0-.05 1M119.86 220.62c.08-.43.22-.86.36-1.4-.54-.04-.73.35-.83.73-.5 1.99-1.06 3.96-1.45 5.97-.43 2.22-.73 4.47-1.02 6.71v.1c.17.12.35.25.5.41h-.04c.27-.02.57-.02.63.07.37-2.72.72-5.45 1.1-8.18.22-1.47.49-2.94.75-4.4M117.13 233.17h.01zM123.16 229.88c.44-2.44.78-4.9 1.13-7.35.1-.69.09-1.4-.05-2.13-1.03 4.3-1.68 8.7-3.21 12.83a14.82 14.82 0 0 0 1.08-.17l.04-.01a.9.9 0 0 0 .16-.06c.3-1.03.66-2.05.85-3.1M128.47 221.4c0-.1-.07-.23-.29-.38-.06.2-.17.39-.18.59-.1 3.06-.73 5.98-1.95 8.76-.1.2-.1.46-.12.7a11.6 11.6 0 0 0 1.29-1.26c.35-1.25.77-2.49.96-3.77.23-1.52.21-3.09.29-4.63" fill="#B05B4F"/>
    <path d="M118.28 203.12c-.06-.43-1.42-7.74-1.8-10.5a23.56 23.56 0 0 0-1.3-5.49l-.62-1.6c-.4-.18-.83-.33-1.3-.44-3.51-.82-8.16.98-11.52 1.82-5.3 1.31-10.5 2.94-15.84 4.05-12.14 2.54-24.85.93-34.98-6.49-.4-.3-.94-.3-1.41-.14-.4.15-.75.41-.94.76l-3.37 14.53c-.08.42-.64 3.76-.74 4.5-.06 1.45-.51 11.45-.88 11.6.74 2.58 4.42 24.18 5.2 26.74l.13.45c.28.93.58 1.85.9 2.77 1.13 3.18 2.63 6.22 4.03 9.3.97 2.12 2.24 4.12 3.06 6.3 1.17 3.08.9 6.4.8 9.68v.64c.02 1.02.02 2.04.06 3.06.07 2.13.11 4.28.26 6.4.21 3.01.47 6.02.8 9.01a80 80 0 0 0 .92 6.08 240.23 240.23 0 0 0 5.88 23.74c1.25 4.25 2.85 8.38 4.32 12.56 1.5-.05 2.95 1.12 4.3 1.29 2.21.28 4.52.33 6.55-.73.4-.21 2.05-.07 2.2 0 2.02 1.06 4.33 1 6.55.73 1.35-.17 2.8-1.34 4.09-1.34 1.5-4.15 3.1-8.28 4.36-12.51 2.3-7.81 4.37-15.7 5.88-23.74.37-2.01.7-4.04.92-6.08.32-2.99.58-6 .8-9 .14-2.13.18-4.28.26-6.41.03-1.02.04-2.04.05-3.06v-.64c-.1-3.27-.36-6.6.8-9.67.82-2.19 2.09-4.19 3.06-6.32 1.4-3.07 2.9-6.1 4.03-9.3 1.43-4.03 3-8.15 3.18-12.47l.41-.06c-.11-.16-.29-.29-.47-.41-.3-.2-.6-.4-.85-.7a10.33 10.33 0 0 1-2.08-5.33c-.55-.16-.97-.61-.89-1.37.34-3.1.52-6.36 1.42-9.36.99-3.24 2.73-6.15 3.64-9.41.08-.3.23-.53.42-.7.02-.6-.08-1.26-.18-1.98l-.1-.76z" fill="#404040"/>
    <path d="M82.58 332.84c.36-9.79.65-20.22.54-30.07-.1-10.54-.4-21.08-.39-31.62.04-18.66-.2-37.3.38-55.94a.55.55 0 0 0-.04-.2c3.6-2.86 7.04-5.89 10.71-8.66.47-.34.05-1.12-.46-.8a58.55 58.55 0 0 0-5.18 3.85c-.86.7-5.28 5.28-6.29 4.64a80.77 80.77 0 0 1-12.87-10.27c-.24-.23-.58.12-.36.37 3.82 4.4 8.51 8.06 13.37 11.25-.56 18.25-.08 36.52-.17 54.77-.06 10.54.25 21.08.4 31.62.14 10.32-.23 20.6-.35 30.91.23 0 .46.06.7.15M117.93 200.86c-1.7.14-3.41.04-5.24-.44a15.76 15.76 0 0 1-7.57-4.76l-.2.29c3.3 3.72 8.28 6.28 13.18 5.95a73.7 73.7 0 0 0-.12-.72l-.05-.32M57.71 195.95l-.2-.29a15.76 15.76 0 0 1-7.57 4.76c-1.73.45-3.35.56-4.96.46l-.19 1.03c4.82.23 9.69-2.3 12.92-5.96" fill="#606060"/>
    <path d="M67.56 273.29a.44.44 0 0 0-.4.23.4.4 0 0 0 .04.42c1.33 1.97 3.16 3.1 5 3.1h.01c1.15 0 2.83-.45 4.27-2.57.1-.15.11-.33.03-.48a.53.53 0 0 0-.87-.07c-1.2 1.58-2.35 2.28-3.78 2.28h-.14c-1.31-.04-2.6-.96-3.81-2.73a.42.42 0 0 0-.35-.18M91.98 277.04c1.85 0 3.68-1.13 5.01-3.1a.4.4 0 0 0 .03-.42.44.44 0 0 0-.4-.23.42.42 0 0 0-.34.18c-1.22 1.77-2.5 2.69-3.81 2.73h-.15c-1.42 0-2.58-.7-3.77-2.27a.52.52 0 0 0-.87.06.47.47 0 0 0 .03.49c1.44 2.11 3.12 2.56 4.27 2.56" fill="#606060"/>
    <path d="M89.53 333.74c-2.21.28-4.52.33-6.55-.73l-.4-.17c-.25-.1-.48-.15-.7-.15-.35 0-.68.1-1.1.32-2.02 1.06-4.33 1-6.54.73-1.36-.17-2.8-1.34-4.1-1.34-.07 0-.13.03-.2.05-.84.25-1.26 1.94-1.58 2.58a40.46 40.46 0 0 1-4.53 7.04c.49-.6 1.3-1.63-.01.02-4.11 5.15 3.89 9.35 7.93 10.09 2.14.39 4.35.28 6.4-.45 1.12-.4 2.04-.94 2.97-1.66.6-.47.91-.48 1.53 0 .93.72 1.85 1.26 2.97 1.66 2.06.73 4.26.84 6.4.45 4.04-.74 12.05-4.94 7.93-10.09-1.32-1.65-.5-.62-.01-.02a40.46 40.46 0 0 1-4.53-7.04c-.34-.67-.78-2.55-1.74-2.61l-.04-.02c-1.3 0-2.74 1.17-4.1 1.34" fill="#E06426"/>
    <path d="M73.1 336.92l6.39.04c.42 0 .42-.66 0-.66l-6.39.04c-.37 0-.37.58 0 .58M78.7 338.5l-6.38.04c-.37 0-.37.58 0 .58l6.39.04c.42 0 .42-.66 0-.66M77.87 340.64l-6.39.04c-.37 0-.37.57 0 .58l6.39.04c.42 0 .42-.66 0-.66M92.56 340.64l-6.38.04c-.37 0-.37.57 0 .58l6.38.04c.43 0 .43-.66 0-.66M85.4 339.06l6.39.03c.42 0 .42-.65 0-.65l-6.39.04c-.37 0-.37.57 0 .58M90.95 336.3l-6.39.04c-.37 0-.37.58 0 .58l6.39.04c.42 0 .42-.66 0-.66" fill="#FF9008"/>
    <path d="M120.5 120.3a4.94 4.94 0 0 0-2.43-2.69l-6.2-2.93a1105.2 1105.2 0 0 1-8.33-3.97 1.14 1.14 0 0 0-1.51.5c-1.59 3.07-3.08 5.17-4.84 6.82-3.96 3.7-10.54 4.28-15.14 4.38l-1.24.02c-3.91 0-8-.45-11.35-3.68-2.41-2.32-4.03-5.7-5.47-8.7-.1-.17-.19-.28-.3-.37a1.14 1.14 0 0 0-.72-.27c-.18 0-.37.05-.53.14-1.33.7-2.72 1.38-4.02 2-2.2 1.05-4.4 2.1-6.6 3.13l-6.2 2.93a4.54 4.54 0 0 0-1.54 1.23c-.13.05-5.2 6.62-7.41 10.68a1.88 1.88 0 0 0 .43 2.44l.61.56 4.8 4.44 3.7 4 1.05 1.5c.24.31.48.62.7.93.23.32.46.64.66.96.21.33.57.53.96.53.6-.08.97-.4 1.1-.83l1.38-5.04c.98 2.94 1.36 6.05 1.72 9.06l.48 3.93.75 6.2.04.32c.29 2.5.6 5.1.8 7.64.02.18-.18.62-.3.9l-.12.26-1.5 3.44c-.81 1.82-1.65 3.7-2.42 5.59-1.2 2.9-2.34 5.84-3.44 8.69-.14.36-.09.76.14 1.08.04.05.4-1.03.4-1.03.2-.35.55-.61.94-.75a1.53 1.53 0 0 1 1.42.13 39.87 39.87 0 0 0 20.25 7.42s2.33.15 2.85.17h1.31c3.52 0 7.07-.37 10.57-1.1 5.34-1.11 10.54-2.74 15.84-4.05 3.35-.84 8-2.64 11.52-1.82.47.1.9.26 1.3.44l.35.92c.5-.81.42-2.13.02-3.06-.84-2.18-1.8-4.63-2.79-7.04-.78-1.88-1.61-3.77-2.42-5.6-.5-1.14-1.01-2.28-1.5-3.43l-.12-.25c-.13-.3-.32-.73-.3-.9.2-2.56.5-5.14.8-7.65l.04-.31.75-6.21.48-3.93c.36-3.01.73-6.12 1.72-9.06l2.22 8.07c.12.44.5.77.95.83.25 0 .35-.01.45-.04.27-.07.52-.25.67-.51 1.8-3.05 5.78-5.96 8.98-8.3l1.17-.86.3-.22c.4-.3.56-.81.4-1.28a219.79 219.79 0 0 0-6.28-16.4z" fill="#E34B4B"/>
    <path d="M59.6 151.87c14.68-4.82 30.2-3.43 45.14-.67.3.05.44-.4.13-.49a101.13 101.13 0 0 0-22.37-2.7c-7.75-.12-15.73.68-23 3.53-.2.08-.12.4.1.33" fill="#B53D3D"/>
    <path d="M14.33 164.47l-5.86 1.84 5.86-1.84zM14.31 170.97l-10.7 3.37.49 1.58 10.78-3.4c-.2-.51-.4-1.03-.57-1.55M77.12 150.42c-.02-.08-.03-.17-.06-.25a5.23 5.23 0 0 0-1.17-2 5.32 5.32 0 0 0-5.5-1.44l-2.24.76-13.86 4.38-22.21 7 37.73-11.9a5.36 5.36 0 0 0-2.64 7.32L26.94 167l.19.33.65 1.13 39.91-12.59 11.01 34.9 1.88 5.97 1.7-.54-12.77-40.47a4.13 4.13 0 0 0 6.8-1.71l12.64 40.08 1.79-.57-1.08-3.4-12.51-39.68-.03-.02z" fill="#408736"/>
    <path fill="#408736" d="M75.41 198.36l4.12-1.3 1.05-.33z"/>
    <path d="M15.31 173.5l-.43-.98-10.78 3.4.2.66 11.01-3.07zM60.97 160.77l.03-.01c1.89-.5 3.81.5 4.51 2.28l.04-.01 9.63 34.5 3.52-6.76-11-34.9-39.92 12.58.78 1.36 32.4-9.04zM13.8 169.12c-.07-.3-.17-.6-.27-.9a7.63 7.63 0 0 1 .8-3.75l-5.86 1.84a6.25 6.25 0 0 0-4.87 8.03l10.71-3.37c-.19-.6-.37-1.22-.51-1.85M67.17 154.3a5.36 5.36 0 0 1 2.64-7.33l-37.73 11.9c-1.04 1.48-2.09 2.96-3.11 4.46a25.81 25.81 0 0 0-2.1 3.55l.07.1 40.23-12.68z" fill="#67B54A"/>
    <path fill="#87E05E" d="M78.7 190.77l-3.52 6.76.23.83 5.17-1.63z"/>
    <path d="M76.3 154a4.12 4.12 0 0 1-6.79 1.72l12.76 40.47h.02l.06-.02a4.12 4.12 0 0 1 6.48-2.04l.07-.02.05-.02L76.3 154z" fill="#EDE1AD"/>
    <path d="M23.98 186.55c-1.65-2.18-3.33-4.34-5-6.5l-1.4-2.4v-.03L.81 182.29l-.31-1.11 11 39.39 4.67-1.31-9.03-27.1 16.83-5.6zM75.14 202.8l1.4-.39-1.4.4zM69.22 204.46l-10.69-38.27-27.65 7.71 1.19 2.1c1.21 2.2 2.35 4.45 3.5 6.69l16.7-5.57 4.55-1.51 9.85 29.56 2.38-.66.62-.18.94-.26-1.4.39z" fill="#6C4BD9"/>
    <path d="M17 176.58l-1-1.76c-.25-.43-.48-.87-.69-1.31l-11 3.07-1.78.5v.03a3.4 3.4 0 0 0-2.02 4.07l16.5-4.6zM58.26 165.06a3.8 3.8 0 0 1 2.7-4.3l-32.4 9.05 1.74 3.06 27.96-7.8zM75.18 197.53l-9.63-34.5h-.04c.05.13.11.25.15.38l.03.15 10.86 38.85-1.14-4.05-.23-.83z" fill="#6C4BD9"/>
    <path d="M17.57 177.62l-.11-.25-.45-.8-16.5 4.6.31 1.12 16.75-4.67zM65.7 163.55h-.02c0-.04 0-.1-.02-.14-.04-.13-.1-.25-.15-.37a3.79 3.79 0 0 0-4.5-2.28h-.04a3.8 3.8 0 0 0-2.7 4.3l-27.97 7.8.58 1.04 27.65-7.71 10.69 38.27 1.39-.39-10.88-38.98a2.35 2.35 0 1 1 4.53-1.26l10.88 38.98 1.4-.4-10.84-38.86z" fill="#5B3EB5"/>
    <path d="M64.27 163.83a2.35 2.35 0 0 0-4.54 1.27l10.88 38.97 4.53-1.26-10.87-38.98z" fill="#FCF9D6"/>
    <path d="M37.96 212.82l-15.18 5.06-8.54-25.64 11.2-3.74-.05-.07c-.46-.64-.94-1.25-1.41-1.88l-16.83 5.6 9.03 27.11 1.02 3.05 22.47-7.5c-.63-.6-1.2-1.27-1.7-1.99zM49.89 177.92l6.93-2.31-4.54 1.51-16.71 5.57.51 1c.35.67.65 1.36 1.05 1.99.98 1.56 2 3.1 3.02 4.61.1.15.21.28.32.4.46 1.1 1.67 2.3 2.36 3.18l.41.5c.17.05.35.12.52.24.49.34.98.62 1.47.9l-4.08-12.24 7.83-2.61 8.54 25.64-2.51.84c.03.3.03.62-.03.95-.05.22-.12.42-.23.6.16.32.32.63.45.95l4.73-1.57-10.04-30.15z" fill="#F85677"/>
    <path fill="#D94B68" d="M56.82 175.61l-6.93 2.31 10.04 30.15h.01l6.93-2.31-.2-.59z"/>
    <path fill="#EDE1AD" d="M56.03 177.1l-4.52 1.51 9.67 29.04 4.53-1.51z"/>
    <path fill="#D94B68" d="M12.58 192.79l-2.73.91 8.54 25.64 2.74-.91zM22.78 217.88l15.18-5.06a36.54 36.54 0 0 1-2.27-3.77c-1.45-2.66-2.31-5.57-3.13-8.48-.5-1.8-1.3-3.42-2.32-4.95-1.59-2.38-3.12-4.8-4.8-7.12l-11.2 3.74 8.54 25.64zM48.98 180.66l-7.83 2.6 4.08 12.24c1.42.8 2.8 1.44 3.97 2.84.35.42.68.87 1 1.31.21.09.4.22.53.41.95 1.43 1.9 2.87 2.91 4.25l.07.11a5.76 5.76 0 0 1 1.3 2.72l2.51-.84-8.54-25.64z"/>
    <path d="M54.48 215.32c-1.22-1.9-2.45-3.81-3.78-5.63-1.2-1.66-2.55-3.21-3.84-4.8-.26-.3-.6-.57-1.07-.3.36.43.67.75.92 1.12.86 1.21 1.73 2.42 2.55 3.67 1.52 2.31 3 4.65 4.5 6.98.16-.08.28-.1.4-.1.15-.1.3-.18.46-.27.05-.04.07-.1.12-.14a2.84 2.84 0 0 0-.26-.53M42.66 207.36c.18.73.47 1.38.85 1.95 1.37 2.08 2.72 4.15 4.15 6.18.63.89 1.4 1.66 2.11 2.48l.84-.16c.16-.04.3-.1.46-.15-3.18-3.1-5.64-6.82-8.41-10.3M39.76 210.06c-.09-.18-.27-.3-.41-.45-.14.22-.15.36-.1.46.73 1.37 1.38 2.8 2.23 4.08.77 1.15 1.76 2.14 2.65 3.2l1.5.49h.04l.04.01.03.01c-.16-.24-.28-.52-.49-.7-2.28-2-4.1-4.38-5.49-7.1" fill="#B05B4F"/>
    <path d="M54.75 208.7a2 2 0 0 0 .23-.61c.06-.33.06-.64.03-.95-.11-1-.68-1.9-1.3-2.72l-.07-.11c-1.01-1.39-1.96-2.82-2.91-4.25a1.1 1.1 0 0 0-.52-.4c-.33-.45-.66-.9-1.01-1.32-1.16-1.4-2.55-2.05-3.97-2.84-.5-.27-.98-.55-1.47-.9a1.54 1.54 0 0 0-.52-.22l-.4-.5c-.7-.9-1.91-2.09-2.37-3.18-.1-.13-.23-.26-.32-.4a169.47 169.47 0 0 1-3.02-4.62c-.4-.63-.7-1.32-1.05-1.99l-.51-1c-1.16-2.24-2.29-4.48-3.5-6.69l-1.19-2.1-.58-1.03-1.74-3.06-.78-1.36-.65-1.13-.2-.34-.06-.1a25.75 25.75 0 0 1 2.1-3.55c1.02-1.5 2.07-2.98 3.1-4.46l5.6-7.95 7.55-10.79.12-.16-2.78-3.01-5.42-5a1.83 1.83 0 0 1-.68-1.55 168.68 168.68 0 0 0-8.42 11.25c-3.15 4.62-6.08 9.37-9.04 14.11-1.2 1.93-2.2 3.97-3.28 5.97-.31.57-.6 1.16-.9 1.74l.68-.08-.87.6s-.13.16-.3.47c-.33.6-.82 1.82-.8 3.74.1.3.2.6.27.91a22.71 22.71 0 0 0 1.08 3.4l.43.99c.21.44.44.88.7 1.31l1 1.76.45.79.11.25.02.04 1.4 2.38c1.66 2.17 3.34 4.33 5 6.51l1.4 1.87.06.08c1.67 2.31 3.2 4.74 4.79 7.12a17.37 17.37 0 0 1 2.32 4.95c.82 2.91 1.68 5.81 3.13 8.48.71 1.3 1.43 2.6 2.27 3.77.52.72 1.08 1.39 1.71 2 .66.62 1.39 1.19 2.24 1.65a14.29 14.29 0 0 0 3.73 1.37l-1.51-.5c-.9-1.05-1.88-2.04-2.65-3.2-.85-1.27-1.5-2.7-2.23-4.07-.05-.1-.04-.24.1-.46.14.14.32.27.41.45 1.4 2.72 3.21 5.1 5.5 7.1.2.18.32.46.47.7 1.34.27 2.7.33 4.04.1-.71-.8-1.49-1.58-2.1-2.47-1.44-2.03-2.8-4.1-4.16-6.18a6.32 6.32 0 0 1-.85-1.95c2.77 3.48 5.23 7.2 8.4 10.3l-.45.15c1.22-.32 2.35-.89 3.45-1.5.18-.1.38-.2.56-.32-.15.1-.3.18-.47.26a.77.77 0 0 0-.39.11c-1.5-2.33-2.98-4.67-4.5-6.98-.82-1.25-1.69-2.46-2.55-3.67-.25-.37-.56-.69-.92-1.11.48-.28.81-.01 1.07.3 1.3 1.58 2.63 3.13 3.84 4.79 1.33 1.82 2.56 3.72 3.78 5.63.1.17.19.35.26.53-.05.05-.07.1-.12.14 1.79-1.74 1.54-4.1.58-6.35-.14-.32-.29-.64-.45-.95" fill="#D18C65"/>
  </g>
</svg>
