<svg width="110" height="334" viewBox="0 0 110 334" xmlns="http://www.w3.org/2000/svg">
  <g fill="none" fill-rule="evenodd">
    <path d="M91.78 147.2c.32 1.22.7 2.8.79 4.34.06 1.16-.04 2.36-.16 3.63l-.1 1.23-.31 3.86c-.17 2.04-.35 4.08-.47 6.13a157.5 157.5 0 0 0-.2 4.1c-.3-1.94-.7-3.5-1.26-4.97a6.12 6.12 0 0 0-.3-3.92c-.87-2.25-1.81-4.64-2.8-7.01-.78-1.9-1.61-3.8-2.43-5.63l-1.5-3.44-.24-.53c.2-2.4.5-4.86.77-7.23l.04-.32.75-6.2.56-4.58c.26.9.9 1.6 1.72 1.97l1.1 3.98 1.32 4.74a845.4 845.4 0 0 1 2.72 9.86m-4.02-20.3a1.13 1.13 0 0 1-.94-.83l-2.23-8.07c-.98 2.94-1.36 6.05-1.72 9.06L82.4 131l-.75 6.2-.04.32c-.29 2.5-.6 5.1-.8 7.64-.02.18.18.62.3.9l.12.26 1.5 3.44a243.96 243.96 0 0 1 5.2 12.55l.01.08c.4.93.49 2.25.02 3.15l-.03-.1.26.7c.7 1.77 1.06 3.6 1.3 5.48.4 2.87 1.02 5.7 1.5 8.56a68.2 68.2 0 0 1 .3 1.94l.11.76.25 1.74v.01c.05.03.11.04.17.06.16-.6.37-1.2.46-1.8.29-1.82.55-3.64.77-5.47.1-.73.08-1.49.1-2.24.12-2.89.19-5.78.37-8.67.2-3.32.53-6.64.78-9.96.13-1.7.35-3.41.26-5.12a23.65 23.65 0 0 0-.85-4.73c-1.31-4.88-2.7-9.75-4.05-14.62l-1.44-5.2a1.16 1.16 0 0 1-.45.03M18.24 169.66c-.04-1.09-.1-2.18-.16-3.27-.13-2.05-.3-4.1-.47-6.15-.11-1.28-.22-2.56-.31-3.84l-.1-1.23a25.45 25.45 0 0 1-.17-3.63c.09-1.53.47-3.12.8-4.33.87-3.27 1.78-6.53 2.7-9.8l1.34-4.8 1.93-7.02c.25-.1.49-.25.7-.42.1.71.18 1.43.26 2.14l.52 4.23.71 5.9.04.31c.28 2.38.56 4.83.77 7.24a48 48 0 0 1-.24.54l-1.45 3.32-.05.12c-.81 1.83-1.65 3.72-2.43 5.62a407.97 407.97 0 0 0-3.46 8.73 3.1 3.1 0 0 0 .01 2.29l-.94 4.05zm2.92-4.54a1.13 1.13 0 0 1-.14-1.08 245.8 245.8 0 0 1 5.86-14.28l1.5-3.44.12-.25c.13-.3.32-.73.3-.91-.2-2.55-.5-5.13-.8-7.64l-.04-.31-.75-6.21-.48-3.93c-.36-3.01-.73-6.12-1.72-9.06l-1.39 5.04a1.13 1.13 0 0 1-1.39.79l-2.27 8.24c-1.35 4.87-2.75 9.73-4.05 14.62a23.57 23.57 0 0 0-.86 4.73c-.1 1.7.14 3.42.27 5.12.25 3.32.57 6.64.78 9.96.18 2.89.24 5.78.35 8.67.04.75.02 1.5.1 2.24.24 1.83.5 3.65.78 5.46.03.17.08.34.12.5l.01-.26c.1-.74.21-1.48.33-2.21l.19-1.03.22-1.26 3.37-14.53-.28 1.18-.13-.15z" fill="#FFF"/>
    <path d="M107.55 158.61l-.24 2.92v.32l-.24 2.76c-.75 3.43-1.58 6.85-2.24 10.3-.54 2.84-.9 5.72-1.32 8.58a17.4 17.4 0 0 0 0 5.47c.35 2.08.71 4.17.82 6.26.1 1.9-.16 3.81-.22 5.72-.1 3.04-1.58 6.1-3.9 8.06l.03-.21-.02.02c-.2.23-.4.45-.62.65l-.05.05c-.2.2-.4.38-.62.55-1.07.87-2.26 1.51-3.61 2.1a.37.37 0 0 1 0-.17.9.9 0 0 1-.17.06h-.04l-.23.06h-.04c-1.16.2-3.84.42-3.8.15 0-.02-.02-.03-.03-.05-.06-.1-.36-.09-.63-.07l-.24.03-.17.03c-.18 4.32-1.75 8.44-3.18 12.48-1.12 3.18-2.62 6.22-4.03 9.3-.97 2.12-2.24 4.12-3.06 6.3-1.16 3.08-.9 6.4-.8 9.67v.65c-.01 1.02-.02 2.04-.05 3.06-.08 2.13-.12 4.28-.27 6.4-.21 3.01-.47 6.02-.8 9.01a80.51 80.51 0 0 1-.91 6.08 240.57 240.57 0 0 1-5.88 23.74c-1.26 4.23-2.85 8.36-4.32 12.52.96.07 1.4 1.95 1.74 2.62a40.56 40.56 0 0 0 4.53 7.04c-.48-.6-1.3-1.63.01.02 4.12 5.15-3.89 9.35-7.93 10.09-2.14.39-4.34.28-6.4-.45-1.12-.4-2.04-.94-2.97-1.66-.62-.48-.92-.47-1.53 0-.93.72-1.85 1.26-2.97 1.66-2.05.73-4.26.84-6.4.45-4.04-.74-12.04-4.94-7.93-10.09 1.32-1.65.5-.62.01-.02a40.45 40.45 0 0 0 4.53-7.04c.32-.64.74-2.33 1.58-2.58-1.47-4.18-3.07-8.31-4.32-12.56a240.3 240.3 0 0 1-5.88-23.74 80 80 0 0 1-.92-6.08c-.33-3-.59-6-.8-9-.15-2.13-.19-4.28-.26-6.41-.04-1.02-.04-2.04-.06-3.06v-.65c.1-3.26.37-6.59-.8-9.66-.82-2.19-2.09-4.19-3.06-6.32-1.4-3.07-2.9-6.1-4.03-9.3-.32-.9-.62-1.83-.9-2.76l-.14-.45c-.77-2.56-1.45-5.16-2.2-7.74l-.07-.28.08-.6c.03-.19.04-.37.03-.55l-.64.05c-1.3.09-2.6.14-3.87-.1a10.87 10.87 0 0 1-4.44-2.03l-.05-.05a14 14 0 0 1-2.82-2.84c-2.05-2.78-2.27-6.03-2.47-9.36-.18-3.03.27-6.02.77-9 .3-1.84.27-3.66 0-5.47-.42-2.86-.78-5.74-1.32-8.57-.66-3.46-1.48-6.88-2.24-10.31l-.24-2.76v-.32l-.24-2.92c-.17-2.04 0-4.07.43-6.1.21-.94.27-1.92.42-2.87.34-2.25.6-4.5 1.09-6.72 1.2-5.46 2.37-10.93 3.79-16.33a168.2 168.2 0 0 1 4.15-13.4l-.37-.35a1.13 1.13 0 0 1-.28-1.2 234 234 0 0 1 4.87-12.34 4.94 4.94 0 0 1 2.43-2.69c2.06-.98 4.12-1.96 6.2-2.93l6.6-3.13c1.3-.62 2.68-1.3 4.01-2a1.13 1.13 0 0 1 .89-.08c.27.1.49.29.63.54.8-.45 1.59-.91 2.35-1.41a15.89 15.89 0 0 0 4.16-4.17c1.14-1.6 2.4-3.41 2.73-5.38a13.94 13.94 0 0 0 .11-1.1 65.36 65.36 0 0 1-22.8-5.4c-3.45-1.54-7.1-3.3-9.88-5.9-.2-3.82.51-7.64 2-11.16 1.81-4.3 4.39-8.23 6.27-12.5 1.84-4.17 2.56-8.72 3.96-13.04 1.2-3.68 2.5-7.17 4.74-10.34 4.4-6.25 11.56-9.6 18.96-10.74l-.03-.01a13.4 13.4 0 0 0-8.8 1.24c-.16.08-.35-.13-.2-.26 2.82-2.4 8.24-2.98 12.04-1.3.53-.05 1.06-.07 1.6-.1.9-2.57 2.84-4.82 5.27-5.45.3-.08.52.39.22.52a6.96 6.96 0 0 0-4 4.59 9.97 9.97 0 0 1 4.28-2.9c2.61-.83 8.06-1.73 9.41 1.5.11.25-.3.48-.47.27-1.75-2.11-6.76-1.03-8.88.15-.75.41-1.4.89-1.97 1.4 8.25.63 16.52 4.2 21.37 11.09 2.24 3.17 3.55 6.66 4.74 10.34 1.78 5.47 2.7 11.08 5.36 16.24 1.6 3.12 3.54 6.05 4.91 9.3l.02.03c1.17 2.8 3.7 9.8.96 12-2.99 2.4-6.66 4.13-10.18 5.6a65.73 65.73 0 0 1-21.82 4.78c.02.39.05.77.12 1.15.31 1.97 1.58 3.78 2.72 5.38a15.88 15.88 0 0 0 4.17 4.17 46 46 0 0 0 4.63 2.62v-.01a1.13 1.13 0 0 1 1.51-.5l1.73.84c2.2 1.05 4.4 2.1 6.61 3.13l6.2 2.93a4.95 4.95 0 0 1 2.42 2.7c2.47 5.8 4.53 11.16 6.29 16.4.16.46 0 .97-.4 1.26l-.3.23c1.02 3.1 1.95 6.23 2.78 9.39 1.42 5.4 2.6 10.87 3.8 16.33.48 2.21.74 4.47 1.09 6.72.14.95.2 1.93.4 2.88.45 2.02.61 4.05.44 6.1m1.5-6.53c-.1-.49-.16-1.02-.23-1.59l-.15-1.17c-.1-.64-.2-1.28-.28-1.92-.24-1.6-.47-3.27-.84-4.92l-.3-1.38c-1.08-4.94-2.2-10.04-3.5-15.03a161.8 161.8 0 0 0-2.45-8.34c.5-.78.63-1.75.32-2.67a222.16 222.16 0 0 0-6.34-16.55 6.93 6.93 0 0 0-3.4-3.7l-6.2-2.93a1137.8 1137.8 0 0 1-8.32-3.96 3.13 3.13 0 0 0-2.62-.06c-1.3-.7-2.35-1.3-3.3-1.93a13.84 13.84 0 0 1-3.64-3.65 16.79 16.79 0 0 1-2.11-3.56 66.6 66.6 0 0 0 20.24-4.78c3.43-1.43 7.38-3.25 10.65-5.88 3.5-2.8 1.72-9.33-.39-14.36-.9-2.15-2.05-4.16-3.15-6.1-.62-1.1-1.25-2.22-1.83-3.33-1.7-3.3-2.65-6.8-3.66-10.5-.48-1.78-.98-3.62-1.57-5.44-1.36-4.2-2.73-7.65-5-10.88a27.42 27.42 0 0 0-12.16-9.44l.2.01c.76 0 1.5-.39 1.91-1.02.42-.62.49-1.4.2-2.09-.54-1.3-2.12-3.48-6.48-3.48-1.06 0-2.1.12-2.98.29A2.3 2.3 0 0 0 58.89.07c-2.53.66-4.78 2.69-6.1 5.43-1.55-.6-3.31-.9-5.14-.9-3.33 0-6.41 1-8.46 2.73a2.1 2.1 0 0 0-.72 1.98 26.29 26.29 0 0 0-9.54 8.15c-2.27 3.23-3.64 6.68-5 10.88-.55 1.7-1 3.41-1.43 5.08-.71 2.73-1.38 5.32-2.47 7.77-.86 1.95-1.86 3.82-2.93 5.8-1.16 2.15-2.36 4.38-3.35 6.73a27.5 27.5 0 0 0-2.15 12.03c.03.51.25 1 .63 1.35 3.07 2.86 6.99 4.73 10.42 6.26a66.44 66.44 0 0 0 21.25 5.4c-.46 1.21-1.32 2.43-2.1 3.52a13.86 13.86 0 0 1-4.75 4.36l-.15-.05a3.11 3.11 0 0 0-2.44.2c-1.3.7-2.66 1.36-3.94 1.97l-6.6 3.13-6.2 2.93a6.93 6.93 0 0 0-3.4 3.7 236.2 236.2 0 0 0-4.9 12.45c-.33.9-.22 1.87.25 2.66-1.5 4.3-2.74 8.39-3.8 12.45a373.4 373.4 0 0 0-3.51 15l-.31 1.41c-.36 1.65-.6 3.32-.83 4.93l-.28 1.91c-.07.4-.11.79-.16 1.18-.07.56-.13 1.1-.23 1.59a22.2 22.2 0 0 0-.47 6.67l.22 2.83v.22l.01.21.25 2.75c0 .09.02.17.03.25l.7 3.12c.53 2.34 1.07 4.76 1.53 7.14.38 2 .68 4.1.97 6.12l.34 2.37c.26 1.73.26 3.32 0 4.85-.53 3.17-.98 6.28-.8 9.45.2 3.34.43 7.12 2.87 10.42a16 16 0 0 0 3.21 3.25l.06.05a13.18 13.18 0 0 0 5.25 2.38 13.05 13.05 0 0 0 2.98.2l.83 2.94c.43 1.57.87 3.15 1.34 4.71l.14.47c.3.95.6 1.9.93 2.84a87 87 0 0 0 3.25 7.63l.84 1.83c.42.9.87 1.77 1.32 2.61.64 1.23 1.25 2.38 1.7 3.58.9 2.4.8 5.09.7 7.94l-.04 1.04.02 1.6c0 .71.02 1.44.04 2.16l.05 1.56c.05 1.6.1 3.27.22 4.92.24 3.33.5 6.3.8 9.08.22 1.96.53 4 .95 6.23 1.37 7.3 3.25 14.9 5.92 23.93.92 3.1 2.03 6.18 3.1 9.15l.83 2.3c-.41.6-.67 1.27-.88 1.81l-.17.43a38.47 38.47 0 0 1-4.3 6.7l-.06.06c-1.93 2.45-1.7 4.69-1.16 6.13 1.44 3.86 6.9 6.47 10.33 7.1.93.17 1.86.25 2.78.25 1.62 0 3.18-.26 4.64-.78 1.08-.39 2.07-.9 3.07-1.62 1 .71 1.98 1.23 3.06 1.62 1.47.52 3.03.78 4.64.78.92 0 1.86-.08 2.79-.25 3.42-.63 8.88-3.24 10.32-7.1.54-1.45.78-3.7-1.19-6.17a38.63 38.63 0 0 1-4.32-6.72c-.06-.1-.11-.26-.18-.43-.2-.54-.5-1.32-.99-1.98l.76-2.11c1.08-2.98 2.19-6.06 3.11-9.17a239.56 239.56 0 0 0 5.93-23.93c.41-2.23.72-4.27.94-6.23.3-2.8.57-5.77.8-9.08.12-1.66.17-3.33.22-4.94l.05-1.54c.03-.74.04-1.47.05-2.2v-.9l.01-.74-.03-.97c-.1-2.85-.21-5.53.7-7.93a32.6 32.6 0 0 1 1.7-3.58c.44-.84.9-1.7 1.3-2.61l.84-1.81c1.15-2.46 2.33-5 3.26-7.65l.33-.93c1.15-3.22 2.32-6.53 2.78-10.04a23.77 23.77 0 0 0 3.19-.27 1.98 1.98 0 0 0 1.14-.12 16.57 16.57 0 0 0 4.08-2.38h.01a12.74 12.74 0 0 0 .9-.82c.14-.07.28-.16.4-.26 2.77-2.34 4.5-5.9 4.6-9.52.02-.66.07-1.33.12-1.99.08-1.25.17-2.55.1-3.89-.1-2.06-.44-4.09-.77-6.05l-.07-.44a15.42 15.42 0 0 1 0-4.85l.34-2.35c.29-2.03.59-4.13.97-6.14.46-2.38 1-4.8 1.53-7.14a482.74 482.74 0 0 0 .74-3.37l.24-2.75.01-.21v-.22l.23-2.82c.18-2.18.03-4.37-.47-6.69" fill="#FFF"/>
    <path d="M106.7 149.64c-.34-2.25-.6-4.5-1.08-6.72-1.2-5.46-2.38-10.92-3.8-16.33-.83-3.16-1.76-6.29-2.78-9.4-.39.3-.77.58-1.18.87-3.2 2.34-7.18 5.25-8.97 8.3-.16.25-.4.44-.68.51l1.44 5.21c1.35 4.87 2.74 9.73 4.04 14.62.42 1.55.77 3.15.86 4.73.1 1.7-.13 3.42-.26 5.12-.25 3.32-.58 6.64-.78 9.96-.18 2.89-.25 5.78-.36 8.67-.03.75-.01 1.5-.1 2.24-.23 1.83-.5 3.65-.78 5.46-.1.62-.3 1.21-.46 1.81l-.18-.05-.06.22c-.19.17-.34.4-.42.7-.9 3.26-2.65 6.17-3.64 9.41-.9 3-1.08 6.27-1.42 9.36-.08.76.34 1.2.89 1.37.25 2.04.91 3.92 2.08 5.33.24.3.56.5.85.7.3-2.34 1.47-2.24 1.1.48 0 .3 2.14.15 3.42-.03l-.4.05c1.53-4.14 1.58-1.27 1.28-.24a10.65 10.65 0 0 0 3.62-1.92c.02-.24.03-.5.12-.7 1.22-2.78 1.51-1.8 1.17-.56a10.55 10.55 0 0 0 3.89-7.87c.06-1.9.32-3.81.22-5.72-.1-2.09-.47-4.18-.82-6.26a17.4 17.4 0 0 1 0-5.47c.42-2.86.78-5.74 1.32-8.57.66-3.46 1.49-6.88 2.24-10.31l.25-2.76v-.32l.23-2.92c.17-2.04 0-4.07-.43-6.1-.2-.94-.27-1.92-.41-2.87z" fill="#D18C65"/>
    <path d="M89.45 45.2c-2.67-5.17-3.58-10.78-5.36-16.24-1.2-3.69-2.5-7.18-4.74-10.35C74.5 11.7 66.23 8.15 57.98 7.53c.57-.52 1.22-1 1.97-1.41 2.12-1.18 7.13-2.26 8.88-.15.18.2.58-.02.47-.28-1.35-3.22-6.8-2.32-9.4-1.48A9.97 9.97 0 0 0 55.6 7.1a6.96 6.96 0 0 1 4-4.59c.3-.13.09-.6-.22-.52-2.43.63-4.37 2.88-5.27 5.46-.54.02-1.07.04-1.6.08-3.8-1.67-9.22-1.09-12.04 1.3-.15.14.04.35.2.27a13.4 13.4 0 0 1 8.8-1.24C42.11 9 34.95 12.36 30.55 18.6c-2.23 3.17-3.54 6.66-4.74 10.35-1.4 4.31-2.12 8.86-3.96 13.03-1.88 4.27-4.46 8.2-6.27 12.5a25.37 25.37 0 0 0-2 11.16c2.79 2.6 6.43 4.36 9.88 5.9a65.34 65.34 0 0 0 22.8 5.4c.02-.36 17.06-.4 17.08-.05 7.47-.4 14.91-1.9 21.82-4.78 3.52-1.47 7.2-3.2 10.18-5.6 2.75-2.2.22-9.2-.96-12-1.39-3.28-3.32-6.21-4.93-9.33z" fill="#000"/>
    <path d="M78.84 36.2c-2.55 0-4.1 4.12-4.46 5.19v.02l-.08.23h-.02c-.1.19-.25.4-.46.42-.37.04-.57-.51-.57-.51-.2-.34-.31-1.54-.4-2.52-.24-2.45-1.94-4.85-3.7-6.47-2.04-1.87-4.7-1.68-7.17-2.47a9.12 9.12 0 0 1-5.12-3.8c-1.46-2.36-1.46-5.93-1.9-8.61-.24 1.38-.43 2.78-.69 4.16-.49 2.58-1.28 5.07-3.47 6.7a11.13 11.13 0 0 1-3.46 1.69c-2.57.75-4.99.73-7 2.76a11.38 11.38 0 0 0-3.17 6.27c-.03.17-.1 1.05-.28 1.62h.03s0 .25-.06.5l-.02.06a.7.7 0 0 1-.13.29c-.1.16-.23.3-.41.33-.38.04-.58-.51-.58-.51h.03c-.23-.72-1.8-5.34-4.51-5.34-2.88 0-4.88 1.25-4.63 9.16.08 2.58.73 8.52 6 7.65l1.06 3.24-.04.12c.36.59.56 1.35.78 1.92.81 2.14 1.6 4.23 2.78 6.2a32.76 32.76 0 0 0 4.2 5.79c.44.46.88.89 1.35 1.27l.15.11c.17.13.34.26.52.37l.25.16c.24.14.5.27.76.38 1.28.53 1.83.61 1.86 2.2l.01 1.06v.04c0 .72-.03 1.45-.14 2.17-.32 1.97-1.59 3.78-2.73 5.38a15.92 15.92 0 0 1-4.16 4.17c-.76.5-1.55.96-2.35 1.4 0 .03.03.04.04.06 1.43 2.98 3.05 6.37 5.46 8.7 3.36 3.22 7.44 3.67 11.35 3.67.41 0 .82 0 1.24-.02 4.6-.1 11.18-.68 15.14-4.38 1.76-1.65 3.25-3.75 4.84-6.81a46.41 46.41 0 0 1-4.63-2.62 15.89 15.89 0 0 1-4.17-4.17c-1.14-1.6-2.4-3.41-2.72-5.38a18.87 18.87 0 0 1-.15-2.21v-1.07c.04-1.58.6-1.66 1.87-2.19 1.78-.72 3.15-2.38 4.38-3.78l.72-.88a31.22 31.22 0 0 0 2.92-4.32l.12-.21.07-.13c.45-.81.86-1.64 1.24-2.48l.03-.07c.38-.83.73-1.68 1.06-2.53v-.02l.05-.1.64-1.8 1.06-3.24c5.27.87 5.92-5.07 6-7.65.25-7.91-1.75-9.16-4.63-9.16M22.75 196.22a1.1 1.1 0 0 0-.3-.59c-.1-.54-.22-1.08-.35-1.62-.61-2.36-2.18-3.67-3.34-5.69a1.5 1.5 0 0 0-.37-.43l-.15-.63c-.25-1.1-.84-2.69-.8-3.87-.03-.17-.08-.34-.1-.5a171.9 171.9 0 0 1-.78-5.47c-.1-.73-.07-1.49-.1-2.24-.12-2.89-.18-5.78-.36-8.67-.21-3.32-.53-6.64-.78-9.96-.13-1.7-.36-3.41-.27-5.12.1-1.58.44-3.18.86-4.73 1.3-4.89 2.7-9.75 4.05-14.62l2.27-8.24c-.27-.08-.5-.24-.66-.49a27.32 27.32 0 0 0-4.04-4.83c-1.03-1.01-2.09-2-3.14-3a270.9 270.9 0 0 1-2.46-2.33 168.2 168.2 0 0 0-4.15 13.4c-1.42 5.4-2.6 10.87-3.8 16.33-.48 2.21-.74 4.47-1.08 6.72-.15.95-.2 1.93-.42 2.88-.43 2.02-.6 4.05-.43 6.1l.24 2.91v.32l.24 2.76c.76 3.43 1.58 6.85 2.24 10.3.54 2.84.9 5.72 1.32 8.58.27 1.81.3 3.63 0 5.47-.5 2.98-.95 5.97-.77 9 .2 3.33.42 6.58 2.47 9.36a14.07 14.07 0 0 0 2.8 2.83l-1.16-1.1c-.36-1.33 1.2.88 1.23 1.16a11.2 11.2 0 0 0 3.6 1.8c-.3-1.03-.24-3.87 1.31.28l-.47-.06c1.28.25 2.58.2 3.87.1a.75.75 0 0 0-.4-.07c-.37-2.74.8-2.87 1.09-.63.05.4-.01.8-.08 1.2l-.08.61.08.28c.37-.15.5-.57.43-.94.2-.2.3-.5.23-.79 2.08-1.16 2.58-3.7 2.48-6.24a2 2 0 0 0 .46-.46c.83-1.13.7-2.53.41-3.85-.34-1.82-.59-3.52-.84-5.22z" fill="#D18C65"/>
    <path d="M54.27 54.2c1.05.12 1.84-.42 2.46-1.19.26-.32.63-.67.25-1.1-.55-.28-.64-.07-1 .1-1.68.77-2.05.58-2.24-1.26-.02-.24 0-.48.02-.73.21-3.12.44-6.24.63-9.37.03-.42-.11-.85-.18-1.27l-.42-.05c-.17.36-.42.72-.5 1.1-.14.71-.17 1.44-.26 2.16-.37 3-.95 6-.63 9 .18 1.65.68 2.47 1.87 2.6" fill="#B05B4F"/>
    <path d="M45.35 40.4c-.04-.18-.1-.37-.18-.55-.44-1-1.61-1.25-2.23-.27-.57.9-.3 2.3-.22 3.32.07.94.02 2.45 1.34 2.47 1.81.03 1.57-2.31 1.44-3.48-.06-.49-.05-1-.15-1.48M64.44 45.37c1.32-.02 1.27-1.53 1.35-2.47.08-1.01.34-2.41-.23-3.32-.62-.98-1.78-.72-2.23.27-.08.18-.14.37-.17.56-.1.48-.1 1-.15 1.48-.14 1.17-.38 3.51 1.43 3.48" fill="#000"/>
    <path d="M39.9 53.85c-.93-.02-1.81.33-2.38 1.19-1.21 1.84-.53 4.5.36 6.34.7 1.43 2.56 2.83 4.22 2.49 1.5-.31 2-1.87 2.13-3.2a9.02 9.02 0 0 0-.95-4.76 4 4 0 0 0-3.39-2.06M65.07 60.67c.13 1.33.64 2.89 2.13 3.2 1.67.34 3.53-1.06 4.22-2.49.9-1.83 1.58-4.5.36-6.34a2.65 2.65 0 0 0-2.37-1.2 4 4 0 0 0-3.38 2.07 9.02 9.02 0 0 0-.96 4.76" fill="#D17C65"/>
    <path d="M47.87 61.26h.02s.89.2 2.23.37c.67.09 1.45.17 2.29.25l1.29.1.66.04.34.02.16.01H55.1c1.8-.09 3.58-.24 4.92-.42 1.34-.17 2.23-.36 2.23-.36h.01a.5.5 0 0 0-.05-1s-.9-.1-2.24-.14a63.41 63.41 0 0 0-4.93.05h-.27l-.34-.02-.66-.02-1.3-.03c-.84 0-1.62 0-2.3.02-1.34.04-2.24.14-2.24.14a.5.5 0 0 0-.05 1M19.66 211.63c-.3-2.24-.6-4.49-1.03-6.7-.39-2.02-.94-4-1.44-5.98-.1-.38-.3-.77-.84-.72.14.53.29.96.36 1.4.27 1.46.54 2.93.75 4.4.39 2.74.74 5.49 1.1 8.24.18-.02.3.02.4.07l.65-.05c.02.18 0 .36-.03.54.07-.4.13-.8.08-1.2M12.34 199.4a6.41 6.41 0 0 0-.06 2.13c.35 2.46.7 4.91 1.13 7.35.2 1.07.56 2.1.86 3.14.28.08.55.16.83.21l.47.06c-1.55-4.15-2.2-8.57-3.23-12.89M8.57 200.6c0-.2-.12-.38-.18-.58-.22.15-.29.27-.28.39.07 1.54.06 3.11.28 4.63.2 1.37.68 2.68 1.04 4.01l1.16 1.1.02.02.05.04c-.04-.28-.03-.59-.13-.84a23.65 23.65 0 0 1-1.96-8.76M92.86 199.62c.08-.43.22-.86.36-1.4-.54-.04-.73.35-.83.73-.5 1.99-1.06 3.96-1.45 5.97-.43 2.22-.73 4.47-1.02 6.71v.1c.17.12.35.25.5.41h-.04c.27-.02.57-.02.63.07.37-2.72.72-5.45 1.1-8.18.22-1.47.49-2.94.75-4.4M90.13 212.17h.01zM96.16 208.88c.44-2.44.78-4.9 1.13-7.35.1-.69.09-1.4-.05-2.13-1.03 4.3-1.68 8.7-3.21 12.83a14.82 14.82 0 0 0 1.08-.17l.04-.01a.9.9 0 0 0 .16-.06c.3-1.03.66-2.05.85-3.1M101.47 200.4c0-.1-.07-.23-.29-.38-.06.2-.17.39-.18.59-.1 3.06-.73 5.98-1.95 8.76-.1.2-.1.46-.12.7a11.6 11.6 0 0 0 1.29-1.25c.35-1.26.77-2.5.96-3.78.23-1.52.21-3.09.29-4.63" fill="#B05B4F"/>
    <path d="M99.74 115.7a219.79 219.79 0 0 0-6.29-16.4 4.94 4.94 0 0 0-2.42-2.69l-6.2-2.93a1105.2 1105.2 0 0 1-8.34-3.97 1.14 1.14 0 0 0-1.5.5l-.01.01c-1.59 3.06-3.08 5.16-4.84 6.8-3.96 3.71-10.54 4.29-15.14 4.4h-1.24c-3.91 0-8-.44-11.35-3.67-2.4-2.32-4.03-5.7-5.46-8.7l-.04-.04a1.12 1.12 0 0 0-.99-.6c-.18 0-.36.05-.53.14-1.33.7-2.71 1.38-4.01 2-2.2 1.05-4.4 2.1-6.6 3.13l-6.2 2.93a4.94 4.94 0 0 0-2.43 2.7c-1.8 4.2-3.43 8.36-4.87 12.34-.15.42-.04.88.28 1.2l.37.34c.81.79 1.63 1.56 2.46 2.34 1.05.99 2.1 1.98 3.14 3a27.28 27.28 0 0 1 4.04 4.82 1.14 1.14 0 0 0 2.05-.3l1.4-5.04c.98 2.94 1.35 6.05 1.71 9.06l.48 3.93.75 6.2.04.32c.3 2.5.6 5.1.8 7.64.02.18-.17.62-.3.9l-.11.26-1.51 3.44c-.81 1.82-1.64 3.7-2.42 5.59-1.2 2.9-2.34 5.84-3.44 8.69-.14.36-.09.76.14 1.08.04.05.1.1.13.15l.28-1.18c.19-.35.54-.61.94-.75a1.53 1.53 0 0 1 1.4.13c10.14 7.42 22.85 9.03 34.99 6.5 5.35-1.12 10.55-2.75 15.84-4.06 3.36-.84 8-2.64 11.52-1.82.47.1.9.26 1.3.44l.36.92.03.1c.47-.91.39-2.23-.02-3.16l-.01-.08c-.82-2.1-1.78-4.55-2.78-6.96-.77-1.88-1.6-3.77-2.41-5.6-.51-1.14-1.02-2.28-1.51-3.43l-.11-.25c-.13-.3-.33-.73-.31-.9.2-2.56.51-5.14.8-7.65l.04-.31.75-6.21.48-3.93c.36-3.01.74-6.12 1.72-9.06l2.23 8.07a1.13 1.13 0 0 0 2.07.28c1.79-3.05 5.77-5.96 8.97-8.3l1.18-.86.3-.22c.4-.3.56-.81.4-1.28" fill="#E34B4B"/>
    <path d="M32.6 130.87c14.68-4.82 30.2-3.43 45.14-.67.3.05.44-.4.13-.49a101.13 101.13 0 0 0-22.37-2.7c-7.75-.12-15.73.68-23 3.53-.2.08-.12.4.1.33" fill="#B53D3D"/>
    <path d="M91.28 182.12c-.06-.43-1.42-7.74-1.8-10.5a23.56 23.56 0 0 0-1.3-5.49l-.62-1.6c-.4-.18-.83-.33-1.3-.44-3.51-.82-8.16.98-11.52 1.82-5.3 1.31-10.5 2.94-15.84 4.05-12.14 2.54-24.85.93-34.98-6.49-.4-.3-.94-.3-1.41-.14-.4.15-.75.41-.94.76l-3.37 14.53c-.08.42-.64 3.76-.74 4.5-.06 1.45.53 3.05.78 4.14l.16.63c.13.11.26.25.36.43 1.16 2.02 2.73 3.33 3.34 5.7.13.53.25 1.07.35 1.61.15.17.26.36.3.6.25 1.7.5 3.4.83 5.08.3 1.45.43 2.85-.4 3.98-.13.18-.29.33-.46.46.1 2.54-.4 5.08-2.48 6.24a.87.87 0 0 1-.23.8c.08.36-.06.78-.43.93.74 2.58 1.42 5.18 2.2 7.74l.13.45c.28.93.58 1.85.9 2.77 1.13 3.18 2.63 6.22 4.03 9.3.97 2.12 2.24 4.12 3.06 6.3 1.17 3.08.9 6.4.8 9.68v.64c.02 1.02.02 2.04.06 3.06.07 2.13.11 4.28.26 6.4.21 3.01.47 6.02.8 9.01a80 80 0 0 0 .92 6.08 240.23 240.23 0 0 0 5.88 23.74c1.25 4.25 2.86 8.38 4.32 12.56 1.5-.05 2.95 1.12 4.3 1.29 2.21.28 4.52.33 6.55-.73.4-.21 2.05-.07 2.2 0 2.02 1.06 4.33 1 6.54.73 1.36-.17 2.8-1.34 4.1-1.34 1.5-4.15 3.1-8.28 4.36-12.51 2.3-7.81 4.37-15.7 5.88-23.74.37-2.01.7-4.04.92-6.08.32-2.99.58-6 .8-9 .14-2.13.18-4.28.26-6.41.03-1.02.04-2.04.05-3.06v-.64c-.1-3.27-.36-6.6.8-9.67.82-2.19 2.09-4.19 3.06-6.32 1.4-3.07 2.9-6.1 4.03-9.3 1.43-4.03 3-8.15 3.18-12.47l.41-.06c-.11-.16-.29-.29-.47-.41-.3-.2-.6-.4-.85-.7a10.33 10.33 0 0 1-2.08-5.33c-.55-.16-.97-.61-.89-1.37.34-3.1.52-6.36 1.42-9.36.99-3.24 2.73-6.15 3.64-9.41.08-.3.23-.53.42-.7.02-.6-.08-1.26-.18-1.98l-.1-.76z" fill="#404040"/>
    <path d="M55.58 311.84c.36-9.79.65-20.22.54-30.07-.1-10.54-.4-21.08-.39-31.62.04-18.66-.2-37.3.38-55.94a.55.55 0 0 0-.04-.2c3.6-2.86 7.04-5.89 10.71-8.66.47-.34.05-1.12-.46-.8a58.55 58.55 0 0 0-5.18 3.85c-.86.7-5.28 5.28-6.29 4.64a80.77 80.77 0 0 1-12.87-10.27c-.24-.23-.58.12-.36.37 3.82 4.4 8.51 8.06 13.37 11.25-.56 18.25-.08 36.52-.17 54.77-.06 10.54.25 21.08.4 31.62.14 10.32-.23 20.6-.35 30.91.23 0 .46.06.7.15M90.93 179.86c-1.7.14-3.41.04-5.24-.44a15.76 15.76 0 0 1-7.57-4.76l-.2.29c3.3 3.72 8.28 6.28 13.18 5.95a73.7 73.7 0 0 0-.12-.72l-.05-.32M30.71 174.95l-.2-.29a15.76 15.76 0 0 1-7.57 4.76c-1.73.45-3.35.56-4.96.46l-.19 1.03c4.82.23 9.69-2.3 12.92-5.96" fill="#606060"/>
    <path d="M40.56 252.29a.44.44 0 0 0-.4.23.4.4 0 0 0 .04.42c1.33 1.97 3.16 3.1 5 3.1h.01c1.15 0 2.83-.45 4.27-2.57.1-.15.11-.33.03-.48a.53.53 0 0 0-.87-.07c-1.2 1.58-2.35 2.28-3.78 2.28h-.14c-1.31-.04-2.6-.96-3.81-2.73a.42.42 0 0 0-.35-.18M64.98 256.04c1.85 0 3.68-1.13 5.01-3.1a.4.4 0 0 0 .03-.42.44.44 0 0 0-.4-.23.42.42 0 0 0-.34.18c-1.22 1.77-2.5 2.69-3.81 2.73h-.15c-1.42 0-2.58-.7-3.77-2.27a.52.52 0 0 0-.87.06.47.47 0 0 0 .03.49c1.44 2.11 3.12 2.56 4.27 2.56" fill="#606060"/>
    <path d="M62.53 312.74c-2.21.28-4.52.33-6.55-.73l-.4-.17c-.25-.1-.48-.15-.7-.15-.35 0-.68.1-1.1.32-2.02 1.06-4.33 1-6.54.73-1.36-.17-2.8-1.34-4.1-1.34-.07 0-.13.03-.2.05-.84.25-1.26 1.94-1.58 2.58a40.46 40.46 0 0 1-4.53 7.04c.49-.6 1.3-1.63 0 .02-4.12 5.15 3.88 9.35 7.92 10.09 2.14.39 4.35.28 6.4-.45 1.12-.4 2.04-.94 2.97-1.66.6-.47.91-.48 1.53 0 .93.72 1.85 1.26 2.97 1.66 2.06.73 4.26.84 6.4.45 4.04-.74 12.05-4.94 7.93-10.09-1.32-1.65-.5-.62-.01-.02a40.46 40.46 0 0 1-4.53-7.04c-.34-.67-.78-2.55-1.74-2.61l-.04-.02c-1.3 0-2.74 1.17-4.1 1.34" fill="#E06426"/>
    <path d="M46.1 315.92l6.39.04c.42 0 .42-.66 0-.66l-6.39.04c-.37 0-.37.58 0 .58M51.7 317.5l-6.38.04c-.37 0-.37.58 0 .58l6.39.04c.42 0 .42-.66 0-.66M50.87 319.64l-6.39.04c-.37 0-.37.57 0 .58l6.39.04c.42 0 .42-.66 0-.66M65.56 319.64l-6.38.04c-.37 0-.37.57 0 .58l6.38.04c.43 0 .43-.66 0-.66M58.4 318.06l6.39.03c.42 0 .42-.65 0-.65l-6.39.04c-.37 0-.37.57 0 .58M63.95 315.3l-6.39.04c-.37 0-.37.58 0 .58l6.39.04c.42 0 .42-.66 0-.66" fill="#FF9008"/>
  </g>
</svg>
