<?xml version="1.0" encoding="UTF-8"?>
<svg width="200px" height="200px" viewBox="0 0 200 200" version="1.1" xmlns="http://www.w3.org/2000/svg" xmlns:xlink="http://www.w3.org/1999/xlink">
    <!-- Generator: Sketch 43.1 (39012) - http://www.bohemiancoding.com/sketch -->
    <title>condom</title>
    <desc>Created with Sketch.</desc>
    <defs></defs>
    <g id="Symbols" stroke="none" stroke-width="1" fill="none" fill-rule="evenodd">
        <g id="condom" fill="#000000" stroke="#000000">
            <g>
                <path d="M195.214935,25.0879723 C200.811081,19.4902439 200.814213,10.3810139 195.218067,4.78328551 C192.509244,2.0736968 188.904788,0.579507413 185.071725,0.579507413 C181.238663,0.579507413 177.631075,2.0736968 174.919121,4.78641798 C174.803252,4.90231946 174.693646,5.01822095 174.584041,5.1372549 C169.911713,3.17319464 164.816621,2.13634625 159.737188,2.13634625 C149.57832,2.13634625 140.02698,6.09265901 132.849383,13.2754185 L16.0725083,130.085318 L15.035953,129.051602 C11.7415236,125.753109 6.00445649,125.756241 2.71315869,129.04847 C-0.684613068,132.447202 -0.681481481,137.979149 2.71315869,141.377881 L58.6652213,197.345768 C60.3093044,198.990316 62.4982836,199.898733 64.8250527,199.898733 C67.1518217,199.898733 69.340801,198.990316 70.9848841,197.345768 C74.3795242,193.950167 74.3795242,188.418221 70.9848841,185.019488 L69.9483288,183.98264 L186.725203,67.1758728 C197.701415,56.1965567 200.861186,39.6351746 194.864198,25.4200143 C194.983198,25.3166428 195.102198,25.2038737 195.214935,25.0879723 Z M67.665402,194.022214 C66.1497139,195.538331 63.503523,195.538331 61.987835,194.022214 L6.03264077,138.054328 C4.46684734,136.488092 4.46684734,133.938259 6.03264077,132.372023 C6.79048479,131.613965 7.79885577,131.197346 8.86985848,131.197346 C9.94399277,131.197346 10.9523637,131.617097 11.7133394,132.375155 L67.6685336,188.343042 C69.2311954,189.909278 69.2311954,192.455978 67.665402,194.022214 Z M189.85679,25.7395265 C196.010358,38.5231468 193.417404,53.8378049 183.405721,63.8523195 L66.6288467,180.659087 L19.3888588,133.408871 L136.165733,16.5989718 C142.457091,10.3058345 150.827823,6.83818747 159.730924,6.83818747 C164.741463,6.83818747 169.764529,7.98467241 174.261488,10.1492109 C175.285516,10.6410091 176.531888,10.3277618 177.195784,9.39115256 C177.515206,8.94320899 177.840891,8.50779531 178.238603,8.10997131 C181.890033,4.46377331 188.250286,4.45750837 191.895453,8.10683883 C195.659621,11.8720708 195.656489,17.999187 191.88919,21.7706839 C191.491478,22.1685079 191.049925,22.494285 190.608371,22.8106648 C189.67829,23.4716165 189.361999,24.7120756 189.85679,25.7395265 Z" id="Shape" stroke-width="3" fill-rule="nonzero"></path>
                <path d="M118.925261,47.2719198 L87.5822026,78.600693 C86.8184371,79.3641739 86.8184371,80.6018988 87.5822026,81.3653797 C87.962782,81.7458173 88.46327,81.9386418 88.9637579,81.9386418 C89.4642459,81.9386418 89.9647338,81.748423 90.3453132,81.3653797 L121.688372,50.0340008 C122.452137,49.2705199 122.452137,48.032795 121.688372,47.2693141 C120.924606,46.5058332 119.689027,46.508439 118.925261,47.2719198 Z" id="Path"></path>
                <path d="M136.366745,29.8343294 L127.772429,38.4228378 C127.008663,39.1863187 127.008663,40.4240436 127.772429,41.1875245 C128.153008,41.5679621 128.653496,41.7607866 129.153984,41.7607866 C129.654472,41.7607866 130.15496,41.5705678 130.535539,41.1875245 L139.129856,32.5990161 C139.893621,31.8355352 139.893621,30.5978103 139.129856,29.8343294 C138.36609,29.0708485 137.130511,29.0708485 136.366745,29.8343294 Z" id="Path"></path>
            </g>
        </g>
    </g>
</svg>