<?xml version="1.0" encoding="UTF-8"?>
<svg width="196px" height="200px" viewBox="0 0 196 200" version="1.1" xmlns="http://www.w3.org/2000/svg" xmlns:xlink="http://www.w3.org/1999/xlink">
    <!-- Generator: Sketch 43.1 (39012) - http://www.bohemiancoding.com/sketch -->
    <title>diu</title>
    <desc>Created with Sketch.</desc>
    <defs>
        <rect id="path-1" x="86.988764" y="29.6703297" width="22.0224719" height="147.252747" rx="8"></rect>
    </defs>
    <g id="Symbols" stroke="none" stroke-width="1" fill="none" fill-rule="evenodd">
        <g id="diu">
            <g>
                <path d="M98.1725659,199.808307 C102.524808,199.808307 106.052997,196.287239 106.052997,191.943782 C106.052997,189.517945 104.952462,187.348633 103.222484,185.905988 C101.85494,184.76558 103.222484,163.995092 101.559715,174.769318 C101.419744,175.676282 94.0688168,175.729208 93.9727476,174.769318 C93.2175436,167.223585 94.154647,185.070958 93.2175436,185.828093 C91.433016,187.269906 90.2921348,189.473879 90.2921348,191.943782 C90.2921348,196.287239 93.820324,199.808307 98.1725659,199.808307 Z" id="Oval" stroke="#000000" stroke-width="2" fill="#FFFFFF"></path>
                <g id="Rectangle-2">
                    <use fill="#FFFFFF" fill-rule="evenodd" xlink:href="#path-1"></use>
                    <rect stroke="#000000" stroke-width="5" x="89.488764" y="32.1703297" width="17.0224719" height="142.252747" rx="8"></rect>
                </g>
                <path d="M95.8968307,52.6523109 C95.8968307,56.3261965 98.9496506,57.3437101 99.2284833,59.8983252 C99.507316,62.4529403 96.1756842,65.1956342 95.8968307,67.9143129 C95.6179773,70.6329916 98.9494533,73.3064139 99.2284833,76.1392821 C99.5075132,78.9721502 96.1754501,82.0773555 95.8968307,84.826712 C95.6182114,87.5760686 98.9500375,90.1132283 99.2284833,92.5773013 C99.506929,95.0413743 96.1758531,96.9924621 95.8968307,99.5682469 C95.6178084,102.144032 98.9496209,105.160463 99.2284833,107.955316 C99.5073457,110.750169 96.1751791,113.729474 95.8968307,116.263719 C95.6184824,118.797963 99.2284833,119.312791 99.2284833,123.121965 C99.2284833,126.931139 95.8968307,127.722544 95.8968307,131.494731 C95.8968307,135.266918 99.2284833,134.250499 99.2284833,138.234581 C99.2284833,142.218663 95.8968307,143.197164 95.8968307,147.421024 C95.8968307,151.644884 98.9456803,151.237047 99.2284833,155.156515" id="Line" stroke="#000000" stroke-width="2" stroke-linecap="square"></path>
                <path d="M94.6966292,29.8937385 C94.6966292,28.2641669 93.6299052,11.5939231 90.4654505,7.09315045 C87.3009958,2.59237779 82.2498939,-0.293745393 74.1671227,0.0238037813 C55.3877686,0.761591384 43.2485882,3.3011852 30.697985,5.05471037 C28.8484102,5.31312631 19.7561914,6.41172754 13.8836207,8.94593634 C9.73187322,10.7375529 0.900080573,15.687437 0.0391313888,19.2180861 C-0.776587916,22.5632528 11.4039736,26.7349322 13.8836207,24.538742 C17.0896569,21.6991987 21.1390501,8.19205155 21.1390501,8.19205155" id="Line" stroke="#000000" stroke-width="5" stroke-linecap="square"></path>
                <path d="M196,29.8937385 C196,28.2641669 194.920872,11.5939231 191.719622,7.09315045 C188.518371,2.59237779 183.408535,-0.293745393 175.231778,0.0238037813 C156.23406,0.761591384 143.953726,3.3011852 131.257185,5.05471037 C129.386104,5.31312631 120.188162,6.41172754 114.247305,8.94593634 C110.047282,10.7375529 101.112794,15.687437 100.241834,19.2180861 C99.4166292,22.5632528 111.738825,26.7349322 114.247305,24.538742 C117.490621,21.6991987 121.5871,8.19205155 121.5871,8.19205155" id="Line" stroke="#000000" stroke-width="5" stroke-linecap="square" transform="translate(148.101124, 14.946869) scale(-1, 1) translate(-148.101124, -14.946869) "></path>
            </g>
        </g>
    </g>
</svg>