<?xml version="1.0" encoding="UTF-8"?>
<svg width="222px" height="288px" viewBox="0 0 222 288" version="1.1" xmlns="http://www.w3.org/2000/svg" xmlns:xlink="http://www.w3.org/1999/xlink">
    <!-- Generator: Sketch 43.1 (39012) - http://www.bohemiancoding.com/sketch -->
    <title>injectable</title>
    <desc>Created with Sketch.</desc>
    <defs></defs>
    <g id="Symbols" stroke="none" stroke-width="1" fill="none" fill-rule="evenodd">
        <g id="injectable" fill-rule="nonzero" fill="#000000">
            <g transform="translate(110.895417, 143.639432) rotate(-162.000000) translate(-110.895417, -143.639432) translate(35.395417, 17.139432)" id="Shape">
                <path d="M14.8762053,224.181592 C18.8366784,216.479008 22.7467503,208.74991 26.7231396,200.946571 C23.9059779,199.474993 21.229409,198.077657 18.3379718,196.568958 C22.8316366,187.726233 27.232457,179.066462 31.6969421,170.284721 C27.2032774,167.967318 22.8528581,165.724156 18.2875706,163.372283 C37.0553853,126.604048 55.6958707,90.0903571 74.4981705,53.2611384 C65.7469308,48.782769 59.6989533,45.681166 50.8973124,41.1762817 C51.7647435,39.3865249 52.5632046,37.7346456 53.5049112,35.7964052 C67.2193426,42.7883886 78.2915239,48.4327721 92.1518535,55.4989973 C99.7836561,40.5604935 107.362405,25.7200948 115.047261,10.6781828 C109.794926,7.97896433 109.179048,7.70191574 103.998336,5.03981814 C104.698647,3.22089489 105.897792,1.72815271 106.550355,0.0311980724 C107.088852,0.0311980724 144.088811,19.2680817 149.123626,21.7233629 C149.123626,22.2616157 147.415163,25.3001775 146.571606,26.731983 C141.78084,24.3244286 140.656375,23.7341276 135.839082,21.3133157 C128.14892,36.3737882 120.604656,51.150551 112.978159,66.0837519 C115.132147,67.2000298 138.905431,79.2451141 150.070623,84.8848368 C150.070623,85.2427881 148.269443,88.7268481 147.226934,90.3283491 C138.669341,85.9745998 132.597489,82.8889058 123.710962,78.3681126 C104.98559,115.03559 86.3106199,151.602311 67.4870985,188.460696 C63.0332242,186.214883 58.6881103,184.024751 54.0220204,181.672878 C49.5707988,190.356513 45.1514095,198.976512 40.5808166,207.893479 C37.7716129,206.5094 35.0923913,205.191609 32.0391397,203.690864 C23.6194869,220.270642 16.0743814,235.138455 7.67595008,251.675808 C5.88272849,251.675808 2.40406376,252.920012 0.613494857,252.920012 C0.613494857,251.843506 10.4223309,232.838712 14.8762053,224.181592 Z M79.8566137,55.9762658 C61.9827571,90.9892127 44.2362298,125.750268 26.3517624,160.781775 C39.2359004,167.354823 51.9370024,173.829766 64.85032,180.418722 C82.7374401,145.389866 100.510494,110.575781 118.360477,75.6185158 C105.465728,69.040165 92.8229853,62.5917374 79.8566137,55.9762658 Z" stroke="#000000" stroke-width="2"></path>
                <path d="M33.2540739,158.642022 C40.021098,145.368655 46.6263077,132.397557 53.2421282,119.431763 C56.0433737,113.940524 58.8207451,108.436028 61.7174876,102.997818 C62.1260026,102.231537 63.1632062,101.298212 63.9165715,101.292909 C75.6414819,101.184198 87.369045,101.218667 99.7226441,101.218667 C87.2629372,125.471861 74.9783083,149.383013 62.5504338,173.575222 C52.7381162,168.569206 43.1433196,163.679856 33.2540739,158.642022 Z"></path>
            </g>
        </g>
    </g>
</svg>