<?xml version="1.0" encoding="UTF-8"?>
<svg width="225px" height="226px" viewBox="0 0 225 226" version="1.1" xmlns="http://www.w3.org/2000/svg" xmlns:xlink="http://www.w3.org/1999/xlink">
    <!-- Generator: Sketch 43.1 (39012) - http://www.bohemiancoding.com/sketch -->
    <title>pills</title>
    <desc>Created with Sketch.</desc>
    <defs>
        <rect id="path-1" x="0" y="4.26325641e-14" width="100.179496" height="215.537704" rx="25"></rect>
    </defs>
    <g id="Symbols" stroke="none" stroke-width="1" fill="none" fill-rule="evenodd">
        <g id="pills">
            <g transform="translate(112.432492, 112.985293) rotate(-315.000000) translate(-112.432492, -112.985293) translate(61.932492, 4.985293)">
                <g id="Rectangle">
                    <use fill="#FFFFFF" fill-rule="evenodd" xlink:href="#path-1"></use>
                    <rect stroke="#000000" stroke-width="7" x="3.5" y="3.5" width="93.1794964" height="208.537704" rx="25"></rect>
                </g>
                <path d="M29.3486216,39.4646501 C27.1180168,39.4646501 25.0001581,38.7486419 23.2227485,37.393972 C21.0717292,35.7630643 19.685615,33.3874197 19.3208482,30.7112285 C18.9560813,28.0350372 19.6546651,25.3743152 21.2928001,23.2240806 C23.2227485,20.6849033 26.1629907,19.226368 29.3574644,19.226368 C31.5836478,19.226368 33.6992958,19.9401663 35.4767053,21.2904164 C39.9158079,24.6715664 40.7801949,31.0316642 37.4066538,35.4691474 C35.4811268,38.0083247 32.5430953,39.4646501 29.3486216,39.4646501 Z" id="Shape" stroke="#000000" stroke-width="5" fill="#FFFFFF" fill-rule="nonzero"></path>
                <path d="M29.3486216,78.9293002 C27.1180168,78.9293002 25.0001581,78.213292 23.2227485,76.8586221 C21.0717292,75.2277144 19.685615,72.8520698 19.3208482,70.1758785 C18.9560813,67.4996873 19.6546651,64.8389653 21.2928001,62.6887307 C23.2227485,60.1495534 26.1629907,58.6910181 29.3574644,58.6910181 C31.5836478,58.6910181 33.6992958,59.4048164 35.4767053,60.7550665 C39.9158079,64.1362165 40.7801949,70.4963143 37.4066538,74.9337975 C35.4811268,77.4729748 32.5430953,78.9293002 29.3486216,78.9293002 Z" id="Shape" stroke="#000000" stroke-width="5" fill="#FFFFFF" fill-rule="nonzero"></path>
                <path d="M29.3486216,118.39395 C27.1180168,118.39395 25.0001581,117.677942 23.2227485,116.323272 C21.0717292,114.692365 19.685615,112.31672 19.3208482,109.640529 C18.9560813,106.964337 19.6546651,104.303615 21.2928001,102.153381 C23.2227485,99.6142035 26.1629907,98.1556682 29.3574644,98.1556682 C31.5836478,98.1556682 33.6992958,98.8694665 35.4767053,100.219717 C39.9158079,103.600867 40.7801949,109.960964 37.4066538,114.398448 C35.4811268,116.937625 32.5430953,118.39395 29.3486216,118.39395 Z" id="Shape" stroke="#000000" stroke-width="5" fill="#FFFFFF" fill-rule="nonzero"></path>
                <path d="M29.3486216,156.846686 C27.1180168,156.846686 25.0001581,156.130678 23.2227485,154.776008 C21.0717292,153.145101 19.685615,150.769456 19.3208482,148.093265 C18.9560813,145.417073 19.6546651,142.756351 21.2928001,140.606117 C23.2227485,138.066939 26.1629907,136.608404 29.3574644,136.608404 C31.5836478,136.608404 33.6992958,137.322203 35.4767053,138.672453 C39.9158079,142.053603 40.7801949,148.4137 37.4066538,152.851184 C35.4811268,155.390361 32.5430953,156.846686 29.3486216,156.846686 Z" id="Shape" stroke="#000000" stroke-width="5" fill="#FFFFFF" fill-rule="nonzero"></path>
                <path d="M29.3486216,196.311336 C27.1180168,196.311336 25.0001581,195.595328 23.2227485,194.240658 C21.0717292,192.609751 19.685615,190.234106 19.3208482,187.557915 C18.9560813,184.881723 19.6546651,182.221002 21.2928001,180.070767 C23.2227485,177.53159 26.1629907,176.073054 29.3574644,176.073054 C31.5836478,176.073054 33.6992958,176.786853 35.4767053,178.137103 C39.9158079,181.518253 40.7801949,187.878351 37.4066538,192.315834 C35.4811268,194.855011 32.5430953,196.311336 29.3486216,196.311336 Z" id="Shape" stroke="#000000" stroke-width="5" fill="#FFFFFF" fill-rule="nonzero"></path>
                <path d="M68.8132717,39.4646501 C66.5826669,39.4646501 64.4648082,38.7486419 62.6873986,37.393972 C60.5363793,35.7630643 59.1502651,33.3874197 58.7854983,30.7112285 C58.4207314,28.0350372 59.1193152,25.3743152 60.7574502,23.2240806 C62.6873986,20.6849033 65.6276408,19.226368 68.8221145,19.226368 C71.0482979,19.226368 73.1639459,19.9401663 74.9413554,21.2904164 C79.380458,24.6715664 80.244845,31.0316642 76.8713039,35.4691474 C74.9457769,38.0083247 72.0077454,39.4646501 68.8132717,39.4646501 Z" id="Shape" stroke="#000000" stroke-width="5" fill="#FFFFFF" fill-rule="nonzero"></path>
                <path d="M68.8132717,78.9293002 C66.5826669,78.9293002 64.4648082,78.213292 62.6873986,76.8586221 C60.5363793,75.2277144 59.1502651,72.8520698 58.7854983,70.1758785 C58.4207314,67.4996873 59.1193152,64.8389653 60.7574502,62.6887307 C62.6873986,60.1495534 65.6276408,58.6910181 68.8221145,58.6910181 C71.0482979,58.6910181 73.1639459,59.4048164 74.9413554,60.7550665 C79.380458,64.1362165 80.244845,70.4963143 76.8713039,74.9337975 C74.9457769,77.4729748 72.0077454,78.9293002 68.8132717,78.9293002 Z" id="Shape" stroke="#000000" stroke-width="5" fill="#FFFFFF" fill-rule="nonzero"></path>
                <path d="M68.8132717,118.39395 C66.5826669,118.39395 64.4648082,117.677942 62.6873986,116.323272 C60.5363793,114.692365 59.1502651,112.31672 58.7854983,109.640529 C58.4207314,106.964337 59.1193152,104.303615 60.7574502,102.153381 C62.6873986,99.6142035 65.6276408,98.1556682 68.8221145,98.1556682 C71.0482979,98.1556682 73.1639459,98.8694665 74.9413554,100.219717 C79.380458,103.600867 80.244845,109.960964 76.8713039,114.398448 C74.9457769,116.937625 72.0077454,118.39395 68.8132717,118.39395 Z" id="Shape" stroke="#000000" stroke-width="5" fill="#FFFFFF" fill-rule="nonzero"></path>
                <path d="M68.8132717,156.846686 C66.5826669,156.846686 64.4648082,156.130678 62.6873986,154.776008 C60.5363793,153.145101 59.1502651,150.769456 58.7854983,148.093265 C58.4207314,145.417073 59.1193152,142.756351 60.7574502,140.606117 C62.6873986,138.066939 65.6276408,136.608404 68.8221145,136.608404 C71.0482979,136.608404 73.1639459,137.322203 74.9413554,138.672453 C79.380458,142.053603 80.244845,148.4137 76.8713039,152.851184 C74.9457769,155.390361 72.0077454,156.846686 68.8132717,156.846686 Z" id="Shape" stroke="#000000" stroke-width="5" fill="#FFFFFF" fill-rule="nonzero"></path>
                <path d="M68.8132717,196.311336 C66.5826669,196.311336 64.4648082,195.595328 62.6873986,194.240658 C60.5363793,192.609751 59.1502651,190.234106 58.7854983,187.557915 C58.4207314,184.881723 59.1193152,182.221002 60.7574502,180.070767 C62.6873986,177.53159 65.6276408,176.073054 68.8221145,176.073054 C71.0482979,176.073054 73.1639459,176.786853 74.9413554,178.137103 C79.380458,181.518253 80.244845,187.878351 76.8713039,192.315834 C74.9457769,194.855011 72.0077454,196.311336 68.8132717,196.311336 Z" id="Shape" stroke="#000000" stroke-width="5" fill="#FFFFFF" fill-rule="nonzero"></path>
            </g>
        </g>
    </g>
</svg>