<?xml version="1.0" encoding="UTF-8"?>
<svg width="200px" height="200px" viewBox="0 0 200 200" version="1.1" xmlns="http://www.w3.org/2000/svg" xmlns:xlink="http://www.w3.org/1999/xlink">
    <!-- Generator: Sketch 43.1 (39012) - http://www.bohemiancoding.com/sketch -->
    <title>sterilization</title>
    <desc>Created with Sketch.</desc>
    <defs></defs>
    <g id="Symbols" stroke="none" stroke-width="1" fill="none" fill-rule="evenodd">
        <g id="sterilization" fill-rule="nonzero" fill="#000000">
            <g transform="translate(100.000000, 100.000000) scale(-1, 1) translate(-100.000000, -100.000000) " id="Shape">
                <path d="M87.4018189,148.382545 C86.4924271,148.806238 85.6183313,149.310931 84.800294,149.884163 C77.0580064,155.309092 74.626733,166.709337 79.1446246,176.402348 C81.6257277,181.729663 85.7968877,185.875206 90.8836682,188.072593 C93.4062961,189.162979 96.0036685,189.707134 98.5512113,189.707134 C101.092525,189.707134 103.586086,189.165056 105.907319,188.082978 C106.814634,187.659285 107.686654,187.152515 108.506767,186.581361 C116.249055,181.158508 118.680328,169.758263 114.162437,160.065252 C109.05697,149.119854 97.0521682,143.877694 87.4018189,148.382545 Z M111.81006,161.159792 C115.80474,169.72711 113.745113,179.742045 107.018106,184.450435 C106.322566,184.936436 105.579273,185.366359 104.811066,185.727744 C100.841301,187.580362 96.2611219,187.563746 91.9134818,185.686206 C87.4101238,183.740126 83.7102696,180.053584 81.4949248,175.301578 C77.5002449,166.73426 79.5598719,156.721402 86.2868796,152.008857 C86.982419,151.522857 87.7236356,151.09501 88.4939195,150.733625 C90.4954119,149.801086 92.6152498,149.3587 94.745469,149.3587 C101.518154,149.3587 108.388422,153.822013 111.81006,161.159792 Z"></path>
                <path d="M176.699588,80.2393203 C167.223262,75.815568 156.069027,78.1971195 150.765128,85.7745988 C150.210565,86.5691267 149.71288,87.4246158 149.294418,88.3207456 C144.890415,97.7697343 150.015553,109.518993 160.722888,114.513749 C163.932447,116.011362 167.332956,116.728673 170.633927,116.728673 C177.083516,116.728673 183.147146,113.989482 186.655317,108.97847 C187.211911,108.18191 187.707565,107.326421 188.126026,106.432323 C190.248805,101.87852 190.244742,96.6561761 188.115869,91.7305097 C185.964652,86.7499783 181.912075,82.6696408 176.699588,80.2393203 Z M185.824488,105.357374 C185.468998,106.117357 185.048506,106.844827 184.577228,107.521497 C179.970088,114.103276 170.1789,116.123125 161.797481,112.211447 C152.359751,107.808015 147.785113,97.5726263 151.597988,89.3956951 C151.953477,88.6336799 152.37397,87.9062094 152.845247,87.2315719 C155.869953,82.9094216 161.131193,80.5563186 166.762141,80.5563186 C169.705592,80.5563186 172.750611,81.2004755 175.629058,82.5436543 C180.274794,84.7098096 183.882501,88.3309058 185.78386,92.7404339 L185.785892,92.7404339 C187.622247,96.9894307 187.636467,101.472112 185.824488,105.357374 Z"></path>
                <path d="M83.171994,82.1699862 C82.4172885,82.926341 82,83.9304671 82,84.9997962 C82,86.0691254 82.4172885,87.0732515 83.171994,87.8296062 C83.95278,88.6104121 84.9764409,89 86.0017319,89 C87.0270228,89 88.0506838,88.6104121 88.8314698,87.8296062 C90.3897816,86.2696246 90.3897816,83.731598 88.8298397,82.1699862 C87.2715278,80.6100046 84.735196,80.6100046 83.171994,82.1699862 Z"></path>
                <path d="M197.503382,87.7266667 C194.346651,80.4133333 188.455272,74.4488889 180.913329,70.9333333 C176.337069,68.7977778 171.327619,67.6688889 166.424801,67.6688889 C156.443667,67.6688889 147.637699,72.0688889 142.266147,79.7422222 C141.377553,81.0088889 140.593369,82.3688889 139.935809,83.78 C138.542938,86.7688889 136.06376,89.0355556 132.95368,90.1688889 C129.876923,91.2888889 126.475829,91.1488889 123.503481,89.7622222 L118.511804,87.4333333 C115.601658,86.0755556 112.946983,84.2688889 110.618866,82.0644444 L108.295192,79.8622222 C107.930869,79.5177778 107.511008,79.2444444 107.044496,79.0466667 L95.9215186,74.3666667 L62.3682029,10.8111111 C58.8449271,4.14444444 51.9760942,0.00222222222 44.4430371,0.00222222222 C42.1104775,0.00222222222 39.9511936,1.16 38.6582891,3.10444444 C37.3720491,5.04444444 37.1410146,7.48444444 38.0429377,9.63333333 L58.6005637,58.6622222 L9.63680371,38.0622222 C8.77486737,37.7 7.87072281,37.5155556 6.9443634,37.5155556 C3.11674403,37.5155556 0.00444297082,40.6311111 0.00444297082,44.4622222 C0.00444297082,51.9977778 4.13862732,58.8688889 10.7964191,62.3933333 L74.2553714,96.0044444 L78.9004973,107.077778 C79.0959881,107.544444 79.3692308,107.964444 79.7157825,108.331111 L81.9172745,110.655556 C84.1232095,112.986667 85.9292772,115.642222 87.2843833,118.548889 L89.6125,123.544444 C91.0053714,126.531111 91.1475464,129.888889 90.0190318,132.997778 C88.8860743,136.106667 86.6201592,138.586667 83.6389257,139.977778 C82.226061,140.633333 80.8665119,141.417778 79.6002653,142.308889 C67.8797082,150.517778 64.176492,166.777778 70.7920756,180.971111 C74.304244,188.513333 80.2667109,194.406667 87.5776194,197.564444 C91.3141578,199.18 95.1795424,200 99.0715849,200 C103.032493,200 106.857891,199.153333 110.436704,197.482222 C111.840683,196.828889 113.198011,196.044444 114.473143,195.151111 C126.191479,186.942222 129.894695,170.682222 123.281333,156.488889 C119.122712,147.564444 111.580769,141.053333 102.730371,138.575556 C102.825895,138.284444 102.923641,138.002222 103.021386,137.733333 C105.418369,131.148889 105.111804,124.031111 102.155007,117.688889 L101.473011,116.231111 C100.879874,114.962222 100.819894,113.54 101.297513,112.224444 L104.154344,104.373333 L112.187235,101.448889 C113.475696,100.98 114.944098,101.042222 116.190351,101.624444 L117.65431,102.306667 C123.938893,105.237778 131.169828,105.544444 137.689887,103.171111 C137.958687,103.073333 138.238594,102.977778 138.529609,102.882222 C141.006565,111.735556 147.517739,119.277778 156.439224,123.437778 C161.015484,125.573333 166.024934,126.702222 170.929973,126.702222 C180.913329,126.702222 189.719297,122.302222 195.086406,114.628889 C195.975,113.357778 196.761406,112 197.418966,110.591111 C200.755637,103.44 200.784516,95.3177778 197.503382,87.7266667 Z M158.785113,118.404444 C149.976923,114.295556 143.970027,106.191111 143.105869,97.2555556 C143.06366,96.82 142.819297,96.4288889 142.443866,96.2022222 C142.223939,96.0688889 141.975133,96 141.724105,96 C141.548607,96 141.37311,96.0333333 141.206499,96.1 C140.133521,96.5333333 138.998342,96.8955556 137.927586,97.2377778 C137.172281,97.48 136.448077,97.7133333 135.788296,97.9511111 C130.603349,99.8422222 124.998541,99.6022222 120.004642,97.2711111 L118.542905,96.5888889 C115.928216,95.3711111 112.998077,95.24 110.290086,96.2266667 L96.2236406,101.348889 L13.395557,57.4822222 C8.56160477,54.9222222 5.56037798,49.9333333 5.56037798,44.46 C5.56037798,43.9866667 5.7869695,43.5644444 6.18017241,43.3022222 C6.57559682,43.04 7.05099469,42.9977778 7.48640584,43.18 L104.663064,84.0666667 L106.804576,86.0955556 C109.568103,88.7111111 112.71817,90.8555556 116.168137,92.4644444 L121.159814,94.7933333 C125.493932,96.8155556 130.358985,97.0244444 134.857493,95.3844444 C139.358223,93.7466667 142.952586,90.4577778 144.971916,86.1244444 C145.496187,85.0022222 146.118203,83.9266667 146.815749,82.9266667 C153.473541,73.4177778 166.82689,70.4866667 178.571883,75.9644444 C184.87868,78.9066667 189.792606,83.8644444 192.409516,89.9244444 C195.050862,96.04 195.046419,102.544444 192.389523,108.242222 C191.869695,109.357778 191.245458,110.435556 190.543468,111.44 C183.881233,120.953333 170.532328,123.884444 158.785113,118.404444 Z M96.0814655,110.324444 C95.095126,113.035556 95.2217507,115.966667 96.4413462,118.58 L97.1255637,120.042222 C99.4514589,125.035556 99.6913793,130.644444 97.8053382,135.833333 C97.5654178,136.491111 97.3321618,137.217778 97.0900199,137.973333 C96.7479111,139.042222 96.3880305,140.175556 95.9548408,141.246667 C95.7904509,141.653333 95.8259947,142.113333 96.0548077,142.486667 C96.2813992,142.86 96.6701592,143.106667 97.1077918,143.148889 C106.042606,144.013333 114.144363,150.024444 118.25189,158.835556 C123.72563,170.582222 120.797712,183.94 111.291976,190.6 C110.283422,191.304444 109.208223,191.926667 108.09748,192.446667 C102.39937,195.1 95.8970822,195.111111 89.7857759,192.466667 C83.7233422,189.848889 78.7694297,184.931111 75.8304045,178.624444 C70.354443,166.877778 73.2823607,153.52 82.7903183,146.86 C83.7944297,146.155556 84.8718501,145.535556 85.9848143,145.013333 C90.3167109,142.993333 93.6045093,139.402222 95.241744,134.897778 C96.8812003,130.393333 96.6723806,125.526667 94.6508289,121.195556 L92.3227122,116.2 C90.7143568,112.751111 88.5728448,109.6 85.955935,106.835556 L83.9299403,104.693333 L80.3089191,96.06 L95.4727785,104.091111 C95.8171088,104.275556 96.2258621,104.3 96.5968501,104.168889 L98.5873011,103.444444 L96.0814655,110.324444 Z M43.2856432,6.18 C43.5477785,5.78666667 43.9720822,5.56 44.4430371,5.56 C49.9145557,5.56 54.9017905,8.56666667 57.4564987,13.4088889 L89.8946286,74.8466667 L67.4487401,65.4 L43.1634615,7.48666667 C42.9812997,7.04888889 43.0257294,6.57333333 43.2856432,6.18 Z"></path>
            </g>
        </g>
    </g>
</svg>