<?xml version="1.0" encoding="UTF-8"?>
<svg width="183px" height="199px" viewBox="0 0 183 199" version="1.1" xmlns="http://www.w3.org/2000/svg" xmlns:xlink="http://www.w3.org/1999/xlink">
    <!-- Generator: Sketch 43.1 (39012) - http://www.bohemiancoding.com/sketch -->
    <title>tradiccional</title>
    <desc>Created with Sketch.</desc>
    <defs></defs>
    <g id="Symbols" stroke="none" stroke-width="1" fill="none" fill-rule="evenodd">
        <g id="tradiccional">
            <g>
                <path d="M165.037691,15.0587809 L165.037691,7.47064934 C165.037691,3.63163641 161.939568,0.506489525 158.133752,0.506489525 L152.422406,0.506489525 C148.61659,0.506489525 145.518466,3.63163641 145.518466,7.47064934 L145.518466,14.9080759 L101.038643,14.9080759 L101.038643,7.47064934 C101.038643,3.63163641 97.9405192,0.506489525 94.1347028,0.506489525 L88.4259783,0.506489525 C84.6201619,0.506489525 81.5220386,3.63163641 81.5220386,7.47064934 L81.5220386,14.9080759 L37.0395937,14.9080759 L37.0395937,7.47064934 C37.0395937,3.63163641 33.9414704,0.506489525 30.135654,0.506489525 L24.4269294,0.506489525 C20.621113,0.506489525 17.5229897,3.63163641 17.5229897,7.47064934 L17.5229897,15.1909784 C7.93243727,16.7641276 0.734936012,25.076701 0.734936012,35.1475001 L0.734936012,178.267065 C0.734936012,189.427171 9.73574421,198.50649 20.7993468,198.50649 L162.681335,198.50649 C173.744938,198.50649 182.745746,189.424527 182.745746,178.267065 L182.745746,35.1475001 C182.748367,24.7911546 174.995196,16.2406258 165.037691,15.0587809 Z M150.763259,7.47064934 C150.763259,6.54526743 151.507647,5.79438612 152.425027,5.79438612 L158.136373,5.79438612 C159.053753,5.79438612 159.798141,6.54526743 159.798141,7.47064934 L159.798141,27.6281111 C159.798141,28.5534931 159.053753,29.3043744 158.136373,29.3043744 L152.425027,29.3043744 C151.507647,29.3043744 150.763259,28.5534931 150.763259,27.6281111 L150.763259,7.47064934 Z M86.7642099,7.47064934 C86.7642099,6.54526743 87.5085983,5.79438612 88.4259783,5.79438612 L94.1347028,5.79438612 C95.0520828,5.79438612 95.7964712,6.54526743 95.7964712,7.47064934 L95.7964712,27.6281111 C95.7964712,28.5534931 95.0520828,29.3043744 94.1347028,29.3043744 L88.4259783,29.3043744 C87.5085983,29.3043744 86.7642099,28.5534931 86.7642099,27.6281111 L86.7642099,7.47064934 Z M22.7677822,7.47064934 C22.7677822,6.54526743 23.5121705,5.79438612 24.4295505,5.79438612 L30.1382751,5.79438612 C31.0556551,5.79438612 31.8000434,6.54526743 31.8000434,7.47064934 L31.8000434,27.6281111 C31.8000434,28.5534931 31.0556551,29.3043744 30.1382751,29.3043744 L24.4295505,29.3043744 C23.5121705,29.3043744 22.7677822,28.5534931 22.7677822,27.6281111 L22.7677822,7.47064934 Z M17.5256108,20.5740571 L17.5256108,27.6281111 C17.5256108,31.4671241 20.6237341,34.592271 24.4295505,34.592271 L30.1382751,34.592271 C33.9440915,34.592271 37.0422147,31.4671241 37.0422147,27.6281111 L37.0422147,20.1933285 L81.5246597,20.1933285 L81.5246597,27.6281111 C81.5246597,31.4671241 84.6227829,34.592271 88.4285993,34.592271 L94.1373239,34.592271 C97.9431403,34.592271 101.041264,31.4671241 101.041264,27.6281111 L101.041264,20.1933285 L145.523709,20.1933285 L145.523709,27.6281111 C145.523709,31.4671241 148.621832,34.592271 152.427648,34.592271 L158.138994,34.592271 C161.94481,34.592271 165.042934,31.4671241 165.042934,27.6281111 L165.042934,20.4022005 C172.098896,21.5470301 177.511438,27.7127175 177.511438,35.1475001 L177.511438,60.875761 L5.97710736,60.875761 L5.97710736,35.1475001 C5.97710736,28.0088397 10.8706743,22.0731758 17.5256108,20.5740571 Z M162.681335,193.218593 L20.8019679,193.218593 C12.6294228,193.218593 5.97972844,186.510896 5.97972844,178.267065 L5.97972844,66.1636576 L177.506196,66.1636576 L177.506196,178.264421 C177.506196,186.510896 170.856502,193.218593 162.681335,193.218593 Z" id="Shape" stroke="#000000" fill="#000000" fill-rule="nonzero"></path>
                <path d="M20.8995782,178.919366 L163.49297,178.919366 L163.49297,82.7791518 L20.8995782,82.7791518 L20.8995782,178.919366 Z M26.1679367,148.644047 L55.2308365,148.644047 L55.2308365,173.60511 L26.1679367,173.60511 L26.1679367,148.644047 Z M123.893353,143.32979 L94.8304532,143.32979 L94.8304532,118.368728 L123.893353,118.368728 L123.893353,143.32979 Z M129.161711,118.371385 L158.224611,118.371385 L158.224611,143.332448 L129.161711,143.332448 L129.161711,118.371385 Z M94.8304532,148.644047 L123.893353,148.644047 L123.893353,173.60511 L94.8304532,173.60511 L94.8304532,148.644047 Z M89.5620947,173.60511 L60.499195,173.60511 L60.499195,148.644047 L89.5620947,148.644047 L89.5620947,173.60511 Z M94.8304532,113.057128 L94.8304532,88.0934083 L123.893353,88.0934083 L123.893353,113.057128 L94.8304532,113.057128 Z M89.5620947,113.057128 L60.499195,113.057128 L60.499195,88.0934083 L89.5620947,88.0934083 L89.5620947,113.057128 Z M89.5620947,118.371385 L89.5620947,143.332448 L60.499195,143.332448 L60.499195,118.371385 L89.5620947,118.371385 L89.5620947,118.371385 Z M55.2308365,143.32979 L26.1679367,143.32979 L26.1679367,118.368728 L55.2308365,118.368728 L55.2308365,143.32979 Z M129.161711,173.60511 L129.161711,148.644047 L158.224611,148.644047 L158.224611,173.60511 L129.161711,173.60511 Z M158.224611,113.057128 L129.161711,113.057128 L129.161711,88.0934083 L158.224611,88.0934083 L158.224611,113.057128 Z M55.2308365,88.0934083 L55.2308365,113.057128 L26.1679367,113.057128 L26.1679367,88.0934083 L55.2308365,88.0934083 L55.2308365,88.0934083 Z" id="Shape" fill="#000000" fill-rule="nonzero"></path>
                <g id="Group-2" transform="translate(32.643243, 93.000000)" stroke="#000000" stroke-width="4" stroke-linecap="square">
                    <path d="M0,15.4942981 L15.3656676,0" id="Line"></path>
                    <path d="M15.1808848,15.7443706 L0,0" id="Line"></path>
                </g>
                <g id="Group-2" transform="translate(67.264865, 93.000000)" stroke="#000000" stroke-width="4" stroke-linecap="square">
                    <path d="M0,15.4942981 L15.3656676,0" id="Line"></path>
                    <path d="M15.1808848,15.7443706 L0,0" id="Line"></path>
                </g>
                <g id="Group-2" transform="translate(101.886486, 93.000000)" stroke="#000000" stroke-width="4" stroke-linecap="square">
                    <path d="M0,15.4942981 L15.3656676,0" id="Line"></path>
                    <path d="M15.1808848,15.7443706 L0,0" id="Line"></path>
                </g>
                <g id="Group-2" transform="translate(135.518919, 93.000000)" stroke="#000000" stroke-width="4" stroke-linecap="square">
                    <path d="M0,15.4942981 L15.3656676,0" id="Line"></path>
                    <path d="M15.1808848,15.7443706 L0,0" id="Line"></path>
                </g>
                <g id="Group-2" transform="translate(32.643243, 123.000000)" stroke="#000000" stroke-width="4" stroke-linecap="square">
                    <path d="M0,15.4942981 L15.3656676,0" id="Line"></path>
                    <path d="M15.1808848,15.7443706 L0,0" id="Line"></path>
                </g>
            </g>
        </g>
    </g>
</svg>